<svg xmlns="http://www.w3.org/2000/svg" xmlns:xlink="http://www.w3.org/1999/xlink" width="709.938" height="386.181"><defs><linearGradient x1="0" y1="0" x2="1" y2="0" gradientUnits="userSpaceOnUse" gradientTransform="matrix(159.43945 0 0 -159.43945 432.575 462.124)" spreadMethod="pad" id="b" xlink:href="#a"><stop offset="0" stop-color="#b41d23"/><stop offset=".537" stop-color="#ed1c24"/><stop offset="1" stop-color="#ed1c24"/></linearGradient><linearGradient x1="0" y1="0" x2="1" y2="0" gradientUnits="userSpaceOnUse" gradientTransform="matrix(283.12598 0 0 -283.12598 370.395 249.49)" spreadMethod="pad" id="a"><stop offset="0" stop-color="#b41d23"/><stop offset=".537" stop-color="#ed1c24"/><stop offset="1" stop-color="#ed1c24"/></linearGradient><linearGradient xlink:href="#a" id="c" gradientUnits="userSpaceOnUse" gradientTransform="matrix(283.12598 0 0 -283.12598 370.395 249.49)" spreadMethod="pad" x1="0" y1="0" x2="1" y2="0"/></defs><path d="M58.125 177.255L19.031 281.193C11.6 300.913 8.823 302.988 0 305.067v.875c3.635-.178 5.867-.344 11.75-.344 6.399 0 12.286.166 16.094.344v-.875c-5.88-.694-7.938-3.617-7.938-7.594 0-3.29 1.379-7.458 2.938-11.781l5.343-14.532c6.57-.176 12.99-.156 19.563-.156 9.344 0 18.657-.02 28 .156l5.906 18.875c1.038 3.456 2.063 6.58 2.063 9 0 3.29-1.89 5.685-7.594 6.031v.875c3.8-.177 8.976-.343 15.375-.343 5.883 0 11.432.166 15.063.344v-.875c-6.574-.87-6.918-2.077-10.376-12.97L59.844 177.256h-1.719zm-4.156 24.031l15.218 49.125H52.25c-5.537 0-10.919.014-16.281-.156l18-48.969zm441.375 8.875l-29.094 77.375c-5.534 14.68-7.588 16.233-14.156 17.781v.625c2.706-.13 4.37-.25 8.75-.25 4.765 0 9.135.12 11.969.25v-.625c-4.377-.517-5.907-2.723-5.907-5.687 0-2.447 1.03-5.53 2.188-8.75l7.719-20.844c4.51-.13 9.02-.156 13.656-.156h14.781l7.625 24.219c.772 2.571 1.531 4.886 1.531 6.687 0 2.449-1.408 4.273-5.656 4.531v.625c2.833-.13 6.674-.25 11.438-.25 4.378 0 8.515.12 11.218.25v-.625c-4.893-.646-5.145-1.548-7.718-9.656l-27.063-85.5h-1.281zm178.562 0l-29.093 77.375c-5.535 14.68-7.618 16.233-14.188 17.781v.625c2.706-.13 4.402-.25 8.781-.25 4.762 0 9.137.12 11.969.25v-.625c-4.378-.517-5.938-2.723-5.938-5.687 0-2.447 1.032-5.53 2.188-8.75l7.75-20.844c4.506-.13 8.991-.156 13.625-.156h14.813l7.593 24.219c.772 2.571 1.563 4.886 1.563 6.687 0 2.449-1.44 4.273-5.688 4.531v.625c2.832-.13 6.704-.25 11.469-.25 4.376 0 8.485.12 11.188.25v-.625c-4.894-.646-5.145-1.548-7.72-9.656l-27.03-85.5h-1.282zm-444.625 1.281c-32.576 0-48.937 24.34-48.937 48.032 0 24.077 17.381 47.5 50.344 47.5 9.785 0 20.472-2.453 32.187-8.25 0-4.633.138-9.149.781-13.781H263c-3.862 13.13-17.761 18.937-30.25 18.937-19.056 0-40.688-12.877-40.688-43.906 0-31.801 17.507-45.688 37.72-45.688 17.254 0 30.9 6.946 32.187 20.594h.656c0-.9-.125-2.719-.125-4.906 0-3.863.119-8.868.375-12.219-8.624-2.442-20.331-6.313-33.594-6.313zm97.563 0c-29.228 0-47.125 24.073-47.125 48.407 0 23.691 17.507 47.125 46.094 47.125 26.778 0 46.875-21.235 46.875-47.5 0-27.554-20.61-48.031-45.844-48.031zm260.906 0c-32.575 0-48.906 24.34-48.906 48.032 0 23.819 17 46.989 49.187 47.5L583 317.786h.25c1.548-1.416 3.22-2.312 5.406-2.312 3.352 0 5.657 2.847 5.657 6.062 0 4.251-3.21 6.438-6.688 6.438-2.571 0-5.395-1.175-6.813-3.625h-.375c1.03 4.379 4.888 6.437 8.875 6.437 5.022 0 10.157-3.322 10.157-9.375 0-5.407-3.99-8.906-8.625-8.906-1.029 0-2.06.144-3.219.531l2.188-6.062c9.658-.125 20.105-2.583 31.562-8.25 0-4.633.138-9.118.781-13.75h-.656c-3.864 13.131-17.76 18.906-30.25 18.906-19.056 0-40.688-12.877-40.688-43.906 0-31.801 17.502-45.688 37.72-45.688 17.248 0 30.902 6.946 32.187 20.594h.656c0-.9-.125-2.719-.125-4.906 0-3.863.119-8.868.375-12.219-8.625-2.442-20.365-6.313-33.625-6.313zm-467.875.625v.657c4.765.774 6.438 1.419 6.438 11.719v69.156c0 8.754-1.163 10.656-7.344 11.687v.656c2.706-.132 16.09-.25 25.875-.25 11.975 0 14.559-.01 26.531.375 0-5.663.621-6.186.75-17h-.625c-1.93 12.745-4.633 12.75-24.719 12.75-6.051 0-9.554-.235-10.969-.75v-76.625c0-10.3 1.673-10.945 6.438-11.718v-.656c-2.704.13-6.81.28-11.188.28-4.763 0-8.352-.15-11.187-.28zm268.375 0v.657c4.894.774 7.094 1.417 7.094 11.719v69.156c0 10.3-2.579 10.916-7.344 11.687v.656c2.83-.132 7.332-.25 12.094-.25 6.952 0 12.509.375 19.719.375 17.383 0 26.5-11.46 26.5-25.75 0-12.232-8.104-24.593-24.844-26.78 12.874-3.35 17.781-11.46 17.781-20.345 0-10.56-7.6-21.125-25.5-21.125-4.633 0-8.102.282-15.188.282-3.473 0-7.477-.153-10.312-.281zm-62.438 2.22c17.382 0 35.032 13.362 35.032 45.937 0 29.741-15.593 43.781-35.031 43.781-18.802 0-34.125-13.5-34.125-44.531 0-32.189 16.997-45.188 34.125-45.188zm85.75.5c9.787 0 18.032 6.824 18.032 19.187 0 15.194-10.813 19.687-24.719 19.687v-37.844c2.319-.773 4.499-1.03 6.688-1.03zm80.688 13.25l11.844 38.124h-13.625c-4.121 0-8.13.006-12.25-.125l14.031-38zm178.563 0l11.843 38.124H669c-4.119 0-8.098.006-12.219-.125l14.032-38zM52.25 255.441h18.5l3.281 10.375c-8.825.178-17.459.188-26.281.188-5.88 0-11.774-.01-17.656-.188l3.812-10.218c6.229-.175 12.118-.156 18.344-.156zm352.625 1.313h3.219c20.342 0 27.812 9.416 27.812 23.188 0 16.483-8.501 22.656-21.25 22.656-3.09 0-6.304-.389-9.781-1.031v-44.813z" fill="#231f20"/><path d="M540.723 536.334c-8.951-1.718-19.007-6.416-28.318-13.23-9.257 6.784-19.333 11.462-28.359 13.163a41.898 41.898 0 0 1-11.152 1.487c-20.498 0-37.83-16.065-37.83-35.089 0-2.601.246-4.988.71-6.78-1.639-3.329-2.717-7.259-2.98-10.759-.107-.49-7.864-50.057 79.411-98.521v-.005l.104-.057.096-.049.095.049c87.239 48.399 79.388 98.032 79.295 98.501-.287 3.628-1.398 7.573-2.938 10.438a38.74 38.74 0 0 1 .65 7.183c0 19.024-17.328 35.089-37.83 35.089-3.777 0-7.574-.495-10.954-1.42m-24.676-16.317c8.478 6.102 17.672 10.326 25.901 11.914 3.108.849 6.385 1.274 9.729 1.274 17.495 0 32.837-14.267 32.837-30.54 0-.2-.005-.4-.009-.601-3.644 3.738-8.267 5.639-13.763 5.639a85.44 85.44 0 0 1-4.967-.143c-5.47 7.477-13.731 11.602-23.288 11.602-7.316 0-14.296-2.405-19.668-6.775l-6.772 7.63zm-75.991-17.352c0 16.273 15.342 30.54 32.838 30.54 3.382 0 6.626-.436 9.927-1.33 8.122-1.538 17.234-5.754 25.697-11.853l-6.756-7.635c-5.383 4.37-12.367 6.775-19.694 6.775-9.542 0-17.806-4.125-23.273-11.602-1.554.089-3.18.143-4.965.143-5.502 0-10.126-1.901-13.771-5.639l-.003.601M506.619 444c-1.168 10.968-3.186 20.676-5.99 28.821 6.586 5.319 10.533 13.046 10.533 20.708 0 5.653-2.061 11.019-5.971 15.534l7.214 7.94 6.97-7.935c-3.905-4.508-5.957-9.879-5.957-15.539 0-7.795 3.825-15.332 10.522-20.711-2.771-8.045-4.776-17.614-5.947-28.438-2.448-.69-4.502-1.031-6.502-1.031-1.6-.001-3.166.218-4.872.651m19.443 64.933c4.482 3.672 10.316 5.685 16.425 5.685 8.788 0 14.356-4.114 17.526-7.68-8.21-1.334-15.057-4.497-20.911-9.653a40.612 40.612 0 0 1-2.812-2.751c-2.7 5.036-6.142 9.882-10.228 14.399m-40.61-11.648c-5.842 5.156-12.68 8.319-20.895 9.653 3.174 3.566 8.733 7.68 17.511 7.68 6.128 0 11.964-2.013 16.442-5.685-4.093-4.529-7.537-9.372-10.235-14.392a40.656 40.656 0 0 1-2.823 2.744m32.96-3.756c0 4.314 1.474 8.449 4.26 11.984 4.228-4.772 7.662-9.844 10.196-15.086-2.683-3.635-5.068-7.945-7.093-12.802-4.686 4.412-7.363 10.198-7.363 15.904m-26.663-3.102c2.499 5.215 5.903 10.284 10.143 15.073 2.79-3.512 4.268-7.649 4.268-11.971 0-5.706-2.676-11.492-7.36-15.901-2.049 4.938-4.432 9.246-7.051 12.799m80.726-10.813c.055.651.552 6.633-.92 14.299-.639 3.331-1.673 6.422-3.078 9.217a83.04 83.04 0 0 0 2.265.023c5.73 0 10.106-2.657 12.998-7.754-1.253-5.56-4.086-10.313-8.422-14.127a32.09 32.09 0 0 0-2.874-2.219l.031.561zm-123.219 1.658c-4.19 3.675-7.106 8.423-8.473 13.592 2.931 5.499 7.319 8.289 13.047 8.289a82.8 82.8 0 0 0 2.265-.023c-1.424-2.828-2.45-5.92-3.08-9.217-1.52-7.921-.928-14.172-.926-14.172.013-.227.017-.458.037-.695a35.356 35.356 0 0 0-2.87 2.226m93.386-6.703c-.519 5.059-1.894 10.199-4.09 15.278a38.612 38.612 0 0 0 4.051 4.182c5.553 4.9 12.248 7.754 20.441 8.731 1.714-2.924 2.953-6.249 3.597-9.622 1.39-7.296.849-13.192.841-13.27-.031-1.243-.205-2.57-.505-3.932-11.197-5.257-23.958-5.36-24.094-5.36h-.012a40.479 40.479 0 0 1-.229 3.993m-85.046 1.357a22.251 22.251 0 0 0-.529 4.103c-.045.625-.443 6.324.86 13.109a31.094 31.094 0 0 0 3.603 9.622c8.197-.977 14.884-3.831 20.446-8.731a39.594 39.594 0 0 0 4.025-4.16c-2.832-6.461-4.359-13.128-4.441-19.293-1.315.019-13.269.334-23.964 5.35m63.202-60.447c.418.317 43.339 31.951 50.312 57.305 2.832 1.488 5.412 3.243 7.655 5.202 3.241 2.832 5.79 6.129 7.563 9.822a29.77 29.77 0 0 0 .524-3.468c.085-.452 7.541-45.322-74.447-91.361-81.51 45.779-74.962 89.777-74.641 91.683 0 .016.096 1.259.496 3.114 1.792-3.669 4.329-6.965 7.54-9.79 2.342-2.047 4.899-3.738 7.395-4.901 7.383-25.666 48.821-56.311 50.577-57.606l4.048-2.996.032 4.762c.031 7.893-.248 15.6-.791 22.319 3.768-.673 7.366-.681 10.465-.013-.572-6.961-.841-14.474-.81-22.315l.016-4.753 4.066 2.996zm9.004 59.018c1.54 3.947 3.335 7.529 5.319 10.642 1.317-3.677 2.178-7.367 2.558-10.994.105-.973.165-1.955.192-3.003-2.797.618-5.579 1.776-8.069 3.355m-40.275 10.546c1.958-3.098 3.718-6.646 5.244-10.546-2.467-1.566-5.239-2.729-8.041-3.355.138 4.461 1.075 9.138 2.797 13.901m75.538-14.93c-8.113-18.854-34.753-41.114-43.317-47.938.073 6.491.358 12.378.92 18.474 3.953 1.468 7.059 3.524 8.227 4.307l.415.273c6.33 4.74 10.344 12.128 11.32 20.798l.563-.011c.447 0 10.949.047 21.872 4.097m-105.544-.009c8.314-3.07 16.62-3.911 22.17-4.077l.093.006c.946-8.693 4.914-15.875 11.471-20.799.028-.028 3.517-2.669 8.692-4.585.506-5.728.81-11.95.89-18.474-8.551 6.796-35.152 28.988-43.316 47.929m68.652-.157a30.093 30.093 0 0 1 9.493-3.445c-.831-7.461-4.159-13.732-9.384-17.662-.013-.016-2.043-1.264-5.067-2.57 1.07 8.856 2.741 16.82 4.958 23.677m-31.722-21.231c-5.484 4.126-8.782 10.266-9.557 17.78a30.106 30.106 0 0 1 9.497 3.451c2.259-6.876 3.932-14.973 5.015-24.067a34.573 34.573 0 0 0-4.955 2.836" fill="url(#b)" transform="matrix(1.25 0 0 -1.25 -285.219 672.192)"/><path d="M586.669 270.169l-15.283-22.842c-1.795-2.689-3.171-4.457-4.121-5.285-.963-.832-2.166-1.317-3.618-1.431l-.306-1.018h10.52l.312 1.018-.725.022c-2.12.062-3.173.814-3.173 2.263 0 .413.09.805.284 1.198.199.379.742 1.267 1.641 2.655l2.781 4.217h8.559l-.215-4.858c-.076-1.627-.154-2.732-.268-3.314-.104-.587-.43-1.09-.989-1.507-.543-.415-1.607-.647-3.177-.676l-.309-1.018h11.795l.296 1.018c-1.285.043-2.213.228-2.788.556-.573.322-.864.972-.864 1.951l.139 2.703 1.039 24.348h-1.53zm-2.493-5.361l-.587-12.831h-7.976l8.563 12.831zm-143.17 5.251c-1.151-.49-2.952-.756-5.393-.798l-.287-.929h.867c.801 0 1.292-.075 1.491-.233.203-.138.305-.383.305-.742 0-.245-.223-1.077-.667-2.528l-5.191-17.1c-.958-3.146-1.441-5.126-1.441-5.916 0-.818.24-1.492.738-2.034.485-.537 1.137-.806 1.952-.806 2.361 0 4.304 1.98 5.808 5.938h-.97c-.696-1.685-1.421-2.873-2.175-3.569-.758-.696-1.386-1.038-1.894-1.038-.338 0-.591.109-.764.329-.169.223-.259.562-.259.996 0 .667.215 1.642.649 2.93.317.974.539 1.641.639 2.012l7.152 23.488h-.56zm-54.839-.334a158.269 158.269 0 0 0-4.587-.084h-2.173l-.31-1.026h1.153c1.904 0 2.856-.519 2.856-1.574 0-.383-.225-1.313-.667-2.791l-5.812-19.114c-.442-1.477-.782-2.442-1.016-2.872-.239-.433-.669-.817-1.298-1.15-.627-.333-1.411-.503-2.321-.503h-1.288l-.31-1.018h12.08c2.717 0 4.793.086 6.243.237 1.445.169 3.018.634 4.738 1.39 1.715.763 3.307 1.928 4.805 3.503 1.498 1.575 2.667 3.453 3.516 5.642.849 2.182 1.277 4.329 1.277 6.447 0 2.347-.497 4.563-1.473 6.653-.983 2.09-2.478 3.677-4.481 4.753-2.001 1.081-4.436 1.617-7.32 1.617-.694 0-1.894-.034-3.612-.11m-6.149-27.05c0 .353.205 1.217.62 2.589l7.155 23.532c.67.072 1.245.11 1.731.11 3.173 0 5.526-1 7.078-2.993 1.554-1.992 2.322-4.573 2.322-7.728 0-4.256-1.238-8.261-3.729-12.01-2.493-3.757-6.038-5.631-10.633-5.631-3.03 0-4.544.709-4.544 2.131m37.298 25.657l-8.307-8.666h.844l6.979 5.407 2.567-5.407h.439l-.324 8.666h-2.198zm55.68-11.148c-.431.405-.9.696-1.43.891a5.077 5.077 0 0 1-1.696.286c-1.934 0-3.671-.843-5.207-2.541-1.535-1.692-2.303-3.608-2.303-5.774 0-1.178.241-2.19.717-3.037.482-.851 1.201-1.539 2.165-2.076-1.715-.325-3.044-.907-3.988-1.742-.948-.836-1.424-1.715-1.424-2.647 0-.667.284-1.287.843-1.845.55-.576 1.963-1.136 4.238-1.663 2.615-.612 4.308-1.153 5.093-1.64.782-.492 1.168-1.133 1.168-1.911 0-.993-.549-1.861-1.665-2.599-1.116-.74-2.75-1.107-4.914-1.107-1.999 0-3.492.367-4.472 1.107-.967.738-1.464 1.591-1.464 2.549 0 .615.311 1.257.91 1.904.356.367.531.654.531.865 0 .385-.261.571-.778.571-.512 0-1.136-.33-1.857-.984-.722-.655-1.087-1.461-1.087-2.424 0-1.299.747-2.385 2.239-3.257 1.492-.871 3.572-1.301 6.25-1.301 2.834 0 5.023.565 6.56 1.701 1.535 1.139 2.302 2.465 2.302 3.976 0 .976-.317 1.82-.941 2.536-.623.714-1.593 1.259-2.892 1.636-1.305.367-2.982.777-5.029 1.235-1.189.251-1.961.52-2.332.781-.362.267-.547.604-.547 1.017 0 1.301 1.6 2.162 4.808 2.58 2.152.279 3.989 1.156 5.493 2.634 1.495 1.48 2.238 3.49 2.238 6.049 0 1.346-.295 2.504-.888 3.478.267.369.523.558.781.558.236 0 .466-.165.703-.49.371-.503.745-.754 1.134-.754.688 0 1.011.357 1.011 1.066 0 .448-.172.836-.504 1.136-.337.306-.774.456-1.306.456-.659 0-1.476-.405-2.46-1.22m-7.52-11.122c-.468.506-.704 1.172-.704 1.991 0 1.968.554 4.021 1.655 6.181 1.099 2.144 2.296 3.218 3.598 3.218.724 0 1.269-.258 1.633-.765.356-.508.54-1.276.54-2.296 0-1.234-.307-2.737-.918-4.498-.618-1.751-1.243-2.958-1.881-3.612-.648-.651-1.372-.976-2.189-.976-.692 0-1.264.254-1.734.757m183.88 10.658c-.828-1.096-1.79-2.87-2.871-5.34-.391-.916-.64-1.448-.725-1.598.676 2.383 1.017 4.217 1.017 5.499 0 1.037-.152 1.806-.464 2.317-.313.507-.785.763-1.42.763-.911 0-1.839-.59-2.781-1.749-.936-1.167-1.715-2.578-2.33-4.232h.971c.312.874.832 1.828 1.562 2.879.739 1.05 1.342 1.574 1.837 1.574.218 0 .383-.101.497-.317.106-.198.173-.519.173-.95 0-.797-.337-2.312-1.015-4.566l-3.572-11.743h2.635l.496 1.599c.971 3.13 2.216 6.471 3.748 10.026 1.527 3.554 2.664 5.331 3.403 5.331l.481-.287c.414-.492.822-.733 1.216-.733.354 0 .66.14.918.42.254.283.389.645.389 1.081 0 .46-.159.853-.463 1.173-.308.33-.722.494-1.237.494-.823 0-1.647-.549-2.465-1.641m-122.454-.667c-1.874-1.528-3.403-3.445-4.57-5.745-1.172-2.305-1.754-4.453-1.754-6.458 0-1.495.374-2.681 1.114-3.564.744-.878 1.643-1.313 2.677-1.313 1.106 0 2.283.56 3.546 1.673 1.264 1.113 2.233 2.242 2.895 3.38-.301-.979-.451-1.762-.451-2.372 0-.752.188-1.389.553-1.906.372-.516.903-.775 1.6-.775.895 0 1.877.54 2.947 1.629a11.727 11.727 0 0 1 2.468 3.621h-.928c-1.334-2.334-2.507-3.503-3.526-3.503-.265 0-.465.08-.598.233-.136.161-.198.385-.198.676 0 .409.295 1.548.907 3.421l4.158 12.978h-2.689l-.561-1.886c-.152.74-.448 1.296-.912 1.662-.46.368-1.081.557-1.857.557-1.331 0-2.948-.769-4.821-2.308m-3.2-15.074c-.287.497-.435 1.223-.435 2.207 0 2.241.971 5.139 2.923 8.704 1.965 3.555 3.857 5.341 5.675 5.341.594 0 1.061-.221 1.379-.66.323-.442.488-.97.488-1.599 0-1.077-.517-3.082-1.529-6.027-1.018-2.952-2.217-5.133-3.598-6.565-1.382-1.427-2.56-2.145-3.558-2.145-.59 0-1.041.249-1.345.744m-18.186 15.741c-.824-1.096-1.783-2.87-2.867-5.34-.396-.916-.638-1.448-.728-1.598.676 2.383 1.018 4.217 1.018 5.499 0 1.037-.165 1.806-.468 2.317-.312.507-.789.763-1.419.763-.918 0-1.845-.59-2.775-1.749-.945-1.167-1.716-2.578-2.338-4.232h.969c.312.874.832 1.828 1.57 2.879.729 1.05 1.341 1.574 1.827 1.574.226 0 .39-.101.5-.317.112-.198.166-.519.166-.95 0-.797-.331-2.312-1.009-4.566l-3.566-11.743h2.641l.489 1.599c.968 3.13 2.215 6.471 3.744 10.026 1.532 3.554 2.665 5.331 3.398 5.331l.49-.287c.409-.492.821-.733 1.212-.733.357 0 .663.14.927.42.25.283.382.645.382 1.081 0 .46-.153.853-.463 1.173-.308.33-.719.494-1.23.494-.828 0-1.649-.549-2.47-1.641m-22.47-.667c-1.885-1.528-3.404-3.445-4.574-5.745-1.171-2.305-1.75-4.453-1.75-6.458 0-1.495.367-2.681 1.115-3.564.743-.878 1.638-1.313 2.668-1.313 1.106 0 2.294.56 3.55 1.673 1.267 1.113 2.227 2.242 2.893 3.38-.299-.979-.441-1.762-.441-2.372 0-.752.18-1.389.556-1.906.36-.516.894-.775 1.592-.775.896 0 1.878.54 2.941 1.629 1.071 1.086 1.899 2.294 2.473 3.621h-.93c-1.327-2.334-2.508-3.503-3.526-3.503-.26 0-.465.08-.602.233-.134.161-.194.385-.194.676 0 .409.296 1.548.909 3.421l4.156 12.978h-2.693l-.561-1.886c-.15.74-.454 1.296-.91 1.662-.452.368-1.074.557-1.85.557-1.333 0-2.945-.769-4.822-2.308m-3.198-15.074c-.296.497-.448 1.223-.448 2.207 0 2.241.982 5.139 2.939 8.704 1.952 3.555 3.845 5.341 5.669 5.341.596 0 1.057-.221 1.38-.66.323-.442.478-.97.478-1.599 0-1.077-.512-3.082-1.524-6.027-1.012-2.952-2.217-5.133-3.602-6.565-1.376-1.427-2.564-2.145-3.551-2.145-.596 0-1.042.249-1.341.744m-36.576 15.904c-.954-.98-1.733-2.244-2.322-3.798h1.069c1.104 2.499 2.123 3.748 3.054 3.748.378 0 .569-.194.569-.575 0-.24-.172-.947-.524-2.13l-2.418-7.953c-.595-1.952-.89-3.344-.89-4.187 0-.858.275-1.575.798-2.158.534-.573 1.267-.857 2.202-.857 2.523 0 5.074 2.589 7.653 7.776-.83-2.449-1.249-4.246-1.249-5.37 0-.804.177-1.4.538-1.806.363-.401.908-.6 1.633-.6 2.138 0 3.839 1.728 5.089 5.184h-.933c-1.004-2.431-2.064-3.656-3.193-3.656-.293 0-.514.098-.663.28-.152.194-.226.468-.226.844 0 .43.336 1.676.997 3.748l4.116 12.702h-2.674l-.397-1.321c-1.751-5.425-3.523-9.505-5.316-12.268-1.793-2.76-3.345-4.14-4.645-4.14-.404 0-.707.118-.908.355-.219.24-.314.586-.314 1.041 0 .503.238 1.554.703 3.15l2.48 8.197c.451 1.553.682 2.587.682 3.102 0 .722-.205 1.267-.6 1.63-.409.364-.902.54-1.479.54-.927 0-1.869-.498-2.832-1.478m-33.056-1.023a17.132 17.132 0 0 1-4.183-5.967c-.993-2.3-1.479-4.37-1.479-6.197 0-1.451.379-2.6 1.144-3.448.756-.853 1.741-1.275 2.957-1.275 2.944 0 5.348 2.086 7.227 6.271h-1.071c-1.537-3.308-3.322-4.965-5.334-4.965-.722 0-1.28.24-1.639.709-.375.472-.559 1.185-.559 2.13 0 1.153.206 2.37.621 3.652 3.193 1.357 5.576 2.778 7.178 4.246 1.593 1.465 2.389 3.004 2.389 4.597 0 .786-.211 1.436-.635 1.963-.428.52-1.056.785-1.887.785-1.343 0-2.921-.836-4.729-2.501m.926-1.234c1.206 1.723 2.258 2.579 3.135 2.579.463 0 .801-.14 1.034-.409.229-.275.345-.688.345-1.25 0-1.225-.763-2.592-2.277-4.1a17.484 17.484 0 0 0-5.145-3.545c.739 2.761 1.706 5.003 2.908 6.725m217.074 1.676c-1.543-1.305-2.718-3.002-3.555-5.087-.822-2.094-1.24-4.025-1.24-5.796 0-2.326.463-3.972 1.389-4.918.919-.945 1.997-1.413 3.22-1.413 1.374 0 2.772.544 4.206 1.641 1.416 1.106 2.61 2.69 3.557 4.759a15.607 15.607 0 0 1 1.41 6.559c0 1.909-.426 3.415-1.27 4.529-.86 1.113-1.936 1.676-3.251 1.676-1.444 0-2.939-.654-4.466-1.95m-1.794-15.469c-.418.565-.631 1.244-.631 2.037 0 2.643.669 5.706 2.007 9.185 1.338 3.482 2.934 5.217 4.787 5.217.768 0 1.363-.251 1.746-.759.398-.516.593-1.276.593-2.301 0-1.975-.635-4.842-1.917-8.595-1.278-3.743-2.908-5.626-4.884-5.626-.724 0-1.294.278-1.701.842m-81.426 15.469c-1.543-1.305-2.724-3.002-3.548-5.087-.831-2.094-1.237-4.025-1.237-5.796 0-2.326.456-3.972 1.381-4.918.924-.945 1.994-1.413 3.22-1.413 1.373 0 2.774.544 4.21 1.641 1.417 1.106 2.603 2.69 3.545 4.759a15.553 15.553 0 0 1 1.418 6.559c0 1.909-.427 3.415-1.273 4.529-.852 1.113-1.935 1.676-3.246 1.676-1.45 0-2.939-.654-4.47-1.95m-1.796-15.469c-.418.565-.623 1.244-.623 2.037 0 2.643.668 5.706 2.003 9.185 1.334 3.482 2.93 5.217 4.773 5.217.786 0 1.37-.251 1.761-.759.392-.516.592-1.276.592-2.301 0-1.975-.638-4.842-1.921-8.595-1.275-3.743-2.905-5.626-4.884-5.626-.715 0-1.287.278-1.701.842m69.443 15.507c-1.341-1.165-2.609-3.04-3.807-5.611.604 1.719.906 3.184.906 4.391 0 .992-.213 1.731-.634 2.232-.419.494-1.061.74-1.914.74-1.205 0-2.542-.752-4.031-2.263-1.478-1.503-2.715-3.301-3.711-5.391.91 2.583 1.356 4.411 1.356 5.491 0 .647-.165 1.158-.498 1.545-.334.38-.79.576-1.356.576-.796 0-1.719-.483-2.748-1.454-1.03-.966-1.899-2.189-2.608-3.688h1.007c.626 1.151 1.268 2.042 1.913 2.658.638.622 1.153.934 1.537.934l.388-.176c.084-.127.123-.302.123-.539 0-.323-.279-1.394-.824-3.211l-4.037-13.317h2.63l.663 2.181c1.75 5.796 3.497 9.782 5.266 11.972 1.766 2.179 3.17 3.266 4.2 3.266.355 0 .612-.112.785-.333.178-.218.258-.558.258-1 0-.726-.309-2.118-.927-4.192l-3.615-11.894h2.636l.598 1.938c1.865 6.161 3.604 10.298 5.22 12.421 1.626 2.115 3.027 3.169 4.225 3.169.378 0 .66-.116.85-.365.181-.241.279-.604.279-1.094 0-.455-.268-1.586-.82-3.392l-1.828-6.03c-.636-2.11-.957-3.544-.957-4.292 0-.842.244-1.491.738-1.956.494-.455 1.064-.683 1.699-.683.955 0 1.948.46 2.961 1.373 1.009.918 1.833 2.059 2.469 3.432h-.955c-.683-1.153-1.319-2.01-1.928-2.583-.612-.584-1.169-.871-1.688-.871-.262 0-.464.089-.604.251-.143.175-.216.42-.216.746 0 .477.309 1.721.934 3.745l1.516 4.98c.549 1.866.854 2.992.941 3.385.084.388.129.89.129 1.493 0 .972-.279 1.752-.83 2.319-.54.566-1.23.849-2.052.849-1.083 0-2.3-.583-3.639-1.752" fill="url(#c)" transform="matrix(1.25 0 0 -1.25 -285.219 672.192)"/></svg>