<svg xmlns="http://www.w3.org/2000/svg" width="85" height="85" viewBox="0 0 80 80"><path fill="#FFF" d="M40 0c22.091 0 40 17.909 40 40S62.091 80 40 80 0 62.091 0 40 17.909 0 40 0z"/><path d="M9.661 71.62zm33.18-62.672a.961.961 0 0 0-.597.18c-.329.23-.754 1.044-1.24 2.382-.203.556-.411 1.04-.471 1.077-.061.037-.403-.065-.752-.235-.662-.323-1.013-.384-3.042-.48l-1.222-.054v.326c0 .18.101.619.227.977.192.549.21.763.108 1.34l-.127.68H12.043v50.298H67.6V20.48l.543-.606c.627-.713 1.272-1.892 1.548-2.825.245-.827.397-2.743.217-2.743-.07 0-.627.187-1.23.417l-1.096.416h-4.119l-.218-.625a36.079 36.079 0 0 0-.579-1.502l-.362-.87-.851.824a43.529 43.529 0 0 1-1.648 1.503l-.787.67h-7.487c-5.88 0-7.506-.028-7.55-.145-.031-.082-.21-.91-.399-1.837-.336-1.663-.338-1.697-.135-2.336.112-.357.208-.816.208-1.023a.837.837 0 0 0-.815-.851zm-1.095 3.992l-.073.417c-.043.23-.188.697-.317 1.04-.236.633-.407.773-.534.444-.134-.35.09-.98.507-1.44zm1.158.046l.435 1.729c.518 2.062.606 3.696.217 4.046-.295.266-.35.255-.742-.163-.524-.558-.775-1.434-.77-2.68.005-1.112.208-1.954.634-2.598zm-5.142.135c.147-.004.343 0 .598 0 .913.004 1.088.039 1.385.28l.344.282-.254.461c-.39.737-.351.726-1.376.399-1.035-.332-1.35-.616-1.222-1.123.055-.219.084-.285.525-.299zm24.027 1.05l.272.335c.448.558 1.142 2.06 1.195 2.59.04.41-.04.641-.444 1.358-.269.475-.53.86-.58.86-.235 0-.667-.438-.869-.879-.278-.61-.283-1.177-.027-2.236.16-.656.173-.853.055-.968-.118-.115-.208-.08-.435.18-.445.512-.58 1.184-.498 2.563.042.704.036 1.222-.027 1.222-.183 0-.875-.942-1.041-1.421-.274-.793-.06-1.224 1.25-2.49zm-24.516.616c.312 0 1.711.682 1.711.833 0 .222-.488.46-1.185.58-.424.072-.827.183-.888.244-.224.223.512.521 1.422.58.878.055.896.065.896.388 0 .301-.05.333-.57.408-.313.045-.683.101-.815.127-.829.159-1.796-1.226-1.494-2.137.203-.612.573-1.023.923-1.023zm2.734.779l.498.452c.638.574.995 1.18 1.458 2.49.203.573.351 1.05.326 1.05-.134 0-1.281-.997-1.72-1.494-.591-.668-.647-.842-.598-1.792zm-27.484.054H35.57v1.195H14.08v12.538c0 6.9.037 17.5.081 23.547l.082 10.99H66.08l-.082-17.499-.09-17.5.325-1.538c.383-1.818.359-3.071-.063-3.64-.201-.27-.245-.514-.245-1.285v-.95l.552-.309c.305-.17.573-.307.598-.307.025 0 .045 9.926.045 22.053v22.053H12.523V40.289zm31.595 0h14.584l-.19.597-.19.589-6.962.008c-7.756.002-6.99.086-7.17-.805zm20.052.018c.213-.003.506 0 .815.009l1.122.036-.543.19c-.296.108-.733.284-.978.39l-.452.19-.19-.363c-.106-.203-.166-.396-.136-.425.014-.015.149-.024.362-.027zm4.744.344c.245 0 .058.772-.426 1.765-.73 1.499-2.197 2.667-3.739 2.988-.783.163-.895.156-1.611-.064-.634-.194-.776-.378-.57-.76.366-.682 1.186-.836 2.815-.543.46.083.868.132.896.108.028-.023-.076-.213-.226-.416l-.272-.362.426-.353c.233-.191.682-.697.996-1.123.533-.722 1.253-1.24 1.71-1.24zm-1.96.217c.108.013.167.067.167.163 0 .079-.285.411-.634.743-.348.331-1.02.81-1.493 1.059l-.86.452-.073-.316c-.1-.401.168-.695 1.376-1.485.562-.367 1.086-.585 1.394-.616a.578.578 0 0 1 .124 0zm-51.281.969h.751l.625 1.177c.683 1.284.737 1.61.39 2.372-.22.483-.255.507-.752.507-.83 0-1.017-.36-.57-1.114.298-.504.22-.76-.48-1.566-.46-.53-.715-.981-.715-1.258 0-.062.338-.118.751-.118zm3.875 0c.438 0 .779.021.751.045-.027.024-.502.316-1.05.652-1.067.654-1.062.657-.66-.299.165-.394.169-.398.959-.398zm35.071 0c.358 0 .372.213.063.815-.294.574-1.124 1.501-1.24 1.385-.395-.397.57-2.2 1.177-2.2zm-29.658.018c.087 0 .17.003.227.018.114.03-.009.056-.272.055-.263-.002-.357-.026-.208-.055.074-.014.167-.018.253-.018zm4.237.344l3.305.009h3.313l.353.488c.492.67 1.506 1.2 3.169 1.648 3.157.852 3.993 1.239 4.517 2.1.166.274.28.646.28.924.001.397-.084.548-.534.978-.482.46-2.065 1.443-2.154 1.34-.02-.025-.268-.574-.552-1.223-.609-1.39-1.09-2.062-1.711-2.39l-.453-.244-.235.28c-.362.438-.306 1.025.126 1.331.608.43.396 1.322-.507 2.091-.544.465-1.683.927-2.01.824-.829-.262-1.297-1.31-1.394-3.096-.071-1.324-.171-1.611-.534-1.611-.316 0-.725.297-2.2 1.557a100.53 100.53 0 0 1-1.774 1.485l-.58.461-.977-.154c-1.452-.23-3.23-.29-3.848-.135-.294.073-.91.367-1.367.66a22.34 22.34 0 0 1-1.937 1.078c-.61.296-1.18.534-1.267.534-.213 0-.203-.684.018-1.068.241-.42.214-1.166-.064-1.775-.13-.286-.235-.548-.235-.58 0-.083.685.071 1.539.345 1.464.47 3.164-.017 4.373-1.25.34-.347 1.233-1.521 1.982-2.616zm15.354 0h3.06l-.942 1.394c-.518.77-1.163 1.713-1.43 2.091l-.48.689-.226-.281a4.684 4.684 0 0 1-.453-.788c-.197-.436-.207-.572-.081-1.005.08-.273.23-.852.344-1.294zm11.832 0c.185-.005.42 0 .725 0h1.367l.497.86c.277.475.536 1.006.57 1.177.078.38-.128.552-1.52 1.295-1.82.97-3.05 2.413-3.295 3.874-.139.823-.174.87-.97 1.304-.426.234-.785.425-.805.425-.135 0-.199-.24-.199-.787 0-.347-.135-1.047-.299-1.557-.496-1.546-.518-1.483 1.34-3.395.9-.927 1.334-1.482 1.593-2.028.197-.413.363-.845.363-.96 0-.14.08-.193.633-.208zm-29.594.009c.095-.003.212 0 .353.009l.652.036-.426.271a1.75 1.75 0 0 1-.95.263l-.543.009.308-.308c.199-.198.32-.272.606-.28zm23.981.136c.19.007.33.122.652.453.27.276.655.78.851 1.122.324.563.342.662.227 1.087-.07.257-.265.727-.435 1.04l-.308.571-.208-.525c-.291-.764-.94-1.865-1.104-1.865-.26 0-1.7 1.623-2.273 2.571-.747 1.236-1.08 2.19-1.086 3.096-.007.924.291 1.448 1.53 2.689.498.5.905.97.905 1.05 0 .08-.311.472-.697.87l-.706.723-1.06-.425c-1.846-.738-2.824-.882-3.403-.489-.163.11-.567.431-.896.706-.514.43-.642.485-.897.39-.473-.178-.73-.467-1.095-1.232-.393-.82-.43-1.195-.145-1.611.64-.935 3.171-3.374 6.292-6.057 1.037-.891 1.892-1.668 1.892-1.72 0-.164-.839-.093-1.213.1-.347.178-.362.173-.245-.045.179-.332 1.51-1.533 2.218-2.001.335-.222.78-.439.987-.48a.913.913 0 0 1 .217-.018zm-28.344.172c.092-.004.193-.002.298 0 .823.019 1.697.392 2.436 1.041l.47.416h-1.014c-1.075 0-1.62-.179-2.082-.688l-.226-.244-.516.299c-.649.378-.816.339-.58-.145.22-.448.569-.649 1.214-.679zm-1.992.462c.044.012-.035.145-.235.425-.585.818-.968 1.248-.97 1.077-.001-.364.652-1.22 1.123-1.475.04-.022.067-.031.082-.027zm-5.758.353l.263.416c.49.8.503 1 .172 1.72-.167.363-.326.661-.362.661-.037 0-.073-.633-.073-1.403zm7.686 1.05c.402-.003.837.082 1.476.244.658.167 1.36.316 1.557.335.359.036.357.037-.607 1.014-.643.652-1.177 1.084-1.611 1.286-.358.166-.734.292-.833.29-.215-.006-1.704-.553-2.67-.987l-.698-.317.2-.335c.252-.426 1.144-1.02 1.9-1.268.52-.17.885-.26 1.286-.262zm38.267.796c.224-.015.509.078.752.281.655.55 1.61.834 2.833.842l1.114.009v.56c0 .514-.085.684-.263.508-.036-.036-.846-.257-1.792-.489-2.126-.522-3.033-.932-3.033-1.358 0-.22.165-.338.39-.353zM16.09 21.64l.425.208c.235.112.512.363.616.562.233.449.113.717-.77 1.747-.43.5-.554.717-.444.778.244.136.647-.014.851-.325.104-.157.248-.29.317-.29.07 0-.146.388-.48.86-.333.471-.606.925-.606 1.005 0 .08.14.24.308.362.274.199.296.295.262.878l-.036.652-.67-.833c-1.202-1.498-1.421-1.892-1.421-2.508 0-.633.556-1.811 1.24-2.616zm42.467.118c.444-.014.881.12 1.159.371.184.166.226.373.226 1.14 0 .65-.05.95-.154.978-.082.023-.474.108-.869.181-.395.074-1.17.358-1.729.634-.56.276-1.05.514-1.086.534-.29.16-.314-.881-.037-1.693.274-.8 1.35-1.898 2.046-2.082.145-.038.296-.059.444-.063zm-8.437.253v1.711h-.335c-.187 0-.371.037-.408.073-.061.06.015.437.218 1.104.079.262.06.281-.272.208-.245-.053-.408-.028-.507.091-.184.22-.032.592.87 2.146.365.63.65 1.15.633 1.15-.018 0-.528-.5-1.132-1.114-1.302-1.322-1.547-1.785-1.285-2.408.243-.58 1.28-2.059 1.792-2.553zm-31.604.643c.175 0 .714.885.887 1.458.147.487.14.6-.163 1.53a35.61 35.61 0 0 1-.842 2.227c-.282.672-.564 1.222-.625 1.222-.147 0-.461-.758-.461-1.114 0-.155.182-1.108.407-2.118.225-1.01.476-2.14.552-2.517.076-.377.184-.688.245-.688zm32.817.29c.055-.003.106.146.226.498.303.887.51 2.258.416 2.76a5.876 5.876 0 0 1-.325 1.006c-.135.311-.29.57-.353.57s-.27-.161-.462-.353c-.313-.312-.354-.42-.353-1.095 0-.732.444-2.695.733-3.232.049-.091.085-.152.118-.154zm12.42.063c.398 0 .536.077.933.507.257.279.621.709.806.95.22.29.315.55.29.761l-.037.317-.597-.47c-.61-.482-1.541-1.473-1.748-1.857-.098-.182-.055-.208.353-.208zm-2.906.245c.04 0 .415.158.824.353 1.078.512 1.311 1.221.734 2.227-.245.425-.262.524-.118.642.22.182.423.015.96-.778l.407-.598v.49a3.6 3.6 0 0 1-.181.995c-.134.376-.138.494-.027.453.715-.268.688-.297.688.615 0 .464-.017.842-.037.842-.019 0-.614-.454-1.321-1.014-.789-.623-1.431-1.234-1.648-1.575-.323-.507-.353-.644-.353-1.602 0-.577.032-1.05.072-1.05zm-20.765.125c.042.017.07.086.107.182.175.452.09 1.55-.163 2.074-.111.229-.537.82-.942 1.312-.405.492-.825 1.105-.941 1.367-.3.674-.396 1.49-.209 1.802.084.14.31.509.498.815.19.305.313.583.28.615-.106.106-1.1-.998-1.511-1.675-.225-.37-.422-.885-.453-1.168-.05-.46.007-.599.634-1.52a880.67 880.67 0 0 0 1.684-2.49c.62-.92.848-1.266.969-1.313a.063.063 0 0 1 .047-.001zm-6.484.128c.231-.027.318.243.525.851.363 1.066.167 1.822-.733 2.825-.265.295-.647.63-.842.742l-.353.208.063-.597c.053-.55.016-.63-.443-1.223-.272-.35-.49-.709-.49-.787 0-.305.429-.766 1.35-1.449.474-.351.743-.549.923-.57zm25.457 1.674c.09.003.181.015.272.027.632.087.913.303 1.104.879.136.41.123.44-.263.76-.22.184-.815.552-1.321.815-.507.262-.989.473-1.078.47-.088-.002.125-.262.48-.579.376-.335.61-.637.561-.715-.047-.077-.401-.136-.823-.136-.634 0-.766-.03-.906-.253-.15-.24-.127-.297.263-.652a2.467 2.467 0 0 1 1.71-.616zm-32.328.245c.89.002 1.604.177 2.408.57.856.42 1.387.988 1.593 1.72.186.663-.029 1.425-.66 2.373-.502.752-4.589 4.743-5.297 5.169-.721.434-1.78.734-3.259.932-2.37.317-3.652.603-4.5 1.005a5.795 5.795 0 0 0-1.574 1.14l-.76.761v-4.128c0-4.678-.114-4.177 1.122-4.816.385-.2.77-.333.86-.299.09.035.359.33.597.661.239.33.509.607.598.607.284 0 .525-.493.67-1.385.205-1.27.336-1.425 1.675-1.947.63-.246 1.62-.705 2.208-1.023 2.112-1.143 2.165-1.159 3.36-1.285.346-.037.662-.055.959-.055zm8.636.67l.371.435c.42.475.465.78.2 1.412-.39.929-.157 1.442 1.674 3.712 1.564 1.937 1.51 1.803.643 1.9-.397.046-.782.1-.86.128-.078.027-.321-.251-.543-.616-.574-.945-1.513-2.031-1.946-2.254-.5-.257-2.283-.35-3.694-.19-.622.07-1.15.107-1.177.081-.15-.15 1.165-1.164 2.236-1.729 1.434-.755 2.286-1.462 2.761-2.29zm29.649.036c.075 0 .175.077.326.227.319.318.27 1.011-.136 1.82-.153.304-.362.635-.47.733-.184.164-.191.12-.046-.57.086-.41.161-1.076.163-1.485.002-.5.038-.725.163-.725zm-10.411.76c.423-.007.48.03.443.236-.022.131-.268.558-.552.95-.284.394-.758.94-1.05 1.223l-.525.516-.625-.489c-.72-.566-.71-.64.172-1.412.71-.622 1.522-1.012 2.137-1.023zm-39.851.4c.062-.018.18.198.407.624l.235.434-.29.308c-.158.171-.316.317-.352.317-.036 0-.074-.415-.073-.923.001-.49.01-.743.073-.76zm41.363.008c.045-.004.09 0 .145 0 .249 0 .452.053.452.117 0 .362-.692 1.847-1.25 2.68-.86 1.287-.999 1.402-1.393 1.195a1.128 1.128 0 0 1-.435-.444c-.166-.362-.025-.632 1.213-2.28.804-1.07.952-1.243 1.268-1.268zm4.61.35c.104.01.009.152-.31.42-.314.262-1.068.433-1.068.244 0-.032.32-.218.715-.417.293-.147.496-.225.606-.244a.212.212 0 0 1 .057-.004zm1.156.247c.177 0 1.253 1.052 2.155 2.11.812.951.855.988 1.068.796.218-.196.227.012.227 8.202 0 4.621.037 11.95.081 16.287l.073 7.885H14.795V44.263l1.113-1.068c2.611-2.51 5.389-4.388 7.55-5.106.666-.221 6.131-1.258 6.636-1.258.019 0 .028-.049.028-.11 0-.06-.28-.195-.625-.307a8.968 8.968 0 0 1-.715-.253c-.161-.091.646-.974 1.077-1.177.658-.31 1.5-.154 1.955.362.518.587 1.244.827 2.237.742.443-.038 1.024-.148 1.294-.244l.489-.181-.263.941c-.153.54-.552 1.444-.95 2.137-.927 1.614-1.099 2.209-.914 3.204.18.978.47 1.527 1.077 2.074.588.529.875.61 1.838.516.409-.04.803-.068.869-.064.066.004.52.035 1.014.073 1.977.151 2.215.132 2.716-.263.258-.204.614-.673.814-1.068.314-.62.35-.819.344-1.72-.008-1.24-.236-1.84-1.158-2.979-.753-.93-1.332-1.783-1.259-1.855.029-.029.272.024.543.117.669.23 1.866.416 2.69.417.67 0 .681.01 1.094.57.52.703 1.882 2.005 2.599 2.49 1.437.97 3.446 1.67 4.372 1.52.396-.064 1.063-.324 1.24-.48.024-.02-.158-.233-.398-.48-.252-.257-.837-1.238-1.385-2.317-1.053-2.073-1.675-2.952-2.39-3.358-.495-.282-.63-.57-.271-.57.113 0 .425-.078.697-.182l.488-.19 1.684 1.132c1.974 1.33 2.945 1.845 3.685 1.946.486.066.543.098.543.39 0 .53.683 1.757 1.231 2.2.935.754 1.367.899 2.644.896 1.308-.004 2.141-.23 2.996-.815 1.184-.811 1.752-1.838 1.748-3.16-.004-.915-.217-1.367-1.304-2.806-.814-1.078-1.213-1.928-1.213-2.58 0-.583-.986-1.358-1.73-1.358-.166 0-.307-.043-.307-.1 0-.267 2.313-2.046 2.661-2.046zm-22.37.417c.066-.007.078.115.118.434.205 1.643.213 1.928.055 2.028-.218.138-.243.132-.562-.09-.153-.107-.357-.38-.452-.607-.162-.385-.156-.44.117-.905.161-.274.4-.604.534-.725.09-.08.151-.131.19-.135zm17.391.633c.112-.003.292.101.688.344.506.31.65.452.534.525-.162.103-.605.109-1.204.019-.365-.056-.452-.422-.18-.779.05-.067.095-.107.162-.109zm-6.156.77c.218-.004.459.022.68.081.986.265 1.881 1.432 2.462 3.196.112.343.184.738.163.887-.034.234-.113.173-.57-.443-1.548-2.086-1.858-2.458-2.345-2.78-.293-.192-.73-.39-.97-.434-.381-.072-.415-.1-.262-.254.16-.158.479-.247.842-.253zm-6.056.652c.926-.062 2 .46 3.512 1.665l.996.797-.344.272c-.19.153-.621.41-.95.57-.695.336-1.25.49-1.25.344 0-.056.104-.274.236-.489.475-.776.393-.83-1.566-.978-1.556-.117-2.098-.308-2.218-.787-.115-.455.122-.844.697-1.14.286-.149.578-.234.887-.254zm13.226 0l-.298.443c-.165.241-.358.736-.435 1.105-.215 1.032-.435 1.553-.978 2.344-.274.4-.636 1.049-.815 1.44l-.325.706-.272-.525c-.24-.467-.26-.647-.2-1.548.118-1.708.55-2.743 1.386-3.304.37-.249.64-.348 1.602-.58zm-28.037.651c.07.011.147.153.245.426.088.246.186.516.217.597.087.232-.39.176-.616-.072-.164-.18-.172-.286-.063-.597.086-.245.148-.364.217-.354zm10.556.064l.48.063c.345.046.74.27 1.403.779 1.23.945 1.815 1.228 2.761 1.321l.797.073-.607.625c-.333.344-.684.624-.778.624-.363 0-1.067-.551-2.535-1.991zm8.591.009l.906.045c.866.044.922.066 1.385.516.636.618 2.036 3.346 2.037 3.965 0 .089-.153.145-.38.145-.314 0-.521-.133-1.114-.742a8.23 8.23 0 0 1-1.159-1.584c-.241-.46-.637-1.02-.878-1.25-.24-.23-.517-.572-.616-.76zm10.927.108l.308.29c.427.397.717 1.008.87 1.829.152.824.32 1.11 1.113 1.892.67.662.814.953.814 1.675 0 .987-.556 1.994-1.249 2.272-.424.17-1.15.317-1.15.235 0-.03.092-.267.2-.534.106-.266.158-.52.117-.561-.04-.04-.35.098-.688.308-.338.21-.642.362-.67.335-.028-.028.122-.315.326-.634.34-.531.344-.583.136-.616-.125-.02-.498.073-.833.2l-.607.226.535-.788c.293-.434.474-.81.407-.833-.067-.022-.372.05-.679.154-.306.104-.576.166-.597.145-.022-.02.12-.192.316-.38.643-.613.391-.698-.66-.235-.702.308-.712.272-.145-.453.194-.249.329-.486.29-.525-.04-.04-.411.016-.824.118-.414.1-.767.173-.779.163-.012-.011.349-.746.797-1.63.448-.884.876-1.817.96-2.073l.153-.462.163.371c.127.3.224.38.507.38.28 0 .413-.092.616-.434zm-25.674.118l.444.398c.403.353 1.15 1.312 1.15 1.476 0 .15-.736.426-1.132.426-.576 0-1.079-.224-1.838-.824-.446-.353-.695-.478-.86-.426-.214.068-.226.097-.073.39.372.707 1.206 1.252 2.526 1.638l.724.208-.48.218c-.626.286-1.456.286-1.928 0-.203-.124-.482-.457-.615-.743-.35-.751-.905-2.49-.824-2.57.038-.039.705-.095 1.485-.127zm5.386.95l.743.082c1.05.11 1.353.305 1.973 1.295.299.476.766 1.08 1.032 1.34.267.259.48.536.48.615 0 .08-.16.283-.362.453-.941.788-2.925-.098-3.549-1.584-.096-.23-.207-.823-.244-1.313zm-11.397.164l.271.326c.621.743.523 1.176-.534 2.254-.445.453-.658.654-.47.443.394-.443.383-.81-.028-.869-.215-.03-.476.143-1.068.715-.395.382-.588.56-.625.57.012-.034.09-.152.227-.343.212-.295.806-1.116 1.312-1.82zm2.127.597c.2.005.329.122.417.353.16.423.138.423-.562.1-.471-.218-.508-.258-.298-.344.18-.074.323-.112.443-.109zm7.951 2.28c.27.057.607.547.876 1.36.385 1.165.547 1.432 1.34 2.326 1.093 1.232 1.375 2.089 1.059 3.223-.148.53-.788 1.115-1.403 1.285-.563.156-1.114.161-1.35.01-.098-.064-.325-.117-.506-.118-.406-.003-.414-.092-.027-.851.169-.332.28-.634.244-.67-.036-.036-.28.07-.543.244s-.506.317-.534.317c-.028 0 .118-.296.317-.66.198-.365.334-.68.307-.707-.026-.026-.288.107-.579.299-.29.191-.547.331-.57.308-.024-.024.208-.436.507-.915.299-.478.515-.896.489-.923-.027-.027-.277.116-.562.308-.284.192-.58.375-.652.416-.07.041.058-.305.281-.77.223-.463.373-.867.335-.905-.038-.038-.437.11-.878.326l-.797.39.562-.607c.79-.84.72-1.065-.209-.679l-.407.172.163-.38c.089-.208.213-.747.28-1.195.169-1.112.692-1.655.87-.905.056.236.135.29.47.29.387 0 .421-.03.516-.508.058-.288.162-.444.29-.48a.231.231 0 0 1 .111-.002zm7.847.128c.06-.005.122-.002.18 0 .391.016.752.192 1.132.534.585.526.886 1.094 1.54 2.934.275.777.525 1.483.56 1.575.09.233-.159.204-.923-.109-1.271-.521-2.932-1.811-3.576-2.78-.63-.946-.447-1.64.525-2.009.201-.076.383-.13.562-.145zm3.15 2.02c.138.022.706.762.87 1.149.092.22.146.53.126.688-.034.263-.063.239-.362-.236-.332-.524-.737-1.508-.652-1.593.005-.005.009-.01.018-.009zm-29.549.46h.697l-.715.653c-.39.358-1.75 1.342-3.024 2.19l-2.308 1.548v-.38c0-.323.151-.532.987-1.33 1.1-1.051 2.696-2.278 3.286-2.526.212-.09.696-.157 1.077-.154zm-2.906 3.604c.016 0 .03.002.036.009.146.145-.289.723-.896 1.195-.344.267-.84.61-1.104.76l-.48.272v-.353c0-.264.117-.451.48-.76.52-.444 1.727-1.128 1.964-1.123zm43.626.526c-.421 0-.83.11-1.23.325a2.309 2.309 0 0 0-.942.924 2.55 2.55 0 0 0-.344 1.258c0 .433.113.85.335 1.25.221.399.534.711.932.932.398.22.815.326 1.25.326.434 0 .85-.105 1.249-.326.398-.22.702-.533.923-.933a2.56 2.56 0 0 0 .335-1.249 2.55 2.55 0 0 0-.335-1.258 2.302 2.302 0 0 0-.941-.924 2.564 2.564 0 0 0-1.232-.325zm0 .416c.35 0 .689.09 1.023.272.335.18.6.433.788.769a2.127 2.127 0 0 1 .01 2.091 1.976 1.976 0 0 1-.78.779 2.1 2.1 0 0 1-1.04.271c-.362 0-.709-.086-1.042-.271a1.984 1.984 0 0 1-.778-.779 2.111 2.111 0 0 1-.28-1.04c0-.365.1-.715.289-1.051a1.92 1.92 0 0 1 .778-.77c.334-.18.68-.271 1.032-.271zm-1.104.779v2.697h.435v-1.14h.262c.153 0 .264.028.344.09.115.084.273.29.462.625l.235.425h.534l-.326-.525a2.926 2.926 0 0 0-.407-.534.724.724 0 0 0-.226-.145.835.835 0 0 0 .561-.244.718.718 0 0 0 .081-.915.66.66 0 0 0-.335-.262c-.141-.05-.37-.072-.688-.073zm.435.362h.497c.213 0 .356.023.435.054a.403.403 0 0 1 .19.136.37.37 0 0 1 .063.217.365.365 0 0 1-.135.299c-.092.075-.345.294-.516.108h-.534zm-36.22 2.004l-.004.005a2.696 2.696 0 0 0-1.18.284 3.026 3.026 0 0 0-.985.775c-.28.324-.504.71-.672 1.157v.001a4.25 4.25 0 0 0-.243 1.452c0 .432.055.838.165 1.22.11.381.264.73.463 1.046v.002c.206.316.457.59.752.818h.001a3.14 3.14 0 0 0 1.008.499h.001l.172.043c.042.012.045.028.038.007l.003.01.005.008a.24.24 0 0 1 .022.078v.001l.043.26c.038.242.129.465.272.669.142.202.322.374.538.516.222.148.474.262.754.343h.001c.281.09.58.134.896.134.31 0 .472-.04.661-.071.063-.01.113-.034.177-.01.081.031.13.076.141.107l.001.004.001.003a.9.9 0 0 1 .037.306v4.877c0 .242-.015.416-.04.51-.02.07-.085.127-.23.167h-.001a.478.478 0 0 1-.133.019.738.738 0 0 0-.143.012.313.313 0 0 0-.126.057l-.005.003-.004.003c-.042.042-.054.099-.054.16 0 .072.027.142.082.186a.323.323 0 0 0 .207.059c.086 0 .207-.012.367-.033l.001-.001h.001a3.7 3.7 0 0 1 .615-.042c.271 0 .488.014.647.042h.004c.174.022.297.034.376.034a.323.323 0 0 0 .208-.06h.001a.232.232 0 0 0 .091-.175c0-.076-.016-.145-.072-.187a.326.326 0 0 0-.15-.057 1.07 1.07 0 0 0-.166-.012.587.587 0 0 1-.17-.047c-.09-.045-.132-.094-.147-.149a1.702 1.702 0 0 1-.03-.38v-2.023c0-.065.005-.108.008-.126.002-.005.005-.005.013-.006l.008.001.046.015.17.074c.13.058.252.106.363.142.114.039.227.059.336.059.213 0 .414-.05.597-.15h.001a1.75 1.75 0 0 0 .497-.417v-.002a2.1 2.1 0 0 0 .336-.627c.083-.24.123-.5.123-.78 0-.672-.16-1.188-.49-1.535-.33-.348-.824-.517-1.464-.517-.235 0-.444-.015-.63-.007-.18.007-.33.01-.451.01h-.174c-.118 0-.279-.005-.279-.005l-.303-.002c-.076 0-.152-.002-.21-.003h-.098a1.234 1.234 0 0 1-.42-.097h-.001a2.107 2.107 0 0 1-.482-.272 2.557 2.557 0 0 1-.431-.4 2.563 2.563 0 0 1-.337-.494l-.108-.206-.021-.042-.002-.006a.15.15 0 0 1 .046-.024l.227-.075c.298-.097.573-.253.824-.468a3.19 3.19 0 0 0 .654-.774c.183-.301.326-.64.429-1.013a4.35 4.35 0 0 0 .165-1.21c0-.519-.084-1.004-.253-1.452a3.536 3.536 0 0 0-.674-1.158c-.28-.33-.607-.59-.983-.775h-.002a2.549 2.549 0 0 0-1.19-.289zm-.026.426c.26 0 .5.075.728.226l.002.001c.234.145.439.36.614.647.176.288.314.641.413 1.061v.001c.107.419.16.895.16 1.431 0 .5-.05.941-.149 1.323v.001a3.232 3.232 0 0 1-.39.974 1.905 1.905 0 0 1-.583.592v.001c-.22.13-.451.195-.698.195a1.39 1.39 0 0 1-.74-.216 2.059 2.059 0 0 1-.604-.658 3.653 3.653 0 0 1-.413-1.06 6.35 6.35 0 0 1-.15-1.444c0-.5.047-.941.139-1.324.1-.383.23-.704.39-.963.169-.258.363-.451.583-.581v-.001a1.29 1.29 0 0 1 .698-.206zm20.081.582c-.015 0-.022.018-.036.024l-.004-.012-.198.133h.08c-.008.014-.016.025-.023.041l.002-.004a.8.8 0 0 1-.065.106l-.003.003-.002.002a.184.184 0 0 1-.07.072h-.004a.653.653 0 0 1-.246.034c-.08 0-.18-.003-.298-.009a7.684 7.684 0 0 0-.395-.008h-1.092c-.132 0-.251.002-.36.008h-.28c-.11 0-.197-.007-.26-.018a.25.25 0 0 1-.106-.04l-.022-.021h-.025a.888.888 0 0 0-.046-.111l.004.012a.514.514 0 0 0-.049-.116.148.148 0 0 0-.04-.06.126.126 0 0 0-.078-.028.175.175 0 0 0-.126.055.262.262 0 0 0-.06.127v.005a4.98 4.98 0 0 1-.063.324l-.221.905a.872.872 0 0 0-.028.1c-.006.031-.01.04-.01.067 0 .032.002.059.006.083.004.024.006.047.033.075l.005.005.006.004c.03.02.067.03.103.03h.017c.105 0 .191-.077.25-.19v.003c.058-.099.14-.237.245-.411.108-.136.216-.235.324-.3a.8.8 0 0 1 .416-.097h.249c.007 0 .003-.007.014.018l.002.007.004.005a.116.116 0 0 1 .023.067v4.326c0 .187-.015.313-.03.357-.013.035-.057.075-.159.107h-.001l-.003.002a.331.331 0 0 1-.117.022.834.834 0 0 0-.136.01.272.272 0 0 0-.12.048.18.18 0 0 0-.065.147c0 .063.026.126.075.164.05.038.113.051.184.051.1 0 .22-.01.365-.028h.002c.138-.023.297-.034.477-.034.187 0 .346.01.477.034h.004c.144.018.265.028.364.028.07 0 .13-.01.18-.044a.187.187 0 0 0 .079-.153c0-.058-.016-.115-.063-.152a.217.217 0 0 0-.113-.053.822.822 0 0 0-.127-.01.712.712 0 0 1-.137-.031h-.002v-.001a.48.48 0 0 1-.12-.051.185.185 0 0 1-.047-.059.828.828 0 0 1-.022-.13v-4.577c0-.015.005-.03.016-.05.013-.019.016-.02.027-.02h.142c.268 0 .468.028.596.076h.004c.118.04.215.139.293.315a15.75 15.75 0 0 1 .103.415l.001.003.001.003a.706.706 0 0 0 .06.14l.003.004.003.004a.2.2 0 0 0 .154.07.197.197 0 0 0 .09-.018.14.14 0 0 0 .065-.069.606.606 0 0 0 .042-.229l.053-1.175v-.1a.287.287 0 0 0-.032-.121c-.003-.012-.013-.02-.018-.031l.119-.08zm1.73.222a.183.183 0 0 0-.165.106v.003l-.002.003a3.709 3.709 0 0 1-.053.149v.002l-1.414 4.586a6.673 6.673 0 0 1-.131.405.46.46 0 0 1-.161.215l-.002.001a.228.228 0 0 1-.108.048l-.143.018a.365.365 0 0 0-.135.043.141.141 0 0 0-.068.063.197.197 0 0 0-.02.09.18.18 0 0 0 .07.145.27.27 0 0 0 .163.043c.07 0 .152-.006.25-.018h.004c.096-.018.206-.027.333-.027.187 0 .345.01.47.027.132.018.232.027.303.027a.26.26 0 0 0 .156-.04.173.173 0 0 0 .068-.14.217.217 0 0 0-.134-.2 1.314 1.314 0 0 0-.283-.067.318.318 0 0 1-.142-.045c-.008-.007-.028-.043-.028-.123 0-.086.043-.318.131-.665l.213-.792h.001c.003-.01.003-.009.005-.01l.002-.002.002-.001c.017-.013.025-.012.019-.012h1.101c.031 0 .05.005.057.009.007.003.005.001.006.007v.002l.348 1.139c.052.186.077.318.077.378 0 .07-.015.094-.037.107v.001a.701.701 0 0 1-.255.033.277.277 0 0 0-.179.052.207.207 0 0 0-.072.163c0 .052.025.108.069.139a.26.26 0 0 0 .155.04c.064 0 .169-.006.317-.018h.002a5.23 5.23 0 0 1 .596-.027c.175 0 .32.01.433.026h.001c.127.019.23.028.312.028.07 0 .131-.01.18-.043a.187.187 0 0 0 .08-.154.156.156 0 0 0-.053-.118.206.206 0 0 0-.114-.042.511.511 0 0 1-.192-.094l-.002-.002h-.001a.592.592 0 0 1-.23-.27 5.416 5.416 0 0 1-.176-.49l-1.342-4.23a3.443 3.443 0 0 1-.087-.297.235.235 0 0 0-.065-.123c-.016-.014-.038-.013-.057-.02v-.028zm-18.112.16a.213.213 0 0 0-.15.05.197.197 0 0 0-.055.147c0 .056.007.108.048.148l.008.009.01.005a.383.383 0 0 0 .11.033l.006.001h.006a.9.9 0 0 1 .115.009h.01c.045 0 .094.008.148.024.084.027.117.059.122.071.009.025.021.123.021.268v3.119c0 .274.012.523.036.745v.002c.032.224.11.427.235.608.162.236.378.41.646.516.266.105.591.156.977.156.351 0 .656-.058.91-.176h.001c.254-.124.45-.3.582-.527.124-.21.195-.44.214-.688.024-.24.036-.514.036-.823v-2.186c0-.218.002-.404.009-.556.006-.15.02-.266.041-.346a.381.381 0 0 1 .093-.17.283.283 0 0 1 .176-.046c.092 0 .16-.004.215-.02l.004-.001.005-.002a.189.189 0 0 0 .106-.173.19.19 0 0 0-.079-.154.314.314 0 0 0-.18-.043c-.052 0-.127.006-.226.017a6.936 6.936 0 0 1-.387.01c-.153 0-.279-.004-.378-.01a1.945 1.945 0 0 0-.226-.017.241.241 0 0 0-.16.048.192.192 0 0 0-.063.149c0 .065.035.133.093.162l.005.003h.004a.717.717 0 0 0 .138.03h.001l.16.019a.22.22 0 0 1 .104.038c.053.046.097.148.108.32v.003c.017.174.026.43.026.766v2.15c0 .307-.012.568-.035.783v.002a1.1 1.1 0 0 1-.174.533c-.206.294-.523.44-.98.44-.23 0-.411-.034-.546-.1a.784.784 0 0 1-.325-.284 1.483 1.483 0 0 1-.168-.486 5.077 5.077 0 0 1-.044-.71v-3.1c0-.138.013-.23.022-.256.013-.027.047-.059.125-.084a.404.404 0 0 1 .128-.023h.142a.28.28 0 0 0 .132-.05c.048-.036.064-.096.064-.156a.198.198 0 0 0-.056-.146.213.213 0 0 0-.15-.05c-.06 0-.152.012-.296.036-.135.023-.33.034-.583.034-.253 0-.448-.011-.583-.034-.095-.015-.14-.018-.195-.024l.005-.012zm5.024 0a.213.213 0 0 0-.15.05.197.197 0 0 0-.056.147c0 .056.008.108.049.148l.008.009.01.005a.383.383 0 0 0 .11.033h.001c.045.007.093.01.143.01.045 0 .095.008.148.024h.001c.075.026.104.055.111.078l.002.005.003.004c.01.022.027.114.027.252v4.07c0 .092-.002.17-.008.232v.007c0 .051-.008.09-.02.12a.138.138 0 0 1-.06.057l-.002.001-.002.002a.48.48 0 0 1-.137.052h-.002a.38.38 0 0 1-.104.016.778.778 0 0 0-.128.01h-.003a.268.268 0 0 0-.108.049l-.005.002-.004.004c-.037.037-.048.088-.048.14 0 .063.025.126.075.164.05.038.112.051.184.051.061 0 .156-.01.294-.027.137-.017.321-.027.55-.027.23 0 .41.01.542.027.144.018.241.027.302.027.07 0 .131-.01.18-.044a.186.186 0 0 0 .08-.153.189.189 0 0 0-.062-.148.2.2 0 0 0-.114-.065h-.001a.84.84 0 0 0-.136-.01.404.404 0 0 1-.128-.023h-.002v-.001a.473.473 0 0 1-.12-.051.187.187 0 0 1-.047-.059.828.828 0 0 1-.022-.13v-4.293c0-.137.01-.23.022-.266.011-.026.051-.06.152-.08a.618.618 0 0 1 .135-.017h.01l.128-.018a.264.264 0 0 0 .108-.038l.007-.004.005-.005c.037-.038.047-.088.047-.14a.197.197 0 0 0-.056-.147.215.215 0 0 0-.15-.05c-.06 0-.152.013-.296.037a3.86 3.86 0 0 1-.583.034 3.86 3.86 0 0 1-.583-.034 2.204 2.204 0 0 0-.257-.032l-.004-.005zm2.412 0a.2.2 0 0 0-.144.053.2.2 0 0 0-.053.144.2.2 0 0 0 .053.144.2.2 0 0 0 .144.052h.005a.777.777 0 0 1 .255.032c.07.026.098.054.106.079.012.035.023.128.023.26v3.697c0 .17-.002.318-.008.44a.895.895 0 0 1-.049.271v.004a.222.222 0 0 1-.087.12.368.368 0 0 1-.174.035h-.08a.26.26 0 0 0-.174.052.21.21 0 0 0-.068.162c0 .064.034.128.088.162.054.033.12.044.198.044.086 0 .175-.006.267-.018a2.853 2.853 0 0 1 .63 0c.104.012.198.018.285.018a.41.41 0 0 0 .209-.043.192.192 0 0 0 .094-.163.227.227 0 0 0-.049-.154.195.195 0 0 0-.148-.06.401.401 0 0 0-.097.01l.017-.002h-.08a.47.47 0 0 1-.179-.029.22.22 0 0 1-.09-.104.974.974 0 0 1-.04-.243 8.098 8.098 0 0 1-.01-.413v-3.375l2.843 4.63a.518.518 0 0 0 .102.124.2.2 0 0 0 .128.053c.067 0 .12-.05.15-.109a.328.328 0 0 0 .056-.186v-4.433c0-.323.019-.557.052-.694a.215.215 0 0 1 .072-.126.219.219 0 0 1 .141-.04h.089c.064 0 .106.003.156-.03l.002-.001.002-.002c.049-.037.064-.097.064-.156a.195.195 0 0 0-.08-.16.324.324 0 0 0-.188-.045 1.82 1.82 0 0 0-.235.017 5.885 5.885 0 0 1-.657 0 2.222 2.222 0 0 0-.272-.017.41.41 0 0 0-.209.043.192.192 0 0 0-.094.162c0 .056.028.11.071.146a.254.254 0 0 0 .16.051c.122 0 .213.01.267.025h.007c.055.01.081.029.1.062l.002.005.003.004a.35.35 0 0 1 .048.174v.005c.011.09.017.215.017.373v.166c.006.068.009.164.009.287v2.354l-2.301-3.736-.001-.001a.236.236 0 0 0-.093-.085.173.173 0 0 0-.118-.035zM55 48.088a.162.162 0 0 0-.143.093l-.001.003-.001.003a5.703 5.703 0 0 1-.042.116v.002l-1.106 3.59c-.036.124-.072.23-.103.316a.342.342 0 0 1-.12.16v.001h-.002a.161.161 0 0 1-.077.035 3.862 3.862 0 0 0-.113.014.3.3 0 0 0-.11.035.127.127 0 0 0-.06.056.169.169 0 0 0-.016.078.16.16 0 0 0 .06.127c.04.028.087.036.137.036.055 0 .12-.005.197-.014h.004c.074-.014.16-.02.258-.02.146 0 .268.006.366.02.104.014.182.02.24.02a.22.22 0 0 0 .13-.033.153.153 0 0 0 .06-.122.19.19 0 0 0-.115-.171 1.041 1.041 0 0 0-.225-.054.24.24 0 0 1-.103-.032s-.016-.024-.016-.084c0-.063.033-.245.102-.516l.167-.62h-.003.002l.002-.002c.012-.01.016-.007.005-.007h.863c.021 0 .032.005.035.006l.271.889c.04.145.059.248.059.292 0 .051-.01.063-.02.07a.585.585 0 0 1-.193.025.231.231 0 0 0-.15.043.18.18 0 0 0-.06.14.15.15 0 0 0 .06.121.215.215 0 0 0 .13.035c.05 0 .133-.005.25-.014h.002a4.046 4.046 0 0 1 .801-.001c.1.014.18.022.247.022a.26.26 0 0 0 .15-.036.165.165 0 0 0 .068-.134.14.14 0 0 0-.046-.104.173.173 0 0 0-.096-.037.392.392 0 0 1-.145-.071l-.002-.001v-.001a.447.447 0 0 1-.176-.204 4.247 4.247 0 0 1-.136-.382l-1.05-3.311a2.688 2.688 0 0 1-.068-.23.2.2 0 0 0-.056-.105c-.01-.01-.027-.008-.04-.014v-.028zm3.19 0c-.197 0-.377.032-.54.096a1.132 1.132 0 0 0-.407.26c-.113.113-.202.25-.266.406v.002c-.06.157-.09.33-.09.519 0 .21.027.387.082.533v.002c.06.141.135.264.23.368v.001h.001c.098.103.21.193.335.27h.001c.125.075.258.152.397.23v.001c.259.145.447.3.569.46v.002h.002a.806.806 0 0 1 .185.525.794.794 0 0 1-.057.306v.002h-.001a.686.686 0 0 1-.144.24l-.002.001v.002a.63.63 0 0 1-.474.212.699.699 0 0 1-.454-.178v-.001a1.033 1.033 0 0 1-.311-.513 1.46 1.46 0 0 1-.04-.179 2.555 2.555 0 0 0-.027-.15v-.001a.316.316 0 0 0-.037-.13.158.158 0 0 0-.133-.08.168.168 0 0 0-.143.095.438.438 0 0 0-.033.193v.075a.64.64 0 0 1 .006.106c0 .063-.001.132-.006.204a3.77 3.77 0 0 0-.007.234.57.57 0 0 0 .323.516h.001c.204.105.463.154.777.154.204 0 .393-.04.565-.118a1.27 1.27 0 0 0 .448-.308c.127-.132.224-.289.292-.468.073-.18.11-.377.11-.59 0-.2-.027-.38-.08-.538a1.243 1.243 0 0 0-.243-.419 1.723 1.723 0 0 0-.377-.34 5.216 5.216 0 0 0-.5-.296 1.754 1.754 0 0 1-.474-.333.582.582 0 0 1-.134-.403c0-.21.053-.362.154-.472.107-.114.248-.172.441-.172.148 0 .248.042.321.123.08.087.159.222.23.402v.001c.05.12.082.21.094.266v.003l.002.004c.012.04.031.075.062.101a.17.17 0 0 0 .112.04.16.16 0 0 0 .13-.07.272.272 0 0 0 .032-.149 7.5 7.5 0 0 0-.014-.538 1.475 1.475 0 0 0-.018-.16c-.008-.04-.012-.07-.039-.104-.057-.074-.154-.11-.31-.163h-.002a1.656 1.656 0 0 0-.538-.08zm-7.085.042l.003.008c-.465.005-.857.027-1.123.084a1.274 1.274 0 0 0-.337.104.327.327 0 0 0-.1.076.195.195 0 0 0-.01.234.148.148 0 0 0 .114.056.38.38 0 0 0 .155-.034l.003-.001.003-.002a.205.205 0 0 1 .103-.026c.045 0 .049.006.054.016.01.02.02.067.02.135v3.233c0 .072-.003.132-.007.18v.007a.232.232 0 0 1-.015.087.09.09 0 0 1-.039.038l-.002.001-.003.002a.373.373 0 0 1-.103.039h-.003a.28.28 0 0 1-.077.011.613.613 0 0 0-.102.008h-.002a.228.228 0 0 0-.092.042l-.005.002-.003.004a.164.164 0 0 0-.042.12c0 .054.022.109.065.142a.244.244 0 0 0 .153.043c.092 0 .188-.007.289-.022h.004c.093-.018.19-.027.292-.027.116 0 .247.01.393.033v.001c.157.024.327.035.511.035.355 0 .67-.052.944-.158h.001c.277-.11.513-.264.706-.461.193-.198.338-.44.434-.722.1-.282.15-.597.15-.942 0-.34-.052-.655-.157-.941a2.076 2.076 0 0 0-.44-.749 1.992 1.992 0 0 0-.706-.483 2.347 2.347 0 0 0-.918-.173zm.119.36c.201 0 .382.048.547.144h.001c.166.092.309.223.428.395.12.173.214.381.282.625.067.239.101.5.101.787 0 .31-.034.587-.101.83a1.87 1.87 0 0 1-.288.615c-.119.164-.263.29-.433.382h-.001c-.17.088-.36.131-.572.131-.196 0-.302-.046-.348-.113-.047-.081-.08-.241-.08-.475v-2.996a.85.85 0 0 1 .013-.156.174.174 0 0 1 .053-.089.274.274 0 0 1 .127-.053h.004c.06-.017.15-.026.267-.026zm-6.092.136l.464 1.494c.01.04.013.07.014.063-.003 0-.006.003-.007.003h-.878v-.008c0-.009.002-.024.007-.044zm9.654.935l.347 1.117.007.032h-.657c0-.006 0-.012.003-.02v-.001zm-9.176.624v.003c0-.008.005-.008-.005.002zm9.544.523c-.005.003-.004.002-.001.002h-.001zm-26.908 4.108c.115 0 .222.034.327.106h.002a.936.936 0 0 1 .29.313l.001.002.001.001c.088.129.157.29.206.486v.002l.001.001c.056.187.084.4.084.64 0 .444-.092.788-.268 1.039-.179.247-.37.359-.59.359a.68.68 0 0 1-.35-.097c-.095-.067-.14-.156-.14-.296v-2.098c0-.18.031-.3.073-.358v-.001l.001-.001c.034-.05.147-.097.361-.097zm4.975.598c-.355 0-.693.08-1.01.239a2.472 2.472 0 0 0-.813.64 3.142 3.142 0 0 0-.555.954c-.134.37-.2.77-.2 1.198 0 .428.066.827.2 1.197v.001c.139.368.324.69.555.964.23.273.501.49.812.647l.001.001c.312.153.643.23.992.23a2.24 2.24 0 0 0 1-.23h.001a2.57 2.57 0 0 0 .822-.648c.237-.274.422-.596.555-.965.133-.37.2-.769.2-1.197 0-.428-.07-.828-.21-1.198a3.01 3.01 0 0 0-.545-.955 2.497 2.497 0 0 0-.813-.64 2.16 2.16 0 0 0-.992-.238zm8.891 0c-.25 0-.478.04-.683.12-.198.075-.37.184-.514.327a1.532 1.532 0 0 0-.335.513h-.001v.002a1.858 1.858 0 0 0-.112.656c0 .267.033.491.103.674v.003c.074.178.17.334.289.465h.001a2.1 2.1 0 0 0 .423.342h.001c.161.095.33.193.508.294.332.187.576.386.734.594v.001h.001c.163.202.241.426.241.684 0 .145-.024.278-.074.4v.002a.9.9 0 0 1-.19.312l-.001.002v.002a.825.825 0 0 1-.62.277.915.915 0 0 1-.594-.232l-.001-.001c-.183-.156-.318-.375-.403-.666v-.001a1.87 1.87 0 0 1-.051-.23 3.166 3.166 0 0 0-.035-.192l-.001-.002a.386.386 0 0 0-.044-.157.177.177 0 0 0-.152-.093.191.191 0 0 0-.165.11.544.544 0 0 0-.04.238v.092a.931.931 0 0 1 .008.139c0 .08-.002.168-.008.262-.006.096-.01.196-.01.298 0 .278.143.501.403.641h.001c.257.132.585.195.984.195.257 0 .496-.05.713-.149h.001a1.722 1.722 0 0 0 .935-.981c.092-.228.138-.477.138-.746a2.09 2.09 0 0 0-.102-.68 1.568 1.568 0 0 0-.306-.53 2.182 2.182 0 0 0-.477-.43 6.655 6.655 0 0 0-.637-.378c-.28-.146-.484-.291-.61-.43-.118-.133-.178-.305-.178-.528 0-.271.07-.473.203-.617.14-.15.326-.226.578-.226.193 0 .328.055.425.163.104.115.206.29.298.52v.001l.001.001c.064.152.104.268.12.342v.004l.002.003c.014.048.037.09.072.12.036.03.083.047.13.047a.179.179 0 0 0 .148-.081.33.33 0 0 0 .04-.179c0-.294-.006-.522-.018-.687a1.896 1.896 0 0 0-.023-.2c-.01-.052-.016-.088-.045-.125-.067-.086-.19-.135-.389-.202a2.093 2.093 0 0 0-.681-.102zm6.125 0a.183.183 0 0 0-.164.106l-.001.003-.001.003-.053.149v.002l-1.413 4.586v.001a6.627 6.627 0 0 1-.133.404.458.458 0 0 1-.16.215l-.001.001a.23.23 0 0 1-.109.048 4.76 4.76 0 0 0-.143.018c-.01.001-.007.002-.013.004-.027-.02-.052-.042-.085-.048a.82.82 0 0 0-.136-.01.404.404 0 0 1-.127-.023h-.004a.48.48 0 0 1-.12-.052.185.185 0 0 1-.046-.059.828.828 0 0 1-.022-.13V56.34c0-.137.012-.23.023-.266.011-.026.05-.06.15-.08h.001a.624.624 0 0 1 .136-.016h.009l.127-.019a.266.266 0 0 0 .108-.037l.006-.004.005-.005c.038-.038.048-.089.048-.14a.197.197 0 0 0-.056-.147.213.213 0 0 0-.15-.05c-.06 0-.153.012-.296.036-.135.023-.33.034-.583.034-.253 0-.449-.011-.584-.034a2.111 2.111 0 0 0-.296-.037.213.213 0 0 0-.15.05.198.198 0 0 0-.056.147c0 .057.008.109.048.15l.009.007.01.006a.382.382 0 0 0 .11.033h.001c.046.007.094.01.145.01.045 0 .094.008.147.024.076.025.106.055.113.078l.002.004.002.005a.791.791 0 0 1 .028.251v4.07c0 .093-.003.17-.009.233v.007c0 .05-.008.09-.02.12a.139.139 0 0 1-.059.057h-.002l-.003.003a.487.487 0 0 1-.138.051h-.002a.38.38 0 0 1-.105.016.782.782 0 0 0-.127.01h-.001l-.001.001a.268.268 0 0 0-.109.048l-.004.003-.004.003c-.038.038-.048.089-.048.14 0 .064.026.127.075.165.05.038.112.05.184.05.061 0 .156-.01.293-.027.138-.017.322-.026.55-.026.23 0 .412.009.543.026.144.018.24.028.302.028a.442.442 0 0 0 .084-.009c.033.013.065.026.107.026.07 0 .152-.006.249-.018h.004c.096-.018.207-.027.334-.027.187 0 .344.01.47.027.132.018.23.027.302.027a.26.26 0 0 0 .156-.04.173.173 0 0 0 .068-.14.217.217 0 0 0-.134-.2 1.314 1.314 0 0 0-.283-.066.322.322 0 0 1-.142-.046c-.008-.007-.027-.043-.027-.122 0-.087.043-.319.131-.666l.213-.791v-.001c.003-.01.003-.008.005-.01l.002-.001.002-.002c.017-.013.025-.012.019-.012h1.102c.03 0 .05.006.057.01.007.003.005 0 .006.006v.002l.347 1.14c.053.185.077.317.077.378 0 .069-.015.094-.036.107a.708.708 0 0 1-.256.033.277.277 0 0 0-.178.052.207.207 0 0 0-.072.163c0 .053.024.108.068.14.044.03.096.04.155.04.065 0 .169-.007.318-.019h.002a5.268 5.268 0 0 1 1.029 0 2.3 2.3 0 0 0 .313.027c.07 0 .131-.01.18-.044a.187.187 0 0 0 .079-.153.156.156 0 0 0-.052-.118.208.208 0 0 0-.12-.043h.006a.513.513 0 0 1-.193-.093l-.001-.001-.002-.001a.592.592 0 0 1-.23-.27 5.441 5.441 0 0 1-.175-.49l-1.342-4.23a3.446 3.446 0 0 1-.087-.296.236.236 0 0 0-.066-.124c-.02-.019-.05-.02-.078-.029l-.013-.019zm4.078 0c-.25 0-.479.04-.684.12-.198.075-.37.184-.513.327a1.532 1.532 0 0 0-.336.513v.002a1.858 1.858 0 0 0-.112.656c0 .267.033.491.103.674v.003c.074.178.17.334.289.465h.002a2.1 2.1 0 0 0 .422.342h.001c.16.095.33.193.508.294.332.187.576.386.733.594v.001h.002c.162.202.241.426.241.684 0 .145-.024.278-.074.4l-.001.002a.9.9 0 0 1-.19.312v.002l-.001.002a.825.825 0 0 1-.62.277.915.915 0 0 1-.594-.232v-.001c-.183-.155-.318-.375-.404-.666a1.87 1.87 0 0 1-.05-.23 3.166 3.166 0 0 0-.036-.193v-.002a.386.386 0 0 0-.044-.157.177.177 0 0 0-.152-.093.191.191 0 0 0-.165.11.544.544 0 0 0-.041.238v.086l.001.006a.931.931 0 0 1 .008.139c0 .081-.002.168-.008.262-.006.096-.01.196-.01.298 0 .278.143.502.403.641h.001c.257.132.585.195.983.195.258 0 .497-.05.714-.148h.001c.221-.093.41-.223.565-.39.16-.167.283-.365.37-.592.092-.228.138-.477.138-.746a2.09 2.09 0 0 0-.102-.68 1.568 1.568 0 0 0-.306-.53 2.181 2.181 0 0 0-.477-.43 6.656 6.656 0 0 0-.638-.378c-.28-.146-.483-.291-.61-.43-.117-.133-.177-.304-.177-.527 0-.272.07-.473.203-.618.14-.15.326-.225.578-.225.192 0 .327.054.425.162.104.115.206.29.298.521v.001c.065.152.105.268.12.343l.001.003.002.003c.014.048.037.09.072.12a.198.198 0 0 0 .13.047.179.179 0 0 0 .148-.081.33.33 0 0 0 .04-.178 10 10 0 0 0-.018-.687 1.888 1.888 0 0 0-.023-.201c-.01-.052-.016-.088-.046-.125-.066-.086-.19-.135-.388-.202a2.09 2.09 0 0 0-.681-.102zm-15.94.16c-.006 0-.01.004-.015.005-.054.002-.105.01-.144.043a.193.193 0 0 0-.065.149c0 .056.008.108.049.148l.008.009.01.005a.383.383 0 0 0 .11.033c.04.007.085.01.136.01.038 0 .076.007.116.022h.001V56c.072.025.092.05.096.072l.001.003.002.004c.012.036.023.128.023.261v4.07c0 .168-.012.293-.033.371a.106.106 0 0 1-.047.066.288.288 0 0 1-.124.041h-.002a1.71 1.71 0 0 1-.264.026.18.18 0 0 0-.133.052.195.195 0 0 0-.046.136c0 .064.028.128.079.165.051.037.115.05.189.05.044 0 .127-.006.264-.018h.003c.136-.018.34-.027.604-.027.573 0 1.046.012 1.417.036.38.024.661.036.848.036a.825.825 0 0 0 .154-.01.198.198 0 0 0 .127-.073.275.275 0 0 0 .049-.12v-.002a3.43 3.43 0 0 0 .018-.173v.002l.097-.86v-.002a.988.988 0 0 0 .009-.11l.01-.051v-.007a.1.1 0 0 0-.026-.066.214.214 0 0 0-.04-.036c-.023-.026-.054-.05-.096-.05a.217.217 0 0 0-.151.068.51.51 0 0 0-.102.163 3.336 3.336 0 0 1-.234.416 1.673 1.673 0 0 1-.203.253.706.706 0 0 1-.216.135 1.059 1.059 0 0 1-.283.067 3.268 3.268 0 0 1-.664 0 .435.435 0 0 1-.161-.064.247.247 0 0 1-.074-.13 1.323 1.323 0 0 1-.025-.285v-1.83c0-.059.02-.087.006-.073 0 0 .025-.014.081-.014h.391c.186 0 .336.014.445.042.096.024.173.088.238.212a1.592 1.592 0 0 1 .153.424v.006l.003.004c.018.055.037.102.057.142l.003.007.005.006a.19.19 0 0 0 .145.072c.054 0 .11-.027.14-.072a.28.28 0 0 0 .039-.16c0-.048-.006-.13-.018-.253v-.003a11.565 11.565 0 0 1-.009-.5c0-.175.007-.337.018-.483v.003c.018-.15.027-.283.027-.4a.208.208 0 0 0-.044-.14.178.178 0 0 0-.135-.056.183.183 0 0 0-.162.093l-.002.005-.002.005a1.422 1.422 0 0 0-.038.14 1.36 1.36 0 0 1-.05.168.476.476 0 0 1-.108.152.654.654 0 0 1-.233.096c-.13.028-.284.043-.463.043h-.4a.506.506 0 0 1-.078-.005c-.002-.01-.009-.038-.009-.1v-1.466c0-.104.003-.186.009-.247a.339.339 0 0 1 .047-.134.219.219 0 0 1 .113-.064 1.03 1.03 0 0 1 .256-.025c.469 0 .81.11 1.035.319a.733.733 0 0 1 .162.21h.001v.002c.04.074.071.142.093.204.024.066.046.12.064.163l.002.004.002.004a.192.192 0 0 0 .16.098c.06 0 .117-.045.14-.098a.481.481 0 0 0 .031-.196v-.8c0-.1-.01-.177-.045-.24a.182.182 0 0 0-.114-.08.58.58 0 0 0-.162-.019c-.064 0-.237.006-.527.018-.288.012-.694.018-1.215.018-.408 0-.72-.006-.937-.018-.22-.012-.343-.018-.386-.018zm-3.208.234c.21 0 .406.06.59.183h.002v.001c.191.118.358.293.502.528.143.234.256.523.337.867v.001c.087.343.131.733.131 1.173 0 .41-.04.77-.122 1.083v.001a2.639 2.639 0 0 1-.32.796 1.56 1.56 0 0 1-.473.483 1.088 1.088 0 0 1-.567.159c-.211 0-.41-.058-.601-.176a1.682 1.682 0 0 1-.492-.536 2.99 2.99 0 0 1-.338-.868 5.218 5.218 0 0 1-.122-1.182c0-.41.038-.772.113-1.085a2.86 2.86 0 0 1 .32-.787 1.46 1.46 0 0 1 .474-.473v-.001c.18-.112.366-.167.566-.167zm14.795 1.394l.464 1.495c.01.04.013.07.013.064l-.006.002h-.878v-.007a.19.19 0 0 1 .007-.045zm.478 1.561v.002c0-.006.004-.007-.005.002zm-2.366 2.2l.014.015-.005-.004c-.004-.004-.003-.006-.01-.01zm.015.02h.002c.01.01.009.014.007.01 0-.002-.007-.008-.009-.01z" color="#000"/></svg>