<svg width="224" height="224" fill="none" xmlns="http://www.w3.org/2000/svg"><circle cx="112" cy="112" r="111.5" stroke="#DDD"/><path d="M84.846 68c-11.262 0-19.098 8.764-19.098 19.993 0 4.261 1.133 8.164 3.148 11.371 5.744-.17 11.634-.154 17.64.06 4.52.162 9.097.433 13.688.768 2.365-3.354 3.718-7.559 3.718-12.199C103.942 76.764 96.109 68 84.846 68zm-71.484.823v46.156c3.69-3.341 7.948-5.982 12.73-8.075v-21.1l5.25 19.082c3.802-1.274 7.875-2.282 12.216-3.075l4.57-16.007v15.271a166.84 166.84 0 0 1 8.906-1.043c1.254-.114 2.548-.181 3.824-.27v-30.94H42.742l-5.63 20.816-5.634-20.816H13.362zm95.446 0V100.9c2.945.272 5.891.563 8.826.886 1.307.143 2.604.306 3.907.458V90.186l6.286 12.823c5.508.701 10.934 1.46 16.237 2.252V68.822h-12.73v16.982l-8.325-16.982h-14.201zm39.166 0V81.42h9.305v25.919c4.414.718 8.643 1.417 12.729 2.115V81.42h9.305V68.823h-31.339zm35.241 0v42.892c12.737 2.187 22.739 3.826 27.421 3.923v-10.626h-14.689v-5.67h12.732V88.385h-12.732v-5.674h13.709v-13.89h-26.441zM84.846 81.42c2.938 0 5.387 2.74 5.387 6.573 0 3.835-2.449 6.574-5.387 6.574-2.938 0-5.386-2.74-5.386-6.574 0-3.834 2.448-6.573 5.386-6.573zm-5.987 23.374c-1.585-.016-3.14.005-4.703.018 2.975 2.008 6.602 3.175 10.69 3.175 3.69 0 7-.954 9.8-2.614-5.337-.318-10.62-.525-15.787-.579z" fill="#000"/><path d="M78.86 104.794c-2.856-.029-5.663.004-8.438.069v16.684h16.197l-17.605 17.947v15.641h41.552v-15.641h-18.31l17.604-17.947v-14.981c-10.48-1.004-20.956-1.668-31-1.771v-.001zm-28.123 1.568c-8.957 1.316-17.554 3.601-24.72 6.671L12 155.135h20.423l1.407-5.775h9.156l1.41 5.775H64.82s-13.343-46.22-14.083-48.773zm67.537 1.083v28.92c0 11.55 9.86 19.635 23.945 19.635 14.086 0 23.945-8.085 23.945-19.635v-21.934c-5.846-.99-11.909-1.999-18.311-2.988v24.922c0 3.176-2.465 5.198-5.634 5.198-3.169 0-5.633-2.022-5.633-5.198v-26.564c-6.024-.851-12.121-1.661-18.312-2.356zm56.397 8.434v39.256H212v-13.283h-19.018v-22.853c-5.403-.884-11.447-1.936-18.311-3.12zM38.41 129.725l2.465 10.394h-4.93l2.465-10.394z" fill="#000"/><path d="M86.536 99.425c-10.228-.365-20.187-.235-29.5.607-18.629 1.684-33.613 5.621-44.01 15.24l-.074 5.747c8.886-8.22 26.565-13.834 44.583-15.463 18.017-1.629 38.944-.517 59.49 1.743 20.546 2.261 40.716 5.66 57.33 8.524 16.614 2.865 29.442 5.222 36.298 5.361l-.011-5.545c-5.627-.114-18.711-2.418-35.343-5.285-16.632-2.868-36.912-6.284-57.666-8.567-10.377-1.142-20.87-1.996-31.097-2.362z" fill="url(#paint0_radial)"/><defs><radialGradient id="paint0_radial" cx="0" cy="0" r="1" gradientUnits="userSpaceOnUse" gradientTransform="rotate(89.4 -11.95 91.607) scale(14.6623 109.895)"><stop stop-color="#00C300"/><stop offset="1" stop-color="green"/></radialGradient></defs></svg>