<svg width="224" height="224" fill="none" xmlns="http://www.w3.org/2000/svg"><circle cx="112" cy="112" r="111.5" stroke="#DDD"/><path d="M112 50c-26.408 0-51.738 6.442-70.507 17.998C22.723 79.555 12 95.374 12 112c0 16.627 10.724 32.445 29.493 44.002C60.263 167.558 85.593 174 112 174c26.408 0 51.738-6.442 70.507-17.998C201.276 144.445 212 127.741 212 111.116c0-16.626-10.724-31.56-29.493-43.116C163.738 56.445 138.409 50.003 112 50.003V50zm0 2.237c26.04 0 51.009 6.387 69.325 17.665 18.317 11.278 28.428 26.431 28.428 42.099 0 15.667-10.111 30.819-28.428 42.097-18.317 11.279-43.287 17.665-69.325 17.665-26.04 0-51.01-6.386-69.325-17.665-18.317-11.278-28.428-26.43-28.428-42.097 0-15.668 10.111-30.82 28.428-42.099C60.991 58.624 85.96 52.238 112 52.238zm0 2.007c-24.774 0-48.533 6.054-66.085 16.861C28.364 81.912 18.441 96.619 18.441 112c0 15.382 9.923 30.088 27.474 40.895 17.552 10.807 41.313 16.861 66.085 16.861 24.774 0 48.534-6.054 66.085-16.861 17.551-10.807 27.474-25.513 27.474-40.895 0-15.38-9.923-30.088-27.474-40.895C160.534 60.298 136.773 54.243 112 54.243zm0 .777c24.646 0 48.28 6.034 65.676 16.745C195.07 82.476 204.78 96.952 204.78 112c0 15.049-9.71 29.524-27.104 40.234s-41.03 16.745-65.676 16.745-48.28-6.035-65.676-16.745C28.93 141.524 19.22 127.048 19.22 112c0-15.048 9.71-29.524 27.104-40.234C63.72 61.056 87.356 55.022 112 55.022zm53.285 11.446a.423.423 0 0 0-.343.417l-2.972.513-.058-.323a.406.406 0 0 0-.343.399l-2.895.532-.058-.343a.406.406 0 0 0-.343.4l-2.858.53-.077-.34a.388.388 0 0 0-.323.398l-2.763.513-.058-.343a.387.387 0 0 0-.323.4l-2.706.493-.057-.342a.407.407 0 0 0-.324.418l-2.61.456-.058-.342a.426.426 0 0 0-.343.418l-2.457.436-.057-.323a.404.404 0 0 0-.343.399l-2.382.436-.058-.341a.404.404 0 0 0-.342.399l-2.459.455-.075-.341a.409.409 0 0 0-.325.418l-2.248.397-.077-.341a.407.407 0 0 0-.323.417l-2.153.38-.077-.342a.409.409 0 0 0-.323.418l-2.173.38-.057-.323a.404.404 0 0 0-.342.399l-2.078.38-.076-.342a.41.41 0 0 0-.324.418l-2.077.36-.057-.322a.404.404 0 0 0-.343.398l-2.001.361-.057-.342a.425.425 0 0 0-.343.417l-2.019.36-.077-.34a.41.41 0 0 0-.324.417l-1.905.342-.057-.342a.408.408 0 0 0-.324.418l-1.867.322-.077-.322a.388.388 0 0 0-.323.398l-1.887.342-.057-.342a.426.426 0 0 0-.343.418l-1.62.285-.057-.342a.426.426 0 0 0-.343.418l-1.524.265-.058-.322a.404.404 0 0 0-.342.398l-1.716.304-.056-.323a.407.407 0 0 0-.344.399l-1.695.303-.057-.341a.425.425 0 0 0-.343.418l-1.429.247-.057-.323a.39.39 0 0 0-.325.398l-1.714.305-.077-.324a.39.39 0 0 0-.324.399l-1.39.247-.058-.322a.405.405 0 0 0-.343.398l-1.353.247-.057-.342a.426.426 0 0 0-.343.418l-1.543.265-.058-.322a.389.389 0 0 0-.323.398l-1.353.247-.076-.342a.408.408 0 0 0-.324.418l-1.277.228-.076-.342a.389.389 0 0 0-.324.399l-1.277.228-.056-.323a.405.405 0 0 0-.343.399l-1.049.19-.057-.323a.405.405 0 0 0-.343.398l-1.22.228-.056-.342a.405.405 0 0 0-.343.399l-1.162.21-.058-.324a.405.405 0 0 0-.343.399 24.26 24.26 0 0 1-1.2.209l-.057-.342a.413.413 0 0 0-.343.399l-.191.038a7.166 7.166 0 0 0-.8-1.291c-.367-.468-1.956-1.88-3.126-2.202-1.19-.328-2.584-.49-3.849-.475-.55.007-1.085.054-1.62.114.215-.05.435-.126.65-.17a.71.71 0 0 0-.077-.57c.358.14.748-.014 1.124-.019.076-.136.152-.282.228-.418l.572-.171c-.042-.217-.091-.428-.133-.645.208-.013.38.126.572.19-.207-.662-.886-.99-1.182-.987.057-.207.12-.32.286-.418-.346-.404-.77-.433-1.182-.475-.26.305-.809.43-1.143.797-.288-.14-.392-.265-.781-.17-.003.318-.208.765-.324 1.082-.186-.015-.321-.143-.552-.038l-.153.76c-.022-.036-.034-.09-.057-.134l-.02-.038h-.018c-.314-.616-.68-1.864-.972-2.259-.099.02-.2.062-.304.114.055-.08.1-.138.247-.265-.07-.161-.415-.396-.496-.513-.09.107-.141.245-.247.36.042-.198.13-.477.17-.626-.381-.63-1.49-1.218-1.694-1.443a6.115 6.115 0 0 1-.21.304 1.652 1.652 0 0 0-.629.057c-.096.134-.147.25-.21.38.14.11.398.028.534.228-.052.312-.072.39-.114.683.276.065.36.08.571.171-.03.269-.047.566-.038.854.332.133.474-.035.781-.02-.28.114-.317.18-.57.324a2.6 2.6 0 0 1 .132.208 2.811 2.811 0 0 0-.286-.133c-1.327-.546-2.847-.563-3.43-.398.258.08.462.194.667.342-.224.084-.37.182-.533.323-.98-.051-1.919.008-2.21.057.19.352.162.564.323.796.196-.003.396.003.591 0-.133.073-.266.137-.4.21.43.002.863-.155 1.258-.19-.175.12-.359.239-.534.36.256-.072.525-.156.782-.228-.186.195-.368.394-.553.59.229.014.457.04.686.055-.188.124-.384.238-.572.361.411-.073.817-.17 1.22-.303-.003.043.007.081 0 .133.22-.06.367-.258.57-.323.04.248-.042.453-.017.702-1.418-.169-2.716-.133-3.774.209-.972.314-2.38 1.111-2.572 1.31-.18.327-.197.687-.362 1.006.198-.274.334-.62.59-.817-.11.217-.212.43-.323.646.256-.185.433-.48.648-.72-.076.248-.175.442-.229.682.118-.138.396-.661.591-.95.022.261-.286 1.235-.286 1.235.287-.402.525-.844.857-1.215a2.38 2.38 0 0 0-.324.95 1.33 1.33 0 0 1 .42-.551 1.45 1.45 0 0 0-.02.588c.189-.341.313-.71.554-1.025-.069.258-.142.52-.21.778.224-.24.472-.425.743-.607-.163.25-.28.493-.343.76.257-.291.524-.584.781-.874-.152.246-.26.469-.343.721.271-.25.456-.575.724-.816-.137.277-.226.505-.247.778.278-.237.549-.408.875-.588-.035.264-.059.533-.094.797.28-.382.614-.591 1.028-.816-.182.225-.219.484-.266.702.258-.348.519-.573.877-.835-.114.299-.23.612-.344.911.28-.288.559-.585.838-.873a3.639 3.639 0 0 0-.419.76c.233-.32.558-.457.781-.798-.163.354-.15.724-.228 1.082a4.28 4.28 0 0 1 .877-.93c-.059.171-.132.341-.191.513.156-.187.41-.305.61-.456.044-.011.089-.026.133-.038a.765.765 0 0 0-.02.208c-.052.04-.102.072-.151.115.056.003.114.003.171 0 .016.067.049.14.076.209a4.08 4.08 0 0 0-.38.38c-.608.262-1.2.537-1.944.93-.642.337-2.433 1.535-2.953 2.069-.787.807-1.235 1.368-1.735 2.316a2.133 2.133 0 0 0-.094.778c.064-.124.125-.256.19-.38.03.108.066.215.095.323.186-.375.27-.777.439-1.158.014.18.024.351.038.531.14-.133.262-.323.362-.512.03.213.154.378.19.607.038-.295.122-.573.247-.835.078.197.151.392.23.589.008-.287.029-.568.038-.855.063.205.126.403.19.607.03-.194.088-.367.172-.569.076.254.112.473.133.74a3.21 3.21 0 0 0 .152-.702c.01.146.029.272.038.418.042-.313.092-.617.134-.93.04.261.185.47.286.702a3.026 3.026 0 0 1 .019-.779c.076.208.112.378.133.627.172-.248.226-.557.343-.835.053.187.119.382.171.569.088-.196.05-.417.077-.626.04.197.082.361.114.57a4.4 4.4 0 0 0-.934 1.1c.11.068.103.164.153.247-.138.435-.546.994-.705 1.576.111-.107.232-.216.343-.323.041.341-.082.657-.019.987.075-.207.23-.297.381-.399.066.2-.071.413.038.59.055-.277.213-.43.324-.647.024.304.02.544-.02.779l1.334-.455c-.01-.123-.008-.239-.018-.36.06.104.11.198.171.303l3.487-1.197v-.056a.59.59 0 0 0 .096.037c-6.728 2.347-14.732 5.106-20.256 6.873-.592.189-1.829.398-1.829.398l-4.553.836c.068.289.226.552.609.607h1.068v.57h.304l.02.265.361-.019c.142.24.3.515.895.76l.02-.058.019.096.342-.039-.304 20.787-.038 2.601-.229.038h-.019a.031.031 0 0 0-.019 0v.057l.038 1.537-6.973.228-.172-.019v.019h-.019v.228l-.019.19h.02l-.02.987h.02l-.02.209 76.387 7.422s36.546 3.192 54.876 2.62c5.078-.159 11.128-1.481 11.128-1.481l.171-.038.172-11.447-.248.038s-4.881.678-7.489.722l-.438-17.883 3.697-2.525.514.153.172-.532.705.227c.294-.114.29-.317.228-.55l-4.268-1.898-1.181-.418-.286-11.409.133.304.153-.057-7.47-18.414c.014.01.023.008.038.02-.027-.29-.033-.45-.057-.741-.046-.319-.156-.6-.382-.683h.003zm.172 1.29h.019l6.516 16.098.305 13.289-7.794-2.772-.552.702.552 1.52 7.604 2.448-3.583 2.373-.038-3.322-3.43-1.006-.019 6.643-.343.229-.019 1.291.362-.247-.038 12.529-10.023-.741-.647-38.82 10.88-10.1c.122-.075.181-.114.247-.114h.001zM69.843 74.99c.025.03.01.103-.02.171-.054-.042-.115-.093-.17-.133.085-.005.12-.003.19-.038zm1.181 1.31c.014.002.025.018.038.02.004.018.014.038.02.056-.018-.02-.04-.056-.058-.076zm-4.115.664c.009.045.012.088.019.134l-.153-.02c.041-.041.094-.078.134-.114zm97.862.076l.02 10.29 2.724 1.233-.019-10.004-2.725-1.519zm-97.369.114c.146.002.29.014.438.02-.004.021-.014.034-.019.055-.018-.003-.019.004-.037 0-.126-.023-.258-.055-.382-.075zm.572.02c.059.001.114.015.172.018-.007.036-.014.059-.02.095l-.21-.038c.015-.026.043-.05.058-.076zm.42.018c.074.005.156.012.228.019-.003.051-.016.1-.02.152-.096-.016-.189-.022-.285-.038.026-.041.052-.091.076-.133zm.361.038c.024.002.035-.004.058 0h.038c.002.056-.002.114 0 .17-.052-.007-.101-.01-.153-.018.019-.052.039-.1.057-.152zm.172.019c.089.01.181.028.267.038-.002.061-.018.11-.02.17-.099-.014-.186-.022-.285-.037l.038-.171zm.362.038c.118.014.23.04.343.057.012.049.041.1.056.152-.037.01-.076.008-.113.019-.109-.016-.216-.022-.324-.038.016-.06.022-.13.038-.19zm.648.095c.043.007.09.011.133.019-.037.003-.062.012-.095.019-.023.004-.053.014-.076.019.014-.017.022-.04.038-.057zm4.096.246h.038c-.01.002-.028.018-.038.02v-.02zm91.463 1.215l1.39.683.02 7.234-1.391-.665-.019-7.252zm-90.663.02a1.117 1.117 0 0 0 0 .455c-.128-.059-.273-.114-.42-.171.14-.04.26-.12.42-.285zm5.297.266c.238.438.596.838.896 1.252.018-.35-.064-.736-.038-1.082.242.514.597.956.972 1.443l-.457-1.006c.441.55.728 1.166 1.162 1.708a.462.462 0 0 0-.077.21l-.78.15-.058-.322a.431.431 0 0 0-.343.398l-.724.115-.096-.323a.383.383 0 0 0-.285.418l-.915.322c.017-.508-.034-1.067-.19-1.5a5.09 5.09 0 0 0-1.01-1.69c.242.12.564.13.78.247.218-.094.46-.148.687-.15.068.162.214.38.382.512a1.955 1.955 0 0 1 .094-.702zm72.236.132l-.038 2.07L45.301 95.282l-.02-.038-.285.019-.038-.247-.268-.019v-.418l107.676-15.318v-.001zm-76.218.341c.003.19.032.387.057.57l-.19-.133c.074-.146.12-.271.133-.437zm-2.706.134A24.4 24.4 0 0 1 75.957 83a41.488 41.488 0 0 0-1.372-1.632 15.13 15.13 0 0 0-.285-.341c-.232-.424-.572-.806-.896-1.196l.038-.096zm1.086.133c.056-.003.111 0 .172 0h.114c-.024.055-.055.114-.077.17-.071-.054-.137-.117-.209-.17zm-4.477.38c.006.083.027.166.038.246l-.057.057c.008-.1.013-.204.019-.304zm7.087.038a2.18 2.18 0 0 0-.114.53c-.061-.053-.127-.1-.19-.152.102-.124.209-.248.304-.378zm-3.83.74c.029.082.068.166.096.246-.019.046-.04.088-.057.133-.007-.126-.025-.253-.039-.38zm4.25.094c-.023.048-.043.086-.058.133-.015-.016-.04-.022-.056-.038.034-.031.08-.064.114-.095zm.362.437c-.02.034-.042.063-.058.095-.013-.016-.024-.023-.038-.038.029-.018.061-.041.096-.057zm5.068 0c.013.003.025.016.038.019h-.038v-.02zm-10.327.019c.014.038.028.092.038.133-.043.071-.074.132-.114.19.027-.106.045-.223.076-.323zm79.725.019c.133.611.308.911.495 1.215l.019.284L46.1 95.947v.056c-.354-.153-.515-.305-.63-.454l106.916-13.953zm-74.045.019c-.04.187-.058.378-.057.569-.064-.082-.128-.17-.19-.246.084-.099.17-.2.247-.323zm-12.518.227c.033.269.061.529.094.798-.038.026-.076.049-.114.076-.002-.296.019-.578.02-.874zm12.842.248c-.057.17-.092.314-.095.474-.04-.057-.074-.116-.114-.17.05-.077.113-.155.209-.304zm-13.376.17c-.014.297.018.558.057.816-.08.068-.153.12-.229.19.08-.334.111-.666.172-1.006zm-.286.152c.073.293.057.594.077.893-.052.048-.104.102-.153.151.04-.347.07-.703.076-1.044zm1.105 0c.022.021.044.04.077.057-.04.025-.095.05-.134.076.014-.045.043-.088.057-.133zm12.976.02v.094c-.022.008-.221.066-.248.076.072-.066.16-.125.248-.17zm-6.631.075a.99.99 0 0 0 .172.209 2.038 2.038 0 0 1-.229.456c.006-.22.023-.444.057-.665zm1.067.02c-.196.371-.248.676-.361 1.005.055-.295.096-.602.132-.93a.917.917 0 0 0 .23-.076zm.457.569c.004.02.014.037.02.057a2.068 2.068 0 0 0-.286.93c.131-.15.252-.322.38-.475.033.177.056.367.077.55-.008.034-.011.062-.02.096-.472.166-.716.246-1.257.436.113-.416.2-.784.267-1.139.286-.09.574-.238.82-.456zm-9.05.436c.034.009.061.03.095.038a6.35 6.35 0 0 0-.114.095l.019-.133zm85.782.095l.191 39.163-62.707-3.285v-1.29h-.019V98.206l-7.278.588v11.998h-2.802v.038a.508.508 0 0 0 .171.418c.101.103.154.232.23.379.07.136.147.288.285.418h-.553v1.139h-2.362v-1.196h-.553v-.19c.032-.059.071-.115.096-.171.066-.15.115-.288.228-.379.003-.003-.003-.016 0-.019.1-.089.147-.224.153-.399v-.057h-.477V99.25l-5.507.437v12.263l2.878.038v1.423l-3.125 3.93h-.115c.121-.123.189-.249.249-.379.068-.15.152-.29.266-.38.004-.003-.004-.016 0-.019.1-.088.144-.225.152-.399v-.057l-3.124-.038v.038c-.005.126.002.254.132.38.007.005.014.013.02.019.1.106.154.269.228.418.07.143.156.281.305.417h-.457l-.02.76-20.159-1.178.077-20.824 103.6-12.472h-.003zm-78.044.19c.005.345.064.616.19.892-.108.038-.137.056-.248.095-.046-.254-.109-.508-.153-.759.066-.059.142-.12.21-.228zm68.498 10.061l-10.957.893v17.616l10.957.095V93.878zm-20.693 1.69l-9.223.74v15.946l9.223.076V95.568zm19.321.209l-.038 15.149-8.365.018.019-14.655 8.384-.513zm-.858 1.043l-6.44.38v2.772l6.44-.323V96.82zm-36.508.21l-7.678.626v14.484l7.678.057V97.03zm16.863.151l-.038 13.801-6.689.019.039-13.307 6.688-.513zm46.245.835l2.363.703.038 3.094-1.868 1.234-.533-.152v-1.329l1.867.532v-2.487l-1.867-.55v-1.045zm-47.2.114l-4.84.361v2.563l4.84-.304v-2.62zm-16.94.285l-.038 12.339-5.335.038.038-11.864 5.335-.513zm-.685.95l-3.945.322v2.259l3.945-.265v-2.316zm72.538.057l.266.075 2.401.684-2.648 1.765-.058-2.505.039-.02zm-86.165.132l-.038 17.427-1.981-.038-3.163-3.873.019-13.003 5.163-.513zm4.193.323c-.075 0-.143.078-.153.152-.01.059.016.118.057.189.038.049.022.07-.019.057 0 0-.324.069-.438.171-.156.139-.219.326-.362.456-.065.059-.172.028-.172.114 0 .073.172.057.172.057s.227 1.124.285 1.272c.023.057.123.02.172.057.053.039.074.122.133.151.067.033.21 0 .21 0s.051.27.133.267c.091-.005.114-.267.114-.267s.087.013.172-.038c.042-.025.066-.092.095-.132.022-.032.166-.039.172-.076l.172-1.215s.15.009.151-.076c0-.086-.08-.038-.132-.114-.017-.029-.063-.224-.115-.322-.054-.102-.165-.155-.266-.21a1.728 1.728 0 0 0-.306-.095c-.034-.005-.011-.034 0-.057 0 0 .079-.119.076-.208-.002-.074-.077-.133-.151-.133zm81.093.133l.058 2.506-3.24 2.145-.019 1.139 3.278-2.24.342 14.56-4.115-.322-.153-15.188 3.849-2.6zm-107.751.114l-4.573.361v11.408l4.573.019v-11.788zm21.836.38l-3.868.322v2.278l3.868-.265v-2.335zm-11.928.076l-.038 10.193h-1.83v.038c0 .044.012.086.02.133l-2.02.019.019-9.947 3.849-.437v.001zm64.422.151l-2.573.133v4.195l2.573-.057v-4.271zm-61.222.019c-.069 0-.124.065-.134.133-.008.054.02.124.057.19.034.045.018.049-.019.038 0 0-.295.058-.4.152-.142.127-.192.317-.324.437-.059.053-.171.016-.172.094 0 .067.172.057.172.057s.214 1.023.267 1.158c.02.052.107.023.152.057.049.036.06.125.114.152.061.03.191 0 .191 0s.04.231.115.228c.084-.005.094-.228.094-.228s.095.009.172-.038c.038-.023.069-.096.096-.133.02-.028.147-.042.152-.076l.152-1.12s.131.021.133-.057c0-.078-.066-.044-.113-.113-.016-.027-.067-.196-.115-.286-.05-.093-.135-.139-.228-.189-.081-.044-.287-.076-.287-.076-.03-.005-.01-.036 0-.057 0 0 .078-.108.077-.19-.003-.067-.084-.133-.152-.133zm-22.237.114l-3.944.323-.038 10.725 3.963-.057.019-10.991zm79.742.057l-2.743.19v4.006l2.743-.058v-4.138zm-44.702.228l.572.057v1.044l-.362-.019-.21-1.082zm1.315.038l-.134 1.006-.419.057v-1.044l.553-.019zm-27.743.17l-.038 9.474-3.296.019.019-9.112 3.315-.381zm9.927.057l-2.82.267v1.879l2.82-.228v-1.918zm44.321.342l-1.925.114v3.873l1.925-.057v-3.93zm-63.414.152l-.02 8.979-2.915.019v-8.638l2.935-.36zm22.102.019l.534.038v.949l-.343.001-.19-.988zm38.51 0l-2.058.189v3.684l2.058-.057v-3.816zm-37.29.019l-.133.93-.381.038v-.949l.514-.019zm-14.596.19l-2.42.228v1.727l2.42-.209v-1.746zm37.061.436l-1.581.114v3.417l1.581-.057v-3.474zm-46.187.133l-2.096.228v1.595l2.096-.19v-1.633zm43.901.019l-1.677.152v3.265l1.677-.038v-3.379zm69.494.285l.171 17.142-2.61-.152.038-2.43h-.038l.019-7.726.609.133v-3.303l-.609-.133v-.494l.609.096v-1.88l.534-.36v2.335l.743.151v-2.961l-.038-.019.572-.399zm-81.458.721l-1.543.076v2.867l1.543-.038v-2.905zm-2.248.133l-1.64.115v2.733l1.64-.038v-2.81zm-10.195.228l-1.124.076v2.848l1.124-.038v-2.886zm-1.62.114l-1.219.133v2.715l1.22-.038v-2.81zm-8.746.361l-.952.076v2.6l.952-.038v-2.638zm-1.39.114l-1.03.114v2.486l1.03-.038v-2.562zm-7.736.303l-.839.057v2.431l.839-.038v-2.45zm-1.22.095l-.896.115v2.316l.896-.038v-2.393zm137.299.051c-2.078 0-3.857.672-5.339 2.017-1.482 1.345-2.222 2.961-2.222 4.849 0 1.895.74 3.514 2.222 4.859 1.482 1.345 3.261 2.018 5.339 2.018 2.07 0 3.842-.673 5.316-2.018 1.482-1.351 2.223-2.971 2.223-4.859s-.741-3.504-2.223-4.849c-1.474-1.345-3.246-2.017-5.316-2.017zm-51.667.538l-2.573.057v3.967l2.573-.057v-3.967zm-3.717.057l-2.743.057v3.987l2.743-.077v-3.967zm55.383.258c1.808 0 3.353.592 4.636 1.775 1.291 1.177 1.935 2.59 1.935 4.238 0 1.656-.644 3.075-1.935 4.258-1.283 1.177-2.828 1.765-4.636 1.765-1.815 0-3.371-.588-4.669-1.765-1.29-1.183-1.935-2.602-1.935-4.258 0-1.648.645-3.061 1.935-4.238 1.298-1.183 2.854-1.775 4.669-1.775zm-72.263.312l-1.924.056v3.683l1.924-.057v-3.682zm-2.8.056l-2.058.057v3.683l2.058-.057v-3.683zm-14.824.247l-1.582.038v3.246l1.582-.056v-3.228zm-2.287.038l-1.677.057v3.246l1.677-.057v-3.246zm68.214.132v3.304l.743.151v-3.302l-.743-.153zm-80.183.305l-1.543.038v2.714l1.543-.038v-2.714zm-2.248.038l-1.64.037v2.715l1.64-.037v-2.715zm-10.195.322l-1.124.038v2.696l1.124-.038v-2.696zm-1.62.038l-1.218.038v2.695l1.218-.037v-2.696zm-8.745.133l-.953.038v2.468l.952-.038v-2.468zm-1.391.038l-1.03.038v2.468l1.03-.038v-2.468zm-7.736.171l-.839.038v2.297l.839-.038v-2.297zm-1.22.038l-.896.038v2.278l.896-.019v-2.297zm133.245.159v.339c.348.013.592.085.734.214.149.129.224.481.224 1.057v4.587c0 .537-.082.892-.245 1.067-.156.174-.45.256-.883.243v.339h4.509v-.339c-.454-.007-.783-.068-.989-.184-.198-.117-.297-.492-.297-1.126v-1.93h.5l2.179 3.579h2.563v-.339c-.404-.059-.773-.375-1.106-.951l-1.457-2.425c1.262-.342 1.894-1.011 1.894-2.007 0-.446-.153-.847-.458-1.203a2.23 2.23 0 0 0-1.148-.727c-.468-.13-1.188-.194-2.159-.194h-3.861zm3.052.417c.957 0 1.578.152 1.862.456.283.304.425.708.425 1.212 0 .505-.159.918-.478 1.241-.319.324-.727.485-1.224.485-.234 0-.429-.013-.585-.038v-3.356zM86.47 110.26l-1.544.038v2.715l1.544-.038v-2.715zm-2.249.038l-1.639.038v2.715l1.64-.038v-2.715zm-11.47.551h2.953v.019c0 .02-.01.099-.02.133a.424.424 0 0 1-.056.133h-.02c-.004.007-.013.013-.019.019h-.285l-1.62-.019h-.838l-.019-.019c-.04-.046-.048-.107-.057-.171-.004-.026-.02-.047-.02-.076v-.019zm5.411.038h2.973a.832.832 0 0 1-.039.19c-.01.027-.044.057-.057.076v.019h-2.477l-.286-.019h-.02c-.006-.007-.013-.012-.018-.019a.336.336 0 0 1-.076-.228v-.019zm-4.212.323c.565.001 1.144.018 1.296.019h.286l-.02.019c-.01.013-.027.043-.037.057a.9.9 0 0 0-.057.094c-.025.047-.04.072-.076.153l-.02.038c-.005.012-.013.025-.018.038a1.18 1.18 0 0 1-.229.341l-.019.019h-1.62a1.183 1.183 0 0 1-.19-.228c-.045-.066-.076-.099-.152-.247a1.677 1.677 0 0 0-.153-.265c-.008-.01-.018-.017-.02-.019-.002-.004.168-.021 1.03-.019zm4.383.038h2.611s-.007.005-.02.019c-.013.015-.025.057-.038.076-.01.016-.028.038-.038.056a1.535 1.535 0 0 0-.114.21c-.093.208-.138.303-.229.398l-.019.019h-1.619l-.019-.038a1.077 1.077 0 0 1-.23-.284l-.094-.152c-.028-.055-.04-.06-.057-.096-.045-.069-.08-.145-.134-.208zm2.553.265v.532h-.324c.118-.126.192-.268.249-.398.021-.049.054-.089.075-.134zm-8.002.627h1.981v1.234h3.545v-1.196h2.267l.02 1.177 4.057 5.049 3.068.114v5.638l-20.578-1.765.132-4.842 2.269.057 3.238-4.081v-1.385zm-5.831 4.005h.267c.087.005.183.018.267.019h.762c.302.005.632.018.743.019.11.002.374-.003.571 0 .187.004.327.018.344.019h.018c.002.002-.01.057-.018.096-.007.03-.026.048-.038.075-.015.032-.022.07-.038.095-.005.007-.015.013-.02.019l-1.428-.038c-.965-.017-1.329-.016-1.335-.019a.216.216 0 0 1-.057-.075c-.004-.011.005-.027 0-.038-.003-.014-.017-.024-.02-.038-.007-.031-.018-.058-.018-.095v-.039zm.153.361h.095l1.79.038.725.019h.038a.785.785 0 0 0-.115.133c-.02.031-.04.062-.056.095-.021.039-.03.055-.057.114-.002.005.002.013 0 .019-.094.202-.14.269-.23.36l-.038.057-.818-.019c-.204 0-.43.002-.534 0l-.248-.019h-.019a1.46 1.46 0 0 1-.133-.133c-.007-.008-.012-.026-.02-.037-.035-.05-.067-.1-.095-.152-.009-.017-.032-.071-.056-.114-.011-.022-.028-.037-.038-.057l-.02-.038c-.042-.077-.079-.158-.133-.228-.011-.015-.019-.018-.02-.019-.005-.007-.013-.012-.019-.019zm17.473.513h.647l1.715.038c.126.002.61-.001.61 0 .004.004-.025.131-.038.17a.457.457 0 0 1-.038.076l-.02.038h-.057a1.429 1.429 0 0 1-.114 0c-.011 0-.262.002-.343 0-.178-.003-.377-.013-.743-.019h-.152c-.404-.006-.566-.015-.8-.019h-.574l-.019-.019a.402.402 0 0 1-.056-.132c-.004-.017-.017-.047-.02-.076v-.057zm.266.36l1.314.02c.663.009 1.2.036 1.2.038.002.001-.003.001-.018.019-.06.067-.088.105-.229.398a1.057 1.057 0 0 1-.17.247v.019l-.02.019v.019h-.019l-.019.038h-.248c-.14-.001-.498.004-.8 0l-.553-.019-.038-.019c-.096-.08-.189-.227-.305-.456-.087-.173-.113-.23-.152-.284-.013-.018-.02-.018-.02-.02 0 0 .026-.02.077-.019zm-38.07 2.164c.032.002.392.015.82.019.405.005.706.016.742.019l-.457.114h-.02l-1.524-.076h-.076c-.023-.001.007-.008.21-.038l.228-.019c.016-.001.065-.019.077-.019zm1.962.038c.001.002-.015.144-.019.304v.285l-.038.019a7.568 7.568 0 0 1-.42.114c-.27.066-.387.084-.723.076a44.864 44.864 0 0 1-.572-.019 47.37 47.37 0 0 1-.933-.057l-.172-.019h-.02c-.002-.003 0-.4 0-.512v-.096l.096.019h.096l.933.038.915.039.247-.058c.141-.029.346-.075.439-.095.092-.019.17-.039.171-.038zm5.297.229h.762c.413.003.85.016.972.019h.21l-.191.037c-.111.022-.25.045-.305.057-.092.019-.113.025-.266.019-1.035-.042-1.62-.057-1.64-.057-.053 0 .002-.005.23-.038l.228-.037zm2.287.037v.001c.01 0 .01.635 0 .645-.011.011-.315.11-.477.151-.277.07-.358.073-.628.076-.133.002-.322.005-.42 0-.362-.015-.687-.044-1.562-.094h-.115v-.038c-.002-.016.003-.153 0-.323l-.019-.323h.038c.034 0 .676.025.973.038.119.005.452.027.743.038l.533.019.248-.057c.143-.03.363-.071.477-.095a2.97 2.97 0 0 1 .209-.038zm6.783.19l.877.019c.482.007.985.019 1.105.019.12.001.217-.003.21 0a9.527 9.527 0 0 1-.343.076c-.326.068-.41.074-.63.057a36.92 36.92 0 0 0-.78-.038c-.749-.028-1.034-.03-1.01-.038a3.85 3.85 0 0 1 .304-.057l.267-.038zm2.592.057a4.13 4.13 0 0 1 0 .38l-.02.36-.018.019a6.842 6.842 0 0 1-.515.152c-.335.083-.37.073-.762.076-.202.002-.397.002-.439 0l-.38-.019c-.33-.015-1.522-.071-1.525-.075 0-.002-.014-.187-.02-.399v-.38l.268.018c.149.005.47.009.724.019.255.011.734.026 1.048.039l.572.038.19-.058c.67-.141.87-.177.877-.17zm23.665.285v1.442l-1.276.133v-1.461l1.276-.114zm91.556.246l-.172 10.593c-.276.06-5.986 1.271-10.88 1.424-18.262.57-54.818-2.62-54.818-2.62l-26.962-2.619v-1.652l59.791 4.708.019-.228h.02v-2.145l.724-.133 11.928.816.019-.436h-.019l-.02-2.79 1.563.057v-.076h.019l.019-4.651c.034.001 7.479.429 11.242.417 2.509-.007 7.118-.609 7.528-.665h-.001zm-132.219.133c.005.005-.012.67-.019.741a.383.383 0 0 1-.057.171c-.003.003-.032.014-.038.019 0 0-.128.069-.286.151-.121.096-.291.119-.419.171-.146.029-.243 0-.381 0-.517-.024-1.06-.086-1.524-.133a.325.325 0 0 1-.096-.189v-.418c-.007-.23-.02-.416-.019-.418v-.019c.005.001.127.018.153.019h.057c1.252.083 1.74.108 1.83.096a6.39 6.39 0 0 0 .647-.153c.085-.024.15-.04.152-.038zm7.603.38c0 .001.005.186 0 .418-.012.456-.024.491-.077.57-.007.011-.01.027-.019.038l-.019.019h-.019c-.019.015-.036.034-.076.056-.077.043-.15.076-.229.114-.088.046-.18.094-.266.133-.06.024-.14.048-.172.056-.01.004-.03.018-.038.019a.716.716 0 0 1-.152 0c-.072-.004-.161-.012-.267-.019-.21-.013-.47-.034-.724-.056-.279-.024-.356-.038-.534-.057-.495-.046-.441-.026-.476-.076-.009-.012-.013-.027-.02-.038-.023-.032-.027-.075-.037-.114-.004-.013-.018-.023-.02-.037v-.229c-.002-.071.004-.093 0-.208-.006-.261-.021-.472-.019-.475.005-.004.129.003.668.038.543.036.975.06 1.333.076.2.009.222-.002.324-.019.124-.021.411-.08.668-.152.092-.026.17-.058.17-.057zm-10.5.284v.248a.446.446 0 0 0 .134.265v.019a.031.031 0 0 0 .02 0s.435.056.892.096l-6.038-.475 4.992-.153zm19.856.153c.003.003.006.238 0 .513-.015.585-.028.616-.249.74-.064.035-.113.063-.247.132a2.57 2.57 0 0 1-.515.209c-.01.003-.03.018-.038.019-.013.003-.058.001-.094 0h-.058c-.043-.002-.112.004-.172 0-.03-.001-.119-.017-.151-.019-.27-.017-.589-.034-1.258-.095l-.686-.057-.02-.038c-.008-.011-.027-.034-.037-.056-.011-.016-.01-.04-.02-.057a.364.364 0 0 1-.038-.114v-.171h.02c-.003-.066-.016-.109-.02-.228-.006-.243-.021-.491-.019-.55v-.114l.572.038c.824.053 1.487.085 1.753.095.188.007.243-.001.343-.019.144-.027.476-.096.743-.171.104-.03.188-.06.19-.057zm-16.92.038l4.324.322v.247c.015.11.07.205.153.285a.031.031 0 0 0 .02 0s.498.05 1.009.094c.255.023.512.063.724.077.106.006.193-.003.267 0a.926.926 0 0 0 .152 0c.123-.018.337-.117.515-.209.178-.092.324-.171.324-.171a.061.061 0 0 0 .019 0c.033-.029.038-.062.057-.095l5.678.417v.172c.017.126.077.25.172.341a.031.031 0 0 0 .019 0s.54.064 1.124.114c.292.026.596.042.838.058.12.007.24.016.324.019.085.004.151.005.19 0 .141-.021.35-.123.553-.229.204-.105.381-.208.381-.208l1.41.094-.019.703-20.118-1.595c.228.02.456.026.645.039.095.006.18-.002.247 0a.716.716 0 0 0 .134 0 1.75 1.75 0 0 0 .457-.172c.16-.083.305-.17.305-.17a.298.298 0 0 0 .095-.133zm-9.89.246l28.124 2.222-.038 1.271-28.105-2.733.019-.76zm52.058.248v1.215l-2.82.36v-1.291l2.82-.284zm12.767.038l1.315.018c.73.008 1.373.014 1.429.019h.114l-.457.095c-.243.05-.431.096-.439.095-.007-.001-.565-.029-1.238-.057-.674-.028-1.286-.057-1.353-.057-.067-.001-.118.003-.114 0 .003-.004.179-.028.381-.057l.362-.056zm3.429.075a5.19 5.19 0 0 1 0 .475l-.019.493-.094.038a8.006 8.006 0 0 1-1.106.285c-.161.023-.844.021-1.296 0-.925-.042-2.312-.122-2.324-.133a7.341 7.341 0 0 1-.019-.512v-.513l.114.019c.059.002.419.004.801.019.381.015.911.046 1.18.057.27.011.676.03.915.038l.438.019.439-.095c.829-.174.963-.198.971-.19zm47.867.74l6.955.209v2.013l-6.917-.324-.038-1.898zm-32.945.305l1.543.019c.844.011 1.539.033 1.544.038.011.01-.978.193-1.029.189l-1.296-.057a99.873 99.873 0 0 0-1.41-.057c-.089 0-.157.004-.152 0a3.42 3.42 0 0 1 .4-.076l.4-.056zm3.697.075l-.019.304c-.005.162.006.384 0 .512-.011.23-.026.247-.077.267a10.3 10.3 0 0 1-.762.227c-.448.106-.477.109-1.009.114a7.805 7.805 0 0 1-.592-.019c-.042-.003-.282-.007-.552-.019-.27-.012-.87-.051-1.315-.076a29.154 29.154 0 0 0-.838-.038c-.054 0-.064-.049-.077-.645v-.456h.153c.089 0 .572.017 1.067.038.495.021 1.243.059 1.677.076l.8.038.686-.152c.381-.08.738-.146.781-.152l.077-.019zm-33.708.285l.705.019.038 1.025-4.668.607v-1.158l3.925-.493zm49.503.493l3.296.038-1.277.209-3.182-.076 1.162-.171h.001zm-34.451.038c.001.002-.009.306-.019.665-.021.765-.018.835-.286.987h-.019c-.033.019-.053.034-.095.057-.064.034-.113.063-.248.133a6.07 6.07 0 0 1-.571.247 1.4 1.4 0 0 1-.153.038c-.027.003-.1.022-.209.019-.052-.002-.128-.012-.191-.019-.037-.005-.073.004-.115 0-.154-.01-.739-.058-1.2-.095-.11-.009-.195-.011-.286-.019-.394-.035-.586-.057-.762-.077a15.192 15.192 0 0 1-.19-.019l-.229-.019c-.003-.003.003-.014 0-.018-.026-.01-.051-.05-.077-.095a.525.525 0 0 1-.056-.114c-.013-.037-.033-.073-.038-.114v-.075c-.002-.024.002-.102 0-.134a10.728 10.728 0 0 1-.019-.474c-.01-.392-.003-.719 0-.722.002-.002.082.012.19.019.108.008.339.027.514.038.176.012.422.012.534.019.77.05 1.525.104 1.848.115.224.007.308 0 .42-.019.154-.027.704-.174 1.028-.267.119-.034.227-.059.229-.057zm38.357.057c.005.006.01.274 0 .589l-.019.569-.305.095a9.948 9.948 0 0 1-1.181.285c-.218.031-.922.032-1.582 0-1.092-.052-2.613-.14-2.668-.151-.079-.017-.087-.084-.095-.704v-.511h.114c.06 0 .364.023.686.038.322.014.911.04 1.315.056.405.015 1.02.041 1.372.057l.647.019.858-.17c.47-.098.852-.177.858-.172zm-52.534.646l9.299.626v.228a.759.759 0 0 0 .209.456h.057v.019s.716.066 1.487.133c.385.033.785.054 1.105.075.159.011.307.034.419.038.111.003.177-.012.229-.019.186-.026.494-.164.762-.303.269-.14.495-.266.495-.266v-.019l.019-.019 13.433.911.02.399c.023.18.093.344.229.474a.06.06 0 0 0 .019 0 .06.06 0 0 0 0 .019 109.897 109.897 0 0 0 1.638.152c.415.036.838.092 1.181.114.172.012.319-.003.439 0 .12.005.21.008.266 0 .2-.028.53-.191.82-.341.289-.15.514-.286.514-.286a.067.067 0 0 0 .02 0v-.019a.521.521 0 0 0 .132-.151l13.796.93.019.417a.886.886 0 0 0 .267.532v.019a.06.06 0 0 0 .019 0v.019a62.872 62.872 0 0 0 3.163.266c.194.013.379.034.514.038.135.005.223-.01.286-.019.225-.032.59-.192.915-.361.325-.168.591-.341.591-.341h.018a.619.619 0 0 0 .134-.172l2.305.153-.019 1.442-58.725-4.632 3.926-.512zm61.183.398l6.249.266.02 1.651-6.364-.322.095-1.595zm-28.41.209c.003.005-.009.317-.019.703l-.019.702-.058.114c-.018.038-.039.053-.056.076-.008.01-.01.029-.019.038-.003.003-.017-.003-.019 0-.005.005-.014.015-.02.019-.004.005.005.015 0 .018-.025.019-.049.03-.095.057-.013.008-.057.027-.076.038-.091.053-.159.095-.343.191a7.484 7.484 0 0 1-.571.265c-.027.01-.054.012-.077.019a.694.694 0 0 1-.095.019c-.006.002-.015.019-.019.019a1.91 1.91 0 0 1-.248 0c-.099 0-.299-.008-.476-.019-.1-.006-.174-.012-.267-.019-.259-.019-.908-.084-1.448-.133-.397-.036-.646-.06-.8-.076h-.019l-.191-.018-.019-.019c-.023-.02-.037-.051-.057-.095-.028-.046-.041-.099-.057-.153-.01-.033-.033-.058-.038-.095l-.019-.379h.038c-.022-.469-.05-1.109-.038-1.12a4.99 4.99 0 0 1 .457.019c1.329.086 1.58.099 2.172.133.281.016.642.038.8.038.336.003.446-.018 1.22-.228.256-.07.471-.118.476-.114zm19.721 1.101l-.038 1.025s-.012.649-.172.797h.019c-.016.019-.017.04-.038.058-.009.005-.256.159-.571.322-.232.12-.474.218-.667.285-.073.026-.166.07-.21.076a2.057 2.057 0 0 1-.247 0c-.132-.005-.304-.026-.496-.038-.139-.007-.262-.009-.381-.018-.148-.012-.33-.024-.496-.039-.159-.011-.297-.024-.457-.038-.402-.034-.473-.049-.781-.076-.39-.033-.97-.074-.991-.076a.685.685 0 0 1-.209-.417l-.019-1.689.266.019c.146.009.446.022.648.037.936.066 2.672.171 2.954.171.35 0 .603-.045 1.41-.266l.476-.133zm8.098.475h.02l6.84.342.019.93-9.927-.665.381-.076 2.668-.531h-.001zm-92.471 7.882a10.975 10.975 0 0 0-2.144.204c-2.017.385-3.958 1.212-5.822 2.481-1.865 1.27-3.153 2.625-3.864 4.066-.699 1.416-.753 2.727-.164 3.933s1.451 2.087 2.586 2.642c1.284.629 2.817.864 4.599.703 1.791-.164 2.828-.532 3.11-1.103.227-.46.103-.805-.37-1.037-.225-.11-.754-.096-1.59.043a8.976 8.976 0 0 1-2.51.055c-.843-.097-1.502-.261-1.975-.493-.804-.394-1.292-.942-1.465-1.644-.172-.701-.08-1.412.275-2.132.536-1.087 1.548-2.145 3.039-3.173 1.5-1.032 3.043-1.752 4.63-2.162 1.589-.41 2.832-.396 3.73.044.292.143.333.43.122.859-.126.254-.332.547-.619.877-.292.326-.488.589-.586.787-.141.286-.166.556-.074.809a.955.955 0 0 0 .493.553c.23.113.585.149 1.063.105.478-.043.85-.193 1.116-.449.268-.262.58-.753.936-1.473.328-.665.364-1.368.11-2.109-.253-.741-.797-1.315-1.632-1.724-.877-.43-1.875-.65-2.994-.662zm106.698 1.947c-.264-.006-.54.06-.826.198-1.502.722-2.537 2.373-3.108 4.953-.573 2.573-.46 4.686.34 6.337.333.686.809 1.152 1.43 1.399.621.246 1.213.235 1.776-.036 1.533-.737 2.598-2.583 3.195-5.537 1.02 2.407 2.118 3.328 3.294 2.763.35-.169.633-.436.85-.801.222-.368.256-.711.102-1.029-.103-.212-.307-.318-.614-.316-.305.008-.507-.025-.605-.101a7.255 7.255 0 0 1-.553-.518c-.263-.273-.588-.808-.974-1.606-.372-.767-.743-1.852-1.115-3.256-.195-.752-.355-1.259-.482-1.521-.266-.548-.759-.649-1.478-.303-.381-.408-.791-.617-1.232-.626zm-18.085 1.494a1.808 1.808 0 0 0-.635.071c-.575.162-.974.435-1.196.821-.225.379-.27.809-.134 1.288.094.334.342.624.744.87.408.245.813.311 1.214.199.314-.089.636-.37.964-.843.326-.48.422-.956.288-1.429a1.278 1.278 0 0 0-.684-.811 1.409 1.409 0 0 0-.561-.166zm18.099.854c.1.009.207.043.322.104.231.111.422.323.573.634.474.979.487 2.383.039 4.212-.444 1.82-1.036 2.908-1.774 3.263-.213.102-.443-.102-.691-.613-.471-.972-.539-2.396-.206-4.27.337-1.883.822-2.977 1.453-3.281a.536.536 0 0 1 .283-.049h.001zm-7.27 1.4a3.002 3.002 0 0 0-.957.187c-.87.31-1.585 1.123-2.145 2.439-.556 1.308-.946 2.895-1.169 4.76l-.055.372-.294-1.592a8.657 8.657 0 0 1-.163-1.287c-.052-1.069-.133-1.757-.243-2.063a1.038 1.038 0 0 0-.513-.567c-.256-.136-.56-.143-.914-.017-.333.119-.6.332-.8.638-.2.307-.295.594-.287.863.012.261.103.72.273 1.38.046.167.104.401.174.699a38.89 38.89 0 0 0 .778 2.876c.263.817.481 1.464.651 1.94.417 1.16.812 1.963 1.186 2.41.372.441.784.581 1.235.42.426-.151.722-.382.891-.692.171-.304.195-.742.07-1.315a11.091 11.091 0 0 1 .243-5.862c.606-1.929 1.155-2.981 1.645-3.155.138-.049.362-.008.675.123.453.214.882.249 1.287.104a.718.718 0 0 0 .48-.546 1.582 1.582 0 0 0-.075-.888c-.18-.502-.548-.86-1.104-1.073a2.254 2.254 0 0 0-.869-.154zm-90.69 2.002c-1.304-.039-2.793.477-4.467 1.546-2.23 1.42-3.646 2.997-4.249 4.729-.25.719-.243 1.385.022 1.996.265.612.692 1.02 1.283 1.224 1.608.556 3.67-.003 6.186-1.675-.983 2.422-.857 3.846.376 4.272.368.127.758.138 1.17.031.418-.104.686-.324.802-.657.077-.222.006-.441-.213-.656-.221-.208-.34-.374-.357-.497a7.356 7.356 0 0 1-.023-.755c.007-.378.156-.986.447-1.823.28-.804.786-1.835 1.517-3.091.395-.669.64-1.141.736-1.416.2-.575-.077-.993-.831-1.253.03-.891-.355-1.474-1.156-1.751a4.167 4.167 0 0 0-1.243-.224zm79.69 1.961a2.205 2.205 0 0 0-.63.09c-.387.109-.644.36-.771.755-.119.393-.109.837.03 1.33.049.173.138.896.266 2.169l-.002-.011c.037.335.073.692.107 1.07.139 1.715.369 3.139.689 4.271.377 1.333 1.006 1.875 1.889 1.627.334-.094.608-.311.822-.651.22-.343.31-.59.266-.743a1.873 1.873 0 0 0-.115-.291c-.333-.64-.556-1.164-.671-1.57-.142-.5-.29-1.166-.446-2-.157-.833-.233-1.944-.229-3.333l-.001-.237c.011-.902-.02-1.486-.095-1.753-.075-.266-.271-.47-.585-.612a1.31 1.31 0 0 0-.524-.111zm-79.88.157c.096.008.186.026.27.054.183.064.313.219.389.465.085.242.07.526-.043.853-.358 1.027-1.343 2.03-2.956 3.011-1.605.976-2.794 1.33-3.569 1.063-.223-.077-.241-.384-.054-.92.355-1.02 1.314-2.076 2.878-3.169 1.377-.96 2.405-1.412 3.084-1.357zm10.055.201c-.82.015-1.719.195-2.698.541-1.559.548-2.49 1.416-2.793 2.603-.143.564-.085 1.136.176 1.716.262.573 1.003 1.367 2.22 2.382.998.809 1.464 1.398 1.399 1.767-.298.239-.819.371-1.564.397a7.364 7.364 0 0 1-2.067-.201 2.207 2.207 0 0 1-.708-.34c-.245-.162-.432-.259-.56-.292a1.303 1.303 0 0 0-.946.125 1.102 1.102 0 0 0-.594.728c-.224.879.274 1.472 1.492 1.781 1.657.419 3.23.471 4.723.155 1.5-.32 2.376-.969 2.626-1.948.136-.537.076-1.073-.182-1.609-.257-.537-.898-1.228-1.923-2.073-.693-.568-1.138-1.005-1.332-1.311-.193-.313-.255-.6-.188-.862.136-.536.616-.915 1.439-1.135.823-.22 1.534-.255 2.133-.103.102.025.234.109.399.251.165.141.284.221.358.24.181.046.427-.002.736-.145.315-.142.506-.343.573-.605.251-.986-.192-1.623-1.33-1.911a5.252 5.252 0 0 0-1.39-.151zm31.614.264c-1.34-.031-2.957.149-4.849.542-1.892.385-2.845.869-2.859 1.45-.014.595.203 1.012.649 1.25.047.078.063.397.05.957-.011.491-.209 2.006-.595 4.545-.477 3.138-.721 4.981-.734 5.527-.023.99.393 1.494 1.247 1.514.396.009.712-.133.948-.425s.358-.628.367-1.009c.023-.969.139-2.253.351-3.854.126-.046.639-.152 1.539-.318 2.457-.441 4.552-1.237 6.288-2.388 1.737-1.157 2.623-2.524 2.66-4.101.026-1.094-.419-1.973-1.335-2.638-.915-.665-2.158-1.015-3.727-1.052zm31.544.246a3.124 3.124 0 0 0-.552.07c-1.528.326-2.787 1.461-3.776 3.406-.989 1.944-1.28 3.863-.873 5.758.276 1.286.821 2.221 1.635 2.805.813.577 1.793.743 2.941.498 1.495-.318 2.732-1.091 3.711-2.318.978-1.235 1.392-2.204 1.241-2.908-.098-.453-.35-.637-.757-.55-.245.052-.467.241-.667.567-1.044 1.687-2.249 2.676-3.614 2.967-.483.102-.901.04-1.256-.189-.349-.237-.558-.518-.628-.843-.042-.196.034-.34.227-.431 1.686-.783 2.982-1.827 3.888-3.131.905-1.311 1.231-2.555.978-3.733a2.452 2.452 0 0 0-1.061-1.568 2.348 2.348 0 0 0-1.437-.4zm-31.666 1.807c1.834.043 2.738.642 2.711 1.797-.023.969-.802 1.861-2.336 2.677-1.533.809-3.303 1.357-5.311 1.642l.742-5.445c1.526-.477 2.924-.7 4.195-.671h-.001zm-21.654.056c-1.474-.024-3.072.738-4.796 2.285-1.97 1.76-3.111 3.544-3.425 5.351-.13.75-.014 1.406.347 1.967.36.56.849.894 1.465 1 1.677.289 3.62-.595 5.831-2.651-.576 2.548-.22 3.933 1.066 4.155.384.066.77.014 1.16-.158.395-.171.624-.43.684-.778.04-.231-.065-.436-.317-.613-.252-.17-.396-.314-.432-.432a7.272 7.272 0 0 1-.147-.742c-.054-.375-.005-.999.146-1.872.146-.838.477-1.936.995-3.294.28-.724.446-1.229.496-1.516.104-.6-.239-.968-1.026-1.103-.114-.884-.588-1.398-1.423-1.541a3.935 3.935 0 0 0-.624-.058zm45.698.232a3.554 3.554 0 0 0-.507.031c-.916.123-1.785.771-2.608 1.943-.817 1.164-1.529 2.635-2.137 4.413l-.131.353.044-1.619c.01-.497.047-.928.11-1.293.172-1.057.237-1.745.193-2.068a1.026 1.026 0 0 0-.384-.661c-.221-.187-.518-.255-.889-.205-.351.047-.658.2-.917.458-.26.258-.413.52-.461.784-.042.258-.05.726-.021 1.407.009.173.017.413.024.719.025 1.177.079 2.168.16 2.974.088.854.164 1.532.232 2.033.165 1.22.384 2.089.657 2.604.272.508.646.73 1.121.666.447-.06.785-.224 1.015-.493.231-.261.346-.685.344-1.271a11.101 11.101 0 0 1 1.461-5.684c.996-1.761 1.752-2.675 2.268-2.744.145-.02.356.067.635.26.398.303.811.426 1.238.368a.718.718 0 0 0 .582-.435c.119-.26.157-.554.112-.884-.071-.528-.357-.954-.857-1.278a2.347 2.347 0 0 0-1.284-.378zm7.391.076c.14.001.269.05.386.147a.844.844 0 0 1 .313.518c.122.568-.153 1.289-.825 2.161a6.29 6.29 0 0 1-2.539 1.973c.022-1.023.3-2.045.834-3.065.534-1.019 1.096-1.592 1.687-1.718a.662.662 0 0 1 .144-.016zm-20.05.844a3.918 3.918 0 0 0-.285.006c-1.56.095-2.974 1.03-4.244 2.805-1.269 1.776-1.845 3.631-1.727 5.565.08 1.313.478 2.317 1.196 3.016.717.691 1.662 1.002 2.833.931 1.526-.092 2.865-.673 4.018-1.741 1.152-1.075 1.706-1.972 1.662-2.69-.028-.463-.25-.682-.666-.657-.249.015-.498.169-.744.461-1.286 1.513-2.626 2.312-4.02 2.397-.492.03-.896-.095-1.212-.374-.31-.286-.475-.595-.495-.927-.012-.2.084-.331.289-.392 1.784-.524 3.223-1.363 4.314-2.518 1.092-1.162 1.6-2.343 1.527-3.545a2.445 2.445 0 0 0-.814-1.708c-.439-.404-.983-.614-1.632-.629zm-33.523 1.006c.097-.008.189-.004.275.011.192.033.346.164.461.395.123.225.155.508.096.849-.186 1.071-.996 2.22-2.428 3.448-1.425 1.222-2.54 1.764-3.348 1.625-.233-.04-.301-.34-.204-.899.184-1.064.96-2.261 2.326-3.592 1.202-1.169 2.143-1.782 2.822-1.837zm33.096 1.12a.591.591 0 0 1 .503.209c.141.144.219.33.233.558.035.58-.345 1.251-1.141 2.014a6.302 6.302 0 0 1-2.805 1.574c.175-1.009.603-1.978 1.284-2.907s1.323-1.411 1.926-1.448z" fill="#000"/></svg>