<svg xmlns="http://www.w3.org/2000/svg" width="512" height="512"><path d="M256 0c141.382 0 256 114.618 256 256S397.382 512 256 512 0 397.382 0 256 114.618 0 256 0z" fill="#fff"/><path d="M61.83 458.368zm212.352-401.1a6.15 6.15 0 0 0-3.82 1.151c-2.106 1.472-4.826 6.682-7.936 15.245-1.3 3.558-2.63 6.656-3.015 6.893-.39.237-2.579-.416-4.813-1.504-4.236-2.067-6.483-2.458-19.468-3.072l-7.821-.346v2.087c0 1.152.646 3.961 1.453 6.252 1.228 3.514 1.344 4.884.69 8.576l-.812 4.352H77.075V418.81H432.64V131.072l3.475-3.878c4.013-4.564 8.141-12.11 9.907-18.08 1.568-5.293 2.541-17.556 1.39-17.556-.449 0-4.014 1.197-7.873 2.67l-7.014 2.662h-26.362l-1.395-4a230.906 230.906 0 0 0-3.706-9.613l-2.316-5.568-5.447 5.273a278.586 278.586 0 0 1-10.547 9.62l-5.037 4.288h-47.917c-37.632 0-48.038-.18-48.32-.928-.198-.525-1.344-5.824-2.553-11.757-2.15-10.643-2.163-10.861-.864-14.95.717-2.285 1.331-5.223 1.331-6.548a5.357 5.357 0 0 0-5.216-5.446zm-7.008 25.548l-.467 2.669c-.275 1.472-1.203 4.46-2.029 6.656-1.51 4.051-2.604 4.947-3.417 2.841-.858-2.24.576-6.272 3.245-9.216zm7.412.294l2.784 11.066c3.315 13.197 3.878 23.654 1.388 25.894-1.888 1.703-2.24 1.632-4.748-1.043-3.354-3.571-4.96-9.177-4.928-17.152.032-7.117 1.33-12.505 4.057-16.627zm-32.91.864c.942-.025 2.196 0 3.828 0 5.843.026 6.963.25 8.864 1.792l2.202 1.805-1.626 2.95c-2.496 4.717-2.246 4.647-8.806 2.554-6.624-2.125-8.64-3.942-7.821-7.187.352-1.402.537-1.824 3.36-1.914zm153.774 6.72l1.74 2.144c2.868 3.572 7.31 13.184 7.648 16.576.256 2.624-.256 4.103-2.841 8.692-1.722 3.04-3.392 5.504-3.712 5.504-1.504 0-4.269-2.804-5.562-5.626-1.779-3.904-1.811-7.533-.173-14.31 1.024-4.199 1.108-5.46.352-6.196-.755-.736-1.33-.512-2.784 1.152-2.848 3.277-3.712 7.578-3.187 16.404.269 4.505.23 7.82-.173 7.82-1.17 0-5.6-6.028-6.662-9.094-1.754-5.075-.384-7.834 8-15.936zm-156.903 3.943c1.997 0 10.95 4.365 10.95 5.331 0 1.42-3.123 2.944-7.583 3.712-2.714.46-5.293 1.171-5.684 1.562-1.433 1.427 3.277 3.334 9.101 3.712 5.62.352 5.735.416 5.735 2.483 0 1.926-.32 2.131-3.648 2.611-2.004.288-4.372.646-5.216.813-5.306 1.017-11.495-7.847-9.562-13.677 1.3-3.917 3.667-6.547 5.907-6.547zm17.498 4.985l3.187 2.893c4.083 3.674 6.368 7.552 9.331 15.936 1.3 3.667 2.247 6.72 2.087 6.72-.858 0-8.199-6.38-11.008-9.561-3.783-4.276-4.141-5.39-3.828-11.47zm-175.898.346h147.501v7.648H90.112v80.243c0 44.16.237 112 .518 150.701l.525 70.336h331.757l-.525-111.994-.576-112 2.08-9.843c2.451-11.635 2.298-19.654-.403-23.296-1.286-1.728-1.568-3.29-1.568-8.224v-6.08l3.533-1.977c1.952-1.088 3.667-1.965 3.827-1.965.16 0 .288 63.526.288 141.139v141.14H80.148V257.85zm202.208 0h93.338l-1.216 3.82-1.216 3.77-44.557.052c-49.638.012-44.736.55-45.888-5.152zm128.333.115c1.363-.019 3.238 0 5.216.058l7.18.23-3.474 1.216a138.704 138.704 0 0 0-6.26 2.496l-2.892 1.216-1.216-2.323c-.679-1.3-1.063-2.534-.87-2.72.089-.096.953-.154 2.316-.173zm30.362 2.202c1.568 0 .37 4.94-2.727 11.296-4.672 9.593-14.06 17.069-23.93 19.123-5.01 1.043-5.727.998-10.31-.41-4.057-1.241-4.966-2.419-3.648-4.864 2.343-4.364 7.59-5.35 18.016-3.475 2.944.531 5.555.845 5.735.691.179-.147-.487-1.363-1.447-2.662l-1.74-2.317 2.726-2.259c1.491-1.222 4.365-4.46 6.374-7.187 3.411-4.621 8.02-7.936 10.944-7.936zm-12.544 1.389c.69.083 1.068.428 1.068 1.043 0 .505-1.824 2.63-4.057 4.755-2.227 2.118-6.528 5.184-9.555 6.778l-5.504 2.892-.468-2.022c-.64-2.566 1.076-4.448 8.807-9.504 3.597-2.349 6.95-3.744 8.921-3.942a3.7 3.7 0 0 1 .794 0zm-328.199 6.201h4.807l4 7.533c4.37 8.218 4.716 10.304 2.496 15.18-1.408 3.092-1.632 3.246-4.813 3.246-5.312 0-6.509-2.304-3.648-7.13 1.907-3.226 1.408-4.864-3.072-10.022-2.944-3.392-4.576-6.279-4.576-8.052 0-.396 2.163-.755 4.806-.755zm24.8 0c2.803 0 4.986.135 4.807.288-.173.154-3.213 2.023-6.72 4.173-6.83 4.186-6.797 4.205-4.224-1.914 1.056-2.521 1.081-2.547 6.137-2.547zm224.455 0c2.29 0 2.38 1.363.403 5.216-1.882 3.674-7.194 9.607-7.936 8.864-2.528-2.54 3.648-14.08 7.533-14.08zm-189.812.115c.557 0 1.088.02 1.453.116.73.192-.057.358-1.74.352-1.684-.013-2.285-.167-1.332-.352.474-.09 1.069-.116 1.62-.116zm27.117 2.202l21.152.058h21.203l2.26 3.123c3.148 4.288 9.638 7.68 20.281 10.547 20.205 5.453 25.555 7.93 28.909 13.44 1.062 1.754 1.792 4.134 1.792 5.914.006 2.54-.538 3.507-3.418 6.259-3.084 2.944-13.216 9.235-13.785 8.576-.128-.16-1.715-3.674-3.533-7.827-3.898-8.896-6.976-13.197-10.95-15.296l-2.9-1.562-1.504 1.792c-2.316 2.803-1.958 6.56.807 8.518 3.891 2.752 2.534 8.461-3.245 13.383-3.482 2.976-10.771 5.933-12.864 5.273-5.306-1.676-8.3-8.384-8.922-19.814-.454-8.474-1.094-10.31-3.417-10.31-2.023 0-4.64 1.9-14.08 9.964a643.392 643.392 0 0 1-11.354 9.504l-3.712 2.95-6.253-.985c-9.292-1.472-20.672-1.856-24.627-.864-1.881.467-5.824 2.349-8.749 4.224a142.976 142.976 0 0 1-12.396 6.9c-3.904 1.894-7.552 3.417-8.11 3.417-1.362 0-1.298-4.378.116-6.835 1.542-2.688 1.37-7.463-.41-11.36-.832-1.83-1.504-3.507-1.504-3.712 0-.531 4.384.454 9.85 2.208 9.37 3.008 20.25-.109 27.987-8 2.176-2.221 7.891-9.735 12.685-16.743zm98.266 0h19.584l-6.029 8.922c-3.315 4.928-7.443 10.963-9.152 13.382l-3.072 4.41-1.446-1.799a29.978 29.978 0 0 1-2.9-5.043c-1.26-2.79-1.324-3.66-.518-6.432.512-1.747 1.472-5.453 2.202-8.282zm75.725 0c1.184-.032 2.688 0 4.64 0h8.748l3.181 5.504c1.773 3.04 3.43 6.438 3.648 7.533.5 2.432-.819 3.533-9.728 8.288-11.648 6.208-19.52 15.443-21.088 24.793-.89 5.268-1.113 5.568-6.208 8.346-2.726 1.498-5.024 2.72-5.152 2.72-.864 0-1.273-1.536-1.273-5.037 0-2.22-.864-6.7-1.914-9.965-3.174-9.894-3.315-9.49 8.576-21.728 5.76-5.932 8.538-9.484 10.195-12.979 1.261-2.643 2.323-5.408 2.323-6.144 0-.896.512-1.235 4.052-1.331zm-189.402.058c.608-.02 1.357 0 2.26.057l4.172.23-2.726 1.735a11.2 11.2 0 0 1-6.08 1.683l-3.476.058 1.972-1.971c1.273-1.268 2.048-1.741 3.878-1.792zm153.478.87c1.216.045 2.112.78 4.173 2.9 1.728 1.766 4.192 4.991 5.447 7.18 2.073 3.603 2.188 4.237 1.452 6.957-.448 1.645-1.696 4.653-2.784 6.656l-1.97 3.654-1.332-3.36c-1.862-4.89-6.016-11.936-7.066-11.936-1.664 0-10.88 10.387-14.547 16.455-4.78 7.91-6.912 14.016-6.95 19.814-.045 5.914 1.862 9.267 9.792 17.21 3.187 3.2 5.792 6.208 5.792 6.72 0 .512-1.99 3.02-4.461 5.568l-4.518 4.627-6.784-2.72c-11.815-4.723-18.074-5.645-21.78-3.13-1.043.704-3.628 2.759-5.734 4.519-3.29 2.752-4.109 3.104-5.74 2.496-3.028-1.14-4.673-2.99-7.009-7.885-2.515-5.248-2.752-7.648-.928-10.31 4.096-5.985 20.295-21.594 40.269-38.765 6.637-5.703 12.109-10.676 12.109-11.008 0-1.05-5.37-.596-7.763.64-2.221 1.139-2.317 1.107-1.568-.288 1.145-2.125 9.664-9.812 14.195-12.807 2.144-1.42 4.992-2.81 6.317-3.072a5.843 5.843 0 0 1 1.388-.115zm-181.401 1.1c.589-.025 1.235-.012 1.907 0 5.267.122 10.86 2.51 15.59 6.663l3.008 2.663h-6.49c-6.88 0-10.367-1.146-13.324-4.404l-1.446-1.561-3.303 1.913c-4.153 2.42-5.222 2.17-3.712-.928 1.408-2.867 3.642-4.153 7.77-4.345zm-12.749 2.958c.282.076-.224.928-1.504 2.72-3.744 5.235-6.195 7.987-6.208 6.892-.006-2.33 4.173-7.808 7.187-9.44.256-.14.429-.198.525-.172zm-36.851 2.259l1.683 2.662c3.136 5.12 3.22 6.4 1.1 11.008-1.068 2.323-2.086 4.23-2.316 4.23-.237 0-.467-4.05-.467-8.979zm49.19 6.72c2.573-.02 5.357.525 9.447 1.561 4.21 1.07 8.704 2.023 9.964 2.144 2.298.23 2.285.237-3.884 6.49-4.116 4.173-7.533 6.938-10.31 8.23-2.292 1.063-4.698 1.87-5.332 1.856-1.376-.038-10.906-3.539-17.088-6.316l-4.467-2.03 1.28-2.143c1.613-2.727 7.321-6.528 12.16-8.115 3.328-1.088 5.664-1.664 8.23-1.677zm244.909 5.094c1.434-.096 3.258.5 4.813 1.799 4.192 3.52 10.304 5.337 18.131 5.388l7.13.058v3.584c0 3.29-.544 4.378-1.684 3.251-.23-.23-5.414-1.645-11.468-3.13-13.607-3.34-19.412-5.964-19.412-8.69 0-1.409 1.056-2.164 2.496-2.26zm-285.056 7.245l2.72 1.331c1.504.717 3.277 2.323 3.942 3.597 1.492 2.874.724 4.589-4.928 11.18-2.752 3.2-3.545 4.59-2.841 4.98 1.561.87 4.14-.09 5.446-2.08.666-1.005 1.587-1.856 2.029-1.856.448 0-.934 2.483-3.072 5.504-2.131 3.014-3.878 5.92-3.878 6.432 0 .512.896 1.536 1.97 2.317 1.754 1.273 1.895 1.888 1.678 5.619l-.23 4.173-4.289-5.331c-7.693-9.588-9.094-12.11-9.094-16.052 0-4.05 3.558-11.59 7.936-16.742zm271.789.755c2.841-.09 5.638.768 7.417 2.375 1.178 1.062 1.447 2.387 1.447 7.296 0 4.16-.32 6.08-.986 6.259-.525.147-3.033.691-5.561 1.158-2.528.474-7.488 2.291-11.066 4.058-3.584 1.766-6.72 3.29-6.95 3.417-1.856 1.024-2.01-5.638-.237-10.835 1.753-5.12 8.64-12.147 13.094-13.325a12.628 12.628 0 0 1 2.842-.403zm-53.997 1.62v10.95h-2.144c-1.197 0-2.374.237-2.611.467-.39.384.096 2.797 1.395 7.066.506 1.676.384 1.798-1.74 1.33-1.569-.338-2.612-.178-3.246.583-1.177 1.408-.204 3.789 5.568 13.735 2.336 4.032 4.16 7.36 4.052 7.36-.116 0-3.38-3.2-7.245-7.13-8.333-8.46-9.901-11.424-8.224-15.411 1.555-3.712 8.192-13.178 11.469-16.34zm-202.266 4.115c1.12 0 4.57 5.664 5.677 9.33.941 3.118.896 3.84-1.043 9.793a227.904 227.904 0 0 1-5.389 14.253c-1.805 4.3-3.61 7.82-4 7.82-.94 0-2.95-4.85-2.95-7.13 0-.991 1.165-7.09 2.605-13.554s3.046-13.696 3.532-16.11c.487-2.412 1.178-4.402 1.568-4.402zm210.03 1.856c.351-.02.678.934 1.446 3.187 1.939 5.677 3.264 14.451 2.662 17.664a37.606 37.606 0 0 1-2.08 6.438c-.864 1.99-1.856 3.648-2.26 3.648-.402 0-1.727-1.03-2.956-2.259-2.003-1.997-2.266-2.688-2.26-7.008 0-4.685 2.842-17.248 4.692-20.685.314-.582.544-.973.755-.985zm79.487.403c2.547 0 3.43.493 5.971 3.245 1.645 1.785 3.975 4.537 5.159 6.08 1.408 1.856 2.016 3.52 1.856 4.87l-.237 2.029-3.82-3.008c-3.905-3.085-9.863-9.427-11.188-11.885-.627-1.165-.352-1.331 2.26-1.331zm-18.598 1.568c.256 0 2.656 1.011 5.273 2.259 6.9 3.277 8.39 7.814 4.698 14.253-1.568 2.72-1.677 3.353-.755 4.109 1.408 1.164 2.707.096 6.144-4.98l2.605-3.827v3.136a23.04 23.04 0 0 1-1.159 6.368c-.857 2.407-.883 3.162-.173 2.9 4.576-1.716 4.404-1.901 4.404 3.935 0 2.97-.11 5.39-.237 5.39-.122 0-3.93-2.906-8.455-6.49-5.05-3.988-9.158-7.898-10.547-10.08-2.067-3.245-2.259-4.122-2.259-10.253 0-3.693.205-6.72.46-6.72zm-132.896.8c.269.109.448.55.685 1.165 1.12 2.892.576 9.92-1.044 13.273-.71 1.466-3.436 5.248-6.028 8.397-2.592 3.149-5.28 7.072-6.023 8.749-1.92 4.313-2.534 9.536-1.337 11.533.537.896 1.984 3.257 3.187 5.216 1.216 1.952 2.003 3.73 1.792 3.936-.679.678-7.04-6.388-9.67-10.72-1.44-2.368-2.701-5.664-2.9-7.476-.32-2.944.045-3.833 4.058-9.728a5636.288 5636.288 0 0 0 10.777-15.936c3.968-5.888 5.428-8.102 6.202-8.403a.403.403 0 0 1 .3-.006zm-41.498.819c1.479-.173 2.035 1.555 3.36 5.446 2.323 6.823 1.069 11.661-4.691 18.08-1.696 1.888-4.14 4.032-5.389 4.75l-2.259 1.33.403-3.82c.34-3.52.103-4.032-2.835-7.828-1.74-2.24-3.136-4.537-3.136-5.036 0-1.952 2.746-4.903 8.64-9.274 3.034-2.246 4.755-3.514 5.907-3.648zm162.925 10.714c.576.019 1.158.096 1.74.172 4.046.557 5.844 1.94 7.066 5.626.87 2.624.788 2.816-1.683 4.864-1.408 1.178-5.216 3.533-8.454 5.216-3.245 1.677-6.33 3.027-6.9 3.008-.563-.013.8-1.677 3.073-3.706 2.406-2.144 3.904-4.076 3.59-4.576-.3-.492-2.566-.87-5.267-.87-4.058 0-4.903-.192-5.799-1.62-.96-1.535-.812-1.9 1.684-4.172a15.789 15.789 0 0 1 10.944-3.942zm-206.9 1.568c5.697.012 10.266 1.132 15.412 3.648 5.478 2.688 8.877 6.323 10.195 11.008 1.19 4.243-.185 9.12-4.224 15.187-3.213 4.813-29.37 30.355-33.9 33.081-4.615 2.778-11.393 4.698-20.858 5.965-15.168 2.029-23.373 3.86-28.8 6.432a37.088 37.088 0 0 0-10.074 7.296l-4.864 4.87v-26.419c0-29.939-.73-26.732 7.181-30.822 2.464-1.28 4.928-2.131 5.504-1.914.576.224 2.298 2.112 3.82 4.23 1.53 2.113 3.258 3.886 3.828 3.886 1.818 0 3.36-3.156 4.288-8.864 1.312-8.128 2.15-9.12 10.72-12.461 4.032-1.575 10.368-4.512 14.131-6.547 13.517-7.316 13.856-7.418 21.504-8.224a57.618 57.618 0 0 1 6.138-.352zm55.271 4.288l2.375 2.784c2.688 3.04 2.976 4.992 1.28 9.036-2.496 5.946-1.005 9.23 10.713 23.757 10.01 12.397 9.664 11.54 4.115 12.16-2.54.295-5.004.64-5.504.82-.499.172-2.054-1.607-3.475-3.943-3.673-6.048-9.683-12.998-12.454-14.426-3.2-1.644-14.611-2.24-23.642-1.216-3.98.448-7.36.685-7.533.519-.96-.96 7.456-7.45 14.31-11.066 9.178-4.832 14.631-9.357 17.671-14.656zm189.754.23c.48 0 1.12.493 2.086 1.453 2.042 2.035 1.728 6.47-.87 11.648-.98 1.945-2.317 4.064-3.008 4.691-1.178 1.05-1.223.768-.295-3.648.55-2.624 1.03-6.886 1.044-9.504.012-3.2.243-4.64 1.043-4.64zm-66.63 4.864c2.707-.045 3.071.192 2.835 1.51-.141.839-1.716 3.572-3.533 6.08-1.818 2.522-4.851 6.016-6.72 7.828l-3.36 3.302-4-3.13c-4.608-3.622-4.544-4.096 1.1-9.036 4.545-3.981 9.741-6.477 13.677-6.548zM94.4 174.656c.397-.115 1.152 1.267 2.605 3.994l1.504 2.777-1.856 1.971c-1.011 1.095-2.023 2.03-2.253 2.03-.23 0-.474-2.657-.467-5.908.006-3.136.064-4.755.467-4.864zm264.723.051c.288-.025.576 0 .928 0 1.594 0 2.893.34 2.893.749 0 2.317-4.429 11.82-8 17.152-5.504 8.237-6.394 8.973-8.915 7.648a7.22 7.22 0 0 1-2.784-2.842c-1.063-2.316-.16-4.044 7.763-14.592 5.146-6.848 6.093-7.955 8.115-8.115zm29.504 2.24c.666.064.058.973-1.984 2.688-2.01 1.677-6.835 2.771-6.835 1.562 0-.205 2.048-1.395 4.576-2.669 1.875-.94 3.174-1.44 3.878-1.562a1.357 1.357 0 0 1 .365-.025zm7.399 1.581c1.132 0 8.019 6.733 13.792 13.504 5.196 6.086 5.472 6.323 6.835 5.094 1.395-1.254 1.453.077 1.453 52.493 0 29.575.236 76.48.518 104.237l.467 50.464H94.688V283.283l7.123-6.835c16.71-16.064 34.49-28.083 48.32-32.678 4.263-1.415 39.239-8.052 42.47-8.052.122 0 .18-.313.18-.704 0-.384-1.792-1.248-4-1.964a57.395 57.395 0 0 1-4.576-1.62c-1.03-.582 4.134-6.233 6.893-7.532 4.21-1.984 9.6-.986 12.512 2.316 3.315 3.757 7.961 5.293 14.316 4.75 2.836-.244 6.554-.948 8.282-1.562l3.13-1.159-1.684 6.023c-.979 3.456-3.532 9.241-6.08 13.676-5.932 10.33-7.033 14.138-5.85 20.506 1.153 6.26 3.009 9.773 6.894 13.274 3.763 3.385 5.6 3.904 11.763 3.302 2.617-.256 5.139-.435 5.561-.41.423.026 3.328.224 6.49.468 12.653.966 14.176.844 17.382-1.684 1.652-1.305 3.93-4.307 5.21-6.835 2.01-3.968 2.24-5.241 2.202-11.008-.052-7.936-1.51-11.776-7.412-19.065-4.819-5.952-8.524-11.412-8.057-11.872.185-.186 1.74.153 3.475.748 4.282 1.472 11.942 2.663 17.216 2.67 4.288 0 4.358.063 7.002 3.647 3.328 4.5 12.044 12.832 16.633 15.936 9.197 6.208 22.055 10.688 27.981 9.728 2.534-.41 6.803-2.073 7.936-3.072.154-.128-1.011-1.491-2.547-3.072-1.613-1.645-5.357-7.923-8.864-14.829-6.74-13.267-10.72-18.892-15.296-21.49-3.168-1.806-4.032-3.649-1.735-3.649.724 0 2.72-.499 4.461-1.165l3.123-1.216 10.778 7.245c12.634 8.512 18.848 11.808 23.584 12.455 3.11.422 3.475.627 3.475 2.496 0 3.392 4.371 11.244 7.879 14.08 5.984 4.825 8.748 5.753 16.921 5.734 8.371-.026 13.703-1.472 19.175-5.216 7.577-5.19 11.212-11.763 11.187-20.224-.026-5.856-1.389-8.749-8.346-17.958-5.21-6.9-7.763-12.34-7.763-16.512 0-3.732-6.31-8.692-11.072-8.692-1.062 0-1.965-.275-1.965-.64 0-1.708 14.803-13.094 17.03-13.094zm-143.168 2.669c.422-.045.499.736.755 2.777 1.312 10.516 1.363 12.34.352 12.98-1.395.883-1.555.844-3.597-.576-.98-.685-2.285-2.432-2.893-3.885-1.037-2.464-.998-2.816.749-5.792 1.03-1.754 2.56-3.866 3.418-4.64.576-.512.966-.839 1.216-.864zm111.302 4.051c.717-.02 1.869.646 4.403 2.202 3.239 1.984 4.16 2.892 3.418 3.36-1.037.659-3.872.697-7.706.121-2.336-.358-2.893-2.7-1.152-4.985.32-.43.608-.685 1.037-.698zm-39.398 4.928c1.395-.026 2.937.14 4.352.518 6.31 1.696 12.038 9.165 15.756 20.455.717 2.195 1.178 4.723 1.044 5.677-.218 1.497-.724 1.107-3.648-2.836-9.908-13.35-11.892-15.73-15.008-17.792-1.876-1.228-4.672-2.496-6.208-2.777-2.439-.461-2.656-.64-1.677-1.626 1.024-1.011 3.065-1.58 5.389-1.619zm-38.759 4.173c5.927-.397 12.8 2.944 22.477 10.656l6.374 5.1-2.201 1.741c-1.216.98-3.975 2.624-6.08 3.648-4.448 2.15-8 3.136-8 2.202 0-.358.665-1.754 1.51-3.13 3.04-4.966 2.515-5.312-10.022-6.259-9.959-.749-13.427-1.971-14.195-5.037-.736-2.912.78-5.401 4.46-7.296 1.83-.953 3.7-1.497 5.677-1.625zm84.647 0l-1.908 2.835c-1.056 1.542-2.29 4.71-2.784 7.072-1.376 6.605-2.784 9.94-6.259 15.002-1.753 2.56-4.07 6.713-5.216 9.216l-2.08 4.518-1.74-3.36c-1.537-2.989-1.665-4.14-1.28-9.907.755-10.931 3.52-17.555 8.87-21.146 2.368-1.593 4.096-2.227 10.253-3.712zm-179.437 4.166c.448.07.94.98 1.568 2.727.563 1.574 1.19 3.302 1.389 3.82.556 1.485-2.496 1.127-3.943-.46-1.05-1.152-1.1-1.83-.403-3.821.55-1.568.947-2.33 1.389-2.266zm67.558.41l3.072.403c2.208.294 4.736 1.728 8.98 4.986 7.871 6.048 11.615 7.859 17.67 8.454l5.1.467-3.884 4c-2.131 2.202-4.378 3.994-4.98 3.994-2.323 0-6.828-3.527-16.223-12.743zm54.983.057l5.798.288c5.542.282 5.9.423 8.864 3.303 4.07 3.955 13.03 21.414 13.037 25.376 0 .57-.98.928-2.432.928-2.01 0-3.335-.851-7.13-4.749a52.672 52.672 0 0 1-7.417-10.138c-1.543-2.944-4.077-6.528-5.62-8-1.536-1.472-3.308-3.66-3.942-4.864zm69.932.692l1.972 1.856c2.732 2.54 4.588 6.45 5.568 11.705.972 5.274 2.048 7.104 7.123 12.109 4.288 4.237 5.21 6.1 5.21 10.72 0 6.317-3.559 12.762-7.994 14.54-2.714 1.089-7.36 2.03-7.36 1.505 0-.192.589-1.709 1.28-3.418.678-1.702 1.011-3.328.749-3.59-.256-.256-2.24.627-4.404 1.971-2.163 1.344-4.108 2.317-4.288 2.144-.179-.18.781-2.016 2.087-4.058 2.176-3.398 2.201-3.73.87-3.942-.8-.128-3.187.467-5.331 1.28l-3.885 1.446 3.424-5.043c1.875-2.777 3.034-5.184 2.605-5.331-.429-.14-2.38.32-4.346.986-1.958.665-3.686 1.062-3.82.928-.141-.128.768-1.23 2.022-2.432 4.115-3.924 2.502-4.468-4.224-1.504-4.493 1.97-4.557 1.74-.928-2.9 1.242-1.593 2.106-3.11 1.856-3.36-.256-.256-2.63.103-5.274.756-2.65.64-4.908 1.107-4.985 1.043-.077-.07 2.233-4.775 5.1-10.432 2.868-5.658 5.607-11.629 6.145-13.267l.979-2.957 1.043 2.374c.813 1.92 1.434 2.432 3.245 2.432 1.792 0 2.643-.589 3.942-2.777zm-164.313.755l2.841 2.547c2.58 2.26 7.36 8.397 7.36 9.446 0 .96-4.71 2.727-7.244 2.727-3.687 0-6.906-1.434-11.764-5.274-2.854-2.259-4.448-3.059-5.504-2.726-1.37.435-1.446.62-.467 2.496 2.381 4.525 7.719 8.013 16.167 10.483l4.633 1.331-3.072 1.395c-4.006 1.83-9.318 1.83-12.339 0-1.3-.793-3.085-2.924-3.936-4.755-2.24-4.806-5.792-15.936-5.274-16.448.244-.25 4.512-.608 9.504-.813zm34.47 6.08l4.755.525c6.72.704 8.66 1.952 12.628 8.288 1.913 3.046 4.902 6.912 6.604 8.576 1.71 1.657 3.072 3.43 3.072 3.936 0 .512-1.024 1.81-2.316 2.899-6.023 5.043-18.72-.627-22.714-10.138-.614-1.472-1.325-5.267-1.562-8.403zm-72.94 1.05l1.734 2.086c3.974 4.755 3.347 7.526-3.418 14.425-2.848 2.9-4.211 4.186-3.008 2.836 2.522-2.836 2.451-5.184-.179-5.562-1.376-.192-3.046.915-6.835 4.576-2.528 2.445-3.763 3.584-4 3.648.077-.218.576-.973 1.453-2.195 1.356-1.888 5.158-7.143 8.396-11.648zm13.612 3.82c1.28.032 2.106.781 2.669 2.26 1.024 2.707.883 2.707-3.597.64-3.014-1.396-3.251-1.652-1.907-2.202 1.152-.474 2.067-.717 2.835-.698zm50.887 14.592c1.728.365 3.884 3.501 5.606 8.704 2.464 7.456 3.5 9.165 8.576 14.887 6.995 7.884 8.8 13.37 6.778 20.627-.948 3.392-5.044 7.136-8.98 8.224-3.603.998-7.13 1.03-8.64.064-.627-.41-2.08-.749-3.238-.755-2.598-.02-2.65-.59-.173-5.447 1.082-2.125 1.792-4.057 1.562-4.288-.23-.23-1.792.448-3.475 1.562-1.684 1.113-3.239 2.029-3.418 2.029-.18 0 .755-1.895 2.029-4.224 1.267-2.336 2.137-4.352 1.965-4.525-.167-.167-1.844.685-3.706 1.913-1.856 1.223-3.5 2.119-3.648 1.972-.154-.154 1.331-2.79 3.245-5.856 1.913-3.06 3.296-5.735 3.13-5.908-.173-.172-1.773.743-3.597 1.972-1.818 1.228-3.712 2.4-4.173 2.662-.448.262.371-1.952 1.798-4.928 1.427-2.963 2.387-5.549 2.144-5.792-.243-.243-2.797.704-5.619 2.086l-5.1 2.496 3.596-3.884c5.056-5.376 4.608-6.816-1.338-4.346l-2.604 1.1 1.043-2.431c.57-1.331 1.363-4.781 1.792-7.648 1.081-7.117 4.429-10.592 5.568-5.792.358 1.51.864 1.856 3.008 1.856 2.477 0 2.694-.192 3.302-3.251.371-1.844 1.037-2.842 1.856-3.072a1.478 1.478 0 0 1 .71-.013zm50.22.82c.384-.033.781-.013 1.152 0 2.503.102 4.813 1.228 7.245 3.417 3.744 3.366 5.67 7.002 9.856 18.778 1.76 4.972 3.36 9.49 3.584 10.08.576 1.49-1.017 1.305-5.907-.698-8.134-3.334-18.765-11.59-22.886-17.792-4.032-6.054-2.861-10.496 3.36-12.858 1.286-.486 2.45-.832 3.596-.928zm20.16 12.927c.884.141 4.519 4.877 5.568 7.354.59 1.408.935 3.392.807 4.403-.218 1.683-.403 1.53-2.317-1.51-2.125-3.354-4.717-9.651-4.173-10.195.032-.032.058-.064.115-.058zm-189.113 2.944h4.46l-4.575 4.18c-2.496 2.29-11.2 8.588-19.354 14.016l-14.771 9.907v-2.432c0-2.067.966-3.405 6.317-8.512 7.04-6.727 17.254-14.58 21.03-16.167 1.357-.576 4.454-1.004 6.893-.985zm-18.599 23.066c.103 0 .192.013.23.058.935.928-1.849 4.627-5.734 7.648-2.201 1.708-5.376 3.904-7.065 4.864l-3.072 1.74v-2.259c0-1.69.749-2.886 3.072-4.864 3.328-2.841 11.053-7.219 12.57-7.187zm279.207 3.366c-2.695 0-5.312.704-7.872 2.08a14.778 14.778 0 0 0-6.029 5.914 16.32 16.32 0 0 0-2.202 8.051c0 2.771.724 5.44 2.144 8a15.065 15.065 0 0 0 5.965 5.965c2.547 1.408 5.216 2.086 8 2.086 2.778 0 5.44-.672 7.994-2.086 2.547-1.408 4.493-3.411 5.907-5.971a16.384 16.384 0 0 0 2.144-7.994 16.32 16.32 0 0 0-2.144-8.051 14.733 14.733 0 0 0-6.022-5.914 16.41 16.41 0 0 0-7.885-2.08zm0 2.663c2.24 0 4.41.576 6.547 1.74 2.144 1.153 3.84 2.772 5.043 4.922a13.613 13.613 0 0 1 .064 13.383 12.646 12.646 0 0 1-4.992 4.985 13.44 13.44 0 0 1-6.656 1.735c-2.317 0-4.537-.55-6.669-1.735a12.698 12.698 0 0 1-4.979-4.985 13.51 13.51 0 0 1-1.792-6.656c0-2.336.64-4.576 1.85-6.727a12.288 12.288 0 0 1 4.979-4.928c2.138-1.152 4.352-1.734 6.605-1.734zm-7.066 4.985v17.261h2.784v-7.296h1.677c.98 0 1.69.18 2.202.576.736.538 1.747 1.856 2.956 4l1.504 2.72h3.418l-2.086-3.36a18.726 18.726 0 0 0-2.605-3.417 4.634 4.634 0 0 0-1.447-.928 5.344 5.344 0 0 0 3.59-1.562 4.595 4.595 0 0 0 .52-5.856 4.224 4.224 0 0 0-2.145-1.677c-.902-.32-2.368-.46-4.403-.467zm2.784 2.317h3.181c1.363 0 2.278.147 2.784.346a2.58 2.58 0 0 1 1.216.87 2.368 2.368 0 0 1 .403 1.389 2.336 2.336 0 0 1-.864 1.914c-.589.48-2.208 1.881-3.302.69h-3.418zm-231.808 12.826l-.025.032a17.254 17.254 0 0 0-7.552 1.817 19.366 19.366 0 0 0-6.304 4.96c-1.792 2.074-3.226 4.544-4.301 7.405v.007a27.2 27.2 0 0 0-1.555 9.292c0 2.765.352 5.364 1.056 7.808.704 2.439 1.69 4.672 2.963 6.695v.013a21.208 21.208 0 0 0 4.813 5.235h.006a20.096 20.096 0 0 0 6.451 3.193h.007l1.1.276c.27.076.288.179.244.044l.019.064.032.052a1.536 1.536 0 0 1 .14.499v.006l.276 1.664a10.105 10.105 0 0 0 1.74 4.282c.91 1.293 2.061 2.393 3.444 3.302 1.42.947 3.033 1.677 4.825 2.195h.007c1.798.576 3.712.858 5.734.858 1.984 0 3.021-.256 4.23-.454.404-.064.724-.218 1.133-.064.519.198.832.486.903.684l.006.026.007.02a5.76 5.76 0 0 1 .236 1.958v31.212c0 1.55-.096 2.663-.256 3.264-.128.448-.544.813-1.472 1.07h-.006a3.06 3.06 0 0 1-.851.12 4.723 4.723 0 0 0-.915.078 2.003 2.003 0 0 0-.807.364l-.032.02-.025.019c-.27.269-.346.633-.346 1.024 0 .46.173.909.525 1.19a2.067 2.067 0 0 0 1.325.378c.55 0 1.324-.077 2.348-.211l.007-.007h.006a23.68 23.68 0 0 1 3.936-.269c1.735 0 3.123.09 4.141.27h.026c1.113.14 1.9.217 2.406.217a2.067 2.067 0 0 0 1.331-.384h.007a1.485 1.485 0 0 0 .582-1.12c0-.487-.102-.928-.46-1.197a2.086 2.086 0 0 0-.96-.365 6.848 6.848 0 0 0-1.063-.077 3.757 3.757 0 0 1-1.088-.3c-.576-.288-.845-.602-.941-.954a10.893 10.893 0 0 1-.192-2.432v-12.947c0-.416.032-.691.051-.807.013-.032.032-.032.083-.038l.052.006.294.096 1.088.474a23.85 23.85 0 0 0 2.323.909c.73.25 1.453.377 2.15.377 1.364 0 2.65-.32 3.821-.96h.007a11.2 11.2 0 0 0 3.18-2.668v-.013a13.44 13.44 0 0 0 2.151-4.013c.531-1.536.787-3.2.787-4.992 0-4.3-1.024-7.603-3.136-9.824-2.112-2.227-5.273-3.309-9.37-3.309-1.503 0-2.841-.096-4.031-.045a75.562 75.562 0 0 1-2.887.064h-1.113c-.756 0-1.786-.032-1.786-.032l-1.94-.012c-.486 0-.972-.013-1.343-.02h-.627a7.898 7.898 0 0 1-2.688-.62h-.007a13.485 13.485 0 0 1-3.085-1.741 16.365 16.365 0 0 1-2.758-2.56 16.403 16.403 0 0 1-2.157-3.162l-.691-1.318-.134-.269-.013-.038a.96.96 0 0 1 .294-.154l1.453-.48c1.907-.62 3.667-1.62 5.274-2.995a20.416 20.416 0 0 0 4.185-4.954c1.171-1.926 2.087-4.096 2.746-6.483a27.84 27.84 0 0 0 1.056-7.744c0-3.322-.538-6.426-1.62-9.293a22.63 22.63 0 0 0-4.313-7.411c-1.792-2.112-3.885-3.776-6.291-4.96h-.013a16.314 16.314 0 0 0-7.616-1.85zm-.166 2.726c1.664 0 3.2.48 4.659 1.447l.013.006c1.497.928 2.81 2.304 3.93 4.14 1.126 1.844 2.009 4.103 2.643 6.791v.007c.684 2.681 1.024 5.728 1.024 9.158 0 3.2-.32 6.022-.954 8.467v.007a20.685 20.685 0 0 1-2.496 6.233 12.192 12.192 0 0 1-3.731 3.789v.006c-1.408.832-2.887 1.248-4.467 1.248a8.896 8.896 0 0 1-4.736-1.382 13.178 13.178 0 0 1-3.866-4.211 23.38 23.38 0 0 1-2.643-6.784 40.64 40.64 0 0 1-.96-9.242c0-3.2.3-6.022.89-8.473.64-2.452 1.471-4.506 2.495-6.164 1.082-1.65 2.324-2.886 3.732-3.718v-.006a8.256 8.256 0 0 1 4.467-1.319zm128.518 3.725c-.096 0-.14.115-.23.154l-.026-.077-1.267.851h.512c-.051.09-.102.16-.147.262l.013-.025a5.12 5.12 0 0 1-.416.678l-.02.02-.012.012a1.178 1.178 0 0 1-.448.461h-.026a4.18 4.18 0 0 1-1.574.218c-.512 0-1.152-.02-1.908-.058a49.178 49.178 0 0 0-2.528-.051h-6.988c-.845 0-1.607.013-2.304.051h-1.792c-.704 0-1.261-.045-1.664-.115a1.6 1.6 0 0 1-.679-.256l-.14-.135h-.16a5.683 5.683 0 0 0-.295-.71l.026.077a3.29 3.29 0 0 0-.314-.743.947.947 0 0 0-.256-.384.806.806 0 0 0-.5-.179 1.12 1.12 0 0 0-.806.352 1.677 1.677 0 0 0-.384.813v.032a31.872 31.872 0 0 1-.403 2.074l-1.414 5.792a5.58 5.58 0 0 0-.18.64c-.038.198-.063.256-.063.428 0 .205.012.378.038.532.026.153.038.3.211.48l.032.032.039.025a1.2 1.2 0 0 0 .659.192h.109c.672 0 1.222-.493 1.6-1.216v.02c.37-.634.896-1.517 1.568-2.631.69-.87 1.382-1.504 2.073-1.92a5.12 5.12 0 0 1 2.663-.62h1.593c.045 0 .02-.046.09.114l.013.045.025.032a.742.742 0 0 1 .147.429v27.686c0 1.197-.096 2.004-.192 2.285-.083.224-.364.48-1.017.685h-.007l-.019.013a2.118 2.118 0 0 1-.749.14 5.338 5.338 0 0 0-.87.065 1.74 1.74 0 0 0-.768.307 1.152 1.152 0 0 0-.416.94c0 .404.166.807.48 1.05.32.243.723.327 1.178.327.64 0 1.408-.064 2.336-.18h.012c.884-.147 1.901-.217 3.053-.217 1.197 0 2.215.064 3.053.217h.026c.921.116 1.696.18 2.33.18.447 0 .831-.064 1.151-.282a1.197 1.197 0 0 0 .506-.98c0-.37-.103-.735-.403-.972a1.389 1.389 0 0 0-.724-.34 5.26 5.26 0 0 0-.812-.063 4.557 4.557 0 0 1-.877-.199h-.013v-.006a3.072 3.072 0 0 1-.768-.326 1.184 1.184 0 0 1-.3-.378 5.3 5.3 0 0 1-.142-.832v-29.293c0-.096.032-.192.103-.32.083-.121.102-.128.173-.128h.908c1.716 0 2.996.18 3.815.487h.025c.756.256 1.376.89 1.876 2.016a100.8 100.8 0 0 1 .659 2.656l.006.019.007.019a4.518 4.518 0 0 0 .384.896l.019.026.019.025a1.28 1.28 0 0 0 .986.448 1.26 1.26 0 0 0 .576-.115.896.896 0 0 0 .416-.442 3.878 3.878 0 0 0 .268-1.465l.34-7.52v-.64a1.837 1.837 0 0 0-.205-.775c-.02-.076-.083-.128-.115-.198l.761-.512zm11.072 1.42a1.171 1.171 0 0 0-1.056.68v.018l-.013.02a23.738 23.738 0 0 1-.339.953v.013l-9.05 29.35a42.707 42.707 0 0 1-.838 2.592 2.944 2.944 0 0 1-1.03 1.376l-.013.007a1.46 1.46 0 0 1-.691.307l-.915.115a2.336 2.336 0 0 0-.864.275.902.902 0 0 0-.436.404 1.26 1.26 0 0 0-.128.576 1.152 1.152 0 0 0 .448.928 1.728 1.728 0 0 0 1.044.275c.448 0 .972-.039 1.6-.115h.025a11.62 11.62 0 0 1 2.131-.173c1.197 0 2.208.064 3.008.173.845.115 1.485.172 1.94.172a1.664 1.664 0 0 0 .998-.256 1.107 1.107 0 0 0 .435-.896 1.389 1.389 0 0 0-.857-1.28 8.41 8.41 0 0 0-1.812-.428 2.035 2.035 0 0 1-.908-.288c-.052-.045-.18-.276-.18-.788 0-.55.276-2.035.839-4.256l1.363-5.068h.006c.02-.064.02-.058.032-.064l.013-.013.013-.007c.109-.083.16-.076.122-.076h7.046c.198 0 .32.032.365.057.045.02.032.007.038.045v.013l2.227 7.29c.333 1.19.493 2.035.493 2.419 0 .448-.096.601-.237.684v.007a4.486 4.486 0 0 1-1.632.211 1.773 1.773 0 0 0-1.145.333 1.325 1.325 0 0 0-.461 1.043c0 .333.16.691.442.89a1.664 1.664 0 0 0 .992.256c.41 0 1.081-.039 2.028-.116h.013a33.472 33.472 0 0 1 3.815-.172c1.12 0 2.048.064 2.77.166h.007c.813.122 1.472.18 1.997.18.448 0 .838-.065 1.152-.276a1.197 1.197 0 0 0 .512-.986.998.998 0 0 0-.34-.755 1.318 1.318 0 0 0-.729-.269 3.27 3.27 0 0 1-1.229-.601l-.012-.013h-.007a3.789 3.789 0 0 1-1.472-1.728 34.662 34.662 0 0 1-1.126-3.136l-8.589-27.072a22.035 22.035 0 0 1-.557-1.9 1.504 1.504 0 0 0-.416-.788c-.102-.09-.243-.083-.365-.128v-.18zm-115.917 1.025a1.363 1.363 0 0 0-.96.32 1.26 1.26 0 0 0-.352.94c0 .359.045.692.308.948l.05.057.065.032a2.451 2.451 0 0 0 .704.212l.038.006h.039a5.76 5.76 0 0 1 .736.058h.064c.288 0 .601.05.947.153.537.173.749.378.78.455.058.16.135.787.135 1.715v19.961c0 1.754.077 3.348.23 4.768v.013a8.987 8.987 0 0 0 1.504 3.891 8.896 8.896 0 0 0 4.135 3.303c1.702.672 3.782.998 6.253.998 2.246 0 4.198-.371 5.824-1.126h.006c1.626-.794 2.88-1.92 3.725-3.373a10.062 10.062 0 0 0 1.37-4.403c.153-1.536.23-3.29.23-5.267v-13.99c0-1.396.013-2.586.057-3.56.039-.96.128-1.702.263-2.214a2.438 2.438 0 0 1 .595-1.088 1.811 1.811 0 0 1 1.126-.294c.59 0 1.024-.026 1.376-.128l.026-.006.032-.013a1.21 1.21 0 0 0 .678-1.107 1.216 1.216 0 0 0-.505-.986 2.01 2.01 0 0 0-1.152-.275c-.333 0-.813.038-1.447.109a44.39 44.39 0 0 1-2.476.064c-.98 0-1.786-.026-2.42-.064a12.448 12.448 0 0 0-1.446-.11 1.542 1.542 0 0 0-1.024.308 1.229 1.229 0 0 0-.403.954c0 .416.224.85.595 1.036l.032.02h.026a4.589 4.589 0 0 0 .883.192h.006l1.024.121a1.408 1.408 0 0 1 .666.243c.339.295.62.948.691 2.048v.02c.109 1.113.166 2.752.166 4.902v13.76c0 1.965-.076 3.635-.224 5.011v.013a7.04 7.04 0 0 1-1.113 3.411c-1.319 1.882-3.347 2.816-6.272 2.816-1.472 0-2.63-.217-3.495-.64a5.018 5.018 0 0 1-2.08-1.817 9.491 9.491 0 0 1-1.075-3.11 32.493 32.493 0 0 1-.281-4.545v-19.84c0-.883.083-1.472.14-1.638.084-.173.301-.378.8-.538a2.586 2.586 0 0 1 .82-.147h.908a1.792 1.792 0 0 0 .845-.32c.307-.23.41-.614.41-.998a1.267 1.267 0 0 0-.359-.935 1.363 1.363 0 0 0-.96-.32c-.384 0-.972.077-1.894.23-.864.148-2.112.218-3.731.218-1.62 0-2.867-.07-3.731-.217-.608-.096-.896-.116-1.248-.154l.032-.077zm32.154 0a1.363 1.363 0 0 0-.96.32 1.26 1.26 0 0 0-.358.94c0 .359.05.692.313.948l.051.057.064.032a2.451 2.451 0 0 0 .704.212h.007c.288.044.595.064.915.064.288 0 .608.05.947.153h.007c.48.167.665.352.71.5l.013.031.019.026c.064.14.173.73.173 1.613v26.048c0 .589-.013 1.088-.051 1.485v.044c0 .327-.052.576-.128.768a.883.883 0 0 1-.384.365l-.013.007-.013.012a3.072 3.072 0 0 1-.877.333h-.013a2.432 2.432 0 0 1-.665.103 4.98 4.98 0 0 0-.82.064h-.019a1.715 1.715 0 0 0-.69.313l-.033.013-.025.026c-.237.236-.308.563-.308.896 0 .403.16.806.48 1.05.32.242.717.326 1.178.326.39 0 .998-.064 1.882-.173.876-.109 2.054-.173 3.52-.173 1.472 0 2.624.064 3.468.173.922.115 1.543.173 1.933.173.448 0 .839-.064 1.152-.282a1.19 1.19 0 0 0 .512-.98 1.21 1.21 0 0 0-.397-.946 1.28 1.28 0 0 0-.73-.416h-.006a5.376 5.376 0 0 0-.87-.064 2.586 2.586 0 0 1-.82-.148h-.012v-.006a3.027 3.027 0 0 1-.768-.326 1.197 1.197 0 0 1-.3-.378 5.3 5.3 0 0 1-.142-.832v-27.475c0-.877.064-1.472.141-1.703.07-.166.327-.384.973-.512a3.955 3.955 0 0 1 .864-.108h.064l.82-.116a1.69 1.69 0 0 0 .69-.243l.045-.025.032-.032c.237-.244.301-.564.301-.896a1.26 1.26 0 0 0-.358-.941 1.376 1.376 0 0 0-.96-.32c-.384 0-.973.083-1.895.237a24.704 24.704 0 0 1-3.731.217 24.704 24.704 0 0 1-3.731-.217 14.106 14.106 0 0 0-1.645-.205l-.026-.032zm15.437 0a1.28 1.28 0 0 0-.922.339 1.28 1.28 0 0 0-.339.922 1.28 1.28 0 0 0 .34.921 1.28 1.28 0 0 0 .92.333h.033a4.973 4.973 0 0 1 1.632.205c.448.166.627.345.678.505.077.224.147.82.147 1.664v23.661c0 1.088-.012 2.035-.05 2.816a5.728 5.728 0 0 1-.314 1.735v.025a1.42 1.42 0 0 1-.557.768 2.355 2.355 0 0 1-1.114.224h-.512a1.664 1.664 0 0 0-1.113.333 1.344 1.344 0 0 0-.436 1.037c0 .41.218.819.564 1.037.345.21.768.281 1.267.281.55 0 1.12-.038 1.709-.115a18.26 18.26 0 0 1 4.032 0c.665.077 1.267.115 1.824.115a2.624 2.624 0 0 0 1.337-.275 1.229 1.229 0 0 0 .602-1.043 1.453 1.453 0 0 0-.314-.986 1.248 1.248 0 0 0-.947-.384 2.566 2.566 0 0 0-.62.064l.108-.013h-.512a3.008 3.008 0 0 1-1.146-.185 1.408 1.408 0 0 1-.576-.666 6.234 6.234 0 0 1-.256-1.555 51.827 51.827 0 0 1-.064-2.643v-21.6l18.196 29.632a3.315 3.315 0 0 0 .652.793 1.28 1.28 0 0 0 .82.34c.428 0 .768-.32.96-.698a2.1 2.1 0 0 0 .358-1.19v-28.372c0-2.067.122-3.564.333-4.441a1.376 1.376 0 0 1 .46-.807 1.402 1.402 0 0 1 .903-.256h.57c.41 0 .678.02.998-.192l.013-.006.013-.013c.313-.237.41-.62.41-.998a1.248 1.248 0 0 0-.513-1.024 2.074 2.074 0 0 0-1.203-.288 11.648 11.648 0 0 0-1.504.109 37.664 37.664 0 0 1-4.205 0 14.22 14.22 0 0 0-1.74-.11 2.624 2.624 0 0 0-1.338.276 1.229 1.229 0 0 0-.602 1.037c0 .358.18.704.455.934a1.626 1.626 0 0 0 1.024.327c.78 0 1.363.064 1.708.16h.045c.352.064.519.185.64.396l.013.032.02.026a2.24 2.24 0 0 1 .306 1.114v.032c.07.576.11 1.376.11 2.387v1.062c.038.435.057 1.05.057 1.837v15.066l-14.727-23.91-.006-.007a1.51 1.51 0 0 0-.595-.544 1.107 1.107 0 0 0-.755-.224zM352 307.763a1.037 1.037 0 0 0-.915.595l-.007.02-.006.019a36.5 36.5 0 0 1-.269.742v.013l-7.078 22.976c-.23.794-.461 1.472-.66 2.022a2.189 2.189 0 0 1-.767 1.024v.007h-.013a1.03 1.03 0 0 1-.493.224 24.717 24.717 0 0 0-.723.09 1.92 1.92 0 0 0-.704.223.813.813 0 0 0-.384.359 1.082 1.082 0 0 0-.103.499 1.024 1.024 0 0 0 .384.813c.256.179.557.23.877.23.352 0 .768-.032 1.261-.09h.026c.473-.089 1.024-.127 1.65-.127.935 0 1.716.038 2.343.128.666.09 1.165.128 1.536.128a1.408 1.408 0 0 0 .832-.212.98.98 0 0 0 .384-.78 1.216 1.216 0 0 0-.736-1.095 6.662 6.662 0 0 0-1.44-.345 1.536 1.536 0 0 1-.659-.205s-.102-.154-.102-.538c0-.403.21-1.568.652-3.302l1.07-3.968h-.02.013l.013-.013c.076-.064.102-.045.032-.045h5.523c.134 0 .205.032.224.039l1.734 5.69c.256.927.378 1.586.378 1.868 0 .326-.064.403-.128.448a3.744 3.744 0 0 1-1.235.16 1.478 1.478 0 0 0-.96.275 1.152 1.152 0 0 0-.384.896.96.96 0 0 0 .384.775 1.376 1.376 0 0 0 .832.224c.32 0 .85-.032 1.6-.09h.012a25.894 25.894 0 0 1 5.127-.006c.64.09 1.152.14 1.58.14a1.664 1.664 0 0 0 .96-.23 1.056 1.056 0 0 0 .436-.858.896.896 0 0 0-.295-.665 1.107 1.107 0 0 0-.614-.237 2.509 2.509 0 0 1-.928-.454l-.013-.007v-.006a2.86 2.86 0 0 1-1.126-1.306 27.18 27.18 0 0 1-.87-2.445l-6.72-21.19a17.203 17.203 0 0 1-.436-1.472 1.28 1.28 0 0 0-.358-.672c-.064-.064-.173-.051-.256-.09v-.179zm20.416 0c-1.26 0-2.413.205-3.456.615a7.245 7.245 0 0 0-2.605 1.664 7.862 7.862 0 0 0-1.702 2.598v.013c-.384 1.005-.576 2.112-.576 3.321 0 1.344.173 2.477.525 3.412v.012c.384.903.864 1.69 1.472 2.356v.006h.006c.627.66 1.344 1.235 2.144 1.728h.006c.8.48 1.652.973 2.541 1.472v.006c1.658.928 2.861 1.92 3.642 2.944v.013h.013a5.158 5.158 0 0 1 1.184 3.36 5.082 5.082 0 0 1-.365 1.959v.012h-.007a4.39 4.39 0 0 1-.921 1.536l-.013.007v.013a4.032 4.032 0 0 1-3.034 1.356 4.474 4.474 0 0 1-2.905-1.139v-.006a6.611 6.611 0 0 1-1.99-3.283 9.344 9.344 0 0 1-.257-1.146 16.352 16.352 0 0 0-.172-.96v-.006a2.022 2.022 0 0 0-.237-.832 1.011 1.011 0 0 0-.851-.512 1.075 1.075 0 0 0-.916.608 2.803 2.803 0 0 0-.21 1.235v.48a4.096 4.096 0 0 1 .038.678c0 .403-.007.845-.039 1.306a24.128 24.128 0 0 0-.045 1.497 3.648 3.648 0 0 0 2.068 3.303h.006c1.306.672 2.963.985 4.973.985 1.305 0 2.515-.256 3.616-.755a8.128 8.128 0 0 0 2.867-1.971c.813-.845 1.434-1.85 1.869-2.995.467-1.152.704-2.413.704-3.776 0-1.28-.173-2.432-.512-3.443a7.955 7.955 0 0 0-1.555-2.682 11.027 11.027 0 0 0-2.413-2.176 33.382 33.382 0 0 0-3.2-1.894 11.226 11.226 0 0 1-3.034-2.132 3.725 3.725 0 0 1-.857-2.579c0-1.344.339-2.317.985-3.02.685-.73 1.587-1.101 2.823-1.101.947 0 1.587.268 2.054.787.512.557 1.018 1.42 1.472 2.573v.006c.32.768.525 1.344.602 1.702v.02l.012.025c.077.256.199.48.397.647a1.088 1.088 0 0 0 .717.256 1.024 1.024 0 0 0 .832-.448 1.74 1.74 0 0 0 .205-.954 48 48 0 0 0-.09-3.443 9.44 9.44 0 0 0-.115-1.024c-.051-.256-.077-.448-.25-.666-.364-.473-.985-.704-1.984-1.043h-.012a10.598 10.598 0 0 0-3.444-.512zm-45.344.269l.02.051c-2.977.032-5.486.173-7.188.538a8.154 8.154 0 0 0-2.157.665 2.093 2.093 0 0 0-.64.487 1.248 1.248 0 0 0-.064 1.497.947.947 0 0 0 .73.359 2.432 2.432 0 0 0 .992-.218l.019-.006.02-.013a1.312 1.312 0 0 1 .658-.166c.288 0 .314.038.346.102.064.128.128.429.128.864v20.691c0 .461-.02.845-.045 1.152v.045a1.485 1.485 0 0 1-.096.557.576.576 0 0 1-.25.243l-.012.006-.02.013a2.387 2.387 0 0 1-.659.25h-.019a1.792 1.792 0 0 1-.493.07 3.923 3.923 0 0 0-.652.051h-.013a1.46 1.46 0 0 0-.589.27l-.032.012-.02.026a1.05 1.05 0 0 0-.268.768c0 .345.14.697.416.908a1.562 1.562 0 0 0 .98.276c.588 0 1.202-.045 1.849-.141h.025a9.802 9.802 0 0 1 1.87-.173c.742 0 1.58.064 2.514.211v.007c1.005.153 2.093.224 3.27.224 2.273 0 4.289-.333 6.042-1.012h.007c1.773-.704 3.283-1.69 4.518-2.95 1.235-1.267 2.163-2.816 2.778-4.62.64-1.806.96-3.822.96-6.03 0-2.176-.333-4.192-1.005-6.022a13.286 13.286 0 0 0-2.816-4.794 12.749 12.749 0 0 0-4.518-3.09 15.02 15.02 0 0 0-5.876-1.108zm.762 2.304c1.286 0 2.444.307 3.5.922h.007c1.062.588 1.977 1.427 2.739 2.528.768 1.107 1.37 2.438 1.805 4 .429 1.53.646 3.2.646 5.036 0 1.984-.217 3.757-.646 5.312a11.968 11.968 0 0 1-1.843 3.936 8.212 8.212 0 0 1-2.772 2.445h-.006c-1.088.563-2.304.839-3.66.839-1.255 0-1.934-.295-2.228-.724-.3-.518-.512-1.542-.512-3.04v-19.174a5.44 5.44 0 0 1 .083-.998 1.114 1.114 0 0 1 .34-.57 1.754 1.754 0 0 1 .812-.34h.026c.384-.108.96-.166 1.709-.166zm-38.99.87l2.97 9.562c.064.256.084.448.09.403-.02 0-.038.02-.045.02h-5.619v-.052c0-.057.013-.153.045-.281zm61.786 5.984l2.221 7.15.045.204h-4.205c0-.038 0-.077.02-.128v-.006zm-58.726 3.994v.02c0-.052.032-.052-.032.012zm61.082 3.347c-.032.02-.026.013-.007.013h-.006zm-172.212 26.291c.736 0 1.421.218 2.093.679h.013a5.99 5.99 0 0 1 1.856 2.003l.006.013.007.006c.563.826 1.005 1.856 1.318 3.11v.013l.007.007c.358 1.197.537 2.56.537 4.096 0 2.841-.589 5.043-1.715 6.65-1.146 1.58-2.368 2.297-3.776 2.297a4.352 4.352 0 0 1-2.24-.62c-.608-.43-.896-1-.896-1.895v-13.427c0-1.152.198-1.92.467-2.292v-.006l.007-.006c.217-.32.94-.621 2.31-.621zm31.84 3.828c-2.272 0-4.435.512-6.464 1.53a15.82 15.82 0 0 0-5.203 4.095 20.109 20.109 0 0 0-3.552 6.106c-.857 2.368-1.28 4.928-1.28 7.667 0 2.74.423 5.293 1.28 7.66v.007c.89 2.355 2.074 4.416 3.552 6.17 1.472 1.747 3.207 3.136 5.197 4.14l.006.007a14.243 14.243 0 0 0 6.35 1.472 14.336 14.336 0 0 0 6.4-1.472h.006a16.448 16.448 0 0 0 5.26-4.147c1.517-1.754 2.701-3.815 3.552-6.176.852-2.368 1.28-4.922 1.28-7.661 0-2.74-.448-5.3-1.344-7.667a19.264 19.264 0 0 0-3.488-6.112 15.98 15.98 0 0 0-5.203-4.096 13.824 13.824 0 0 0-6.349-1.523zm56.903 0c-1.6 0-3.06.256-4.371.768a9.27 9.27 0 0 0-3.29 2.092 9.805 9.805 0 0 0-2.144 3.284h-.006v.012a11.891 11.891 0 0 0-.717 4.199c0 1.709.211 3.142.659 4.313v.02c.474 1.139 1.088 2.137 1.85 2.976h.006a13.44 13.44 0 0 0 2.707 2.188h.007c1.03.608 2.112 1.236 3.25 1.882 2.126 1.197 3.687 2.47 4.698 3.802v.006h.007c1.043 1.293 1.542 2.726 1.542 4.378 0 .928-.153 1.779-.473 2.56v.012a5.76 5.76 0 0 1-1.216 1.997l-.007.013v.013a5.28 5.28 0 0 1-3.968 1.773 5.856 5.856 0 0 1-3.801-1.485l-.007-.007c-1.171-.998-2.035-2.4-2.579-4.262v-.006a11.968 11.968 0 0 1-.326-1.472 20.262 20.262 0 0 0-.224-1.23l-.007-.012a2.47 2.47 0 0 0-.281-1.005 1.133 1.133 0 0 0-.973-.595 1.222 1.222 0 0 0-1.056.704 3.482 3.482 0 0 0-.256 1.523v.589a5.958 5.958 0 0 1 .051.89c0 .512-.013 1.075-.051 1.676a30.602 30.602 0 0 0-.064 1.908c0 1.779.915 3.206 2.579 4.102h.006c1.645.845 3.744 1.248 6.298 1.248 1.645 0 3.174-.32 4.563-.954h.007a11.02 11.02 0 0 0 5.984-6.278c.588-1.46.883-3.053.883-4.774a13.376 13.376 0 0 0-.653-4.352 10.035 10.035 0 0 0-1.958-3.392 13.965 13.965 0 0 0-3.053-2.752 42.592 42.592 0 0 0-4.077-2.42c-1.792-.934-3.098-1.862-3.904-2.752-.755-.85-1.14-1.952-1.14-3.379 0-1.734.449-3.027 1.3-3.949.896-.96 2.086-1.446 3.7-1.446 1.234 0 2.098.352 2.72 1.043.665.736 1.318 1.856 1.906 3.328v.007l.007.006c.41.973.665 1.715.768 2.189v.025l.013.02c.09.307.236.576.46.768.23.192.532.3.832.3a1.146 1.146 0 0 0 .948-.518 2.112 2.112 0 0 0 .256-1.146c0-1.881-.039-3.34-.116-4.396a12.134 12.134 0 0 0-.147-1.28c-.064-.333-.102-.564-.288-.8-.429-.55-1.216-.864-2.49-1.293a13.395 13.395 0 0 0-4.358-.653zm39.2 0a1.171 1.171 0 0 0-1.05.678l-.006.02-.007.018-.339.954v.013l-9.043 29.35v.007a42.413 42.413 0 0 1-.851 2.585 2.931 2.931 0 0 1-1.024 1.376l-.007.007a1.472 1.472 0 0 1-.697.307 30.464 30.464 0 0 0-.915.115c-.064.006-.045.013-.084.026-.172-.128-.332-.27-.544-.308a5.248 5.248 0 0 0-.87-.064 2.586 2.586 0 0 1-.813-.147h-.025a3.072 3.072 0 0 1-.768-.333 1.184 1.184 0 0 1-.295-.377 5.3 5.3 0 0 1-.14-.832v-27.469c0-.877.076-1.472.147-1.702.07-.167.32-.384.96-.512h.006a3.994 3.994 0 0 1 .87-.103h.058l.813-.121a1.702 1.702 0 0 0 .691-.237l.038-.026.032-.032c.244-.243.308-.57.308-.896a1.26 1.26 0 0 0-.359-.94 1.363 1.363 0 0 0-.96-.32c-.384 0-.979.076-1.894.23-.864.147-2.112.217-3.731.217-1.62 0-2.874-.07-3.738-.217a13.51 13.51 0 0 0-1.894-.237 1.363 1.363 0 0 0-.96.32 1.267 1.267 0 0 0-.359.94c0 .366.051.698.307.96l.058.046.064.038a2.445 2.445 0 0 0 .704.211h.006c.295.045.602.064.928.064.288 0 .602.051.941.154.487.16.679.352.723.499l.013.026.013.032a5.062 5.062 0 0 1 .18 1.606v26.048c0 .595-.02 1.088-.058 1.491v.045c0 .32-.052.576-.128.768a.89.89 0 0 1-.378.365h-.013l-.019.019a3.117 3.117 0 0 1-.883.326h-.013a2.432 2.432 0 0 1-.672.103 5.005 5.005 0 0 0-.813.064h-.006l-.007.006a1.715 1.715 0 0 0-.697.307l-.026.02-.025.019c-.244.243-.308.57-.308.896 0 .41.167.813.48 1.056.32.243.717.32 1.178.32.39 0 .998-.064 1.875-.173.883-.109 2.061-.166 3.52-.166 1.472 0 2.637.057 3.475.166.922.115 1.536.18 1.933.18a2.829 2.829 0 0 0 .538-.058c.211.083.416.166.685.166.448 0 .972-.038 1.593-.115h.026a11.693 11.693 0 0 1 2.137-.173c1.197 0 2.202.064 3.008.173.845.115 1.472.173 1.933.173a1.664 1.664 0 0 0 .999-.256 1.107 1.107 0 0 0 .435-.896 1.389 1.389 0 0 0-.858-1.28 8.41 8.41 0 0 0-1.811-.423 2.06 2.06 0 0 1-.909-.294c-.051-.045-.173-.275-.173-.781 0-.557.276-2.042.839-4.262l1.363-5.063v-.006c.02-.064.02-.051.032-.064l.013-.007.013-.012c.108-.084.16-.077.121-.077h7.053a.84.84 0 0 1 .365.064c.045.019.032 0 .038.038v.013l2.221 7.296c.34 1.184.493 2.029.493 2.42 0 .44-.096.6-.23.684a4.531 4.531 0 0 1-1.639.211 1.773 1.773 0 0 0-1.14.333 1.325 1.325 0 0 0-.46 1.043c0 .34.154.691.435.896.282.192.615.256.992.256.416 0 1.082-.045 2.035-.121h.013a33.715 33.715 0 0 1 6.586 0 14.72 14.72 0 0 0 2.003.172c.448 0 .838-.064 1.152-.281a1.197 1.197 0 0 0 .506-.98.998.998 0 0 0-.333-.755 1.331 1.331 0 0 0-.768-.275h.038a3.283 3.283 0 0 1-1.235-.595l-.006-.006-.013-.007a3.789 3.789 0 0 1-1.472-1.728 34.822 34.822 0 0 1-1.12-3.136l-8.589-27.072a22.054 22.054 0 0 1-.557-1.894 1.51 1.51 0 0 0-.422-.794c-.128-.121-.32-.128-.5-.185l-.083-.122zm26.099 0c-1.6 0-3.066.256-4.378.768-1.267.48-2.368 1.177-3.283 2.092a9.805 9.805 0 0 0-2.15 3.284v.012a11.891 11.891 0 0 0-.717 4.199c0 1.709.211 3.142.66 4.313v.02c.473 1.139 1.087 2.137 1.849 2.976h.013a13.44 13.44 0 0 0 2.7 2.188h.007c1.024.608 2.112 1.236 3.251 1.882 2.125 1.197 3.686 2.47 4.691 3.802v.006h.013c1.037 1.293 1.542 2.726 1.542 4.378 0 .928-.153 1.779-.473 2.56l-.007.012a5.76 5.76 0 0 1-1.216 1.997v.013l-.006.013a5.28 5.28 0 0 1-3.968 1.773 5.856 5.856 0 0 1-3.802-1.485v-.007c-1.17-.992-2.035-2.4-2.585-4.262a11.968 11.968 0 0 1-.32-1.472 20.262 20.262 0 0 0-.23-1.235v-.013a2.47 2.47 0 0 0-.282-1.005 1.133 1.133 0 0 0-.973-.595 1.222 1.222 0 0 0-1.056.704 3.482 3.482 0 0 0-.262 1.523v.55l.006.039a5.958 5.958 0 0 1 .051.89c0 .518-.013 1.075-.051 1.676a30.602 30.602 0 0 0-.064 1.908c0 1.779.915 3.212 2.58 4.102h.006c1.644.845 3.744 1.248 6.29 1.248 1.652 0 3.182-.32 4.57-.947h.007c1.414-.595 2.624-1.427 3.616-2.496 1.024-1.069 1.811-2.336 2.368-3.789.589-1.46.883-3.053.883-4.774a13.376 13.376 0 0 0-.653-4.352 10.035 10.035 0 0 0-1.958-3.392 13.958 13.958 0 0 0-3.053-2.752 42.598 42.598 0 0 0-4.083-2.42c-1.792-.934-3.091-1.862-3.904-2.752-.749-.85-1.133-1.945-1.133-3.372 0-1.741.448-3.028 1.3-3.956.895-.96 2.086-1.44 3.698-1.44 1.23 0 2.093.346 2.72 1.037.666.736 1.319 1.856 1.908 3.335v.006c.416.973.672 1.715.768 2.195l.006.02.013.019c.09.307.237.576.46.768a1.267 1.267 0 0 0 .833.3 1.146 1.146 0 0 0 .947-.518 2.112 2.112 0 0 0 .256-1.14 64 64 0 0 0-.115-4.396 12.083 12.083 0 0 0-.148-1.286c-.064-.333-.102-.564-.294-.8-.422-.55-1.216-.864-2.483-1.293a13.376 13.376 0 0 0-4.359-.653zM232.8 355.674c-.038 0-.064.025-.096.032-.346.012-.672.064-.922.275a1.235 1.235 0 0 0-.416.953c0 .359.052.692.314.948l.051.057.064.032a2.451 2.451 0 0 0 .704.211c.256.045.544.064.87.064.244 0 .487.045.743.141h.006v.013c.461.16.59.32.615.46l.006.02.013.026c.077.23.147.819.147 1.67v26.048c0 1.075-.077 1.875-.211 2.374a.678.678 0 0 1-.3.423 1.843 1.843 0 0 1-.794.262h-.013a10.944 10.944 0 0 1-1.69.167 1.152 1.152 0 0 0-.851.332 1.248 1.248 0 0 0-.294.87c0 .41.179.82.505 1.057.327.237.736.32 1.21.32.281 0 .813-.039 1.69-.115h.019c.87-.116 2.176-.173 3.865-.173 3.667 0 6.695.077 9.069.23 2.432.154 4.23.23 5.427.23a5.28 5.28 0 0 0 .986-.063 1.267 1.267 0 0 0 .813-.468 1.76 1.76 0 0 0 .313-.768v-.012a21.952 21.952 0 0 0 .115-1.108v.013l.621-5.504v-.013a6.323 6.323 0 0 0 .058-.704l.064-.326v-.045a.64.64 0 0 0-.167-.422 1.37 1.37 0 0 0-.256-.23c-.147-.167-.345-.32-.614-.32a1.389 1.389 0 0 0-.966.435 3.264 3.264 0 0 0-.653 1.043 21.35 21.35 0 0 1-1.498 2.662 10.707 10.707 0 0 1-1.299 1.62 4.518 4.518 0 0 1-1.382.863 6.778 6.778 0 0 1-1.812.43 20.915 20.915 0 0 1-4.25 0 2.784 2.784 0 0 1-1.03-.41 1.58 1.58 0 0 1-.473-.832 8.467 8.467 0 0 1-.16-1.824v-11.712c0-.378.128-.557.038-.468 0 0 .16-.09.519-.09H244c1.19 0 2.15.09 2.848.27.614.153 1.107.563 1.523 1.356a10.189 10.189 0 0 1 .98 2.714v.038l.019.026c.115.352.236.653.364.909l.02.045.032.038a1.216 1.216 0 0 0 .928.46c.345 0 .704-.172.896-.46a1.792 1.792 0 0 0 .25-1.024c0-.307-.04-.832-.116-1.62v-.018a74.016 74.016 0 0 1-.058-3.2c0-1.12.045-2.157.116-3.092v.02c.115-.96.172-1.812.172-2.56a1.331 1.331 0 0 0-.281-.896 1.14 1.14 0 0 0-.864-.359 1.171 1.171 0 0 0-1.037.595l-.013.032-.013.032a9.1 9.1 0 0 0-.243.896 8.704 8.704 0 0 1-.32 1.076 3.046 3.046 0 0 1-.691.972 4.186 4.186 0 0 1-1.491.615c-.832.179-1.818.275-2.963.275h-2.56a3.238 3.238 0 0 1-.5-.032c-.012-.064-.057-.243-.057-.64v-9.382c0-.666.019-1.19.057-1.581a2.17 2.17 0 0 1 .301-.858 1.402 1.402 0 0 1 .723-.41 6.592 6.592 0 0 1 1.639-.16c3.001 0 5.184.705 6.624 2.042a4.691 4.691 0 0 1 1.037 1.344h.006v.013c.256.474.454.909.595 1.306.154.422.295.768.41 1.043l.013.025.012.026a1.229 1.229 0 0 0 1.024.627c.384 0 .75-.288.896-.627a3.078 3.078 0 0 0 .199-1.254v-5.12c0-.64-.064-1.133-.288-1.536a1.165 1.165 0 0 0-.73-.512 3.712 3.712 0 0 0-1.037-.122c-.41 0-1.516.038-3.372.115-1.844.077-4.442.115-7.776.115-2.612 0-4.608-.038-5.997-.115-1.408-.077-2.195-.115-2.47-.115zm-20.531 1.497c1.344 0 2.598.384 3.776 1.171h.013v.007c1.222.755 2.29 1.875 3.212 3.379.916 1.498 1.639 3.347 2.157 5.549v.006c.557 2.195.839 4.691.839 7.507 0 2.624-.256 4.928-.781 6.932v.006a16.89 16.89 0 0 1-2.048 5.094 9.984 9.984 0 0 1-3.027 3.092 6.963 6.963 0 0 1-3.63 1.017c-1.35 0-2.623-.371-3.846-1.126a10.765 10.765 0 0 1-3.148-3.43 19.136 19.136 0 0 1-2.164-5.556 33.395 33.395 0 0 1-.78-7.565c0-2.624.243-4.94.723-6.944a18.304 18.304 0 0 1 2.048-5.036 9.344 9.344 0 0 1 3.033-3.028v-.006c1.152-.717 2.343-1.069 3.623-1.069zm94.688 8.922l2.97 9.568c.063.256.083.448.083.41l-.039.012h-5.619v-.045a1.216 1.216 0 0 1 .045-.288zm3.059 9.99v.013c0-.038.026-.045-.032.013zm-15.142 14.08l.09.096-.033-.025c-.025-.026-.019-.039-.064-.064zm.096.128h.012c.064.064.058.09.045.064 0-.013-.045-.051-.057-.064z" color="#000"/></svg>