<?xml version="1.0" encoding="UTF-8" standalone="no"?>
<!-- Created with Inkscape (http://www.inkscape.org/) -->

<svg
   xmlns:dc="http://purl.org/dc/elements/1.1/"
   xmlns:cc="http://creativecommons.org/ns#"
   xmlns:rdf="http://www.w3.org/1999/02/22-rdf-syntax-ns#"
   xmlns:svg="http://www.w3.org/2000/svg"
   xmlns="http://www.w3.org/2000/svg"
   xmlns:sodipodi="http://sodipodi.sourceforge.net/DTD/sodipodi-0.dtd"
   xmlns:inkscape="http://www.inkscape.org/namespaces/inkscape"
   version="1.1"
   id="svg2"
   width="512"
   height="512"
   viewBox="0 0 512 512"
   sodipodi:docname="website-icon.svg"
   inkscape:version="0.92.4 (5da689c313, 2019-01-14)">
  <metadata
     id="metadata8">
    <rdf:RDF>
      <cc:Work
         rdf:about="">
        <dc:format>image/svg+xml</dc:format>
        <dc:type
           rdf:resource="http://purl.org/dc/dcmitype/StillImage" />
        <dc:title></dc:title>
      </cc:Work>
    </rdf:RDF>
  </metadata>
  <defs
     id="defs6" />
  <sodipodi:namedview
     pagecolor="#ffffff"
     bordercolor="#666666"
     borderopacity="1"
     objecttolerance="10"
     gridtolerance="10"
     guidetolerance="10"
     inkscape:pageopacity="0"
     inkscape:pageshadow="2"
     inkscape:window-width="1920"
     inkscape:window-height="1017"
     id="namedview4"
     showgrid="false"
     inkscape:zoom="0.4609375"
     inkscape:cx="256"
     inkscape:cy="256"
     inkscape:window-x="-8"
     inkscape:window-y="-8"
     inkscape:window-maximized="1"
     inkscape:current-layer="svg2" />
  <g
     id="g4534"
     transform="scale(6.4)">
    <path
       id="path4520"
       d="M 40,0 C 62.091,0 80,17.909 80,40 80,62.091 62.091,80 40,80 17.909,80 0,62.091 0,40 0,17.909 17.909,0 40,0 Z"
       inkscape:connector-curvature="0"
       style="fill:#ffffff" />
    <path
       id="path4522"
       d="M 9.661,71.62 Z M 42.841,8.948 a 0.961,0.961 0 0 0 -0.597,0.18 c -0.329,0.23 -0.754,1.044 -1.24,2.382 -0.203,0.556 -0.411,1.04 -0.471,1.077 -0.061,0.037 -0.403,-0.065 -0.752,-0.235 -0.662,-0.323 -1.013,-0.384 -3.042,-0.48 l -1.222,-0.054 v 0.326 c 0,0.18 0.101,0.619 0.227,0.977 0.192,0.549 0.21,0.763 0.108,1.34 l -0.127,0.68 H 12.043 V 65.439 H 67.6 V 20.48 l 0.543,-0.606 c 0.627,-0.713 1.272,-1.892 1.548,-2.825 0.245,-0.827 0.397,-2.743 0.217,-2.743 -0.07,0 -0.627,0.187 -1.23,0.417 l -1.096,0.416 h -4.119 l -0.218,-0.625 a 36.079,36.079 0 0 0 -0.579,-1.502 l -0.362,-0.87 -0.851,0.824 a 43.529,43.529 0 0 1 -1.648,1.503 l -0.787,0.67 h -7.487 c -5.88,0 -7.506,-0.028 -7.55,-0.145 -0.031,-0.082 -0.21,-0.91 -0.399,-1.837 -0.336,-1.663 -0.338,-1.697 -0.135,-2.336 0.112,-0.357 0.208,-0.816 0.208,-1.023 A 0.837,0.837 0 0 0 42.84,8.947 Z m -1.095,3.992 -0.073,0.417 c -0.043,0.23 -0.188,0.697 -0.317,1.04 -0.236,0.633 -0.407,0.773 -0.534,0.444 -0.134,-0.35 0.09,-0.98 0.507,-1.44 z m 1.158,0.046 0.435,1.729 c 0.518,2.062 0.606,3.696 0.217,4.046 -0.295,0.266 -0.35,0.255 -0.742,-0.163 -0.524,-0.558 -0.775,-1.434 -0.77,-2.68 0.005,-1.112 0.208,-1.954 0.634,-2.598 z m -5.142,0.135 c 0.147,-0.004 0.343,0 0.598,0 0.913,0.004 1.088,0.039 1.385,0.28 l 0.344,0.282 -0.254,0.461 c -0.39,0.737 -0.351,0.726 -1.376,0.399 -1.035,-0.332 -1.35,-0.616 -1.222,-1.123 0.055,-0.219 0.084,-0.285 0.525,-0.299 z m 24.027,1.05 0.272,0.335 c 0.448,0.558 1.142,2.06 1.195,2.59 0.04,0.41 -0.04,0.641 -0.444,1.358 -0.269,0.475 -0.53,0.86 -0.58,0.86 -0.235,0 -0.667,-0.438 -0.869,-0.879 -0.278,-0.61 -0.283,-1.177 -0.027,-2.236 0.16,-0.656 0.173,-0.853 0.055,-0.968 -0.118,-0.115 -0.208,-0.08 -0.435,0.18 -0.445,0.512 -0.58,1.184 -0.498,2.563 0.042,0.704 0.036,1.222 -0.027,1.222 -0.183,0 -0.875,-0.942 -1.041,-1.421 -0.274,-0.793 -0.06,-1.224 1.25,-2.49 z m -24.516,0.616 c 0.312,0 1.711,0.682 1.711,0.833 0,0.222 -0.488,0.46 -1.185,0.58 -0.424,0.072 -0.827,0.183 -0.888,0.244 -0.224,0.223 0.512,0.521 1.422,0.58 0.878,0.055 0.896,0.065 0.896,0.388 0,0.301 -0.05,0.333 -0.57,0.408 -0.313,0.045 -0.683,0.101 -0.815,0.127 -0.829,0.159 -1.796,-1.226 -1.494,-2.137 0.203,-0.612 0.573,-1.023 0.923,-1.023 z m 2.734,0.779 0.498,0.452 c 0.638,0.574 0.995,1.18 1.458,2.49 0.203,0.573 0.351,1.05 0.326,1.05 -0.134,0 -1.281,-0.997 -1.72,-1.494 -0.591,-0.668 -0.647,-0.842 -0.598,-1.792 z M 12.523,15.62 H 35.57 v 1.195 H 14.08 v 12.538 c 0,6.9 0.037,17.5 0.081,23.547 l 0.082,10.99 H 66.08 l -0.082,-17.499 -0.09,-17.5 0.325,-1.538 c 0.383,-1.818 0.359,-3.071 -0.063,-3.64 -0.201,-0.27 -0.245,-0.514 -0.245,-1.285 v -0.95 l 0.552,-0.309 c 0.305,-0.17 0.573,-0.307 0.598,-0.307 0.025,0 0.045,9.926 0.045,22.053 V 64.968 H 12.523 V 40.289 Z m 31.595,0 h 14.584 l -0.19,0.597 -0.19,0.589 -6.962,0.008 c -7.756,0.002 -6.99,0.086 -7.17,-0.805 z m 20.052,0.018 c 0.213,-0.003 0.506,0 0.815,0.009 l 1.122,0.036 -0.543,0.19 c -0.296,0.108 -0.733,0.284 -0.978,0.39 l -0.452,0.19 -0.19,-0.363 c -0.106,-0.203 -0.166,-0.396 -0.136,-0.425 0.014,-0.015 0.149,-0.024 0.362,-0.027 z m 4.744,0.344 c 0.245,0 0.058,0.772 -0.426,1.765 -0.73,1.499 -2.197,2.667 -3.739,2.988 -0.783,0.163 -0.895,0.156 -1.611,-0.064 -0.634,-0.194 -0.776,-0.378 -0.57,-0.76 0.366,-0.682 1.186,-0.836 2.815,-0.543 0.46,0.083 0.868,0.132 0.896,0.108 0.028,-0.023 -0.076,-0.213 -0.226,-0.416 l -0.272,-0.362 0.426,-0.353 c 0.233,-0.191 0.682,-0.697 0.996,-1.123 0.533,-0.722 1.253,-1.24 1.71,-1.24 z m -1.96,0.217 c 0.108,0.013 0.167,0.067 0.167,0.163 0,0.079 -0.285,0.411 -0.634,0.743 -0.348,0.331 -1.02,0.81 -1.493,1.059 l -0.86,0.452 -0.073,-0.316 c -0.1,-0.401 0.168,-0.695 1.376,-1.485 0.562,-0.367 1.086,-0.585 1.394,-0.616 a 0.578,0.578 0 0 1 0.124,0 z m -51.281,0.969 h 0.751 l 0.625,1.177 c 0.683,1.284 0.737,1.61 0.39,2.372 -0.22,0.483 -0.255,0.507 -0.752,0.507 -0.83,0 -1.017,-0.36 -0.57,-1.114 0.298,-0.504 0.22,-0.76 -0.48,-1.566 -0.46,-0.53 -0.715,-0.981 -0.715,-1.258 0,-0.062 0.338,-0.118 0.751,-0.118 z m 3.875,0 c 0.438,0 0.779,0.021 0.751,0.045 -0.027,0.024 -0.502,0.316 -1.05,0.652 -1.067,0.654 -1.062,0.657 -0.66,-0.299 0.165,-0.394 0.169,-0.398 0.959,-0.398 z m 35.071,0 c 0.358,0 0.372,0.213 0.063,0.815 -0.294,0.574 -1.124,1.501 -1.24,1.385 -0.395,-0.397 0.57,-2.2 1.177,-2.2 z m -29.658,0.018 c 0.087,0 0.17,0.003 0.227,0.018 0.114,0.03 -0.009,0.056 -0.272,0.055 -0.263,-0.002 -0.357,-0.026 -0.208,-0.055 0.074,-0.014 0.167,-0.018 0.253,-0.018 z m 4.237,0.344 3.305,0.009 h 3.313 l 0.353,0.488 c 0.492,0.67 1.506,1.2 3.169,1.648 3.157,0.852 3.993,1.239 4.517,2.1 0.166,0.274 0.28,0.646 0.28,0.924 0.001,0.397 -0.084,0.548 -0.534,0.978 -0.482,0.46 -2.065,1.443 -2.154,1.34 -0.02,-0.025 -0.268,-0.574 -0.552,-1.223 -0.609,-1.39 -1.09,-2.062 -1.711,-2.39 l -0.453,-0.244 -0.235,0.28 c -0.362,0.438 -0.306,1.025 0.126,1.331 0.608,0.43 0.396,1.322 -0.507,2.091 -0.544,0.465 -1.683,0.927 -2.01,0.824 -0.829,-0.262 -1.297,-1.31 -1.394,-3.096 -0.071,-1.324 -0.171,-1.611 -0.534,-1.611 -0.316,0 -0.725,0.297 -2.2,1.557 a 100.53,100.53 0 0 1 -1.774,1.485 l -0.58,0.461 -0.977,-0.154 c -1.452,-0.23 -3.23,-0.29 -3.848,-0.135 -0.294,0.073 -0.91,0.367 -1.367,0.66 a 22.34,22.34 0 0 1 -1.937,1.078 c -0.61,0.296 -1.18,0.534 -1.267,0.534 -0.213,0 -0.203,-0.684 0.018,-1.068 0.241,-0.42 0.214,-1.166 -0.064,-1.775 -0.13,-0.286 -0.235,-0.548 -0.235,-0.58 0,-0.083 0.685,0.071 1.539,0.345 1.464,0.47 3.164,-0.017 4.373,-1.25 0.34,-0.347 1.233,-1.521 1.982,-2.616 z m 15.354,0 h 3.06 l -0.942,1.394 c -0.518,0.77 -1.163,1.713 -1.43,2.091 l -0.48,0.689 -0.226,-0.281 A 4.684,4.684 0 0 1 44.081,20.635 C 43.884,20.199 43.874,20.063 44,19.63 c 0.08,-0.273 0.23,-0.852 0.344,-1.294 z m 11.832,0 c 0.185,-0.005 0.42,0 0.725,0 h 1.367 l 0.497,0.86 c 0.277,0.475 0.536,1.006 0.57,1.177 0.078,0.38 -0.128,0.552 -1.52,1.295 -1.82,0.97 -3.05,2.413 -3.295,3.874 -0.139,0.823 -0.174,0.87 -0.97,1.304 -0.426,0.234 -0.785,0.425 -0.805,0.425 -0.135,0 -0.199,-0.24 -0.199,-0.787 0,-0.347 -0.135,-1.047 -0.299,-1.557 -0.496,-1.546 -0.518,-1.483 1.34,-3.395 0.9,-0.927 1.334,-1.482 1.593,-2.028 0.197,-0.413 0.363,-0.845 0.363,-0.96 0,-0.14 0.08,-0.193 0.633,-0.208 z M 26.79,17.539 c 0.095,-0.003 0.212,0 0.353,0.009 l 0.652,0.036 -0.426,0.271 a 1.75,1.75 0 0 1 -0.95,0.263 l -0.543,0.009 0.308,-0.308 c 0.199,-0.198 0.32,-0.272 0.606,-0.28 z m 23.981,0.136 c 0.19,0.007 0.33,0.122 0.652,0.453 0.27,0.276 0.655,0.78 0.851,1.122 0.324,0.563 0.342,0.662 0.227,1.087 -0.07,0.257 -0.265,0.727 -0.435,1.04 l -0.308,0.571 -0.208,-0.525 c -0.291,-0.764 -0.94,-1.865 -1.104,-1.865 -0.26,0 -1.7,1.623 -2.273,2.571 -0.747,1.236 -1.08,2.19 -1.086,3.096 -0.007,0.924 0.291,1.448 1.53,2.689 0.498,0.5 0.905,0.97 0.905,1.05 0,0.08 -0.311,0.472 -0.697,0.87 l -0.706,0.723 -1.06,-0.425 c -1.846,-0.738 -2.824,-0.882 -3.403,-0.489 -0.163,0.11 -0.567,0.431 -0.896,0.706 -0.514,0.43 -0.642,0.485 -0.897,0.39 -0.473,-0.178 -0.73,-0.467 -1.095,-1.232 -0.393,-0.82 -0.43,-1.195 -0.145,-1.611 0.64,-0.935 3.171,-3.374 6.292,-6.057 1.037,-0.891 1.892,-1.668 1.892,-1.72 0,-0.164 -0.839,-0.093 -1.213,0.1 -0.347,0.178 -0.362,0.173 -0.245,-0.045 0.179,-0.332 1.51,-1.533 2.218,-2.001 0.335,-0.222 0.78,-0.439 0.987,-0.48 a 0.913,0.913 0 0 1 0.217,-0.018 z m -28.344,0.172 c 0.092,-0.004 0.193,-0.002 0.298,0 0.823,0.019 1.697,0.392 2.436,1.041 l 0.47,0.416 h -1.014 c -1.075,0 -1.62,-0.179 -2.082,-0.688 l -0.226,-0.244 -0.516,0.299 c -0.649,0.378 -0.816,0.339 -0.58,-0.145 0.22,-0.448 0.569,-0.649 1.214,-0.679 z m -1.992,0.462 c 0.044,0.012 -0.035,0.145 -0.235,0.425 -0.585,0.818 -0.968,1.248 -0.97,1.077 -0.001,-0.364 0.652,-1.22 1.123,-1.475 0.04,-0.022 0.067,-0.031 0.082,-0.027 z m -5.758,0.353 0.263,0.416 c 0.49,0.8 0.503,1 0.172,1.72 -0.167,0.363 -0.326,0.661 -0.362,0.661 -0.037,0 -0.073,-0.633 -0.073,-1.403 z m 7.686,1.05 c 0.402,-0.003 0.837,0.082 1.476,0.244 0.658,0.167 1.36,0.316 1.557,0.335 0.359,0.036 0.357,0.037 -0.607,1.014 -0.643,0.652 -1.177,1.084 -1.611,1.286 -0.358,0.166 -0.734,0.292 -0.833,0.29 -0.215,-0.006 -1.704,-0.553 -2.67,-0.987 l -0.698,-0.317 0.2,-0.335 c 0.252,-0.426 1.144,-1.02 1.9,-1.268 0.52,-0.17 0.885,-0.26 1.286,-0.262 z m 38.267,0.796 c 0.224,-0.015 0.509,0.078 0.752,0.281 0.655,0.55 1.61,0.834 2.833,0.842 l 1.114,0.009 v 0.56 c 0,0.514 -0.085,0.684 -0.263,0.508 -0.036,-0.036 -0.846,-0.257 -1.792,-0.489 -2.126,-0.522 -3.033,-0.932 -3.033,-1.358 0,-0.22 0.165,-0.338 0.39,-0.353 z m -44.54,1.132 0.425,0.208 c 0.235,0.112 0.512,0.363 0.616,0.562 0.233,0.449 0.113,0.717 -0.77,1.747 -0.43,0.5 -0.554,0.717 -0.444,0.778 0.244,0.136 0.647,-0.014 0.851,-0.325 0.104,-0.157 0.248,-0.29 0.317,-0.29 0.07,0 -0.146,0.388 -0.48,0.86 -0.333,0.471 -0.606,0.925 -0.606,1.005 0,0.08 0.14,0.24 0.308,0.362 0.274,0.199 0.296,0.295 0.262,0.878 l -0.036,0.652 -0.67,-0.833 c -1.202,-1.498 -1.421,-1.892 -1.421,-2.508 0,-0.633 0.556,-1.811 1.24,-2.616 z m 42.467,0.118 c 0.444,-0.014 0.881,0.12 1.159,0.371 0.184,0.166 0.226,0.373 0.226,1.14 0,0.65 -0.05,0.95 -0.154,0.978 -0.082,0.023 -0.474,0.108 -0.869,0.181 -0.395,0.074 -1.17,0.358 -1.729,0.634 -0.56,0.276 -1.05,0.514 -1.086,0.534 -0.29,0.16 -0.314,-0.881 -0.037,-1.693 0.274,-0.8 1.35,-1.898 2.046,-2.082 0.145,-0.038 0.296,-0.059 0.444,-0.063 z m -8.437,0.253 v 1.711 h -0.335 c -0.187,0 -0.371,0.037 -0.408,0.073 -0.061,0.06 0.015,0.437 0.218,1.104 0.079,0.262 0.06,0.281 -0.272,0.208 -0.245,-0.053 -0.408,-0.028 -0.507,0.091 -0.184,0.22 -0.032,0.592 0.87,2.146 0.365,0.63 0.65,1.15 0.633,1.15 -0.018,0 -0.528,-0.5 -1.132,-1.114 -1.302,-1.322 -1.547,-1.785 -1.285,-2.408 0.243,-0.58 1.28,-2.059 1.792,-2.553 z m -31.604,0.643 c 0.175,0 0.714,0.885 0.887,1.458 0.147,0.487 0.14,0.6 -0.163,1.53 a 35.61,35.61 0 0 1 -0.842,2.227 c -0.282,0.672 -0.564,1.222 -0.625,1.222 -0.147,0 -0.461,-0.758 -0.461,-1.114 0,-0.155 0.182,-1.108 0.407,-2.118 0.225,-1.01 0.476,-2.14 0.552,-2.517 0.076,-0.377 0.184,-0.688 0.245,-0.688 z m 32.817,0.29 c 0.055,-0.003 0.106,0.146 0.226,0.498 0.303,0.887 0.51,2.258 0.416,2.76 a 5.876,5.876 0 0 1 -0.325,1.006 c -0.135,0.311 -0.29,0.57 -0.353,0.57 -0.063,0 -0.27,-0.161 -0.462,-0.353 -0.313,-0.312 -0.354,-0.42 -0.353,-1.095 0,-0.732 0.444,-2.695 0.733,-3.232 0.049,-0.091 0.085,-0.152 0.118,-0.154 z m 12.42,0.063 c 0.398,0 0.536,0.077 0.933,0.507 0.257,0.279 0.621,0.709 0.806,0.95 0.22,0.29 0.315,0.55 0.29,0.761 l -0.037,0.317 -0.597,-0.47 C 64.538,24.59 63.607,23.599 63.4,23.215 63.302,23.033 63.345,23.007 63.753,23.007 Z m -2.906,0.245 c 0.04,0 0.415,0.158 0.824,0.353 1.078,0.512 1.311,1.221 0.734,2.227 -0.245,0.425 -0.262,0.524 -0.118,0.642 0.22,0.182 0.423,0.015 0.96,-0.778 l 0.407,-0.598 v 0.49 a 3.6,3.6 0 0 1 -0.181,0.995 c -0.134,0.376 -0.138,0.494 -0.027,0.453 0.715,-0.268 0.688,-0.297 0.688,0.615 0,0.464 -0.017,0.842 -0.037,0.842 -0.019,0 -0.614,-0.454 -1.321,-1.014 -0.789,-0.623 -1.431,-1.234 -1.648,-1.575 -0.323,-0.507 -0.353,-0.644 -0.353,-1.602 0,-0.577 0.032,-1.05 0.072,-1.05 z m -20.765,0.125 c 0.042,0.017 0.07,0.086 0.107,0.182 0.175,0.452 0.09,1.55 -0.163,2.074 -0.111,0.229 -0.537,0.82 -0.942,1.312 -0.405,0.492 -0.825,1.105 -0.941,1.367 -0.3,0.674 -0.396,1.49 -0.209,1.802 0.084,0.14 0.31,0.509 0.498,0.815 0.19,0.305 0.313,0.583 0.28,0.615 -0.106,0.106 -1.1,-0.998 -1.511,-1.675 -0.225,-0.37 -0.422,-0.885 -0.453,-1.168 -0.05,-0.46 0.007,-0.599 0.634,-1.52 a 880.67,880.67 0 0 0 1.684,-2.49 c 0.62,-0.92 0.848,-1.266 0.969,-1.313 a 0.063,0.063 0 0 1 0.047,-0.001 z m -6.484,0.128 c 0.231,-0.027 0.318,0.243 0.525,0.851 0.363,1.066 0.167,1.822 -0.733,2.825 -0.265,0.295 -0.647,0.63 -0.842,0.742 l -0.353,0.208 0.063,-0.597 c 0.053,-0.55 0.016,-0.63 -0.443,-1.223 -0.272,-0.35 -0.49,-0.709 -0.49,-0.787 0,-0.305 0.429,-0.766 1.35,-1.449 0.474,-0.351 0.743,-0.549 0.923,-0.57 z m 25.457,1.674 c 0.09,0.003 0.181,0.015 0.272,0.027 0.632,0.087 0.913,0.303 1.104,0.879 0.136,0.41 0.123,0.44 -0.263,0.76 -0.22,0.184 -0.815,0.552 -1.321,0.815 -0.507,0.262 -0.989,0.473 -1.078,0.47 -0.088,-0.002 0.125,-0.262 0.48,-0.579 0.376,-0.335 0.61,-0.637 0.561,-0.715 -0.047,-0.077 -0.401,-0.136 -0.823,-0.136 -0.634,0 -0.766,-0.03 -0.906,-0.253 -0.15,-0.24 -0.127,-0.297 0.263,-0.652 a 2.467,2.467 0 0 1 1.71,-0.616 z m -32.328,0.245 c 0.89,0.002 1.604,0.177 2.408,0.57 0.856,0.42 1.387,0.988 1.593,1.72 0.186,0.663 -0.029,1.425 -0.66,2.373 -0.502,0.752 -4.589,4.743 -5.297,5.169 -0.721,0.434 -1.78,0.734 -3.259,0.932 -2.37,0.317 -3.652,0.603 -4.5,1.005 a 5.795,5.795 0 0 0 -1.574,1.14 l -0.76,0.761 v -4.128 c 0,-4.678 -0.114,-4.177 1.122,-4.816 0.385,-0.2 0.77,-0.333 0.86,-0.299 0.09,0.035 0.359,0.33 0.597,0.661 0.239,0.33 0.509,0.607 0.598,0.607 0.284,0 0.525,-0.493 0.67,-1.385 0.205,-1.27 0.336,-1.425 1.675,-1.947 0.63,-0.246 1.62,-0.705 2.208,-1.023 2.112,-1.143 2.165,-1.159 3.36,-1.285 0.346,-0.037 0.662,-0.055 0.959,-0.055 z m 8.636,0.67 0.371,0.435 c 0.42,0.475 0.465,0.78 0.2,1.412 -0.39,0.929 -0.157,1.442 1.674,3.712 1.564,1.937 1.51,1.803 0.643,1.9 -0.397,0.046 -0.782,0.1 -0.86,0.128 -0.078,0.027 -0.321,-0.251 -0.543,-0.616 -0.574,-0.945 -1.513,-2.031 -1.946,-2.254 -0.5,-0.257 -2.283,-0.35 -3.694,-0.19 -0.622,0.07 -1.15,0.107 -1.177,0.081 -0.15,-0.15 1.165,-1.164 2.236,-1.729 1.434,-0.755 2.286,-1.462 2.761,-2.29 z m 29.649,0.036 c 0.075,0 0.175,0.077 0.326,0.227 0.319,0.318 0.27,1.011 -0.136,1.82 -0.153,0.304 -0.362,0.635 -0.47,0.733 -0.184,0.164 -0.191,0.12 -0.046,-0.57 0.086,-0.41 0.161,-1.076 0.163,-1.485 0.002,-0.5 0.038,-0.725 0.163,-0.725 z m -10.411,0.76 c 0.423,-0.007 0.48,0.03 0.443,0.236 -0.022,0.131 -0.268,0.558 -0.552,0.95 -0.284,0.394 -0.758,0.94 -1.05,1.223 l -0.525,0.516 -0.625,-0.489 c -0.72,-0.566 -0.71,-0.64 0.172,-1.412 0.71,-0.622 1.522,-1.012 2.137,-1.023 z m -39.851,0.4 c 0.062,-0.018 0.18,0.198 0.407,0.624 l 0.235,0.434 -0.29,0.308 c -0.158,0.171 -0.316,0.317 -0.352,0.317 -0.036,0 -0.074,-0.415 -0.073,-0.923 0.001,-0.49 0.01,-0.743 0.073,-0.76 z m 41.363,0.008 c 0.045,-0.004 0.09,0 0.145,0 0.249,0 0.452,0.053 0.452,0.117 0,0.362 -0.692,1.847 -1.25,2.68 -0.86,1.287 -0.999,1.402 -1.393,1.195 a 1.128,1.128 0 0 1 -0.435,-0.444 c -0.166,-0.362 -0.025,-0.632 1.213,-2.28 0.804,-1.07 0.952,-1.243 1.268,-1.268 z m 4.61,0.35 c 0.104,0.01 0.009,0.152 -0.31,0.42 -0.314,0.262 -1.068,0.433 -1.068,0.244 0,-0.032 0.32,-0.218 0.715,-0.417 0.293,-0.147 0.496,-0.225 0.606,-0.244 a 0.212,0.212 0 0 1 0.057,-0.004 z m 1.156,0.247 c 0.177,0 1.253,1.052 2.155,2.11 0.812,0.951 0.855,0.988 1.068,0.796 0.218,-0.196 0.227,0.012 0.227,8.202 0,4.621 0.037,11.95 0.081,16.287 l 0.073,7.885 H 14.795 V 44.263 l 1.113,-1.068 c 2.611,-2.51 5.389,-4.388 7.55,-5.106 0.666,-0.221 6.131,-1.258 6.636,-1.258 0.019,0 0.028,-0.049 0.028,-0.11 0,-0.06 -0.28,-0.195 -0.625,-0.307 a 8.968,8.968 0 0 1 -0.715,-0.253 c -0.161,-0.091 0.646,-0.974 1.077,-1.177 0.658,-0.31 1.5,-0.154 1.955,0.362 0.518,0.587 1.244,0.827 2.237,0.742 0.443,-0.038 1.024,-0.148 1.294,-0.244 l 0.489,-0.181 -0.263,0.941 c -0.153,0.54 -0.552,1.444 -0.95,2.137 -0.927,1.614 -1.099,2.209 -0.914,3.204 0.18,0.978 0.47,1.527 1.077,2.074 0.588,0.529 0.875,0.61 1.838,0.516 0.409,-0.04 0.803,-0.068 0.869,-0.064 0.066,0.004 0.52,0.035 1.014,0.073 1.977,0.151 2.215,0.132 2.716,-0.263 0.258,-0.204 0.614,-0.673 0.814,-1.068 0.314,-0.62 0.35,-0.819 0.344,-1.72 -0.008,-1.24 -0.236,-1.84 -1.158,-2.979 -0.753,-0.93 -1.332,-1.783 -1.259,-1.855 0.029,-0.029 0.272,0.024 0.543,0.117 0.669,0.23 1.866,0.416 2.69,0.417 0.67,0 0.681,0.01 1.094,0.57 0.52,0.703 1.882,2.005 2.599,2.49 1.437,0.97 3.446,1.67 4.372,1.52 0.396,-0.064 1.063,-0.324 1.24,-0.48 0.024,-0.02 -0.158,-0.233 -0.398,-0.48 -0.252,-0.257 -0.837,-1.238 -1.385,-2.317 -1.053,-2.073 -1.675,-2.952 -2.39,-3.358 -0.495,-0.282 -0.63,-0.57 -0.271,-0.57 0.113,0 0.425,-0.078 0.697,-0.182 l 0.488,-0.19 1.684,1.132 c 1.974,1.33 2.945,1.845 3.685,1.946 0.486,0.066 0.543,0.098 0.543,0.39 0,0.53 0.683,1.757 1.231,2.2 0.935,0.754 1.367,0.899 2.644,0.896 1.308,-0.004 2.141,-0.23 2.996,-0.815 1.184,-0.811 1.752,-1.838 1.748,-3.16 -0.004,-0.915 -0.217,-1.367 -1.304,-2.806 -0.814,-1.078 -1.213,-1.928 -1.213,-2.58 0,-0.583 -0.986,-1.358 -1.73,-1.358 -0.166,0 -0.307,-0.043 -0.307,-0.1 0,-0.267 2.313,-2.046 2.661,-2.046 z m -22.37,0.417 c 0.066,-0.007 0.078,0.115 0.118,0.434 0.205,1.643 0.213,1.928 0.055,2.028 -0.218,0.138 -0.243,0.132 -0.562,-0.09 -0.153,-0.107 -0.357,-0.38 -0.452,-0.607 -0.162,-0.385 -0.156,-0.44 0.117,-0.905 0.161,-0.274 0.4,-0.604 0.534,-0.725 0.09,-0.08 0.151,-0.131 0.19,-0.135 z M 56.9,28.945 c 0.112,-0.003 0.292,0.101 0.688,0.344 0.506,0.31 0.65,0.452 0.534,0.525 -0.162,0.103 -0.605,0.109 -1.204,0.019 -0.365,-0.056 -0.452,-0.422 -0.18,-0.779 0.05,-0.067 0.095,-0.107 0.162,-0.109 z m -6.156,0.77 c 0.218,-0.004 0.459,0.022 0.68,0.081 0.986,0.265 1.881,1.432 2.462,3.196 0.112,0.343 0.184,0.738 0.163,0.887 -0.034,0.234 -0.113,0.173 -0.57,-0.443 -1.548,-2.086 -1.858,-2.458 -2.345,-2.78 -0.293,-0.192 -0.73,-0.39 -0.97,-0.434 -0.381,-0.072 -0.415,-0.1 -0.262,-0.254 0.16,-0.158 0.479,-0.247 0.842,-0.253 z m -6.056,0.652 c 0.926,-0.062 2,0.46 3.512,1.665 l 0.996,0.797 -0.344,0.272 c -0.19,0.153 -0.621,0.41 -0.95,0.57 -0.695,0.336 -1.25,0.49 -1.25,0.344 0,-0.056 0.104,-0.274 0.236,-0.489 0.475,-0.776 0.393,-0.83 -1.566,-0.978 -1.556,-0.117 -2.098,-0.308 -2.218,-0.787 -0.115,-0.455 0.122,-0.844 0.697,-1.14 0.286,-0.149 0.578,-0.234 0.887,-0.254 z m 13.226,0 -0.298,0.443 c -0.165,0.241 -0.358,0.736 -0.435,1.105 -0.215,1.032 -0.435,1.553 -0.978,2.344 -0.274,0.4 -0.636,1.049 -0.815,1.44 l -0.325,0.706 -0.272,-0.525 c -0.24,-0.467 -0.26,-0.647 -0.2,-1.548 0.118,-1.708 0.55,-2.743 1.386,-3.304 0.37,-0.249 0.64,-0.348 1.602,-0.58 z m -28.037,0.651 c 0.07,0.011 0.147,0.153 0.245,0.426 0.088,0.246 0.186,0.516 0.217,0.597 0.087,0.232 -0.39,0.176 -0.616,-0.072 -0.164,-0.18 -0.172,-0.286 -0.063,-0.597 0.086,-0.245 0.148,-0.364 0.217,-0.354 z m 10.556,0.064 0.48,0.063 c 0.345,0.046 0.74,0.27 1.403,0.779 1.23,0.945 1.815,1.228 2.761,1.321 l 0.797,0.073 -0.607,0.625 c -0.333,0.344 -0.684,0.624 -0.778,0.624 -0.363,0 -1.067,-0.551 -2.535,-1.991 z m 8.591,0.009 0.906,0.045 c 0.866,0.044 0.922,0.066 1.385,0.516 0.636,0.618 2.036,3.346 2.037,3.965 0,0.089 -0.153,0.145 -0.38,0.145 -0.314,0 -0.521,-0.133 -1.114,-0.742 a 8.23,8.23 0 0 1 -1.159,-1.584 c -0.241,-0.46 -0.637,-1.02 -0.878,-1.25 -0.24,-0.23 -0.517,-0.572 -0.616,-0.76 z m 10.927,0.108 0.308,0.29 c 0.427,0.397 0.717,1.008 0.87,1.829 0.152,0.824 0.32,1.11 1.113,1.892 0.67,0.662 0.814,0.953 0.814,1.675 0,0.987 -0.556,1.994 -1.249,2.272 -0.424,0.17 -1.15,0.317 -1.15,0.235 0,-0.03 0.092,-0.267 0.2,-0.534 0.106,-0.266 0.158,-0.52 0.117,-0.561 -0.04,-0.04 -0.35,0.098 -0.688,0.308 -0.338,0.21 -0.642,0.362 -0.67,0.335 -0.028,-0.028 0.122,-0.315 0.326,-0.634 0.34,-0.531 0.344,-0.583 0.136,-0.616 -0.125,-0.02 -0.498,0.073 -0.833,0.2 l -0.607,0.226 0.535,-0.788 c 0.293,-0.434 0.474,-0.81 0.407,-0.833 -0.067,-0.022 -0.372,0.05 -0.679,0.154 -0.306,0.104 -0.576,0.166 -0.597,0.145 -0.022,-0.02 0.12,-0.192 0.316,-0.38 0.643,-0.613 0.391,-0.698 -0.66,-0.235 -0.702,0.308 -0.712,0.272 -0.145,-0.453 0.194,-0.249 0.329,-0.486 0.29,-0.525 -0.04,-0.04 -0.411,0.016 -0.824,0.118 -0.414,0.1 -0.767,0.173 -0.779,0.163 -0.012,-0.011 0.349,-0.746 0.797,-1.63 0.448,-0.884 0.876,-1.817 0.96,-2.073 l 0.153,-0.462 0.163,0.371 c 0.127,0.3 0.224,0.38 0.507,0.38 0.28,0 0.413,-0.092 0.616,-0.434 z m -25.674,0.118 0.444,0.398 c 0.403,0.353 1.15,1.312 1.15,1.476 0,0.15 -0.736,0.426 -1.132,0.426 -0.576,0 -1.079,-0.224 -1.838,-0.824 -0.446,-0.353 -0.695,-0.478 -0.86,-0.426 -0.214,0.068 -0.226,0.097 -0.073,0.39 0.372,0.707 1.206,1.252 2.526,1.638 l 0.724,0.208 -0.48,0.218 c -0.626,0.286 -1.456,0.286 -1.928,0 -0.203,-0.124 -0.482,-0.457 -0.615,-0.743 -0.35,-0.751 -0.905,-2.49 -0.824,-2.57 0.038,-0.039 0.705,-0.095 1.485,-0.127 z m 5.386,0.95 0.743,0.082 c 1.05,0.11 1.353,0.305 1.973,1.295 0.299,0.476 0.766,1.08 1.032,1.34 0.267,0.259 0.48,0.536 0.48,0.615 0,0.08 -0.16,0.283 -0.362,0.453 -0.941,0.788 -2.925,-0.098 -3.549,-1.584 -0.096,-0.23 -0.207,-0.823 -0.244,-1.313 z m -11.397,0.164 0.271,0.326 c 0.621,0.743 0.523,1.176 -0.534,2.254 -0.445,0.453 -0.658,0.654 -0.47,0.443 0.394,-0.443 0.383,-0.81 -0.028,-0.869 -0.215,-0.03 -0.476,0.143 -1.068,0.715 -0.395,0.382 -0.588,0.56 -0.625,0.57 0.012,-0.034 0.09,-0.152 0.227,-0.343 0.212,-0.295 0.806,-1.116 1.312,-1.82 z m 2.127,0.597 c 0.2,0.005 0.329,0.122 0.417,0.353 0.16,0.423 0.138,0.423 -0.562,0.1 -0.471,-0.218 -0.508,-0.258 -0.298,-0.344 0.18,-0.074 0.323,-0.112 0.443,-0.109 z m 7.951,2.28 c 0.27,0.057 0.607,0.547 0.876,1.36 0.385,1.165 0.547,1.432 1.34,2.326 1.093,1.232 1.375,2.089 1.059,3.223 -0.148,0.53 -0.788,1.115 -1.403,1.285 -0.563,0.156 -1.114,0.161 -1.35,0.01 -0.098,-0.064 -0.325,-0.117 -0.506,-0.118 -0.406,-0.003 -0.414,-0.092 -0.027,-0.851 0.169,-0.332 0.28,-0.634 0.244,-0.67 -0.036,-0.036 -0.28,0.07 -0.543,0.244 -0.263,0.174 -0.506,0.317 -0.534,0.317 -0.028,0 0.118,-0.296 0.317,-0.66 0.198,-0.365 0.334,-0.68 0.307,-0.707 -0.026,-0.026 -0.288,0.107 -0.579,0.299 -0.29,0.191 -0.547,0.331 -0.57,0.308 -0.024,-0.024 0.208,-0.436 0.507,-0.915 0.299,-0.478 0.515,-0.896 0.489,-0.923 -0.027,-0.027 -0.277,0.116 -0.562,0.308 -0.284,0.192 -0.58,0.375 -0.652,0.416 -0.07,0.041 0.058,-0.305 0.281,-0.77 0.223,-0.463 0.373,-0.867 0.335,-0.905 -0.038,-0.038 -0.437,0.11 -0.878,0.326 l -0.797,0.39 0.562,-0.607 c 0.79,-0.84 0.72,-1.065 -0.209,-0.679 l -0.407,0.172 0.163,-0.38 c 0.089,-0.208 0.213,-0.747 0.28,-1.195 0.169,-1.112 0.692,-1.655 0.87,-0.905 0.056,0.236 0.135,0.29 0.47,0.29 0.387,0 0.421,-0.03 0.516,-0.508 0.058,-0.288 0.162,-0.444 0.29,-0.48 a 0.231,0.231 0 0 1 0.111,-0.002 z m 7.847,0.128 c 0.06,-0.005 0.122,-0.002 0.18,0 0.391,0.016 0.752,0.192 1.132,0.534 0.585,0.526 0.886,1.094 1.54,2.934 0.275,0.777 0.525,1.483 0.56,1.575 0.09,0.233 -0.159,0.204 -0.923,-0.109 -1.271,-0.521 -2.932,-1.811 -3.576,-2.78 -0.63,-0.946 -0.447,-1.64 0.525,-2.009 0.201,-0.076 0.383,-0.13 0.562,-0.145 z m 3.15,2.02 c 0.138,0.022 0.706,0.762 0.87,1.149 0.092,0.22 0.146,0.53 0.126,0.688 -0.034,0.263 -0.063,0.239 -0.362,-0.236 -0.332,-0.524 -0.737,-1.508 -0.652,-1.593 0.005,-0.005 0.009,-0.01 0.018,-0.009 z m -29.549,0.46 h 0.697 l -0.715,0.653 c -0.39,0.358 -1.75,1.342 -3.024,2.19 l -2.308,1.548 v -0.38 c 0,-0.323 0.151,-0.532 0.987,-1.33 1.1,-1.051 2.696,-2.278 3.286,-2.526 0.212,-0.09 0.696,-0.157 1.077,-0.154 z m -2.906,3.604 c 0.016,0 0.03,0.002 0.036,0.009 0.146,0.145 -0.289,0.723 -0.896,1.195 -0.344,0.267 -0.84,0.61 -1.104,0.76 l -0.48,0.272 v -0.353 c 0,-0.264 0.117,-0.451 0.48,-0.76 0.52,-0.444 1.727,-1.128 1.964,-1.123 z m 43.626,0.526 c -0.421,0 -0.83,0.11 -1.23,0.325 a 2.309,2.309 0 0 0 -0.942,0.924 2.55,2.55 0 0 0 -0.344,1.258 c 0,0.433 0.113,0.85 0.335,1.25 0.221,0.399 0.534,0.711 0.932,0.932 0.398,0.22 0.815,0.326 1.25,0.326 0.434,0 0.85,-0.105 1.249,-0.326 0.398,-0.22 0.702,-0.533 0.923,-0.933 a 2.56,2.56 0 0 0 0.335,-1.249 2.55,2.55 0 0 0 -0.335,-1.258 2.302,2.302 0 0 0 -0.941,-0.924 2.564,2.564 0 0 0 -1.232,-0.325 z m 0,0.416 c 0.35,0 0.689,0.09 1.023,0.272 0.335,0.18 0.6,0.433 0.788,0.769 a 2.127,2.127 0 0 1 0.01,2.091 1.976,1.976 0 0 1 -0.78,0.779 2.1,2.1 0 0 1 -1.04,0.271 c -0.362,0 -0.709,-0.086 -1.042,-0.271 a 1.984,1.984 0 0 1 -0.778,-0.779 2.111,2.111 0 0 1 -0.28,-1.04 c 0,-0.365 0.1,-0.715 0.289,-1.051 a 1.92,1.92 0 0 1 0.778,-0.77 c 0.334,-0.18 0.68,-0.271 1.032,-0.271 z m -1.104,0.779 v 2.697 h 0.435 v -1.14 h 0.262 c 0.153,0 0.264,0.028 0.344,0.09 0.115,0.084 0.273,0.29 0.462,0.625 l 0.235,0.425 h 0.534 l -0.326,-0.525 a 2.926,2.926 0 0 0 -0.407,-0.534 0.724,0.724 0 0 0 -0.226,-0.145 0.835,0.835 0 0 0 0.561,-0.244 0.718,0.718 0 0 0 0.081,-0.915 0.66,0.66 0 0 0 -0.335,-0.262 c -0.141,-0.05 -0.37,-0.072 -0.688,-0.073 z m 0.435,0.362 h 0.497 c 0.213,0 0.356,0.023 0.435,0.054 a 0.403,0.403 0 0 1 0.19,0.136 0.37,0.37 0 0 1 0.063,0.217 0.365,0.365 0 0 1 -0.135,0.299 c -0.092,0.075 -0.345,0.294 -0.516,0.108 h -0.534 z m -36.22,2.004 -0.004,0.005 a 2.696,2.696 0 0 0 -1.18,0.284 3.026,3.026 0 0 0 -0.985,0.775 c -0.28,0.324 -0.504,0.71 -0.672,1.157 v 10e-4 a 4.25,4.25 0 0 0 -0.243,1.452 c 0,0.432 0.055,0.838 0.165,1.22 0.11,0.381 0.264,0.73 0.463,1.046 v 0.002 c 0.206,0.316 0.457,0.59 0.752,0.818 h 0.001 a 3.14,3.14 0 0 0 1.008,0.499 h 10e-4 l 0.172,0.043 c 0.042,0.012 0.045,0.028 0.038,0.007 l 0.003,0.01 0.005,0.008 a 0.24,0.24 0 0 1 0.022,0.078 v 10e-4 l 0.043,0.26 c 0.038,0.242 0.129,0.465 0.272,0.669 0.142,0.202 0.322,0.374 0.538,0.516 0.222,0.148 0.474,0.262 0.754,0.343 h 0.001 c 0.281,0.09 0.58,0.134 0.896,0.134 0.31,0 0.472,-0.04 0.661,-0.071 0.063,-0.01 0.113,-0.034 0.177,-0.01 0.081,0.031 0.13,0.076 0.141,0.107 l 10e-4,0.004 0.001,0.003 a 0.9,0.9 0 0 1 0.037,0.306 v 4.877 c 0,0.242 -0.015,0.416 -0.04,0.51 -0.02,0.07 -0.085,0.127 -0.23,0.167 H 26.42 a 0.478,0.478 0 0 1 -0.133,0.019 0.738,0.738 0 0 0 -0.143,0.012 0.313,0.313 0 0 0 -0.126,0.057 l -0.005,0.003 -0.004,0.003 c -0.042,0.042 -0.054,0.099 -0.054,0.16 0,0.072 0.027,0.142 0.082,0.186 a 0.323,0.323 0 0 0 0.207,0.059 c 0.086,0 0.207,-0.012 0.367,-0.033 l 10e-4,-10e-4 h 0.001 a 3.7,3.7 0 0 1 0.615,-0.042 c 0.271,0 0.488,0.014 0.647,0.042 h 0.004 c 0.174,0.022 0.297,0.034 0.376,0.034 a 0.323,0.323 0 0 0 0.208,-0.06 h 10e-4 a 0.232,0.232 0 0 0 0.091,-0.175 c 0,-0.076 -0.016,-0.145 -0.072,-0.187 a 0.326,0.326 0 0 0 -0.15,-0.057 1.07,1.07 0 0 0 -0.166,-0.012 0.587,0.587 0 0 1 -0.17,-0.047 C 27.907,60.744 27.865,60.695 27.85,60.64 a 1.702,1.702 0 0 1 -0.03,-0.38 v -2.023 c 0,-0.065 0.005,-0.108 0.008,-0.126 0.002,-0.005 0.005,-0.005 0.013,-0.006 l 0.008,0.001 0.046,0.015 0.17,0.074 c 0.13,0.058 0.252,0.106 0.363,0.142 0.114,0.039 0.227,0.059 0.336,0.059 0.213,0 0.414,-0.05 0.597,-0.15 h 10e-4 a 1.75,1.75 0 0 0 0.497,-0.417 V 57.827 A 2.1,2.1 0 0 0 30.195,57.2 c 0.083,-0.24 0.123,-0.5 0.123,-0.78 0,-0.672 -0.16,-1.188 -0.49,-1.535 -0.33,-0.348 -0.824,-0.517 -1.464,-0.517 -0.235,0 -0.444,-0.015 -0.63,-0.007 -0.18,0.007 -0.33,0.01 -0.451,0.01 h -0.174 c -0.118,0 -0.279,-0.005 -0.279,-0.005 l -0.303,-0.002 c -0.076,0 -0.152,-0.002 -0.21,-0.003 h -0.098 a 1.234,1.234 0 0 1 -0.42,-0.097 h -0.001 a 2.107,2.107 0 0 1 -0.482,-0.272 2.557,2.557 0 0 1 -0.431,-0.4 2.563,2.563 0 0 1 -0.337,-0.494 L 24.44,52.892 24.419,52.85 24.417,52.844 a 0.15,0.15 0 0 1 0.046,-0.024 l 0.227,-0.075 c 0.298,-0.097 0.573,-0.253 0.824,-0.468 a 3.19,3.19 0 0 0 0.654,-0.774 c 0.183,-0.301 0.326,-0.64 0.429,-1.013 a 4.35,4.35 0 0 0 0.165,-1.21 c 0,-0.519 -0.084,-1.004 -0.253,-1.452 A 3.536,3.536 0 0 0 25.835,46.67 c -0.28,-0.33 -0.607,-0.59 -0.983,-0.775 H 24.85 a 2.549,2.549 0 0 0 -1.19,-0.289 z m -0.026,0.426 c 0.26,0 0.5,0.075 0.728,0.226 l 0.002,10e-4 c 0.234,0.145 0.439,0.36 0.614,0.647 0.176,0.288 0.314,0.641 0.413,1.061 v 10e-4 c 0.107,0.419 0.16,0.895 0.16,1.431 0,0.5 -0.05,0.941 -0.149,1.323 v 10e-4 a 3.232,3.232 0 0 1 -0.39,0.974 1.905,1.905 0 0 1 -0.583,0.592 v 10e-4 c -0.22,0.13 -0.451,0.195 -0.698,0.195 a 1.39,1.39 0 0 1 -0.74,-0.216 2.059,2.059 0 0 1 -0.604,-0.658 3.653,3.653 0 0 1 -0.413,-1.06 6.35,6.35 0 0 1 -0.15,-1.444 c 0,-0.5 0.047,-0.941 0.139,-1.324 0.1,-0.383 0.23,-0.704 0.39,-0.963 0.169,-0.258 0.363,-0.451 0.583,-0.581 v -0.001 a 1.29,1.29 0 0 1 0.698,-0.206 z m 20.081,0.582 c -0.015,0 -0.022,0.018 -0.036,0.024 L 43.638,46.627 43.44,46.76 h 0.08 c -0.008,0.014 -0.016,0.025 -0.023,0.041 l 0.002,-0.004 a 0.8,0.8 0 0 1 -0.065,0.106 l -0.003,0.003 -0.002,0.002 a 0.184,0.184 0 0 1 -0.07,0.072 h -0.004 a 0.653,0.653 0 0 1 -0.246,0.034 c -0.08,0 -0.18,-0.003 -0.298,-0.009 a 7.684,7.684 0 0 0 -0.395,-0.008 h -1.092 c -0.132,0 -0.251,0.002 -0.36,0.008 h -0.28 c -0.11,0 -0.197,-0.007 -0.26,-0.018 a 0.25,0.25 0 0 1 -0.106,-0.04 l -0.022,-0.021 h -0.025 a 0.888,0.888 0 0 0 -0.046,-0.111 l 0.004,0.012 a 0.514,0.514 0 0 0 -0.049,-0.116 0.148,0.148 0 0 0 -0.04,-0.06 0.126,0.126 0 0 0 -0.078,-0.028 0.175,0.175 0 0 0 -0.126,0.055 0.262,0.262 0 0 0 -0.06,0.127 v 0.005 a 4.98,4.98 0 0 1 -0.063,0.324 l -0.221,0.905 a 0.872,0.872 0 0 0 -0.028,0.1 c -0.006,0.031 -0.01,0.04 -0.01,0.067 0,0.032 0.002,0.059 0.006,0.083 0.004,0.024 0.006,0.047 0.033,0.075 l 0.005,0.005 0.006,0.004 c 0.03,0.02 0.067,0.03 0.103,0.03 h 0.017 c 0.105,0 0.191,-0.077 0.25,-0.19 v 0.003 c 0.058,-0.099 0.14,-0.237 0.245,-0.411 0.108,-0.136 0.216,-0.235 0.324,-0.3 a 0.8,0.8 0 0 1 0.416,-0.097 h 0.249 c 0.007,0 0.003,-0.007 0.014,0.018 l 0.002,0.007 0.004,0.005 a 0.116,0.116 0 0 1 0.023,0.067 v 4.326 c 0,0.187 -0.015,0.313 -0.03,0.357 -0.013,0.035 -0.057,0.075 -0.159,0.107 h -10e-4 l -0.003,0.002 a 0.331,0.331 0 0 1 -0.117,0.022 0.834,0.834 0 0 0 -0.136,0.01 0.272,0.272 0 0 0 -0.12,0.048 0.18,0.18 0 0 0 -0.065,0.147 c 0,0.063 0.026,0.126 0.075,0.164 0.05,0.038 0.113,0.051 0.184,0.051 0.1,0 0.22,-0.01 0.365,-0.028 h 0.002 c 0.138,-0.023 0.297,-0.034 0.477,-0.034 0.187,0 0.346,0.01 0.477,0.034 h 0.004 c 0.144,0.018 0.265,0.028 0.364,0.028 0.07,0 0.13,-0.01 0.18,-0.044 a 0.187,0.187 0 0 0 0.079,-0.153 c 0,-0.058 -0.016,-0.115 -0.063,-0.152 a 0.217,0.217 0 0 0 -0.113,-0.053 0.822,0.822 0 0 0 -0.127,-0.01 0.712,0.712 0 0 1 -0.137,-0.031 h -0.002 v -10e-4 a 0.48,0.48 0 0 1 -0.12,-0.051 0.185,0.185 0 0 1 -0.047,-0.059 0.828,0.828 0 0 1 -0.022,-0.13 v -4.577 c 0,-0.015 0.005,-0.03 0.016,-0.05 0.013,-0.019 0.016,-0.02 0.027,-0.02 h 0.142 c 0.268,0 0.468,0.028 0.596,0.076 h 0.004 c 0.118,0.04 0.215,0.139 0.293,0.315 a 15.75,15.75 0 0 1 0.103,0.415 l 10e-4,0.003 10e-4,0.003 a 0.706,0.706 0 0 0 0.06,0.14 l 0.003,0.004 0.003,0.004 a 0.2,0.2 0 0 0 0.154,0.07 0.197,0.197 0 0 0 0.09,-0.018 0.14,0.14 0 0 0 0.065,-0.069 0.606,0.606 0 0 0 0.042,-0.229 l 0.053,-1.175 v -0.1 a 0.287,0.287 0 0 0 -0.032,-0.121 c -0.003,-0.012 -0.013,-0.02 -0.018,-0.031 l 0.119,-0.08 z m 1.73,0.222 a 0.183,0.183 0 0 0 -0.165,0.106 v 0.003 l -0.002,0.003 a 3.709,3.709 0 0 1 -0.053,0.149 V 47.1 l -1.414,4.586 a 6.673,6.673 0 0 1 -0.131,0.405 0.46,0.46 0 0 1 -0.161,0.215 l -0.002,0.001 a 0.228,0.228 0 0 1 -0.108,0.048 l -0.143,0.018 a 0.365,0.365 0 0 0 -0.135,0.043 0.141,0.141 0 0 0 -0.068,0.063 0.197,0.197 0 0 0 -0.02,0.09 0.18,0.18 0 0 0 0.07,0.145 0.27,0.27 0 0 0 0.163,0.043 c 0.07,0 0.152,-0.006 0.25,-0.018 h 0.004 c 0.096,-0.018 0.206,-0.027 0.333,-0.027 0.187,0 0.345,0.01 0.47,0.027 0.132,0.018 0.232,0.027 0.303,0.027 a 0.26,0.26 0 0 0 0.156,-0.04 0.173,0.173 0 0 0 0.068,-0.14 0.217,0.217 0 0 0 -0.134,-0.2 1.314,1.314 0 0 0 -0.283,-0.067 0.318,0.318 0 0 1 -0.142,-0.045 c -0.008,-0.007 -0.028,-0.043 -0.028,-0.123 0,-0.086 0.043,-0.318 0.131,-0.665 l 0.213,-0.792 h 0.001 c 0.003,-0.01 0.003,-0.009 0.005,-0.01 l 0.002,-0.002 0.002,-0.001 c 0.017,-0.013 0.025,-0.012 0.019,-0.012 h 1.101 c 0.031,0 0.05,0.005 0.057,0.009 0.007,0.003 0.005,0.001 0.006,0.007 v 0.002 l 0.348,1.139 c 0.052,0.186 0.077,0.318 0.077,0.378 0,0.07 -0.015,0.094 -0.037,0.107 v 10e-4 a 0.701,0.701 0 0 1 -0.255,0.033 0.277,0.277 0 0 0 -0.179,0.052 0.207,0.207 0 0 0 -0.072,0.163 c 0,0.052 0.025,0.108 0.069,0.139 a 0.26,0.26 0 0 0 0.155,0.04 c 0.064,0 0.169,-0.006 0.317,-0.018 h 0.002 a 5.23,5.23 0 0 1 0.596,-0.027 c 0.175,0 0.32,0.01 0.433,0.026 h 0.001 c 0.127,0.019 0.23,0.028 0.312,0.028 0.07,0 0.131,-0.01 0.18,-0.043 a 0.187,0.187 0 0 0 0.08,-0.154 0.156,0.156 0 0 0 -0.053,-0.118 0.206,0.206 0 0 0 -0.114,-0.042 0.511,0.511 0 0 1 -0.192,-0.094 l -0.002,-0.002 h -10e-4 a 0.592,0.592 0 0 1 -0.23,-0.27 5.416,5.416 0 0 1 -0.176,-0.49 L 45.69,47.305 A 3.443,3.443 0 0 1 45.603,47.008 0.235,0.235 0 0 0 45.538,46.885 C 45.522,46.871 45.5,46.872 45.481,46.865 v -0.028 z m -18.112,0.16 a 0.213,0.213 0 0 0 -0.15,0.05 0.197,0.197 0 0 0 -0.055,0.147 c 0,0.056 0.007,0.108 0.048,0.148 l 0.008,0.009 0.01,0.005 a 0.383,0.383 0 0 0 0.11,0.033 l 0.006,10e-4 h 0.006 a 0.9,0.9 0 0 1 0.115,0.009 h 0.01 c 0.045,0 0.094,0.008 0.148,0.024 0.084,0.027 0.117,0.059 0.122,0.071 0.009,0.025 0.021,0.123 0.021,0.268 v 3.119 c 0,0.274 0.012,0.523 0.036,0.745 v 0.002 c 0.032,0.224 0.11,0.427 0.235,0.608 0.162,0.236 0.378,0.41 0.646,0.516 0.266,0.105 0.591,0.156 0.977,0.156 0.351,0 0.656,-0.058 0.91,-0.176 H 30.5 c 0.254,-0.124 0.45,-0.3 0.582,-0.527 0.124,-0.21 0.195,-0.44 0.214,-0.688 0.024,-0.24 0.036,-0.514 0.036,-0.823 v -2.186 c 0,-0.218 0.002,-0.404 0.009,-0.556 0.006,-0.15 0.02,-0.266 0.041,-0.346 a 0.381,0.381 0 0 1 0.093,-0.17 0.283,0.283 0 0 1 0.176,-0.046 c 0.092,0 0.16,-0.004 0.215,-0.02 l 0.004,-10e-4 0.005,-0.002 a 0.189,0.189 0 0 0 0.106,-0.173 0.19,0.19 0 0 0 -0.079,-0.154 0.314,0.314 0 0 0 -0.18,-0.043 c -0.052,0 -0.127,0.006 -0.226,0.017 a 6.936,6.936 0 0 1 -0.387,0.01 c -0.153,0 -0.279,-0.004 -0.378,-0.01 a 1.945,1.945 0 0 0 -0.226,-0.017 0.241,0.241 0 0 0 -0.16,0.048 0.192,0.192 0 0 0 -0.063,0.149 c 0,0.065 0.035,0.133 0.093,0.162 l 0.005,0.003 h 0.004 a 0.717,0.717 0 0 0 0.138,0.03 h 0.001 l 0.16,0.019 a 0.22,0.22 0 0 1 0.104,0.038 c 0.053,0.046 0.097,0.148 0.108,0.32 v 0.003 c 0.017,0.174 0.026,0.43 0.026,0.766 v 2.15 c 0,0.307 -0.012,0.568 -0.035,0.783 v 0.002 a 1.1,1.1 0 0 1 -0.174,0.533 c -0.206,0.294 -0.523,0.44 -0.98,0.44 -0.23,0 -0.411,-0.034 -0.546,-0.1 a 0.784,0.784 0 0 1 -0.325,-0.284 1.483,1.483 0 0 1 -0.168,-0.486 5.077,5.077 0 0 1 -0.044,-0.71 v -3.1 c 0,-0.138 0.013,-0.23 0.022,-0.256 0.013,-0.027 0.047,-0.059 0.125,-0.084 A 0.404,0.404 0 0 1 28.924,47.4 h 0.142 a 0.28,0.28 0 0 0 0.132,-0.05 c 0.048,-0.036 0.064,-0.096 0.064,-0.156 a 0.198,0.198 0 0 0 -0.056,-0.146 0.213,0.213 0 0 0 -0.15,-0.05 c -0.06,0 -0.152,0.012 -0.296,0.036 -0.135,0.023 -0.33,0.034 -0.583,0.034 -0.253,0 -0.448,-0.011 -0.583,-0.034 -0.095,-0.015 -0.14,-0.018 -0.195,-0.024 l 0.005,-0.012 z m 5.024,0 a 0.213,0.213 0 0 0 -0.15,0.05 0.197,0.197 0 0 0 -0.056,0.147 c 0,0.056 0.008,0.108 0.049,0.148 l 0.008,0.009 0.01,0.005 a 0.383,0.383 0 0 0 0.11,0.033 h 0.001 c 0.045,0.007 0.093,0.01 0.143,0.01 0.045,0 0.095,0.008 0.148,0.024 h 0.001 c 0.075,0.026 0.104,0.055 0.111,0.078 l 0.002,0.005 0.003,0.004 c 0.01,0.022 0.027,0.114 0.027,0.252 v 4.07 c 0,0.092 -0.002,0.17 -0.008,0.232 v 0.007 c 0,0.051 -0.008,0.09 -0.02,0.12 a 0.138,0.138 0 0 1 -0.06,0.057 l -0.002,0.001 -0.002,0.002 a 0.48,0.48 0 0 1 -0.137,0.052 h -0.002 a 0.38,0.38 0 0 1 -0.104,0.016 0.778,0.778 0 0 0 -0.128,0.01 h -0.003 a 0.268,0.268 0 0 0 -0.108,0.049 l -0.005,0.002 -0.004,0.004 c -0.037,0.037 -0.048,0.088 -0.048,0.14 0,0.063 0.025,0.126 0.075,0.164 0.05,0.038 0.112,0.051 0.184,0.051 0.061,0 0.156,-0.01 0.294,-0.027 0.137,-0.017 0.321,-0.027 0.55,-0.027 0.23,0 0.41,0.01 0.542,0.027 0.144,0.018 0.241,0.027 0.302,0.027 0.07,0 0.131,-0.01 0.18,-0.044 a 0.186,0.186 0 0 0 0.08,-0.153 0.189,0.189 0 0 0 -0.062,-0.148 0.2,0.2 0 0 0 -0.114,-0.065 H 34.126 A 0.84,0.84 0 0 0 33.99,52.319 0.404,0.404 0 0 1 33.862,52.296 H 33.86 v -10e-4 a 0.473,0.473 0 0 1 -0.12,-0.051 0.187,0.187 0 0 1 -0.047,-0.059 0.828,0.828 0 0 1 -0.022,-0.13 v -4.293 c 0,-0.137 0.01,-0.23 0.022,-0.266 0.011,-0.026 0.051,-0.06 0.152,-0.08 a 0.618,0.618 0 0 1 0.135,-0.017 h 0.01 l 0.128,-0.018 a 0.264,0.264 0 0 0 0.108,-0.038 l 0.007,-0.004 0.005,-0.005 c 0.037,-0.038 0.047,-0.088 0.047,-0.14 a 0.197,0.197 0 0 0 -0.056,-0.147 0.215,0.215 0 0 0 -0.15,-0.05 c -0.06,0 -0.152,0.013 -0.296,0.037 A 3.86,3.86 0 0 1 33.2,47.068 3.86,3.86 0 0 1 32.617,47.034 2.204,2.204 0 0 0 32.36,47.002 l -0.004,-0.005 z m 2.412,0 a 0.2,0.2 0 0 0 -0.144,0.053 0.2,0.2 0 0 0 -0.053,0.144 0.2,0.2 0 0 0 0.053,0.144 0.2,0.2 0 0 0 0.144,0.052 h 0.005 a 0.777,0.777 0 0 1 0.255,0.032 c 0.07,0.026 0.098,0.054 0.106,0.079 0.012,0.035 0.023,0.128 0.023,0.26 v 3.697 c 0,0.17 -0.002,0.318 -0.008,0.44 a 0.895,0.895 0 0 1 -0.049,0.271 v 0.004 a 0.222,0.222 0 0 1 -0.087,0.12 0.368,0.368 0 0 1 -0.174,0.035 h -0.08 a 0.26,0.26 0 0 0 -0.174,0.052 0.21,0.21 0 0 0 -0.068,0.162 c 0,0.064 0.034,0.128 0.088,0.162 0.054,0.033 0.12,0.044 0.198,0.044 0.086,0 0.175,-0.006 0.267,-0.018 a 2.853,2.853 0 0 1 0.63,0 c 0.104,0.012 0.198,0.018 0.285,0.018 a 0.41,0.41 0 0 0 0.209,-0.043 0.192,0.192 0 0 0 0.094,-0.163 0.227,0.227 0 0 0 -0.049,-0.154 0.195,0.195 0 0 0 -0.148,-0.06 0.401,0.401 0 0 0 -0.097,0.01 l 0.017,-0.002 h -0.08 a 0.47,0.47 0 0 1 -0.179,-0.029 0.22,0.22 0 0 1 -0.09,-0.104 0.974,0.974 0 0 1 -0.04,-0.243 8.098,8.098 0 0 1 -0.01,-0.413 v -3.375 l 2.843,4.63 a 0.518,0.518 0 0 0 0.102,0.124 0.2,0.2 0 0 0 0.128,0.053 c 0.067,0 0.12,-0.05 0.15,-0.109 a 0.328,0.328 0 0 0 0.056,-0.186 v -4.433 c 0,-0.323 0.019,-0.557 0.052,-0.694 a 0.215,0.215 0 0 1 0.072,-0.126 0.219,0.219 0 0 1 0.141,-0.04 h 0.089 c 0.064,0 0.106,0.003 0.156,-0.03 l 0.002,-10e-4 0.002,-0.002 c 0.049,-0.037 0.064,-0.097 0.064,-0.156 a 0.195,0.195 0 0 0 -0.08,-0.16 0.324,0.324 0 0 0 -0.188,-0.045 1.82,1.82 0 0 0 -0.235,0.017 5.885,5.885 0 0 1 -0.657,0 2.222,2.222 0 0 0 -0.272,-0.017 0.41,0.41 0 0 0 -0.209,0.043 0.192,0.192 0 0 0 -0.094,0.162 c 0,0.056 0.028,0.11 0.071,0.146 a 0.254,0.254 0 0 0 0.16,0.051 c 0.122,0 0.213,0.01 0.267,0.025 h 0.007 c 0.055,0.01 0.081,0.029 0.1,0.062 l 0.002,0.005 0.003,0.004 a 0.35,0.35 0 0 1 0.048,0.174 v 0.005 c 0.011,0.09 0.017,0.215 0.017,0.373 v 0.166 c 0.006,0.068 0.009,0.164 0.009,0.287 v 2.354 L 36.081,47.118 36.08,47.117 A 0.236,0.236 0 0 0 35.987,47.032 0.173,0.173 0 0 0 35.869,46.997 Z M 55,48.088 a 0.162,0.162 0 0 0 -0.143,0.093 l -10e-4,0.003 -0.001,0.003 a 5.703,5.703 0 0 1 -0.042,0.116 v 0.002 l -1.106,3.59 c -0.036,0.124 -0.072,0.23 -0.103,0.316 a 0.342,0.342 0 0 1 -0.12,0.16 v 10e-4 h -0.002 a 0.161,0.161 0 0 1 -0.077,0.035 3.862,3.862 0 0 0 -0.113,0.014 0.3,0.3 0 0 0 -0.11,0.035 0.127,0.127 0 0 0 -0.06,0.056 0.169,0.169 0 0 0 -0.016,0.078 0.16,0.16 0 0 0 0.06,0.127 c 0.04,0.028 0.087,0.036 0.137,0.036 0.055,0 0.12,-0.005 0.197,-0.014 h 0.004 c 0.074,-0.014 0.16,-0.02 0.258,-0.02 0.146,0 0.268,0.006 0.366,0.02 0.104,0.014 0.182,0.02 0.24,0.02 a 0.22,0.22 0 0 0 0.13,-0.033 0.153,0.153 0 0 0 0.06,-0.122 0.19,0.19 0 0 0 -0.115,-0.171 1.041,1.041 0 0 0 -0.225,-0.054 0.24,0.24 0 0 1 -0.103,-0.032 c 0,0 -0.016,-0.024 -0.016,-0.084 0,-0.063 0.033,-0.245 0.102,-0.516 l 0.167,-0.62 h -0.003 0.002 l 0.002,-0.002 c 0.012,-0.01 0.016,-0.007 0.005,-0.007 h 0.863 c 0.021,0 0.032,0.005 0.035,0.006 l 0.271,0.889 c 0.04,0.145 0.059,0.248 0.059,0.292 0,0.051 -0.01,0.063 -0.02,0.07 a 0.585,0.585 0 0 1 -0.193,0.025 0.231,0.231 0 0 0 -0.15,0.043 0.18,0.18 0 0 0 -0.06,0.14 0.15,0.15 0 0 0 0.06,0.121 0.215,0.215 0 0 0 0.13,0.035 c 0.05,0 0.133,-0.005 0.25,-0.014 h 0.002 a 4.046,4.046 0 0 1 0.801,-0.001 c 0.1,0.014 0.18,0.022 0.247,0.022 a 0.26,0.26 0 0 0 0.15,-0.036 0.165,0.165 0 0 0 0.068,-0.134 0.14,0.14 0 0 0 -0.046,-0.104 0.173,0.173 0 0 0 -0.096,-0.037 0.392,0.392 0 0 1 -0.145,-0.071 l -0.002,-10e-4 v -10e-4 a 0.447,0.447 0 0 1 -0.176,-0.204 4.247,4.247 0 0 1 -0.136,-0.382 l -1.05,-3.311 a 2.688,2.688 0 0 1 -0.068,-0.23 0.2,0.2 0 0 0 -0.056,-0.105 c -0.01,-0.01 -0.027,-0.008 -0.04,-0.014 v -0.028 z m 3.19,0 c -0.197,0 -0.377,0.032 -0.54,0.096 a 1.132,1.132 0 0 0 -0.407,0.26 c -0.113,0.113 -0.202,0.25 -0.266,0.406 v 0.002 c -0.06,0.157 -0.09,0.33 -0.09,0.519 0,0.21 0.027,0.387 0.082,0.533 v 0.002 c 0.06,0.141 0.135,0.264 0.23,0.368 v 10e-4 H 57.2 c 0.098,0.103 0.21,0.193 0.335,0.27 h 0.001 c 0.125,0.075 0.258,0.152 0.397,0.23 v 0.001 c 0.259,0.145 0.447,0.3 0.569,0.46 v 0.002 h 0.002 a 0.806,0.806 0 0 1 0.185,0.525 0.794,0.794 0 0 1 -0.057,0.306 v 0.002 h -10e-4 a 0.686,0.686 0 0 1 -0.144,0.24 l -0.002,10e-4 v 0.002 a 0.63,0.63 0 0 1 -0.474,0.212 0.699,0.699 0 0 1 -0.454,-0.178 v -10e-4 a 1.033,1.033 0 0 1 -0.311,-0.513 1.46,1.46 0 0 1 -0.04,-0.179 2.555,2.555 0 0 0 -0.027,-0.15 v -0.001 a 0.316,0.316 0 0 0 -0.037,-0.13 0.158,0.158 0 0 0 -0.133,-0.08 0.168,0.168 0 0 0 -0.143,0.095 0.438,0.438 0 0 0 -0.033,0.193 v 0.075 a 0.64,0.64 0 0 1 0.006,0.106 c 0,0.063 -10e-4,0.132 -0.006,0.204 a 3.77,3.77 0 0 0 -0.007,0.234 0.57,0.57 0 0 0 0.323,0.516 h 10e-4 c 0.204,0.105 0.463,0.154 0.777,0.154 0.204,0 0.393,-0.04 0.565,-0.118 a 1.27,1.27 0 0 0 0.448,-0.308 c 0.127,-0.132 0.224,-0.289 0.292,-0.468 0.073,-0.18 0.11,-0.377 0.11,-0.59 0,-0.2 -0.027,-0.38 -0.08,-0.538 a 1.243,1.243 0 0 0 -0.243,-0.419 1.723,1.723 0 0 0 -0.377,-0.34 5.216,5.216 0 0 0 -0.5,-0.296 1.754,1.754 0 0 1 -0.474,-0.333 0.582,0.582 0 0 1 -0.134,-0.403 c 0,-0.21 0.053,-0.362 0.154,-0.472 0.107,-0.114 0.248,-0.172 0.441,-0.172 0.148,0 0.248,0.042 0.321,0.123 0.08,0.087 0.159,0.222 0.23,0.402 v 10e-4 c 0.05,0.12 0.082,0.21 0.094,0.266 v 0.003 l 0.002,0.004 c 0.012,0.04 0.031,0.075 0.062,0.101 a 0.17,0.17 0 0 0 0.112,0.04 0.16,0.16 0 0 0 0.13,-0.07 0.272,0.272 0 0 0 0.032,-0.149 7.5,7.5 0 0 0 -0.014,-0.538 1.475,1.475 0 0 0 -0.018,-0.16 c -0.008,-0.04 -0.012,-0.07 -0.039,-0.104 -0.057,-0.074 -0.154,-0.11 -0.31,-0.163 h -0.002 a 1.656,1.656 0 0 0 -0.538,-0.08 z m -7.085,0.042 0.003,0.008 c -0.465,0.005 -0.857,0.027 -1.123,0.084 a 1.274,1.274 0 0 0 -0.337,0.104 0.327,0.327 0 0 0 -0.1,0.076 0.195,0.195 0 0 0 -0.01,0.234 0.148,0.148 0 0 0 0.114,0.056 0.38,0.38 0 0 0 0.155,-0.034 l 0.003,-0.001 0.003,-0.002 a 0.205,0.205 0 0 1 0.103,-0.026 c 0.045,0 0.049,0.006 0.054,0.016 0.01,0.02 0.02,0.067 0.02,0.135 v 3.233 c 0,0.072 -0.003,0.132 -0.007,0.18 V 52.2 a 0.232,0.232 0 0 1 -0.015,0.087 0.09,0.09 0 0 1 -0.039,0.038 l -0.002,10e-4 -0.003,0.002 a 0.373,0.373 0 0 1 -0.103,0.039 h -0.003 a 0.28,0.28 0 0 1 -0.077,0.011 0.613,0.613 0 0 0 -0.102,0.008 h -0.002 a 0.228,0.228 0 0 0 -0.092,0.042 l -0.005,0.002 -0.003,0.004 a 0.164,0.164 0 0 0 -0.042,0.12 c 0,0.054 0.022,0.109 0.065,0.142 a 0.244,0.244 0 0 0 0.153,0.043 c 0.092,0 0.188,-0.007 0.289,-0.022 h 0.004 c 0.093,-0.018 0.19,-0.027 0.292,-0.027 0.116,0 0.247,0.01 0.393,0.033 v 10e-4 c 0.157,0.024 0.327,0.035 0.511,0.035 0.355,0 0.67,-0.052 0.944,-0.158 h 10e-4 c 0.277,-0.11 0.513,-0.264 0.706,-0.461 0.193,-0.198 0.338,-0.44 0.434,-0.722 0.1,-0.282 0.15,-0.597 0.15,-0.942 0,-0.34 -0.052,-0.655 -0.157,-0.941 A 2.076,2.076 0 0 0 52.84,48.786 1.992,1.992 0 0 0 52.134,48.303 2.347,2.347 0 0 0 51.216,48.13 Z m 0.119,0.36 c 0.201,0 0.382,0.048 0.547,0.144 h 10e-4 c 0.166,0.092 0.309,0.223 0.428,0.395 0.12,0.173 0.214,0.381 0.282,0.625 0.067,0.239 0.101,0.5 0.101,0.787 0,0.31 -0.034,0.587 -0.101,0.83 a 1.87,1.87 0 0 1 -0.288,0.615 c -0.119,0.164 -0.263,0.29 -0.433,0.382 H 51.76 c -0.17,0.088 -0.36,0.131 -0.572,0.131 -0.196,0 -0.302,-0.046 -0.348,-0.113 -0.047,-0.081 -0.08,-0.241 -0.08,-0.475 v -2.996 a 0.85,0.85 0 0 1 0.013,-0.156 0.174,0.174 0 0 1 0.053,-0.089 0.274,0.274 0 0 1 0.127,-0.053 h 0.004 c 0.06,-0.017 0.15,-0.026 0.267,-0.026 z m -6.092,0.136 0.464,1.494 c 0.01,0.04 0.013,0.07 0.014,0.063 -0.003,0 -0.006,0.003 -0.007,0.003 h -0.878 v -0.008 c 0,-0.009 0.002,-0.024 0.007,-0.044 z m 9.654,0.935 0.347,1.117 0.007,0.032 h -0.657 c 0,-0.006 0,-0.012 0.003,-0.02 v -10e-4 z m -9.176,0.624 v 0.003 c 0,-0.008 0.005,-0.008 -0.005,0.002 z m 9.544,0.523 c -0.005,0.003 -0.004,0.002 -0.001,0.002 h -10e-4 z m -26.908,4.108 c 0.115,0 0.222,0.034 0.327,0.106 h 0.002 a 0.936,0.936 0 0 1 0.29,0.313 l 0.001,0.002 0.001,10e-4 c 0.088,0.129 0.157,0.29 0.206,0.486 v 0.002 l 0.001,10e-4 c 0.056,0.187 0.084,0.4 0.084,0.64 0,0.444 -0.092,0.788 -0.268,1.039 -0.179,0.247 -0.37,0.359 -0.59,0.359 a 0.68,0.68 0 0 1 -0.35,-0.097 c -0.095,-0.067 -0.14,-0.156 -0.14,-0.296 v -2.098 c 0,-0.18 0.031,-0.3 0.073,-0.358 v -10e-4 l 0.001,-10e-4 c 0.034,-0.05 0.147,-0.097 0.361,-0.097 z m 4.975,0.598 c -0.355,0 -0.693,0.08 -1.01,0.239 a 2.472,2.472 0 0 0 -0.813,0.64 3.142,3.142 0 0 0 -0.555,0.954 c -0.134,0.37 -0.2,0.77 -0.2,1.198 0,0.428 0.066,0.827 0.2,1.197 v 10e-4 c 0.139,0.368 0.324,0.69 0.555,0.964 0.23,0.273 0.501,0.49 0.812,0.647 l 10e-4,0.001 c 0.312,0.153 0.643,0.23 0.992,0.23 a 2.24,2.24 0 0 0 1,-0.23 h 10e-4 a 2.57,2.57 0 0 0 0.822,-0.648 c 0.237,-0.274 0.422,-0.596 0.555,-0.965 0.133,-0.37 0.2,-0.769 0.2,-1.197 0,-0.428 -0.07,-0.828 -0.21,-1.198 a 3.01,3.01 0 0 0 -0.545,-0.955 2.497,2.497 0 0 0 -0.813,-0.64 2.16,2.16 0 0 0 -0.992,-0.238 z m 8.891,0 c -0.25,0 -0.478,0.04 -0.683,0.12 -0.198,0.075 -0.37,0.184 -0.514,0.327 a 1.532,1.532 0 0 0 -0.335,0.513 h -10e-4 v 0.002 a 1.858,1.858 0 0 0 -0.112,0.656 c 0,0.267 0.033,0.491 0.103,0.674 v 0.003 c 0.074,0.178 0.17,0.334 0.289,0.465 h 10e-4 a 2.1,2.1 0 0 0 0.423,0.342 h 10e-4 c 0.161,0.095 0.33,0.193 0.508,0.294 0.332,0.187 0.576,0.386 0.734,0.594 v 10e-4 h 10e-4 c 0.163,0.202 0.241,0.426 0.241,0.684 0,0.145 -0.024,0.278 -0.074,0.4 v 0.002 a 0.9,0.9 0 0 1 -0.19,0.312 l -10e-4,0.002 v 0.002 a 0.825,0.825 0 0 1 -0.62,0.277 0.915,0.915 0 0 1 -0.594,-0.232 L 41.288,60.851 C 41.105,60.695 40.97,60.476 40.885,60.185 v -0.001 a 1.87,1.87 0 0 1 -0.051,-0.23 3.166,3.166 0 0 0 -0.035,-0.192 L 40.798,59.76 a 0.386,0.386 0 0 0 -0.044,-0.157 0.177,0.177 0 0 0 -0.152,-0.093 0.191,0.191 0 0 0 -0.165,0.11 0.544,0.544 0 0 0 -0.04,0.238 v 0.092 a 0.931,0.931 0 0 1 0.008,0.139 c 0,0.08 -0.002,0.168 -0.008,0.262 -0.006,0.096 -0.01,0.196 -0.01,0.298 0,0.278 0.143,0.501 0.403,0.641 h 10e-4 c 0.257,0.132 0.585,0.195 0.984,0.195 0.257,0 0.496,-0.05 0.713,-0.149 h 10e-4 a 1.722,1.722 0 0 0 0.935,-0.981 c 0.092,-0.228 0.138,-0.477 0.138,-0.746 a 2.09,2.09 0 0 0 -0.102,-0.68 1.568,1.568 0 0 0 -0.306,-0.53 2.182,2.182 0 0 0 -0.477,-0.43 6.655,6.655 0 0 0 -0.637,-0.378 c -0.28,-0.146 -0.484,-0.291 -0.61,-0.43 -0.118,-0.133 -0.178,-0.305 -0.178,-0.528 0,-0.271 0.07,-0.473 0.203,-0.617 0.14,-0.15 0.326,-0.226 0.578,-0.226 0.193,0 0.328,0.055 0.425,0.163 0.104,0.115 0.206,0.29 0.298,0.52 v 10e-4 l 10e-4,0.001 c 0.064,0.152 0.104,0.268 0.12,0.342 v 0.004 l 0.002,0.003 c 0.014,0.048 0.037,0.09 0.072,0.12 0.036,0.03 0.083,0.047 0.13,0.047 a 0.179,0.179 0 0 0 0.148,-0.081 0.33,0.33 0 0 0 0.04,-0.179 c 0,-0.294 -0.006,-0.522 -0.018,-0.687 a 1.896,1.896 0 0 0 -0.023,-0.2 c -0.01,-0.052 -0.016,-0.088 -0.045,-0.125 -0.067,-0.086 -0.19,-0.135 -0.389,-0.202 a 2.093,2.093 0 0 0 -0.681,-0.102 z m 6.125,0 a 0.183,0.183 0 0 0 -0.164,0.106 l -10e-4,0.003 -0.001,0.003 -0.053,0.149 v 0.002 l -1.413,4.586 v 0.001 a 6.627,6.627 0 0 1 -0.133,0.404 0.458,0.458 0 0 1 -0.16,0.215 l -10e-4,10e-4 a 0.23,0.23 0 0 1 -0.109,0.048 4.76,4.76 0 0 0 -0.143,0.018 c -0.01,10e-4 -0.007,0.002 -0.013,0.004 -0.027,-0.02 -0.052,-0.042 -0.085,-0.048 a 0.82,0.82 0 0 0 -0.136,-0.01 0.404,0.404 0 0 1 -0.127,-0.023 h -0.004 a 0.48,0.48 0 0 1 -0.12,-0.052 0.185,0.185 0 0 1 -0.046,-0.059 0.828,0.828 0 0 1 -0.022,-0.13 V 56.34 c 0,-0.137 0.012,-0.23 0.023,-0.266 0.011,-0.026 0.05,-0.06 0.15,-0.08 h 10e-4 a 0.624,0.624 0 0 1 0.136,-0.016 h 0.009 l 0.127,-0.019 a 0.266,0.266 0 0 0 0.108,-0.037 l 0.006,-0.004 0.005,-0.005 c 0.038,-0.038 0.048,-0.089 0.048,-0.14 a 0.197,0.197 0 0 0 -0.056,-0.147 0.213,0.213 0 0 0 -0.15,-0.05 c -0.06,0 -0.153,0.012 -0.296,0.036 -0.135,0.023 -0.33,0.034 -0.583,0.034 -0.253,0 -0.449,-0.011 -0.584,-0.034 a 2.111,2.111 0 0 0 -0.296,-0.037 0.213,0.213 0 0 0 -0.15,0.05 0.198,0.198 0 0 0 -0.056,0.147 c 0,0.057 0.008,0.109 0.048,0.15 l 0.009,0.007 0.01,0.006 a 0.382,0.382 0 0 0 0.11,0.033 h 10e-4 c 0.046,0.007 0.094,0.01 0.145,0.01 0.045,0 0.094,0.008 0.147,0.024 0.076,0.025 0.106,0.055 0.113,0.078 l 0.002,0.004 0.002,0.005 a 0.791,0.791 0 0 1 0.028,0.251 v 4.07 c 0,0.093 -0.003,0.17 -0.009,0.233 v 0.007 c 0,0.05 -0.008,0.09 -0.02,0.12 a 0.139,0.139 0 0 1 -0.059,0.057 H 44.473 L 44.47,60.83 a 0.487,0.487 0 0 1 -0.138,0.051 H 44.33 a 0.38,0.38 0 0 1 -0.105,0.016 0.782,0.782 0 0 0 -0.127,0.01 h -10e-4 l -0.001,0.001 a 0.268,0.268 0 0 0 -0.109,0.048 l -0.004,0.003 -0.004,0.003 c -0.038,0.038 -0.048,0.089 -0.048,0.14 0,0.064 0.026,0.127 0.075,0.165 0.05,0.038 0.112,0.05 0.184,0.05 0.061,0 0.156,-0.01 0.293,-0.027 0.138,-0.017 0.322,-0.026 0.55,-0.026 0.23,0 0.412,0.009 0.543,0.026 0.144,0.018 0.24,0.028 0.302,0.028 a 0.442,0.442 0 0 0 0.084,-0.009 c 0.033,0.013 0.065,0.026 0.107,0.026 0.07,0 0.152,-0.006 0.249,-0.018 h 0.004 c 0.096,-0.018 0.207,-0.027 0.334,-0.027 0.187,0 0.344,0.01 0.47,0.027 0.132,0.018 0.23,0.027 0.302,0.027 a 0.26,0.26 0 0 0 0.156,-0.04 0.173,0.173 0 0 0 0.068,-0.14 0.217,0.217 0 0 0 -0.134,-0.2 1.314,1.314 0 0 0 -0.283,-0.066 0.322,0.322 0 0 1 -0.142,-0.046 c -0.008,-0.007 -0.027,-0.043 -0.027,-0.122 0,-0.087 0.043,-0.319 0.131,-0.666 l 0.213,-0.791 v -0.001 c 0.003,-0.01 0.003,-0.008 0.005,-0.01 l 0.002,-10e-4 0.002,-0.002 c 0.017,-0.013 0.025,-0.012 0.019,-0.012 h 1.102 c 0.03,0 0.05,0.006 0.057,0.01 0.007,0.003 0.005,0 0.006,0.006 v 0.002 l 0.347,1.14 c 0.053,0.185 0.077,0.317 0.077,0.378 0,0.069 -0.015,0.094 -0.036,0.107 a 0.708,0.708 0 0 1 -0.256,0.033 0.277,0.277 0 0 0 -0.178,0.052 0.207,0.207 0 0 0 -0.072,0.163 c 0,0.053 0.024,0.108 0.068,0.14 0.044,0.03 0.096,0.04 0.155,0.04 0.065,0 0.169,-0.007 0.318,-0.019 h 0.002 a 5.268,5.268 0 0 1 1.029,0 2.3,2.3 0 0 0 0.313,0.027 c 0.07,0 0.131,-0.01 0.18,-0.044 a 0.187,0.187 0 0 0 0.079,-0.153 0.156,0.156 0 0 0 -0.052,-0.118 0.208,0.208 0 0 0 -0.12,-0.043 h 0.006 A 0.513,0.513 0 0 1 50.27,60.875 l -0.001,-10e-4 -0.002,-0.001 a 0.592,0.592 0 0 1 -0.23,-0.27 5.441,5.441 0 0 1 -0.175,-0.49 l -1.342,-4.23 a 3.446,3.446 0 0 1 -0.087,-0.296 0.236,0.236 0 0 0 -0.066,-0.124 c -0.02,-0.019 -0.05,-0.02 -0.078,-0.029 l -0.013,-0.019 z m 4.078,0 c -0.25,0 -0.479,0.04 -0.684,0.12 -0.198,0.075 -0.37,0.184 -0.513,0.327 a 1.532,1.532 0 0 0 -0.336,0.513 v 0.002 a 1.858,1.858 0 0 0 -0.112,0.656 c 0,0.267 0.033,0.491 0.103,0.674 v 0.003 c 0.074,0.178 0.17,0.334 0.289,0.465 h 0.002 a 2.1,2.1 0 0 0 0.422,0.342 h 0.001 c 0.16,0.095 0.33,0.193 0.508,0.294 0.332,0.187 0.576,0.386 0.733,0.594 v 10e-4 h 0.002 c 0.162,0.202 0.241,0.426 0.241,0.684 0,0.145 -0.024,0.278 -0.074,0.4 l -10e-4,0.002 a 0.9,0.9 0 0 1 -0.19,0.312 v 0.002 l -0.001,0.002 a 0.825,0.825 0 0 1 -0.62,0.277 0.915,0.915 0 0 1 -0.594,-0.232 v -10e-4 c -0.183,-0.155 -0.318,-0.375 -0.404,-0.666 a 1.87,1.87 0 0 1 -0.05,-0.23 3.166,3.166 0 0 0 -0.036,-0.193 V 59.76 a 0.386,0.386 0 0 0 -0.044,-0.157 0.177,0.177 0 0 0 -0.152,-0.093 0.191,0.191 0 0 0 -0.165,0.11 0.544,0.544 0 0 0 -0.041,0.238 v 0.086 L 50.6,59.95 a 0.931,0.931 0 0 1 0.008,0.139 c 0,0.081 -0.002,0.168 -0.008,0.262 -0.006,0.096 -0.01,0.196 -0.01,0.298 0,0.278 0.143,0.502 0.403,0.641 h 10e-4 c 0.257,0.132 0.585,0.195 0.983,0.195 0.258,0 0.497,-0.05 0.714,-0.148 h 10e-4 c 0.221,-0.093 0.41,-0.223 0.565,-0.39 0.16,-0.167 0.283,-0.365 0.37,-0.592 0.092,-0.228 0.138,-0.477 0.138,-0.746 a 2.09,2.09 0 0 0 -0.102,-0.68 1.568,1.568 0 0 0 -0.306,-0.53 2.181,2.181 0 0 0 -0.477,-0.43 6.656,6.656 0 0 0 -0.638,-0.378 c -0.28,-0.146 -0.483,-0.291 -0.61,-0.43 -0.117,-0.133 -0.177,-0.304 -0.177,-0.527 0,-0.272 0.07,-0.473 0.203,-0.618 0.14,-0.15 0.326,-0.225 0.578,-0.225 0.192,0 0.327,0.054 0.425,0.162 0.104,0.115 0.206,0.29 0.298,0.521 v 0.001 c 0.065,0.152 0.105,0.268 0.12,0.343 l 10e-4,0.003 0.002,0.003 c 0.014,0.048 0.037,0.09 0.072,0.12 a 0.198,0.198 0 0 0 0.13,0.047 0.179,0.179 0 0 0 0.148,-0.081 0.33,0.33 0 0 0 0.04,-0.178 10,10 0 0 0 -0.018,-0.687 1.888,1.888 0 0 0 -0.023,-0.201 c -0.01,-0.052 -0.016,-0.088 -0.046,-0.125 -0.066,-0.086 -0.19,-0.135 -0.388,-0.202 a 2.09,2.09 0 0 0 -0.681,-0.102 z m -15.94,0.16 c -0.006,0 -0.01,0.004 -0.015,0.005 -0.054,0.002 -0.105,0.01 -0.144,0.043 a 0.193,0.193 0 0 0 -0.065,0.149 c 0,0.056 0.008,0.108 0.049,0.148 l 0.008,0.009 0.01,0.005 a 0.383,0.383 0 0 0 0.11,0.033 c 0.04,0.007 0.085,0.01 0.136,0.01 0.038,0 0.076,0.007 0.116,0.022 h 0.001 V 56 c 0.072,0.025 0.092,0.05 0.096,0.072 l 10e-4,0.003 0.002,0.004 c 0.012,0.036 0.023,0.128 0.023,0.261 v 4.07 c 0,0.168 -0.012,0.293 -0.033,0.371 a 0.106,0.106 0 0 1 -0.047,0.066 0.288,0.288 0 0 1 -0.124,0.041 h -0.002 a 1.71,1.71 0 0 1 -0.264,0.026 0.18,0.18 0 0 0 -0.133,0.052 0.195,0.195 0 0 0 -0.046,0.136 c 0,0.064 0.028,0.128 0.079,0.165 0.051,0.037 0.115,0.05 0.189,0.05 0.044,0 0.127,-0.006 0.264,-0.018 h 0.003 c 0.136,-0.018 0.34,-0.027 0.604,-0.027 0.573,0 1.046,0.012 1.417,0.036 0.38,0.024 0.661,0.036 0.848,0.036 a 0.825,0.825 0 0 0 0.154,-0.01 0.198,0.198 0 0 0 0.127,-0.073 0.275,0.275 0 0 0 0.049,-0.12 v -0.002 a 3.43,3.43 0 0 0 0.018,-0.173 v 0.002 l 0.097,-0.86 v -0.002 a 0.988,0.988 0 0 0 0.009,-0.11 l 0.01,-0.051 v -0.007 a 0.1,0.1 0 0 0 -0.026,-0.066 0.214,0.214 0 0 0 -0.04,-0.036 c -0.023,-0.026 -0.054,-0.05 -0.096,-0.05 a 0.217,0.217 0 0 0 -0.151,0.068 0.51,0.51 0 0 0 -0.102,0.163 3.336,3.336 0 0 1 -0.234,0.416 1.673,1.673 0 0 1 -0.203,0.253 0.706,0.706 0 0 1 -0.216,0.135 1.059,1.059 0 0 1 -0.283,0.067 3.268,3.268 0 0 1 -0.664,0 0.435,0.435 0 0 1 -0.161,-0.064 0.247,0.247 0 0 1 -0.074,-0.13 1.323,1.323 0 0 1 -0.025,-0.285 v -1.83 c 0,-0.059 0.02,-0.087 0.006,-0.073 0,0 0.025,-0.014 0.081,-0.014 h 0.391 c 0.186,0 0.336,0.014 0.445,0.042 0.096,0.024 0.173,0.088 0.238,0.212 a 1.592,1.592 0 0 1 0.153,0.424 v 0.006 l 0.003,0.004 c 0.018,0.055 0.037,0.102 0.057,0.142 l 0.003,0.007 0.005,0.006 a 0.19,0.19 0 0 0 0.145,0.072 c 0.054,0 0.11,-0.027 0.14,-0.072 a 0.28,0.28 0 0 0 0.039,-0.16 c 0,-0.048 -0.006,-0.13 -0.018,-0.253 v -0.003 a 11.565,11.565 0 0 1 -0.009,-0.5 c 0,-0.175 0.007,-0.337 0.018,-0.483 v 0.003 c 0.018,-0.15 0.027,-0.283 0.027,-0.4 a 0.208,0.208 0 0 0 -0.044,-0.14 0.178,0.178 0 0 0 -0.135,-0.056 0.183,0.183 0 0 0 -0.162,0.093 l -0.002,0.005 -0.002,0.005 a 1.422,1.422 0 0 0 -0.038,0.14 1.36,1.36 0 0 1 -0.05,0.168 0.476,0.476 0 0 1 -0.108,0.152 0.654,0.654 0 0 1 -0.233,0.096 c -0.13,0.028 -0.284,0.043 -0.463,0.043 h -0.4 A 0.506,0.506 0 0 1 37.656,58.04 c -0.002,-0.01 -0.009,-0.038 -0.009,-0.1 v -1.466 c 0,-0.104 0.003,-0.186 0.009,-0.247 a 0.339,0.339 0 0 1 0.047,-0.134 0.219,0.219 0 0 1 0.113,-0.064 1.03,1.03 0 0 1 0.256,-0.025 c 0.469,0 0.81,0.11 1.035,0.319 a 0.733,0.733 0 0 1 0.162,0.21 h 0.001 v 0.002 c 0.04,0.074 0.071,0.142 0.093,0.204 0.024,0.066 0.046,0.12 0.064,0.163 l 0.002,0.004 0.002,0.004 a 0.192,0.192 0 0 0 0.16,0.098 c 0.06,0 0.117,-0.045 0.14,-0.098 a 0.481,0.481 0 0 0 0.031,-0.196 v -0.8 c 0,-0.1 -0.01,-0.177 -0.045,-0.24 a 0.182,0.182 0 0 0 -0.114,-0.08 0.58,0.58 0 0 0 -0.162,-0.019 c -0.064,0 -0.237,0.006 -0.527,0.018 -0.288,0.012 -0.694,0.018 -1.215,0.018 -0.408,0 -0.72,-0.006 -0.937,-0.018 -0.22,-0.012 -0.343,-0.018 -0.386,-0.018 z m -3.208,0.234 c 0.21,0 0.406,0.06 0.59,0.183 h 0.002 v 10e-4 c 0.191,0.118 0.358,0.293 0.502,0.528 0.143,0.234 0.256,0.523 0.337,0.867 v 10e-4 c 0.087,0.343 0.131,0.733 0.131,1.173 0,0.41 -0.04,0.77 -0.122,1.083 v 0.001 a 2.639,2.639 0 0 1 -0.32,0.796 1.56,1.56 0 0 1 -0.473,0.483 1.088,1.088 0 0 1 -0.567,0.159 c -0.211,0 -0.41,-0.058 -0.601,-0.176 a 1.682,1.682 0 0 1 -0.492,-0.536 2.99,2.99 0 0 1 -0.338,-0.868 5.218,5.218 0 0 1 -0.122,-1.182 c 0,-0.41 0.038,-0.772 0.113,-1.085 a 2.86,2.86 0 0 1 0.32,-0.787 1.46,1.46 0 0 1 0.474,-0.473 v -10e-4 c 0.18,-0.112 0.366,-0.167 0.566,-0.167 z m 14.795,1.394 0.464,1.495 c 0.01,0.04 0.013,0.07 0.013,0.064 l -0.006,0.002 h -0.878 v -0.007 a 0.19,0.19 0 0 1 0.007,-0.045 z m 0.478,1.561 v 0.002 c 0,-0.006 0.004,-0.007 -0.005,0.002 z m -2.366,2.2 0.014,0.015 -0.005,-0.004 c -0.004,-0.004 -0.003,-0.006 -0.01,-0.01 z m 0.015,0.02 h 0.002 c 0.01,0.01 0.009,0.014 0.007,0.01 0,-0.002 -0.007,-0.008 -0.009,-0.01 z"
       inkscape:connector-curvature="0"
       style="color:#000000" />
  </g>
</svg>
