<svg viewBox="0 0 710 386" xmlns="http://www.w3.org/2000/svg" xmlns:xlink="http://www.w3.org/1999/xlink"><defs><linearGradient id="a" x2="1" gradientTransform="matrix(283 0 0 -283 370 249)" gradientUnits="userSpaceOnUse"><stop stop-color="#b41d23" offset="0"/><stop stop-color="#ed1c24" offset=".537"/><stop stop-color="#ed1c24" offset="1"/></linearGradient><linearGradient id="c" x1="178" x2="532" y1="360" y2="360" gradientUnits="userSpaceOnUse" xlink:href="#a"/><linearGradient id="b" x2="1" gradientTransform="matrix(199 0 0 199 255 94.7)" gradientUnits="userSpaceOnUse" xlink:href="#a"/></defs><path d="M58.1 177L19 281c-7.43 19.7-10.2 21.8-19 23.9v.875c3.64-.178 5.87-.344 11.8-.344 6.4 0 12.3.166 16.1.344v-.875c-5.88-.694-7.94-3.62-7.94-7.59 0-3.29 1.38-7.46 2.94-11.8l5.34-14.5c6.57-.176 13-.156 19.6-.156 9.34 0 18.7-.02 28 .156l5.91 18.9c1.04 3.46 2.06 6.58 2.06 9 0 3.29-1.89 5.68-7.59 6.03v.875c3.8-.177 8.98-.343 15.4-.343 5.88 0 11.4.166 15.1.344v-.875c-6.57-.87-6.92-2.08-10.4-13l-36.3-115H58.3zm-4.16 24l15.2 49.1h-16.9c-5.54 0-10.9.014-16.3-.156l18-49zm441 8.88l-29.1 77.4c-5.53 14.7-7.59 16.2-14.2 17.8v.625c2.71-.13 4.37-.25 8.75-.25 4.76 0 9.14.12 12 .25v-.625c-4.38-.517-5.91-2.72-5.91-5.69 0-2.45 1.03-5.53 2.19-8.75l7.72-20.8c4.51-.13 9.02-.156 13.7-.156h14.8l7.62 24.2c.772 2.57 1.53 4.89 1.53 6.69 0 2.45-1.41 4.27-5.66 4.53v.625c2.83-.13 6.67-.25 11.4-.25 4.38 0 8.52.12 11.2.25v-.625c-4.89-.646-5.14-1.55-7.72-9.66l-27.1-85.5h-1.28zm179 0l-29.1 77.4c-5.54 14.7-7.62 16.2-14.2 17.8v.625c2.71-.13 4.4-.25 8.78-.25 4.76 0 9.14.12 12 .25v-.625c-4.38-.517-5.94-2.72-5.94-5.69 0-2.45 1.03-5.53 2.19-8.75l7.75-20.8c4.51-.13 8.99-.156 13.6-.156h14.8l7.59 24.2c.772 2.57 1.56 4.89 1.56 6.69 0 2.45-1.44 4.27-5.69 4.53v.625c2.83-.13 6.7-.25 11.5-.25 4.38 0 8.48.12 11.2.25v-.625c-4.89-.646-5.14-1.55-7.72-9.66l-27-85.5h-1.28zm-445 1.28c-32.6 0-48.9 24.3-48.9 48 0 24.1 17.4 47.5 50.3 47.5 9.78 0 20.5-2.45 32.2-8.25 0-4.63.138-9.15.781-13.8h-.656c-3.86 13.1-17.8 18.9-30.2 18.9-19.1 0-40.7-12.9-40.7-43.9 0-31.8 17.5-45.7 37.7-45.7 17.3 0 30.9 6.95 32.2 20.6h.656c0-.9-.125-2.72-.125-4.91 0-3.86.119-8.87.375-12.2-8.62-2.44-20.3-6.31-33.6-6.31zm97.6 0c-29.2 0-47.1 24.1-47.1 48.4 0 23.7 17.5 47.1 46.1 47.1 26.8 0 46.9-21.2 46.9-47.5 0-27.6-20.6-48-45.8-48zm261 0c-32.6 0-48.9 24.3-48.9 48 0 23.8 17 47 49.2 47.5l-5.03 10.8h.25c1.55-1.42 3.22-2.31 5.41-2.31 3.35 0 5.66 2.85 5.66 6.06 0 4.25-3.21 6.44-6.69 6.44-2.57 0-5.4-1.18-6.81-3.62h-.375c1.03 4.38 4.89 6.44 8.88 6.44 5.02 0 10.2-3.32 10.2-9.38 0-5.41-3.99-8.91-8.62-8.91-1.03 0-2.06.144-3.22.531l2.19-6.06c9.66-.125 20.1-2.58 31.6-8.25 0-4.63.138-9.12.781-13.8h-.656c-3.86 13.1-17.8 18.9-30.2 18.9-19.1 0-40.7-12.9-40.7-43.9 0-31.8 17.5-45.7 37.7-45.7 17.2 0 30.9 6.95 32.2 20.6h.656c0-.9-.125-2.72-.125-4.91 0-3.86.119-8.87.375-12.2-8.62-2.44-20.4-6.31-33.6-6.31zm-468 .625v.657c4.76.774 6.44 1.42 6.44 11.7v69.2c0 8.75-1.16 10.7-7.34 11.7v.656c2.71-.132 16.1-.25 25.9-.25 12 0 14.6-.01 26.5.375 0-5.66.621-6.19.75-17h-.625c-1.93 12.7-4.63 12.8-24.7 12.8-6.05 0-9.55-.235-11-.75v-76.6c0-10.3 1.67-10.9 6.44-11.7v-.656c-2.7.13-6.81.28-11.2.28-4.76 0-8.35-.15-11.2-.28zm268 0v.657c4.89.774 7.09 1.42 7.09 11.7v69.2c0 10.3-2.58 10.9-7.34 11.7v.656c2.83-.132 7.33-.25 12.1-.25 6.95 0 12.5.375 19.7.375 17.4 0 26.5-11.5 26.5-25.8 0-12.2-8.1-24.6-24.8-26.8 12.9-3.35 17.8-11.5 17.8-20.3 0-10.6-7.6-21.1-25.5-21.1-4.63 0-8.1.282-15.2.282-3.47 0-7.48-.153-10.3-.281zm-62.4 2.22c17.4 0 35 13.4 35 45.9 0 29.7-15.6 43.8-35 43.8-18.8 0-34.1-13.5-34.1-44.5 0-32.2 17-45.2 34.1-45.2zm85.8.5c9.79 0 18 6.82 18 19.2 0 15.2-10.8 19.7-24.7 19.7v-37.8c2.32-.773 4.5-1.03 6.69-1.03zm80.7 13.2l11.8 38.1h-13.6c-4.12 0-8.13.006-12.2-.125l14-38zm179 0l11.8 38.1h-13.7c-4.12 0-8.1.006-12.2-.125l14-38zm-619 27.4h18.5l3.28 10.4c-8.82.178-17.5.188-26.3.188-5.88 0-11.8-.01-17.7-.188l3.81-10.2c6.23-.175 12.1-.156 18.3-.156zm353 1.31h3.22c20.3 0 27.8 9.42 27.8 23.2 0 16.5-8.5 22.7-21.2 22.7-3.09 0-6.3-.389-9.78-1.03v-44.8z" fill="#231f20"/><path d="M391 1.91c-11.2 2.15-23.8 8.02-35.4 16.5-11.6-8.48-24.2-14.3-35.4-16.5A52.4 52.4 0 0 0 306.3.05c-25.6 0-47.3 20.1-47.3 43.9 0 3.25.308 6.24.888 8.48-2.05 4.16-3.4 9.07-3.72 13.4-.134.613-9.83 62.6 99.3 123v.006l.13.072.12.061.118-.061c109-60.5 99.2-123 99.1-123-.36-4.54-1.75-9.47-3.67-13a48.4 48.4 0 0 0 .812-8.98c0-23.8-21.7-43.9-47.3-43.9-4.72 0-9.47.618-13.7 1.77m-30.8 20.4c10.6-7.63 22.1-12.9 32.4-14.9 3.88-1.06 7.98-1.59 12.2-1.59 21.9 0 41 17.8 41 38.2 0 .25-.006.5-.011.752-4.56-4.67-10.3-7.05-17.2-7.05a107 107 0 0 0-6.21.18c-6.84-9.35-17.2-14.5-29.1-14.5-9.14 0-17.9 3.01-24.6 8.47zm-95 21.7c0-20.3 19.2-38.2 41-38.2 4.23 0 8.28.545 12.4 1.66 10.2 1.92 21.5 7.19 32.1 14.8l-8.44 9.54c-6.73-5.46-15.5-8.47-24.6-8.47-11.9 0-22.3 5.16-29.1 14.5a107 107 0 0 0-6.21-.18c-6.88 0-12.7 2.38-17.2 7.05l-.004-.752m83.2 73.3c-1.46-13.7-3.98-25.8-7.49-36 8.23-6.65 13.2-16.3 13.2-25.9 0-7.07-2.58-13.8-7.46-19.4l9.02-9.92 8.71 9.92c-4.88 5.64-7.45 12.3-7.45 19.4 0 9.74 4.78 19.2 13.2 25.9-3.46 10.1-5.97 22-7.43 35.5-3.06.862-5.63 1.29-8.13 1.29-2 .001-3.96-.272-6.09-.813m24.3-81.2c5.6-4.59 12.9-7.11 20.5-7.11 11 0 17.9 5.14 21.9 9.6-10.3 1.67-18.8 5.62-26.1 12.1a50.8 50.8 0 0 0-3.52 3.44c-3.38-6.3-7.68-12.4-12.8-18m-50.8 14.6c-7.3-6.44-15.8-10.4-26.1-12.1 3.97-4.46 10.9-9.6 21.9-9.6 7.66 0 15 2.52 20.6 7.11-5.12 5.66-9.42 11.7-12.8 18a50.8 50.8 0 0 0-3.53-3.43m41.2 4.7c0-5.39 1.84-10.6 5.32-15 5.28 5.96 9.58 12.3 12.7 18.9-3.35 4.54-6.34 9.93-8.87 16-5.86-5.52-9.2-12.7-9.2-19.9m-33.3 3.88c3.12-6.52 7.38-12.9 12.7-18.8 3.49 4.39 5.33 9.56 5.33 15 0 7.13-3.34 14.4-9.2 19.9-2.56-6.17-5.54-11.6-8.81-16m101 13.5c.069-.814.69-8.29-1.15-17.9-.799-4.16-2.09-8.03-3.85-11.5a104 104 0 0 1 2.83-.03c7.16 0 12.6 3.32 16.2 9.69-1.57 6.95-5.11 12.9-10.5 17.7a40.1 40.1 0 0 1-3.59 2.77zm-154-2.07c-5.24-4.59-8.88-10.5-10.6-17 3.66-6.87 9.15-10.4 16.3-10.4a104 104 0 0 1 2.83.03c-1.78 3.53-3.06 7.4-3.85 11.5-1.9 9.9-1.16 17.7-1.16 17.7.017.284.022.573.047.87a44.2 44.2 0 0 1-3.59-2.78m117 8.38c-.649-6.32-2.37-12.7-5.11-19.1a48.3 48.3 0 0 1 5.06-5.23c6.94-6.12 15.3-9.69 25.6-10.9 2.14 3.66 3.69 7.81 4.5 12 1.74 9.12 1.06 16.5 1.05 16.6-.039 1.55-.257 3.21-.632 4.92-14 6.57-29.9 6.7-30.1 6.7h-.015a50.6 50.6 0 0 0-.286-4.99m-106-1.7a27.8 27.8 0 0 1-.661-5.13c-.056-.78-.554-7.9 1.08-16.4a38.9 38.9 0 0 1 4.5-12c10.2 1.22 18.6 4.79 25.6 10.9a49.5 49.5 0 0 1 5.03 5.2c-3.54 8.08-5.45 16.4-5.55 24.1-1.64-.024-16.6-.418-30-6.69m79 75.6c.522-.396 54.2-39.9 62.9-71.6 3.54-1.86 6.76-4.05 9.57-6.5 4.05-3.54 7.24-7.66 9.45-12.3a37.2 37.2 0 0 1 .655 4.34c.106.565 9.43 56.7-93.1 114-102-57.2-93.7-112-93.3-115 0-.02.12-1.57.62-3.89 2.24 4.59 5.41 8.71 9.42 12.2 2.93 2.56 6.12 4.67 9.24 6.13 9.23 32.1 61 70.4 63.2 72l5.06 3.74.04-5.95c.039-9.87-.31-19.5-.989-27.9 4.71.84 9.21.85 13.1.016-.715 8.7-1.05 18.1-1.01 27.9l.02 5.94zm11.3-73.8c1.92-4.93 4.17-9.41 6.65-13.3 1.65 4.6 2.72 9.21 3.2 13.7.131 1.22.206 2.44.24 3.75-3.5-.772-6.97-2.22-10.1-4.19m-50.3-13.2c2.45 3.87 4.65 8.31 6.56 13.2-3.08 1.96-6.55 3.41-10.1 4.19.172-5.58 1.34-11.4 3.5-17.4m94.4 18.7c-10.1 23.6-43.4 51.4-54.1 59.9.092-8.11.448-15.5 1.15-23.1 4.94-1.84 8.82-4.4 10.3-5.38l.519-.341c7.91-5.92 12.9-15.2 14.2-26l.704.014c.558 0 13.7-.059 27.3-5.12m-132 .01c10.4 3.84 20.8 4.89 27.7 5.1l.116-.007c1.18 10.9 6.14 19.8 14.3 26 .034.035 4.4 3.34 10.9 5.73.633 7.16 1.01 14.9 1.11 23.1-10.7-8.5-43.9-36.2-54.1-59.9m85.8.197a37.6 37.6 0 0 0 11.9 4.31c-1.04 9.33-5.2 17.2-11.7 22.1-.016.02-2.55 1.58-6.33 3.21 1.34-11.1 3.43-21 6.2-29.6m-39.7 26.5c-6.86-5.16-11-12.8-11.9-22.2a37.6 37.6 0 0 0 11.9-4.31c2.82 8.6 4.92 18.7 6.27 30.1a43.2 43.2 0 0 1-6.19-3.54" fill="url(#b)"/><path d="M448 335l-19.1 28.5c-2.24 3.36-3.96 5.57-5.15 6.6-1.2 1.04-2.71 1.64-4.52 1.79l-.383 1.27h13.1l.39-1.27-.906-.028c-2.65-.078-3.96-1.02-3.96-2.83 0-.516.113-1.01.355-1.5.249-.474.927-1.58 2.05-3.32l3.48-5.27h10.7l-.268 6.07c-.096 2.03-.193 3.41-.335 4.14-.13.733-.538 1.36-1.24 1.88-.678.519-2.01.809-3.97.845l-.386 1.27h14.7l.37-1.27c-1.61-.055-2.76-.285-3.48-.695-.716-.402-1.08-1.21-1.08-2.44l.174-3.38 1.3-30.4zm-3.11 6.7l-.734 16h-9.96zm-179-6.56c-1.44.612-3.69.944-6.74.997l-.358 1.16h1.08c1 0 1.61.095 1.86.291.253.173.381.479.381.928 0 .306-.279 1.34-.834 3.16l-6.48 21.4c-1.2 3.93-1.8 6.4-1.8 7.39 0 1.02.3 1.86.922 2.54.606.671 1.42 1.01 2.44 1.01 2.95 0 5.38-2.47 7.26-7.42h-1.21c-.87 2.1-1.78 3.59-2.72 4.46-.948.87-1.73 1.3-2.37 1.3-.422 0-.738-.136-.954-.41-.211-.28-.324-.703-.324-1.24 0-.834.269-2.05.81-3.66.397-1.22.674-2.05.8-2.51l8.94-29.3zm-68.5.417a198 198 0 0 1-5.73.105h-2.72l-.387 1.28h1.44c2.38 0 3.57.649 3.57 1.97 0 .478-.281 1.64-.833 3.49l-7.26 23.9c-.553 1.84-.977 3.05-1.27 3.59-.298.541-.835 1.02-1.62 1.44-.784.416-1.76.628-2.9.628h-1.61l-.386 1.27h15.1c3.39 0 5.99-.107 7.8-.296 1.8-.211 3.77-.792 5.92-1.74 2.14-.953 4.13-2.41 6-4.38 1.87-1.97 3.33-4.31 4.39-7.05 1.06-2.72 1.6-5.41 1.6-8.05 0-2.93-.62-5.7-1.84-8.31-1.23-2.61-3.1-4.59-5.6-5.94-2.5-1.35-5.54-2.02-9.15-2.02-.867 0-2.37.043-4.51.137m-7.68 33.8c0-.44.257-1.52.775-3.23l8.94-29.4a20.7 20.7 0 0 1 2.16-.138c3.96 0 6.9 1.25 8.84 3.74 1.94 2.49 2.9 5.71 2.9 9.66 0 5.32-1.55 10.3-4.66 15-3.12 4.69-7.54 7.04-13.3 7.04-3.79 0-5.68-.886-5.68-2.66m46.6-32.1l-10.4 10.8h1.06l8.72-6.76 3.21 6.76h.549l-.405-10.8zm69.6 13.9a5.18 5.18 0 0 0-1.79-1.11 6.34 6.34 0 0 0-2.12-.357c-2.42 0-4.59 1.05-6.5 3.18-1.92 2.11-2.88 4.51-2.88 7.21 0 1.47.301 2.74.896 3.8.602 1.06 1.5 1.92 2.7 2.59-2.14.407-3.8 1.13-4.98 2.18-1.18 1.04-1.78 2.14-1.78 3.31 0 .833.355 1.61 1.05 2.3.688.72 2.45 1.42 5.3 2.08 3.27.764 5.38 1.44 6.36 2.05.977.614 1.46 1.42 1.46 2.39 0 1.24-.687 2.32-2.08 3.25-1.4.924-3.44 1.38-6.14 1.38-2.5 0-4.36-.459-5.59-1.38-1.21-.922-1.83-1.99-1.83-3.18 0-.768.39-1.57 1.14-2.38.445-.459.664-.817.664-1.08 0-.48-.326-.713-.972-.713-.64 0-1.42.412-2.32 1.23-.902.817-1.36 1.82-1.36 3.03 0 1.62.933 2.98 2.8 4.07 1.86 1.09 4.46 1.62 7.81 1.62 3.54 0 6.28-.706 8.2-2.12 1.92-1.42 2.88-3.08 2.88-4.97 0-1.22-.396-2.27-1.18-3.17-.778-.892-1.99-1.57-3.61-2.04-1.63-.458-3.73-.97-6.28-1.54-1.49-.314-2.45-.65-2.91-.976-.452-.333-.683-.754-.683-1.27 0-1.63 2-2.7 6.01-3.22 2.69-.348 4.98-1.44 6.86-3.29 1.87-1.85 2.8-4.36 2.8-7.56 0-1.68-.368-3.13-1.11-4.34.335-.46.654-.697.977-.697.295 0 .582.206.878.612.463.628.93.942 1.42.942.86 0 1.26-.446 1.26-1.33 0-.56-.215-1.04-.63-1.42-.42-.381-.967-.569-1.63-.569-.823 0-1.84.506-3.07 1.52m-9.4 13.9c-.585-.632-.88-1.46-.88-2.49 0-2.46.693-5.02 2.07-7.72 1.37-2.68 2.87-4.02 4.5-4.02.905 0 1.59.322 2.04.956.445.634.675 1.59.675 2.87 0 1.54-.383 3.42-1.15 5.62-.772 2.19-1.55 3.7-2.35 4.51-.81.813-1.71 1.22-2.74 1.22-.864 0-1.58-.318-2.17-.946m230-13.3c-1.04 1.37-2.24 3.58-3.59 6.67-.489 1.14-.8 1.81-.906 2 .845-2.98 1.27-5.27 1.27-6.87 0-1.3-.189-2.26-.579-2.9-.39-.633-.98-.953-1.77-.953-1.14 0-2.3.737-3.48 2.18-1.17 1.46-2.14 3.22-2.91 5.29h1.21c.39-1.09 1.04-2.28 1.95-3.6.924-1.31 1.68-1.97 2.3-1.97.273 0 .479.126.621.396.133.247.216.648.216 1.19 0 .995-.42 2.89-1.27 5.7l-4.46 14.7h3.29l.62-2c1.21-3.91 2.77-8.08 4.68-12.5 1.91-4.44 3.33-6.66 4.25-6.66l.601.358c.517.615 1.03.916 1.52.916.442 0 .824-.175 1.15-.525.318-.354.487-.806.487-1.35a2.06 2.06 0 0 0-.58-1.47c-.384-.412-.9-.617-1.54-.617-1.03 0-2.06.686-3.08 2.05m-153 .833c-2.34 1.91-4.25 4.3-5.71 7.18s-2.19 5.56-2.19 8.07c0 1.87.467 3.35 1.39 4.45.93 1.1 2.05 1.64 3.34 1.64 1.38 0 2.85-.7 4.43-2.09 1.58-1.39 2.79-2.8 3.62-4.22-.375 1.22-.563 2.2-.563 2.96 0 .94.235 1.74.691 2.38.465.646 1.13.97 2 .97 1.12 0 2.34-.675 3.68-2.04a14.7 14.7 0 0 0 3.08-4.52h-1.16c-1.67 2.92-3.13 4.38-4.41 4.38-.33 0-.58-.1-.747-.291-.17-.201-.247-.481-.247-.845 0-.51.369-1.93 1.13-4.27l5.2-16.2h-3.36l-.7 2.36c-.19-.924-.56-1.62-1.14-2.08-.574-.46-1.35-.696-2.32-.696-1.66 0-3.68.96-6.02 2.88m-4 18.8c-.359-.621-.543-1.53-.543-2.76 0-2.8 1.21-6.42 3.65-10.9 2.46-4.44 4.82-6.67 7.09-6.67.743 0 1.33.276 1.72.824.404.552.61 1.21.61 2 0 1.35-.646 3.85-1.91 7.53-1.27 3.69-2.77 6.41-4.5 8.2-1.73 1.78-3.2 2.68-4.44 2.68-.737 0-1.3-.312-1.68-.93m-22.7-19.7c-1.03 1.37-2.23 3.58-3.58 6.67-.494 1.14-.797 1.81-.91 2 .845-2.98 1.27-5.27 1.27-6.87 0-1.3-.207-2.26-.585-2.9-.39-.633-.986-.953-1.77-.953-1.15 0-2.3.737-3.47 2.18-1.18 1.46-2.14 3.22-2.92 5.29h1.21c.39-1.09 1.04-2.28 1.96-3.6.911-1.31 1.68-1.97 2.28-1.97.282 0 .487.126.625.396.14.247.207.648.207 1.19 0 .995-.414 2.89-1.26 5.7l-4.46 14.7h3.3l.61-2c1.21-3.91 2.77-8.08 4.68-12.5 1.91-4.44 3.33-6.66 4.25-6.66l.612.358c.51.614 1.03.916 1.51.916.446 0 .828-.175 1.16-.525.312-.354.477-.806.477-1.35 0-.575-.19-1.07-.578-1.47-.385-.412-.899-.617-1.54-.617-1.03 0-2.06.686-3.09 2.05m-28.1.833c-2.36 1.91-4.25 4.3-5.71 7.18s-2.19 5.56-2.19 8.07c0 1.87.459 3.35 1.39 4.45.929 1.1 2.05 1.64 3.33 1.64 1.38 0 2.87-.7 4.44-2.09 1.58-1.39 2.78-2.8 3.61-4.22-.373 1.22-.55 2.2-.55 2.96 0 .94.224 1.74.694 2.38.45.646 1.12.97 1.99.97 1.12 0 2.35-.675 3.67-2.04 1.34-1.36 2.37-2.87 3.09-4.52h-1.16c-1.66 2.92-3.13 4.38-4.4 4.38-.325 0-.581-.1-.753-.291-.167-.201-.242-.481-.242-.845 0-.51.37-1.93 1.14-4.27l5.19-16.2h-3.36l-.701 2.36c-.188-.924-.568-1.62-1.14-2.08-.565-.46-1.34-.696-2.31-.696-1.67 0-3.68.96-6.02 2.88m-4 18.8c-.37-.621-.56-1.53-.56-2.76 0-2.8 1.23-6.42 3.67-10.9 2.44-4.44 4.8-6.67 7.08-6.67.744 0 1.32.276 1.72.824.403.552.597 1.21.597 2 0 1.35-.64 3.85-1.9 7.53-1.26 3.69-2.77 6.41-4.5 8.2-1.72 1.78-3.2 2.68-4.44 2.68-.744 0-1.3-.312-1.68-.93m-45.7-19.9c-1.19 1.22-2.16 2.8-2.9 4.74h1.34c1.38-3.12 2.65-4.68 3.82-4.68.473 0 .711.242.711.718 0 .3-.215 1.18-.654 2.66l-3.02 9.94c-.743 2.44-1.11 4.18-1.11 5.23 0 1.07.343 1.97.996 2.7.668.716 1.58 1.07 2.75 1.07 3.15 0 6.34-3.23 9.56-9.72-1.04 3.06-1.56 5.3-1.56 6.71 0 1 .22 1.75.672 2.26.453.5 1.13.75 2.04.75 2.67 0 4.8-2.16 6.36-6.48h-1.17c-1.25 3.04-2.58 4.57-3.99 4.57-.366 0-.642-.122-.828-.35-.19-.242-.283-.584-.283-1.05 0-.537.42-2.09 1.25-4.68l5.14-15.9h-3.34l-.496 1.65c-2.19 6.78-4.4 11.9-6.64 15.3-2.24 3.45-4.18 5.17-5.8 5.17-.505 0-.883-.147-1.14-.443-.273-.3-.392-.733-.392-1.3 0-.628.298-1.94.878-3.94l3.1-10.2c.563-1.94.852-3.23.852-3.88 0-.902-.256-1.58-.75-2.04-.51-.454-1.13-.674-1.85-.674-1.16 0-2.34.622-3.54 1.85m-41.3 1.28a21.4 21.4 0 0 0-5.23 7.46c-1.24 2.87-1.85 5.46-1.85 7.74 0 1.81.474 3.25 1.43 4.31.944 1.06 2.18 1.59 3.69 1.59 3.68 0 6.68-2.61 9.03-7.84h-1.34c-1.92 4.13-4.15 6.2-6.66 6.2-.902 0-1.6-.3-2.05-.886-.468-.59-.698-1.48-.698-2.66 0-1.44.257-2.96.776-4.56 3.99-1.7 6.97-3.47 8.97-5.3 1.99-1.83 2.98-3.75 2.98-5.74 0-.982-.263-1.79-.793-2.45-.534-.65-1.32-.981-2.36-.981-1.68 0-3.65 1.04-5.91 3.12m1.16 1.54c1.51-2.15 2.82-3.22 3.92-3.22.579 0 1 .175 1.29.511.286.344.43.86.43 1.56 0 1.53-.952 3.24-2.84 5.12a21.8 21.8 0 0 1-6.43 4.43c.923-3.45 2.13-6.25 3.63-8.4m271-2.09c-1.93 1.63-3.4 3.75-4.44 6.36-1.03 2.62-1.55 5.03-1.55 7.24 0 2.91.58 4.96 1.74 6.14 1.15 1.18 2.5 1.77 4.02 1.77 1.72 0 3.46-.68 5.26-2.05 1.77-1.38 3.26-3.36 4.44-5.95a19.5 19.5 0 0 0 1.76-8.2c0-2.38-.532-4.27-1.59-5.66-1.08-1.39-2.42-2.09-4.06-2.09-1.8 0-3.67.817-5.58 2.44m-2.24 19.3c-.523-.706-.79-1.56-.79-2.54 0-3.3.837-7.13 2.51-11.5 1.67-4.35 3.67-6.52 5.98-6.52.96 0 1.7.314 2.18.949.498.644.741 1.59.741 2.87 0 2.47-.793 6.05-2.4 10.7-1.6 4.68-3.63 7.03-6.1 7.03-.904 0-1.62-.348-2.12-1.05m-102-19.3c-1.93 1.63-3.4 3.75-4.43 6.36-1.04 2.62-1.54 5.03-1.54 7.24 0 2.91.57 4.96 1.72 6.14 1.16 1.18 2.49 1.77 4.02 1.77 1.72 0 3.47-.68 5.26-2.05 1.77-1.38 3.25-3.36 4.43-5.95a19.4 19.4 0 0 0 1.77-8.2c0-2.38-.534-4.27-1.59-5.66-1.06-1.39-2.42-2.09-4.06-2.09-1.81 0-3.67.817-5.58 2.44m-2.24 19.3c-.522-.706-.778-1.56-.778-2.54 0-3.3.834-7.13 2.5-11.5 1.67-4.35 3.66-6.52 5.96-6.52.982 0 1.71.314 2.2.949.49.644.74 1.59.74 2.87 0 2.47-.797 6.05-2.4 10.7-1.59 4.68-3.63 7.03-6.1 7.03-.893 0-1.61-.348-2.12-1.05m86.8-19.4c-1.68 1.46-3.26 3.8-4.76 7.01.755-2.15 1.13-3.98 1.13-5.49 0-1.24-.266-2.16-.792-2.79-.524-.617-1.33-.924-2.39-.924-1.51 0-3.18.94-5.04 2.83-1.85 1.88-3.39 4.12-4.64 6.74 1.14-3.23 1.69-5.51 1.69-6.86 0-.809-.206-1.45-.622-1.93-.417-.475-.987-.72-1.69-.72-.995 0-2.15.604-3.43 1.82-1.29 1.21-2.37 2.74-3.26 4.61h1.26c.782-1.44 1.58-2.55 2.39-3.32.798-.777 1.44-1.17 1.92-1.17l.485.22c.105.158.154.377.154.673 0 .404-.348 1.74-1.03 4.01l-5.04 16.6h3.29l.828-2.72c2.19-7.24 4.37-12.2 6.58-15 2.21-2.72 3.96-4.08 5.25-4.08.444 0 .765.14.981.416.223.272.323.697.323 1.25 0 .907-.387 2.64-1.16 5.24l-4.52 14.9h3.29l.747-2.42c2.33-7.7 4.5-12.9 6.52-15.5 2.03-2.64 3.78-3.96 5.28-3.96.472 0 .824.146 1.06.457.225.301.348.755.348 1.37 0 .568-.335 1.98-1.02 4.24l-2.28 7.53c-.795 2.64-1.2 4.43-1.2 5.36 0 1.05.305 1.86.922 2.44.617.569 1.33.853 2.12.853 1.19 0 2.43-.574 3.7-1.72 1.26-1.15 2.29-2.57 3.08-4.29h-1.19c-.854 1.44-1.65 2.51-2.41 3.23-.764.73-1.46 1.09-2.11 1.09-.327 0-.58-.111-.755-.314-.178-.219-.27-.525-.27-.932 0-.596.387-2.15 1.17-4.68l1.89-6.22c.686-2.33 1.07-3.74 1.18-4.23.105-.485.161-1.11.161-1.86 0-1.21-.348-2.19-1.04-2.9-.674-.707-1.54-1.06-2.56-1.06-1.35 0-2.87.728-4.55 2.19" fill="url(#c)"/></svg>