<svg xmlns="http://www.w3.org/2000/svg" width="470.25" height="365.513"><path d="M235.047 0c-26.876 0-47.282 2.446-72.28 8.656-35.26 8.759-68.108 24.366-94.47 44.907C29 84.183 4.783 125.091.422 168.219c-.823 8.143-.38 28.413.782 35.875 1.188 7.64 4.195 19.574 6.781 26.937 25.907 73.776 108.845 127.502 206.937 134 9.554.633 29.71.64 38.938.031 37.294-2.458 73.256-11.557 104.281-26.406 59.485-28.469 99.895-76.191 109.656-129.5 7.045-38.471-1.143-76.426-23.812-110.469-33.994-51.049-97.42-87.02-169.781-96.312C259.604.5 251.48 0 235.047 0z" fill="#fff"/><path d="M235.047 0c-26.876 0-47.282 2.446-72.28 8.656-35.26 8.759-68.108 24.366-94.47 44.907C29 84.183 4.783 125.091.422 168.219c-.823 8.143-.38 28.413.782 35.875 1.188 7.64 4.195 19.574 6.781 26.937 25.907 73.776 108.845 127.502 206.937 134 9.554.633 29.71.64 38.938.031 37.294-2.458 73.256-11.557 104.281-26.406 59.485-28.469 99.895-76.191 109.656-129.5 7.045-38.471-1.143-76.426-23.812-110.469-33.994-51.049-97.42-87.02-169.781-96.312C259.604.5 251.48 0 235.047 0zM115.985 80.344c3.11-.214 4.866.536 6.125 2.406 1.73 2.568 1.666 8.455-.125 13.531-.714 2.023-1.252 3.732-1.188 3.781.065.05 1.353.482 2.844.97 6.114 1.996 13.11 7.593 16.5 13.187 3.558 5.87 4.735 15.573 3 24.719-1.76 9.28-7.018 20.963-13.156 29.218-7.303 9.824-13.86 12.798-24.063 10.844-5.532-1.06-10.282-1.085-15.625-.063-6.661 1.275-9.656.972-14.5-1.5-3.793-1.935-8.092-6.39-12.156-12.593-11.631-17.753-14.951-37.086-8.5-49.469 3.52-6.755 11.447-12.872 19.563-15.094 1.83-.5 3.28-1.113 3.218-1.375-.505-2.169-.735-6.38-.437-7.969.2-1.066 1.045-2.607 1.875-3.437 1.318-1.318 1.899-1.5 4.625-1.5 3.414 0 7.923 1.115 10.531 2.625l1.688.969 2.281-2.094c3.153-2.868 8.906-5.61 13.906-6.625 1.37-.278 2.557-.46 3.594-.531zm248.281 16.812c.36-.032.795.036 1.344.125 3.09.502 3.618 1.21 3.281 4.469-.38 3.685-2.218 7.398-4.281 8.656-3.321 2.026-6.773.999-10.156-3.031-2.021-2.407-3.024-2.193-4.063.938-.69 2.082-.939 2.32-2.687 2.468-1.058.09-2.43-.13-3.063-.469-1.021-.546-1.13-.927-.875-3.406.578-5.601 3.526-9.281 7.75-9.687 3.027-.291 5.332.841 7.344 3.562 1.6 2.164 2.612 2.04 3.281-.375.655-2.363 1.049-3.153 2.125-3.25zM175.11 97.5c2.614.055 3.553 1.01 4.937 3.844.783 1.602 4.59 11.858 8.438 22.781 3.849 10.923 7.16 20.045 7.375 20.281.215.236 1.518-2.508 2.906-6.094 1.388-3.585 5.354-13.416 8.813-21.843 3.459-8.428 6.281-15.731 6.281-16.25 0-1.37 1.516-1.987 6.187-2.5 4.662-.512 6.36-.11 7.032 1.656.254.668 2.054 11.931 4 25.031 1.945 13.1 4.208 27.725 5.031 32.531 1.263 7.375 1.356 8.863.75 9.5-.79.832-8.719 1.487-11.031.907-1.655-.416-2.069-1.855-3.188-11.188-2.94-24.517-4.654-38.152-4.844-38.344a.308.308 0 0 0-.437 0c-.117.122-3.822 10.236-8.25 22.47-4.428 12.233-8.38 22.879-8.781 23.655-.867 1.677-3.481 2.655-7.313 2.75l-2.719.063-4.625-14.031c-7.503-22.765-11.596-34.425-12.03-34.156-.225.138-.605 1.842-.813 3.812-1.019 9.65-6.158 43.799-6.688 44.438-.836 1.007-9.404 1.006-10.781 0-.954-.698-.894-1.263 1.812-16.813 1.54-8.85 4.088-23.204 5.657-31.906 1.568-8.703 2.843-16.486 2.843-17.313 0-1.961 1.062-2.515 6.188-3.094 1.325-.149 2.379-.205 3.25-.187zm89.375 19.281c3.289-.066 6.63.397 8.75 1.344 3.072 1.371 5.757 4.05 7.406 7.375 1.254 2.528 1.279 2.95 1.438 17.281.155 13.953.235 14.724 1.218 15.25.57.305 1.842.407 2.844.219 1.647-.309 1.874-.218 2.188 1.031 1.02 4.067-1.827 7.707-6.907 8.844-3.962.887-6.742.048-9.5-2.844-1.696-1.778-2.192-2.036-2.906-1.531-2.906 2.056-5.88 3.55-8.219 4.156-3.314.86-5.186.827-8.25-.125-5.392-1.674-8.99-6.757-9-12.719-.013-8.233 6.52-13.894 19.813-17.156l5.844-1.437.187-2.188c.2-2.699-1.004-5.123-3.062-6.187-2.74-1.417-5.657-.99-11.063 1.562-6.14 2.9-7.6 2.54-9.406-2.187-.876-2.294-.876-2.329.312-3.594 1.728-1.84 8.681-5.326 12.72-6.375 1.678-.436 3.62-.68 5.593-.719zm52.937 0c4.768-.043 8.184.792 11.438 2.75 2.718 1.636 2.85 1.821 2.812 3.875-.044 2.382-1.702 5.204-3.312 5.625-.547.143-1.93-.108-3.063-.531-8.536-3.185-13.943-2.535-18.062 2.156-3.27 3.724-4.463 11.966-2.563 17.688 2.626 7.905 11.112 11.664 21.47 9.469 5.052-1.072 5.707-.67 4.5 2.875-1.415 4.15-4.443 6.59-9.032 7.218-2.195.301-4.469 1.757-4.469 2.875 0 .213.772.852 1.719 1.438 2.287 1.416 3.594 3.753 3.594 6.437 0 3.712-2.272 6.724-6.75 8.969-1.237.62-3.293 1.27-4.532 1.438-1.934.262-2.41.101-3.468-1.032-.812-.87-1.177-1.803-1.063-2.75.141-1.17.643-1.62 2.719-2.406 3.084-1.166 4.062-1.93 4.062-3.156 0-1.323-1.125-2.089-3.718-2.531-3.585-.613-3.79-1.616-1.094-5.438 2.508-3.556 2.45-3.829-.969-4.469-5.566-1.042-12.166-6.141-14.812-11.437-2.184-4.37-2.876-8.268-2.563-14.25.321-6.139 1.657-9.905 5.094-14.469 4.61-6.123 11.79-9.824 19.937-10.281.74-.042 1.444-.057 2.125-.063zm40 0c4.387.006 8.362 1.13 11.094 3.469 5.21 4.46 6.068 8.28 5.594 24.5-.227 7.781-.162 12.201.187 12.719.352.52 1.403.812 3.063.812h2.531l.188 2.563c.199 3.122-.746 4.703-3.594 6.156-5.336 2.722-11.207 1.452-13.688-2.938-.565-1-.616-.993-2.062-.062-.818.527-2.978 1.687-4.781 2.563-8.711 4.23-17.539.792-20.032-7.782-2.922-10.054 4.724-17.762 21.22-21.375 3.738-.819 4.244-1.073 4.405-2.187.284-1.948-.822-4.946-2.343-6.375-1.152-1.082-1.89-1.281-4.625-1.281-2.79 0-3.933.341-7.813 2.28-5.458 2.73-6.787 2.542-8.437-1.093-1.62-3.57-1.422-4.349 1.718-6.469 5.386-3.635 11.736-5.508 17.375-5.5zm-87.937 27.844l-2.25.375c-3.288.526-8.193 2.88-9.688 4.656-2.186 2.598-1.404 6.615 1.532 7.844 2.41 1.01 8.591-1.32 9.875-3.719.296-.554.531-2.821.531-5.062zm90.5.25c-.727-.008-1.948.395-3.906 1-4.795 1.481-7.688 4.078-7.688 6.875 0 2.83.463 3.674 2.344 4.5 2.47 1.085 5.824.253 8.687-2.156 1.656-1.393 1.688-1.516 1.688-5.875 0-3.2.087-4.33-1.125-4.344zM176.641 171.25c1.343-.095 2.908.275 3.313 1.031.332.621.562 5.843.562 13.25 0 7.494.187 12.188.5 12.188.281 0 .768.448 1.063 1 .412.77.27 1.347-.563 2.406-1.252 1.592-2.49 1.732-4.812.531-1.514-.783-1.796-.783-3.438 0-2.328 1.11-4.702 1.058-7.375-.156-5.381-2.444-7.028-9.411-3.625-15.219 1.74-2.967 5.093-4.963 8.813-5.219l2.812-.187.156-4.125c.087-2.268.406-4.435.72-4.813.344-.415 1.069-.63 1.874-.687zm15.875 9.781c4.168-.138 8.125 2.642 8.125 7.875 0 2.99-1.699 3.925-7.406 4.125-1.893.067-3.626.204-3.844.313-.217.108-.047.871.375 1.687 1.056 2.042 3.386 2.903 6.656 2.469 2.07-.274 2.707-.166 2.938.438.438 1.14-.68 2.84-2.438 3.75-4.41 2.28-11.4-.473-13.187-5.188-.88-2.323-.685-7.255.406-9.656 1.75-3.854 5.134-5.705 8.375-5.813zm-20.437 4.563c-2.886-.03-5.344 2.764-5.344 6.281 0 1.86 1.218 4.566 2.25 5 .37.156 1.616.213 2.781.156l2.125-.093v-5.563c0-5.43-.037-5.578-1.25-5.75a3.946 3.946 0 0 0-.562-.031zm20.25.031c-1.342.054-2.813.982-2.813 2.344 0 .555.715.75 2.656.75 2.731 0 3.062-.348 2.094-2.157-.377-.705-1.132-.97-1.937-.937zm57.437.062c3.881-.281 3.572 2.28 3.719 14.657.087 7.305.223 13.281.281 13.281.059 0 1.383-.491 2.969-1.094 4.615-1.754 7.96-2.193 12.031-1.562 11.808 1.829 19.25 11.137 19.25 24.093 0 13.141-8.125 23.485-20.781 26.47-8.48 1.998-23.367.015-25.938-3.47-.88-1.194-.934-3.556-.968-35.656-.03-27.743.098-34.463.656-34.812.38-.238 1.887-.655 3.344-.938 2.4-.466 4.144-.875 5.437-.969zm-119.156.125c.358-.007.64-.013.781.032.546.173 1.204.896 1.469 1.593.726 1.91.726 72.775 0 73.5-.318.319-3.01.671-6 .782-4.26.157-5.568.033-6.063-.563-.73-.88-1.006-72.806-.28-73.531.561-.562 7.588-1.762 10.093-1.813zm-47.219 5.625c1.628-.07 1.92.203 2.719 1.22 1.04 1.321 3.946 8.388 17.25 42.155 3.041 7.72 6.524 16.371 7.75 19.25 2.578 6.054 2.436 6.563-1.938 7.282-4.84.796-8.91.569-9.906-.532-.497-.55-2.388-5.025-4.219-9.937l-3.343-8.938-12.125-.125-12.157-.156-3.687 9.063c-2.032 4.975-4.135 9.498-4.656 10.062-1.014 1.098-4.417 1.321-8.5.531-4.473-.865-5.078 1.202 9.718-32.937 10.506-24.24 13.398-31.429 13.438-33.281.049-2.26.133-2.353 1.906-2.719 1.02-.21 3.558-.554 5.625-.75.907-.086 1.583-.164 2.125-.188zm-3 18.47c-.074-.016-.268.104-.469.312-.618.64-8.5 20.346-8.5 21.25 0 .52 1.951.687 8.47.687 4.66 0 8.468-.086 8.468-.187 0-.102-1.784-5.036-3.969-10.969-2.184-5.933-3.969-10.891-3.969-11.031 0-.035-.007-.058-.03-.063zm85.844.812c2.767-.033 5.538.32 8.187 1.156 3.594 1.134 6.539 3.065 6.907 4.531.618 2.465-2.059 6.755-4.219 6.75-.605 0-2.774-.592-4.813-1.312-8.185-2.894-14.222-.865-17.562 5.937-1.32 2.69-1.511 3.635-1.5 8.094.01 3.945.267 5.538 1.125 7.406 3.314 7.213 10.092 10.447 18.812 8.969 2.138-.362 4.595-.69 5.47-.719 1.501-.049 1.587.063 1.53 1.938-.088 2.9-2.393 6.07-5.406 7.437-1.978.898-3.7 1.166-8.562 1.281-6.893.164-9.97-.478-14.875-3.093-12.604-6.718-15.893-25.568-6.594-37.938 4.905-6.526 13.198-10.339 21.5-10.437zm42.125 0a27.41 27.41 0 0 1 4.375.25c8.278 1.143 14.843 5.767 18.375 12.968 7.525 15.343-.346 34.3-15.719 37.844-1.277.295-4.472.54-7.094.531-7.829-.025-13.306-2.353-18.125-7.625-4.397-4.811-6.5-10.53-6.5-17.78 0-14.866 10.827-25.882 24.688-26.188zm158.125.03c8.308.024 15.882 3.617 14.75 7.563-1.378 4.804-3.511 5.809-8.094 3.782-3.173-1.404-7.966-1.867-10.969-1.063-1.677.45-3.125 1.382-4.875 3.188-2.94 3.034-4.156 6.418-4.156 11.656 0 12.573 9.294 18.92 23.219 15.906 3.849-.833 4.626-.455 4.094 1.969-.976 4.441-4.739 7.598-9.938 8.344-1.743.25-2.705.73-3.25 1.562-.737 1.126-.672 1.283 1.531 3.125 2.78 2.323 3.69 4.871 2.844 7.938-.753 2.729-3.684 5.815-6.719 7.093-1.38.582-3.407 1.212-4.5 1.407-1.688.3-2.189.154-3.343-1-.93-.93-1.302-1.807-1.188-2.782.137-1.168.632-1.6 2.719-2.343 3.197-1.14 4.094-1.869 4.094-3.375 0-1.254-1.32-1.998-4.657-2.657-2.338-.461-2.303-2.223.125-5.53 1.02-1.39 1.875-2.776 1.875-3.063 0-.288-.995-.68-2.218-.875-3.492-.559-8.63-3.3-11.563-6.157-3.078-2.998-5.522-7.73-6.406-12.437-.773-4.119-.288-10.818 1.094-14.813 3.183-9.204 11.766-15.925 21.968-17.218a27.633 27.633 0 0 1 3.563-.22zm-51.469.095c7.109-.078 12.418 2.751 15.125 8.093 1.807 3.565 1.957 5.165 2.031 19.97l.063 13.093 2.906.281 2.906.25.188 2.438c.12 1.827-.14 2.751-1 3.843-3.684 4.684-12.785 4.773-15.969.157a202.978 202.978 0 0 0-1.281-1.844c-.075-.102-.907.418-1.875 1.156s-3.088 1.943-4.688 2.688c-5.93 2.76-13.773 1.32-17.187-3.157-4.54-5.95-3.649-14.182 2.031-19.062 3.17-2.723 8.86-5.293 14.656-6.625 2.767-.636 5.35-1.264 5.75-1.375 1.299-.362.49-5.823-1.093-7.406-2.784-2.784-7.243-2.574-12.969.625-5.21 2.91-7.232 2.37-8.906-2.375-.999-2.831-1.068-2.4.625-3.969 3.846-3.567 12.54-6.714 18.687-6.781zm93.281 0c2.28-.008 4.425.286 6.282.906 3.926 1.311 7.934 5.34 9.312 9.312.905 2.608.994 4.246.844 16.438-.134 10.833-.01 13.653.562 14.125.391.324 1.758.657 3.063.75l2.375.156.156 2.438c.12 1.827-.11 2.751-.969 3.843-2.881 3.664-9.28 4.698-13.562 2.188-1.264-.74-2.303-1.513-2.313-1.719-.01-.206-.349-.815-.75-1.344-.69-.91-.852-.865-3.28.844-1.411.993-3.6 2.206-4.845 2.688-2.83 1.097-8.75 1.112-11.25.03-2.405-1.04-5.075-3.649-6.5-6.312-.863-1.614-1.147-3.065-1.156-6.093-.01-3.392.194-4.323 1.438-6.438 2.82-4.797 8.98-8.429 17.875-10.531 2.767-.654 5.323-1.25 5.687-1.344.42-.107.688-1.162.688-2.844 0-2.15-.29-2.965-1.469-4.28-2.794-3.118-7.232-3.015-13.188.312-4.713 2.633-6.464 2.441-8.156-.875-1.92-3.766-1.262-5.187 3.719-8.032 4.732-2.702 10.424-4.201 15.437-4.218zm-199.75 9.125c-6.492 0-11.109 6.695-11.093 16.093.013 8.127 2.99 14.293 7.937 16.438 5.362 2.325 10.482-.1 13.344-6.313 1.067-2.316 1.219-3.49 1.219-9.28 0-6.031-.12-6.879-1.375-9.532-2.36-4.99-5.632-7.406-10.032-7.406zm52.75 1.312c-2.371-.018-4.733.253-5.843.813l-1.594.812V252.5l1.312.406c.729.22 2.993.307 5.032.219 5.933-.255 10.03-3.03 12.562-8.531 1.038-2.255 1.219-3.51 1.219-8.469 0-4.948-.19-6.132-1.156-7.938-1.351-2.522-3.51-4.805-5.719-6-1.066-.576-3.441-.888-5.813-.906zm56.657 17.75c-2.672 0-8.45 2.575-10.282 4.563-1.586 1.722-1.73 2.149-1.468 4.093.18 1.345.729 2.552 1.437 3.125 2.269 1.837 7.167.887 10.281-2 1.23-1.14 1.344-1.613 1.344-5.5 0-4.172-.04-4.28-1.312-4.28zm92.781 0c-2.177 0-7.543 2.111-9.531 3.75-2.353 1.94-3.003 4.388-1.782 6.75.457.883 1.162 1.726 1.532 1.875 2.612 1.051 7.324-.2 9.656-2.531 1.199-1.199 1.344-1.72 1.344-5.563 0-4.096-.045-4.28-1.219-4.28z" fill="#015095"/><path d="M115.484 86.843c-.452-.008-1.039.115-1.779.281-6.383 1.435-12.03 5.096-13.596 8.844-1.098 2.631-1.79 7.376-1.406 9.781l.344 2.063 2.25-.25c7.413-.836 14.58-8.772 15.438-17.094.273-2.647.11-3.602-1.25-3.625zm-.53 19.094c-2.8.05-5.865.642-9.436 1.75-2.933.909-6.263 1.642-7.815 1.756.486 6.6-.684 13.165.518 19.34.482.016.894-.318 1.513-1.002 2.605-2.878 8.16-3.574 11.376-1.408 8.02 5.405 4.182 15.914-9.188 25.156-2.202 1.522-4.094 2.781-4.219 2.781v17.506a42.154 42.154 0 0 1 7.375.746c5.987 1.146 8.497 1.029 11.69-.562 7.747-3.86 17.406-20.097 19.966-33.594 2.504-13.197-.312-22.1-8.812-28.063-4.38-3.072-8.3-4.49-12.969-4.406z" fill="#d9001d"/><path d="M85.424 92.744a5.002 5.002 0 0 0-.377.005c-.664.049-.785.41-.904 1.657-.403 4.219 3.38 9.835 8.125 12.062 3.659 1.717 4.198 1.503 4.404-1.687.221-3.411-.58-6.09-2.404-7.938-1.674-1.695-6.017-3.81-8.346-4.062a5.002 5.002 0 0 0-.498-.037zm-4.434 13.39c-4.455-.087-8.392 1.218-12.568 3.99-5.69 3.778-8.74 8.6-9.812 15.532-1.575 10.185 3.178 25.801 11.408 37.406 3.949 5.57 7.538 8.636 11.404 9.813 2.015.613 3.23.553 7.75-.313a42.154 42.154 0 0 1 8.531-.746V154.31c-.823 0-8.648-6.051-11.31-8.75-5.575-5.65-7.547-12.194-4.875-16.125 1.998-2.94 4.844-4.526 7.779-4.625 2.283-.076 4.614.735 6.625 2.5 1.124.987 1.756 1.454 2.299 1.473-1.202-6.175-.032-12.74-.518-19.34-.143.01-.295.024-.406.023-1.31-.005-4.72-.764-7.562-1.685-3.211-1.04-6.071-1.594-8.745-1.647z" fill="#52a129"/></svg>