<svg width="200" height="200" fill="none" xmlns="http://www.w3.org/2000/svg"><path fill="none" d="M0 0h200v200H0z"/><path fill="none" d="M0 56h200v88H0z"/><path fill="none" d="M0 56h200v88H0z"/><path d="M72.846 56c-11.262 0-19.099 8.764-19.099 19.993 0 4.261 1.134 8.164 3.15 11.371 5.743-.17 11.633-.154 17.638.06 4.521.162 9.098.433 13.69.768 2.363-3.354 3.717-7.559 3.717-12.199C91.942 64.764 84.108 56 72.846 56zm-71.484.822v46.157c3.69-3.34 7.948-5.982 12.729-8.076V73.804l5.252 19.082c3.8-1.274 7.874-2.282 12.215-3.075l4.57-16.007v15.27a166.74 166.74 0 0 1 8.906-1.042c1.254-.114 2.548-.181 3.824-.27v-30.94H30.742l-5.63 20.816-5.634-20.816H1.362zm95.446 0V88.9c2.945.272 5.89.563 8.825.885 1.308.144 2.605.307 3.908.459V78.186l6.285 12.823c5.509.701 10.934 1.46 16.237 2.252V56.822h-12.729v16.982l-8.325-16.982h-14.2zm39.165 0V69.42h9.305v25.92c4.415.717 8.644 1.416 12.73 2.114V69.42h9.305V56.822h-31.34zm35.241 0v42.893c12.738 2.187 22.739 3.826 27.421 3.923V93.012h-14.688v-5.67h12.732V76.385h-12.732v-5.674h13.709v-13.89h-26.442zM72.846 69.42c2.938 0 5.387 2.74 5.387 6.573 0 3.835-2.449 6.574-5.387 6.574-2.938 0-5.387-2.74-5.387-6.574 0-3.834 2.449-6.573 5.387-6.573zm-5.987 23.374c-1.586-.016-3.14.005-4.703.018 2.975 2.008 6.602 3.175 10.69 3.175 3.69 0 7-.954 9.8-2.614-5.338-.318-10.62-.526-15.787-.579z" fill="#000"/><path d="M66.86 92.794a249.17 249.17 0 0 0-8.438.07v16.683h16.197l-17.605 17.947v15.641h41.553v-15.641H80.255l17.605-17.947V94.566c-10.48-1.004-20.956-1.668-31-1.771zm-28.123 1.568c-8.957 1.316-17.554 3.6-24.72 6.671L0 143.135h20.423l1.408-5.775h9.155l1.41 5.775H52.82s-13.343-46.22-14.083-48.773zm67.537 1.083v28.92c0 11.549 9.86 19.635 23.945 19.635 14.086 0 23.945-8.086 23.945-19.635v-21.934a1272.2 1272.2 0 0 0-18.311-2.988v24.922c0 3.176-2.465 5.198-5.634 5.198-3.169 0-5.633-2.022-5.633-5.198V97.801c-6.024-.85-12.121-1.66-18.312-2.356zm56.397 8.434v39.256H200v-13.283h-19.018v-22.853c-5.403-.884-11.447-1.936-18.311-3.12zM26.41 117.725l2.465 10.394h-4.93l2.465-10.394z" fill="#000"/><path d="M74.536 87.425c-10.228-.365-20.187-.235-29.5.607-18.629 1.684-33.613 5.621-44.01 15.24l-.074 5.747c8.886-8.22 26.565-13.834 44.583-15.463 18.018-1.63 38.945-.517 59.49 1.743 20.546 2.26 40.716 5.66 57.33 8.524 16.614 2.865 29.442 5.222 36.298 5.361l-.011-5.545c-5.627-.114-18.711-2.418-35.343-5.285-16.632-2.868-36.912-6.284-57.666-8.567-10.377-1.142-20.869-1.996-31.097-2.362z" fill="url(#paint0_radial)"/><defs><radialGradient id="paint0_radial" cx="0" cy="0" r="1" gradientUnits="userSpaceOnUse" gradientTransform="rotate(89.4 -11.887 79.544) scale(14.6623 109.895)"><stop stop-color="#00C300"/><stop offset="1" stop-color="green"/></radialGradient></defs></svg>