<svg xmlns="http://www.w3.org/2000/svg" width="515.202" height="515.202" viewBox="0 0 483.002 483.002"><path d="M241.002 0H242c133.515 0 241.002 107.487 241.002 241.002V242c0 133.515-107.487 241.002-241.002 241.002h-.998C107.487 483.002 0 375.515 0 242v-.998C0 107.487 107.487 0 241.002 0z" fill-rule="evenodd"/><path d="M241.002 58a184 184 0 0 0-184 184 184 184 0 0 0 184 184 184 184 0 0 0 184-184 184 184 0 0 0-184-184zm179.63 184.29l.04 4.693-.383.002c-.047-.25-.132-.429-.254-.535-.122-.111-.295-.164-.523-.163-.596.005-1.115.312-1.557.92-.443.604-.69 1.367-.74 2.29l1.515.523c.198.065.376.116.537.15.157.035.29.052.397.051.215-.002.38-.064.49-.185.106-.122.158-.302.156-.54l.383-.004.026 3.11-.383.002a1.37 1.37 0 0 0-.408-.754c-.212-.19-.654-.406-1.323-.647l-5.851-2.066a.993.993 0 0 0-.396-.076.395.395 0 0 0-.262.088.764.764 0 0 0-.192.285l-.383.002-.035-4.182.383-.004a.686.686 0 0 0 .184.274.34.34 0 0 0 .234.1c.054-.001.113-.007.176-.016a3.52 3.52 0 0 0 .267-.077l6.153-2.14c.575-.202.945-.376 1.109-.526a.806.806 0 0 0 .258-.572l.383-.004zm-3.779 4.872l-3.295 1.036 2.647.937a5.23 5.23 0 0 1 .219-1.07 3.8 3.8 0 0 1 .43-.903zm-.908 4.4c.208-.005.418.003.63.02a4.08 4.08 0 0 1 1.638.48 3.77 3.77 0 0 1 1.256 1.098c.313.431.526.902.64 1.414.11.508.13 1.168.063 1.975l-.436 5.15-.38-.033c-.024-.258-.112-.44-.264-.547-.158-.107-.521-.186-1.092-.234l-5.553-.469c-.57-.048-.94-.033-1.11.047-.172.08-.293.246-.359.496l-.38-.031.36-4.275a6.798 6.798 0 0 1 .391-1.834 4.982 4.982 0 0 1 2.797-2.877 5.13 5.13 0 0 1 1.8-.38zm-.553 2.973c-.794.03-1.5.21-2.117.541-.823.438-1.263 1.004-1.322 1.7-.023.276.04.48.191.61.147.124.452.206.916.245l4.836.408.268.024c.415.035.678 0 .79-.108.109-.107.177-.334.206-.677.066-.776-.161-1.402-.678-1.877-.52-.48-1.275-.76-2.265-.844a6.855 6.855 0 0 0-.825-.022zm-4.941 7.235l.379.049c.011.258.092.446.244.56.148.114.506.21 1.074.283l5.526.721c.568.074.94.074 1.117.002.172-.072.297-.231.375-.478l.379.048-.537 4.121-.381-.048c-.012-.26-.09-.445-.239-.559-.152-.115-.512-.209-1.08-.283l-5.525-.72c-.568-.075-.937-.077-1.11-.005-.176.072-.303.231-.38.479l-.381-.05.539-4.12zm3.072 5.328l.363.064c.006.297.086.516.239.657.152.14.497.258 1.035.353l1.896.338c.538.096.9.105 1.086.03.187-.081.337-.26.446-.542l.336.059-.354 1.99c-.079.445-.153.942-.223 1.488-.07.547-.113.868-.13.965-.296 1.662-.978 2.891-2.047 3.688-1.07.796-2.379 1.057-3.93.781-1.344-.239-2.321-.815-2.932-1.728-.61-.914-.792-2.07-.543-3.471.076-.428.206-.893.391-1.397.181-.508.284-.824.305-.943.02-.119.02-.253-.004-.402a3.04 3.04 0 0 0-.16-.56l3.056.112-.058.325c-.677.252-1.196.564-1.557.931-.36.364-.586.81-.68 1.338-.14.793.022 1.466.487 2.022.465.55 1.171.911 2.119 1.08 1.163.206 2.18.127 3.049-.237.865-.369 1.363-.914 1.492-1.636.066-.37.025-.645-.121-.82-.146-.177-.512-.316-1.098-.42l-1.316-.233c-.538-.095-.903-.105-1.094-.025-.192.08-.341.259-.45.535l-.363-.065.76-4.277zm.033 10.504l3.373 2.002a.99.99 0 0 0-.181.246c-.045.09-.09.232-.135.424l-1.55 6.52-.372-.089c.016-.258-.045-.453-.18-.582-.139-.13-.487-.26-1.044-.392l-5.422-1.29c-.558-.132-.925-.17-1.104-.117-.183.054-.325.198-.428.436l-.373-.088 1.463-6.154c.045-.187.06-.348.047-.485a.622.622 0 0 0-.133-.341l3.254-.022-.03.365c-.709.113-1.285.383-1.731.811-.451.426-.763.998-.934 1.717-.085.357-.075.618.03.781.099.162.368.294.808.398l.922.22.178-.75c.111-.471.116-.805.015-.999-.105-.195-.353-.365-.742-.508l.064-.267 3.547.236v.283c-.613.043-1.062.18-1.351.41-.29.23-.497.607-.621 1.13l-.165.685 2.94.7c.51.12.868.12 1.076 0 .21-.126.369-.415.477-.868a3.153 3.153 0 0 0-.194-2.088c-.302-.665-.853-1.33-1.652-1.994l.148-.33zm-7.75 7.697l3.239.27-.047.392c-.698.01-1.264.167-1.697.469-.434.302-.737.749-.91 1.342l-.051.174 5.843 1.712c.619.182 1.04.243 1.268.184.227-.06.397-.244.506-.553l.367.108-1.281 4.369-.368-.108c.068-.325.025-.574-.13-.746-.158-.177-.544-.355-1.159-.535l-5.843-1.713-.05.168c-.174.597-.162 1.139.04 1.627.202.489.594.926 1.176 1.31l-.172.348-2.875-1.5a.808.808 0 0 0 .19-.216c.046-.08.089-.19.13-.332l1.799-6.135c.042-.142.065-.258.068-.35a.806.806 0 0 0-.043-.285zm.364 8.967a4.808 4.808 0 0 1 1.883.289c1.282.454 2.196 1.281 2.74 2.48.541 1.194.579 2.45.111 3.77-.466 1.316-1.286 2.272-2.459 2.863-1.176.586-2.405.652-3.687.198-1.283-.454-2.197-1.28-2.743-2.475-.548-1.2-.589-2.459-.123-3.775.466-1.317 1.29-2.27 2.471-2.858a4.565 4.565 0 0 1 1.807-.492zm-.909 2.795a4.573 4.573 0 0 0-.683.031c-.868.106-1.41.458-1.621 1.057-.19.536-.097 1.042.281 1.517.375.47.993.858 1.854 1.162 1.223.433 2.27.596 3.138.49.866-.11 1.406-.47 1.621-1.078.188-.531.094-1.032-.28-1.501-.376-.47-.995-.858-1.86-1.165-.915-.323-1.732-.494-2.45-.513zm-4.4 6.34c.202-.004.418.043.649.14a1.9 1.9 0 0 1 .939.848c.218.393.383.984.492 1.773a8.59 8.59 0 0 1 1.778-.394 17.049 17.049 0 0 1 2.369-.11l.072.002c.87.012 1.4-.14 1.59-.453l.351.149-1.66 3.941-.353-.148c-.005-.196-.03-.34-.078-.434a.488.488 0 0 0-.258-.219c-.343-.144-.9-.181-1.672-.113a7.718 7.718 0 0 0-2.246.524l-.055.545 2.246.947c.528.222.885.323 1.074.3.185-.023.348-.145.489-.363l.353.149-1.615 3.83-.352-.149c.058-.252.03-.454-.082-.603-.116-.151-.436-.336-.964-.559l-5.137-2.164c-.528-.222-.884-.323-1.069-.299-.189.023-.353.144-.494.362l-.353-.149 2.506-5.947c.262-.623.568-1.037.918-1.244.172-.105.36-.159.562-.162zm-.478 2.789a.737.737 0 0 0-.372.078c-.223.115-.414.363-.574.742-.142.338-.202.585-.176.742.023.155.19.298.504.43l2.055.867c.126-.69.101-1.274-.072-1.75-.172-.48-.479-.814-.92-1a1.281 1.281 0 0 0-.445-.11zm-2.803 5.033c.222-.006.455.051.703.172.7.34 1.126 1.025 1.277 2.055.147 1.027.016 2.397-.39 4.11l1.937.944c.632.308 1.052.439 1.26.39.206-.053.409-.243.607-.57l.344.167-1.959 4.021-.344-.168c.072-.249.055-.452-.048-.607-.108-.157-.419-.36-.934-.612l-5.01-2.44c-.515-.25-.865-.369-1.05-.355-.19.012-.362.123-.514.332l-.344-.166 2.566-5.27c.453-.929.876-1.528 1.27-1.794.197-.133.407-.203.629-.21zm-.65 2.871a.744.744 0 0 0-.38.078c-.238.113-.452.36-.638.742-.165.338-.231.587-.2.746.032.16.212.32.538.479l1.931.941c.063-.875.031-1.528-.093-1.957-.129-.43-.373-.733-.73-.908a1.115 1.115 0 0 0-.428-.121zm-6.153 8.84l.328.197c-.092.242-.092.446.002.611.09.164.381.392.873.686l4.785 2.857c.492.294.834.443 1.024.448.186.002.364-.095.533-.291l.328.195-2.226 3.73-.328-.197c.142-.29.161-.536.062-.736-.103-.203-.437-.471-1.002-.809l-4.334-2.59 3.09 4.858-5.752-.479 4.37 2.61c.552.33.946.493 1.177.49.233-.007.446-.145.639-.416l.328.197-1.383 2.317-.328-.196c.092-.242.092-.446.002-.61-.094-.165-.387-.393-.88-.687l-4.782-2.857c-.492-.294-.831-.441-1.018-.443-.19-.004-.37.09-.54.287l-.327-.196 2.299-3.851.328.197a.514.514 0 0 0 .013.25.331.331 0 0 0 .145.164c.035.02.097.042.184.063.083.018.189.035.32.05l2.144.272-1.177-1.89-.01-.022c-.13-.219-.23-.35-.3-.39a.322.322 0 0 0-.222-.048.44.44 0 0 0-.23.098l-.328-.197 2.193-3.672zm-6.594 10.273l3.047 1.145-.16.33c-.701-.148-1.336-.103-1.906.137-.574.237-1.068.661-1.485 1.271-.206.303-.29.55-.251.738.035.187.24.408.613.663l.781.533.436-.637c.272-.4.396-.708.37-.926-.028-.22-.199-.465-.511-.738l.154-.229 3.229 1.487-.1.265c-.588-.178-1.057-.211-1.41-.1-.353.113-.68.39-.982.833l-.397.582 2.494 1.703c.433.295.769.423 1.006.385.24-.042.492-.256.754-.64a3.153 3.153 0 0 0 .564-2.02c-.044-.73-.32-1.546-.83-2.452l.256-.257 2.438 3.076a.988.988 0 0 0-.26.166 2.165 2.165 0 0 0-.277.347l-3.776 5.536-.316-.217c.107-.236.121-.437.04-.606-.083-.17-.362-.417-.835-.74l-4.604-3.14c-.473-.323-.804-.491-.99-.504-.19-.016-.374.068-.555.253l-.316-.214 3.563-5.225c.108-.159.18-.305.216-.437a.624.624 0 0 0 0-.368zm-5.486 7.928l2.658 1.51-.2.262c-.718-.089-1.322-.055-1.811.105a2.468 2.468 0 0 0-1.223.873c-.491.639-.658 1.312-.502 2.02.159.703.62 1.348 1.383 1.935.936.72 1.873 1.12 2.812 1.2.938.072 1.63-.183 2.078-.764.23-.298.32-.56.272-.784-.048-.223-.308-.515-.78-.878l-1.058-.815c-.433-.333-.752-.51-.959-.527-.207-.018-.423.07-.647.265l-.29-.224 2.648-3.444.293.227c-.131.266-.162.496-.092.691.07.196.321.458.754.791l1.527 1.176c.433.333.75.509.95.528.203.015.418-.077.644-.276l.272.21-1.233 1.6c-.276.359-.57.765-.885 1.217-.314.453-.502.717-.562.795-1.03 1.338-2.202 2.114-3.518 2.327-1.316.213-2.599-.16-3.847-1.122-1.082-.832-1.683-1.794-1.803-2.886-.12-1.092.255-2.202 1.123-3.33a8.35 8.35 0 0 1 .992-1.059c.396-.367.63-.597.703-.693a1.23 1.23 0 0 0 .184-.36c.048-.143.087-.333.117-.57zm-5.041 6.807l.291.246c-.13.224-.162.425-.096.603.063.176.313.449.75.819l4.256 3.597c.438.37.75.57.938.606.183.032.375-.033.574-.2l.29.247-2.68 3.173-.294-.246c.13-.223.166-.423.104-.6-.066-.178-.318-.452-.756-.821l-4.256-3.596c-.437-.37-.748-.571-.932-.604-.187-.035-.38.03-.58.196l-.293-.246 2.684-3.174zm-3.162 4.627c.292.019.577.155.853.41a1.9 1.9 0 0 1 .596 1.117c.072.444.025 1.054-.14 1.834a8.585 8.585 0 0 1 1.806.232 17.04 17.04 0 0 1 2.266.702l.066.027c.814.306 1.363.343 1.649.113l.28.26-2.9 3.143-.28-.26c.061-.186.087-.33.073-.434a.49.49 0 0 0-.17-.293c-.273-.252-.784-.478-1.533-.676a7.722 7.722 0 0 0-2.29-.27l-.237.495 1.791 1.654c.421.389.725.604.91.647.182.04.376-.019.582-.176l.281.26-2.818 3.054-.281-.26c.14-.217.183-.415.129-.593-.058-.181-.298-.467-.72-.856l-4.095-3.779c-.42-.388-.722-.602-.904-.642-.186-.044-.382.014-.588.171l-.281-.26 4.375-4.741c.458-.497.888-.784 1.287-.86.099-.02.196-.026.293-.02zm-1.483 2.466c-.248.033-.513.2-.792.502-.25.27-.388.483-.416.64-.032.152.078.345.328.575l1.636 1.512c.353-.607.53-1.163.528-1.67.002-.51-.174-.927-.526-1.252-.256-.237-.509-.339-.758-.307zm-4.988 5.334c1.317-.002 2.448.488 3.393 1.467.944.98 1.393 2.128 1.344 3.444-.05 1.31-.578 2.45-1.586 3.423-1.006.97-2.165 1.457-3.479 1.461-1.314-.002-2.444-.491-3.389-1.47-.944-.98-1.393-2.127-1.347-3.44.046-1.319.57-2.462 1.576-3.431 1.005-.97 2.168-1.455 3.488-1.454zm-1.949 2.02c-.32.037-.596.166-.824.387-.41.394-.551.888-.426 1.482.125.588.505 1.21 1.139 1.867.9.935 1.763 1.549 2.588 1.842.824.287 1.467.207 1.931-.24.406-.392.548-.881.422-1.469-.125-.588-.507-1.213-1.144-1.873-.898-.931-1.761-1.542-2.588-1.832-.412-.147-.778-.201-1.098-.164zm-9.53 6.588l2.6 1.96-.248.27c-.63-.34-1.252-.474-1.867-.406-.617.065-1.211.332-1.783.799-.284.232-.435.444-.451.637-.02.189.114.458.4.808l.6.733.597-.489c.375-.306.58-.567.618-.783.034-.219-.06-.503-.282-.853l.213-.174 2.676 2.34-.17.226c-.513-.338-.954-.503-1.324-.496-.37.007-.764.182-1.18.522l-.545.445 1.91 2.34c.332.405.617.624.856.654.242.028.544-.106.904-.4a3.154 3.154 0 0 0 1.113-1.778c.164-.712.13-1.575-.101-2.588l.318-.173 1.465 3.64a.998.998 0 0 0-.295.086c-.09.045-.21.13-.363.254l-5.19 4.24-.242-.297c.17-.196.24-.386.211-.57-.032-.188-.23-.504-.592-.947l-3.525-4.317c-.363-.443-.632-.696-.807-.761-.177-.07-.38-.041-.605.086l-.242-.297 4.898-4c.15-.122.26-.243.332-.36a.62.62 0 0 0 .102-.351zm-6.865 7.045a4.974 4.974 0 0 1 2.364.549 5.185 5.185 0 0 1 1.861 1.603c.352.485.588 1.002.705 1.553a3.767 3.767 0 0 1-.01 1.668 3.76 3.76 0 0 1-.652 1.41c-.313.415-.798.86-1.453 1.336l-4.184 3.037-.225-.31c.18-.187.261-.372.243-.557-.022-.19-.199-.515-.535-.979l-3.274-4.51c-.336-.463-.59-.733-.762-.808-.173-.079-.376-.06-.609.053l-.225-.31 3.473-2.52a6.793 6.793 0 0 1 1.643-.903 4.938 4.938 0 0 1 1.64-.312zm-1.767 1.713a1.751 1.751 0 0 0-.961.334c-.225.163-.336.344-.336.543.001.192.139.476.412.853l2.852 3.93.158.217c.244.336.443.512.598.527.152.011.367-.085.646-.287.63-.458.957-1.037.979-1.738.022-.708-.259-1.464-.842-2.268-.67-.924-1.444-1.553-2.317-1.887-.434-.168-.83-.243-1.19-.224zm-10.51 6.267c.316.01.636.053.957.127 1.284.293 2.277 1.022 2.979 2.188.701 1.165.88 2.384.539 3.656-.34 1.265-1.11 2.26-2.31 2.982-1.197.72-2.438.936-3.72.647-1.28-.295-2.27-1.026-2.972-2.192-.702-1.165-.883-2.383-.545-3.652.34-1.275 1.108-2.274 2.305-2.994.897-.54 1.82-.794 2.767-.762zm-10.568 1.39c.171.604.21 1.091.119 1.464-.09.366-.318.645-.682.838-.063.033-.13.064-.2.091a1.34 1.34 0 0 1-.198.059l-.799.172a2.788 2.788 0 0 0-.244.068.85.85 0 0 0-.125.051.603.603 0 0 0-.31.346c-.048.141-.042.314.017.521l-.5.264c-.175-.59-.217-1.075-.127-1.451a1.25 1.25 0 0 1 .672-.856 1.47 1.47 0 0 1 .222-.095c.082-.028.174-.054.278-.078l.816-.196.194-.049a.96.96 0 0 0 .091-.04.541.541 0 0 0 .282-.301c.043-.13.045-.312.006-.55l.488-.257zm9.172.268c-.32-.035-.617.03-.889.194-.487.293-.736.742-.746 1.35-.01.6.222 1.293.693 2.076.67 1.112 1.372 1.902 2.11 2.373.739.464 1.385.53 1.937.197.483-.291.73-.737.738-1.338.01-.601-.222-1.294-.695-2.08-.667-1.108-1.372-1.897-2.113-2.365-.369-.235-.715-.37-1.035-.407zm-7.565 2.893l.178.338a.687.687 0 0 0-.158.289.335.335 0 0 0 .021.254c.025.047.055.097.092.148.041.05.105.117.191.203l4.729 4.48c.444.42.769.668.976.745a.806.806 0 0 0 .627-.035l.18.34-4.15 2.191-.178-.34c.2-.156.319-.311.357-.468.043-.16.011-.342-.095-.543-.278-.527-.788-.846-1.532-.96-.739-.115-1.53.016-2.373.395l.23 1.588c.034.205.073.388.116.547.042.155.087.28.137.375.1.19.23.305.389.348.157.038.34.003.55-.108l.178.338-2.748 1.451-.178-.338c.248-.201.409-.439.483-.71.072-.277.06-.767-.034-1.471l-.855-6.147a1.168 1.168 0 0 0-.113-.387.403.403 0 0 0-.2-.191.753.753 0 0 0-.34-.041l-.179-.338 3.7-1.953zm-1.662 3.193l.383 2.782a5.284 5.284 0 0 1 1.05-.297 3.808 3.808 0 0 1 1-.033l-2.433-2.452zm-5.353.133l2.244 3.024-.393.271c-.788-.607-1.446-.984-1.976-1.129a2.184 2.184 0 0 0-1.55.121c-.67.31-1.097.811-1.28 1.502-.182.685-.084 1.435.292 2.252.486 1.053 1.174 1.804 2.065 2.25.893.44 1.766.464 2.619.07.557-.256.973-.625 1.244-1.105.27-.484.395-1.08.38-1.787l.362-.065.303 3.159a3.08 3.08 0 0 0-.392.078 2.764 2.764 0 0 0-.354.133c-.163.075-.449.244-.86.507a8.3 8.3 0 0 1-1.003.578l.236.516a4.565 4.565 0 0 1 .453-.27c.317-.146.621-.167.91-.064.29.103.504.31.647.62.157.34.164.674.017.997-.146.324-.418.576-.812.758-.28.13-.588.226-.924.287-.334.066-.807.108-1.414.127l-.002-.761c.345.032.66.03.943-.006.286-.034.54-.1.764-.204a.53.53 0 0 0 .287-.289.457.457 0 0 0-.012-.394c-.076-.167-.181-.27-.314-.313-.131-.038-.288-.016-.47.069a2.791 2.791 0 0 0-.321.2.169.169 0 0 0-.041.026l-.502-1.09c-1.248.459-2.445.507-3.582.09-1.299-.475-2.275-1.421-2.93-2.84-.598-1.296-.68-2.443-.248-3.441.432-.998 1.37-1.83 2.813-2.496.325-.15.714-.303 1.17-.46.457-.16.742-.267.851-.317.114-.053.233-.127.356-.223.127-.098.268-.226.424-.381zm-9.325 4.463l.141.356a.682.682 0 0 0-.188.27.34.34 0 0 0-.008.255c.02.05.047.103.079.158.035.053.091.126.168.22l4.218 4.964c.397.464.694.744.893.843a.805.805 0 0 0 .627.034l.14.355-4.359 1.735-.143-.356c.217-.134.354-.278.409-.43.059-.153.047-.336-.037-.548-.22-.554-.695-.927-1.422-1.12-.723-.194-1.522-.148-2.4.14l.058 1.6c.01.208.028.394.055.557.024.16.058.29.097.389.08.2.196.33.35.389.152.055.338.038.559-.05l.14.356-2.889 1.149-.01-.026-2.527.852-.123-.363c.306-.117.494-.26.565-.43.068-.174.03-.474-.112-.899l-.1-.298-6.564-3.743 1.744 5.186c.206.61.397.99.575 1.139.181.146.433.18.755.1l.121.363-2.556.859-.123-.361c.227-.124.36-.279.398-.461.037-.187-.036-.551-.219-1.094l-1.777-5.283c-.182-.543-.344-.876-.484-.998-.142-.127-.342-.172-.598-.133l-.121-.361 4.887-1.645.123.363a.603.603 0 0 0-.17.235.313.313 0 0 0-.01.222.57.57 0 0 0 .137.196c.075.069.157.128.25.177l2.306 1.3-.447-1.33c-.183-.544-.344-.876-.484-.999-.138-.128-.334-.174-.59-.135l-.121-.363 2.373-.797.12.361c-.227.124-.357.28-.394.467-.037.183.034.545.217 1.088l1.775 5.283c.183.543.347.877.489 1.004.14.123.337.166.593.127l.002.006c.243-.168.418-.372.514-.619.101-.266.143-.756.125-1.467l-.19-6.203a.978.978 0 0 0-.072-.396.406.406 0 0 0-.177-.213.758.758 0 0 0-.334-.076l-.141-.356 3.887-1.545zm-1.994 2.996l.082 2.807a5.276 5.276 0 0 1 1.076-.182c.34-.02.673.004.998.072l-2.156-2.697zm-13.521 2.531l.105.368c-.233.113-.371.264-.416.449-.045.18.011.545.17 1.096l1.547 5.355c.159.55.307.89.443 1.023.135.13.33.18.588.153l.108.367-3.995 1.154-.105-.369c.233-.114.372-.26.418-.441.044-.185-.013-.553-.172-1.104l-1.547-5.353c-.159-.55-.306-.891-.441-1.02-.136-.133-.332-.184-.59-.156l-.107-.37 3.994-1.152zm-4.764 1.434l.09.373c-.238.103-.384.245-.438.428-.054.178-.015.546.118 1.103l1.287 5.422c.132.558.263.906.392 1.045.129.135.324.195.582.18l.088.373-4.226 1.002-.088-.371c.307-.1.498-.256.572-.467.073-.215.033-.643-.12-1.283l-1.165-4.912-1.326 5.6-3.668-4.458 1.175 4.951c.15.627.306 1.024.47 1.188.167.163.415.218.743.168l.088.373-2.627.623-.088-.373c.238-.103.384-.244.438-.422.053-.183.015-.552-.117-1.11l-1.287-5.421c-.133-.558-.264-.904-.393-1.04-.13-.139-.323-.2-.582-.185l-.088-.373 4.363-1.035.088.371a.519.519 0 0 0-.17.186.334.334 0 0 0-.017.218c.009.04.038.098.084.174.044.072.107.16.187.266l1.299 1.726.537-2.162.008-.023c.066-.246.09-.408.07-.486a.32.32 0 0 0-.12-.192.442.442 0 0 0-.231-.098l-.088-.37 4.16-.989zm-14.484 3.05a4.74 4.74 0 0 1 2.695.847c1.09.738 1.752 1.778 1.982 3.119.231 1.34-.044 2.542-.824 3.603-.776 1.056-1.855 1.702-3.236 1.94-1.376.237-2.61-.012-3.7-.746-1.085-.74-1.743-1.78-1.974-3.122-.23-1.34.043-2.541.818-3.601.78-1.065 1.859-1.716 3.235-1.953a5.62 5.62 0 0 1 1.004-.086zm-6.274 1.161l.043.379c-.248.073-.41.198-.484.373-.075.17-.08.54-.016 1.11l.627 5.536c.065.57.152.932.264 1.086.111.15.298.233.557.248l.043.381-2.684.303-.043-.38c.323-.051.538-.15.642-.302.104-.156.13-.457.08-.902l-.035-.313-5.63-5.039.615 5.438c.072.64.18 1.052.322 1.234.147.182.387.267.719.256l.043.381-2.684.303-.043-.38c.249-.072.411-.196.487-.366.074-.175.08-.546.015-1.116l-.627-5.537c-.064-.569-.152-.928-.263-1.078-.113-.154-.299-.24-.557-.256l-.043-.38 5.123-.58.043.38a.6.6 0 0 0-.215.194.315.315 0 0 0-.057.216c.007.058.04.13.094.22.06.083.127.158.207.226l1.983 1.754-.157-1.393c-.064-.57-.154-.93-.265-1.08-.108-.155-.29-.238-.55-.254l-.042-.38 2.488-.282zm5.783.11a1.39 1.39 0 0 0-.459.005c-.56.097-.955.425-1.185.987-.227.556-.264 1.285-.11 2.185.22 1.28.59 2.273 1.106 2.979.52.7 1.1.996 1.734.886.556-.095.948-.421 1.174-.978.227-.557.261-1.287.106-2.191-.22-1.275-.589-2.266-1.11-2.971-.387-.53-.806-.83-1.256-.903zm-16.267.714l.955 3.112-.357.076c-.312-.646-.736-1.121-1.274-1.426-.538-.31-1.177-.444-1.914-.4-.366.02-.612.105-.738.251-.126.142-.177.44-.15.891l.056.945.77-.046c.482-.029.801-.117.958-.27.157-.157.249-.443.274-.857l.275-.016.793 3.463-.27.084c-.217-.575-.479-.967-.782-1.178-.304-.21-.724-.3-1.26-.27l-.703.042.175 3.015c.031.523.135.867.311 1.031.18.165.502.233.967.206a3.15 3.15 0 0 0 1.943-.786c.55-.48 1.03-1.2 1.436-2.156l.359.047-.95 3.809a.985.985 0 0 0-.286-.106 2.21 2.21 0 0 0-.446-.006l-6.69.39-.02-.382c.252-.06.419-.172.503-.338.085-.17.11-.543.077-1.115l-.325-5.563c-.033-.572-.102-.936-.205-1.091-.103-.16-.283-.254-.54-.284l-.024-.382 6.314-.37c.192-.01.352-.043.479-.095a.62.62 0 0 0 .289-.225zm-13.069.74c.69 0 1.311.075 1.862.23a4.977 4.977 0 0 1 3.105 2.541 5.21 5.21 0 0 1 .569 2.39c0 .6-.113 1.156-.34 1.671a3.766 3.766 0 0 1-.987 1.344c-.402.35-.852.604-1.353.762-.497.153-1.15.231-1.961.232l-5.17.008v-.382c.255-.046.43-.15.524-.311.093-.166.14-.535.138-1.107l-.01-5.573c0-.573-.048-.94-.142-1.101-.095-.166-.269-.27-.524-.315v-.383l4.29-.006zm-.039 1c-.277 0-.473.081-.59.243-.111.156-.166.468-.165.933l.008 4.854v.27c0 .416.059.676.175.779.117.098.347.147.692.146.779-.001 1.383-.28 1.812-.836.433-.56.648-1.338.647-2.332-.002-1.141-.258-2.102-.77-2.885-.507-.782-1.11-1.173-1.808-1.172z" fill="#00854e"/><path d="M244.248 20.069l-.047 1.236c.274.038.46.141.564.31a.856.856 0 0 1 .229.504l-.002.082-.002.041a1.34 1.34 0 0 1-.1.41 2.335 2.335 0 0 1-.138.407.46.46 0 0 1-.05.205.371.371 0 0 0-.048.164l-.178.322c-.03.082-.06.15-.09.203l-7.35 17.053c-.307.841-.732 1.485-1.273 1.932-.512.448-1.06.758-1.644.927a.312.312 0 0 0-.125.036.118.118 0 0 1-.082-.043l-.047 1.195 8.74.34.043-1.154c-.577-.023-1.067-.124-1.472-.305-.378-.207-.555-.614-.532-1.219.004-.11.022-.233.055-.369a3.81 3.81 0 0 1 .143-.45l.002-.04.002-.082a.371.371 0 0 0 .048-.164.453.453 0 0 0 .05-.203l2.023-5.33-.002.04a.92.92 0 0 1 .29-.029c.112-.023.22-.033.33-.03a.92.92 0 0 1 .292-.028l.287.011.248.01c.11.004.206.02.287.051a6.053 6.053 0 0 1 1.633.477c.568.242 1.081.496 1.539.761.27.148.512.296.726.442.242.147.457.279.645.396.482.35.92.779 1.312 1.29a7.22 7.22 0 0 1 .93 1.564c.1.279.17.557.215.834.072.278.103.54.094.787-.018.467-.2.886-.545 1.258-.345.372-.888.558-1.631.556l-.047 1.196 13.355.52.045-1.155c-.604-.024-1.08-.194-1.425-.51-.317-.342-.61-.904-.883-1.685.002-.055-.01-.097-.037-.125a.692.692 0 0 0-.033-.21L255 23.832a4.03 4.03 0 0 0-.07-.293.916.916 0 0 0-.03-.29 3.854 3.854 0 0 1-.107-.458 1.759 1.759 0 0 1-.028-.332.672.672 0 0 1 .225-.487c.171-.158.41-.246.713-.262l.045-1.195-11.5-.445zm-18.7.218l-12.267 1.616.162 1.226c1.036-.136 1.721.024 2.059.479.337.455.543.968.619 1.54l.441 3.354-7.443.98-.436-3.312a4.52 4.52 0 0 1 .07-1.674c.154-.52.816-.87 1.985-1.052l-.156-1.186-12.596 1.66.16 1.227c1.036-.137 1.678.097 1.924.703.27.575.454 1.23.55 1.967l2.22 16.85c.118.9.119 1.634 0 2.204-.092.567-.658.905-1.698 1.014l.157 1.186 12.595-1.659-.15-1.146c-.873.115-1.5-.009-1.881-.375a3.042 3.042 0 0 1-.715-1.32 3.02 3.02 0 0 1-.105-.487l-.07-.53-1.542-11.698 7.444-.98 1.547 11.738.064.49c.022.163.03.329.023.496.01.498-.119.987-.388 1.467-.246.448-.808.715-1.684.802l.156 1.188 12.27-1.617-.15-1.145c-.764.1-1.27-.055-1.518-.467a4.573 4.573 0 0 1-.527-1.468l-.034-.246-.043-.327-2.326-17.668-.054-.408a2.802 2.802 0 0 1-.018-.457c.004-.389.095-.747.273-1.076.203-.36.615-.593 1.239-.703l-.157-1.186zm21.489 5.586l2.348 8.637a22.9 22.9 0 0 0-.885-.613 12.243 12.243 0 0 0-.807-.485 8.485 8.485 0 0 0-1.467-.511 15.673 15.673 0 0 0-1.84-.444l2.65-6.584zm-60.004.514c-.08.398-.267.728-.56.99a3.19 3.19 0 0 1-1.045.533c-.395.12-.857.205-1.39.252a50.39 50.39 0 0 0-1.753.19c-.619.045-1.295.136-2.03.273-.715.104-1.455.272-2.218.504-3.266 1.168-5.615 2.66-7.045 4.477-1.412 1.781-2.314 3.536-2.707 5.265-.344 1.514-.43 2.879-.262 4.092.16 1.187.302 1.979.422 2.373 1.398 3.455 3.15 5.852 5.256 7.194 2.124 1.307 4.221 2.062 6.295 2.263 1.589.12 3.051.062 4.389-.174a75.869 75.869 0 0 0 3.134-.609l.79-.24a8.79 8.79 0 0 0 1.081-.416c.387-.147.768-.308 1.147-.48l.158-.048.158-.048c.423-.216.838-.413 1.242-.594.413-.155.804-.288 1.172-.4.448-.137.86-.192 1.243-.165.408.02.71.115.906.286l.428-8.928-1.217.111c.046 1.567-.474 3.02-1.56 4.358a8.42 8.42 0 0 1-4.09 2.712l-.67.206a5.365 5.365 0 0 1-.708.085c-1.745.216-3.576-.174-5.49-1.171-1.922-1.024-3.588-2.904-4.996-5.637a6.66 6.66 0 0 0-.346-.713 7.894 7.894 0 0 1-.267-.738c-.682-2.236-.564-4.342.357-6.319.947-1.985 2.342-3.259 4.184-3.82a5.495 5.495 0 0 1 1.14-.219 4.54 4.54 0 0 1 1.202-.021c1.259.076 2.59.532 3.996 1.369 1.397.81 2.778 2.086 4.142 3.826l.783-.54-5.271-10.079zm108.914.086l-.385 1.176c.724.353 1.164.73 1.323 1.129.158.399.194.772.109 1.12-.017.14-.042.261-.076.366l-.09.273-5.58 17.012c-.043.13-.116.309-.219.535-.069.21-.18.42-.336.63-.19.313-.476.566-.857.759-.382.193-.856.183-1.422-.031l-.373 1.136 15.195 5.028c3.789 1.243 6.996 1.035 9.623-.621 2.636-1.683 4.421-3.947 5.356-6.795a4.09 4.09 0 0 0 .14-.563l.194-.588c.707-3.038.299-6.167-1.221-9.386-1.485-3.237-4.405-5.584-8.76-7.041l-.273-.09-12.348-4.049zm10.078 6.463c.272.01.559.063.86.162.365.12.736.314 1.11.582a5.15 5.15 0 0 1 1.114.973c.883 1.013 1.512 2.493 1.887 4.439.374 1.946.083 4.384-.877 7.31-.617 1.882-1.603 3.295-2.955 4.24-1.344.92-2.659 1.443-3.945 1.571a4.849 4.849 0 0 1-1.225.033 4.592 4.592 0 0 1-1.02-.205c-.653-.214-1.15-.594-1.492-1.14-.315-.538-.345-1.199-.088-1.983l4.899-14.933c.154-.47.474-.785.96-.944.244-.08.5-.115.772-.105zm-156.113 8.09c-2.11.024-4.134.462-6.072 1.312l-.332.164-.295.149-.332.166-.297.146c-2.966 1.632-5.225 4.032-6.78 7.203-1.554 3.171-1.393 6.64.483 10.407l.02.035c1.925 3.864 4.67 6.139 8.236 6.82 3.578.645 6.946.254 10.11-1.168l.222-.11.295-.146c3.15-1.57 5.552-3.935 7.205-7.094 1.677-3.17 1.57-6.65-.319-10.441-1.962-3.938-4.713-6.284-8.254-7.039a17.662 17.662 0 0 0-3.89-.404zm186.943 2.32a17.87 17.87 0 0 0-2.572.238c-3.484.573-6.217 2.716-8.197 6.428l-.02.037c-2.032 3.81-2.291 7.364-.78 10.664 1.55 3.289 3.823 5.809 6.815 7.56l.217.118.291.154c3.106 1.657 6.426 2.243 9.957 1.758 3.556-.472 6.33-2.576 8.322-6.313 2.071-3.882 2.388-7.485.95-10.808-1.438-3.323-3.611-5.852-6.518-7.59l-.326-.176-.291-.154-.328-.174-.291-.156a15.757 15.757 0 0 0-7.229-1.586zm-191 2.379c.971.029 2.056.39 3.254 1.084 1.61.888 3.17 2.478 4.68 4.767l.164.332c.061.124.137.24.223.35l.035.074.037.074.22.444c.086.11.16.226.221.35 1.153 2.313 1.599 4.35 1.338 6.109-.236 1.746-.908 2.956-2.015 3.63-.197.099-.413.19-.647.276a6.054 6.054 0 0 1-.682.11c-1.242.158-2.67-.237-4.279-1.186-1.597-.986-3.124-2.76-4.584-5.32l.018.037c-.025-.05-.055-.08-.092-.092l-.074-.149a.316.316 0 0 0-.092-.091l-.055-.112c-1.287-2.584-1.82-4.762-1.595-6.533.236-1.807.857-3.023 1.867-3.648l.111-.057.111-.055c.148-.073.289-.129.424-.166l.48-.146c.299-.064.609-.092.932-.082zm194.93 1.85c.483-.013.93.067 1.34.24l.11.058.109.059c.145.078.272.159.38.248l.399.307c.9.823 1.438 2.154 1.611 3.992.21 1.826-.18 4.017-1.17 6.574l-.176.328a2.096 2.096 0 0 0-.158.383l-.037.074-.039.072-.234.438c-.04.134-.092.261-.157.383-1.216 2.28-2.617 3.823-4.2 4.63-1.56.82-2.936.977-4.128.465a6.383 6.383 0 0 1-.6-.367 6.083 6.083 0 0 1-.486-.492c-.849-.92-1.353-2.312-1.513-4.174-.123-1.873.436-4.146 1.675-6.82l-.019.035c.026-.048.033-.09.021-.127l.079-.146a.32.32 0 0 0 .021-.13l.059-.109c1.359-2.547 2.824-4.243 4.396-5.087 1.006-.535 1.912-.813 2.717-.834zm-220.3 9.826c-1.099.012-2.307.483-3.626 1.41L101.4 70.026l.533.734c.846-.614 1.497-.747 1.953-.398.463.31.905.755 1.325 1.334l10.511 14.49c.533.734.86 1.348.979 1.84.125.453-.245.975-1.107 1.566l.703.967 10.05-7.291-.68-.934c-.734.533-1.362.717-1.888.555a3.04 3.04 0 0 1-1.297-.943.789.789 0 0 1-.18-.178l-.193-.266-4.457-6.144.654-1.137c.407.045.92.146 1.545.305.647.142 1.335.34 2.063.593.449.15.893.322 1.336.51.465.173.919.353 1.361.541.88.416 1.668.846 2.365 1.291.72.43 1.24.868 1.563 1.313.21.289.298.598.265.927-.032.33-.227.625-.584.883l-.066.047c-.038-.006-.068 0-.09.016l-.101.072a.484.484 0 0 0-.149.006l.703.969 10.551-7.655-.678-.935-.068.049c-.022.016-.035.043-.041.082l-.033.023c-.023.016-.037.044-.043.082l-.033.026c-.334.242-.685.343-1.053.304-.384-.06-.83-.23-1.338-.508-1.053-.56-2.554-1.46-4.504-2.695-1.927-1.252-4.715-2.356-8.363-3.31.784-1.215 1.288-2.393 1.51-3.54.243-1.162.249-2.186.015-3.07a3.274 3.274 0 0 0-.252-.836 4.85 4.85 0 0 0-.441-.75c-.646-.89-1.578-1.404-2.797-1.539a3.825 3.825 0 0 0-.465-.021zm-4.636 6.27c.314.01.6.075.856.194.256.12.487.275.693.465.07.05.139.12.203.21.087.072.155.143.203.21.114.156.213.339.297.55.091.171.155.377.196.62.231 1.021.14 2.209-.272 3.56-.406 1.314-1.043 2.424-1.916 3.329a.369.369 0 0 0-.11.13c-.022.017-.053.02-.091.014l-3.73-5.14c-.404-.557-.446-1.105-.124-1.645a4.73 4.73 0 0 1 1.362-1.496l.166-.12.168-.122c.394-.252.78-.447 1.156-.584.398-.153.713-.212.943-.176zm267.479 13.013c-3.005.018-5.788 1.352-8.348 3.998l-.027.03c-3.002 3.103-4.23 6.45-3.684 10.038.585 3.588 2.076 6.635 4.471 9.143l.178.172.236.23c2.53 2.447 5.56 3.923 9.088 4.428 3.548.524 6.796-.735 9.74-3.78 3.06-3.162 4.353-6.54 3.885-10.13-.468-3.59-1.861-6.62-4.178-9.09l-.265-.258-.239-.228-.267-.26-.237-.229c-2.527-2.252-5.543-3.584-9.05-3.992a10.713 10.713 0 0 0-1.303-.072zm5.44 5.562c.913.026 1.659.27 2.238.735l.09.086.087.086c.119.114.217.23.297.345l.299.403c.64 1.04.79 2.466.451 4.28-.3 1.814-1.278 3.814-2.933 6l-.258.268a2.092 2.092 0 0 0-.258.325l-.057.06-.058.059-.344.355c-.076.118-.16.228-.256.326-1.797 1.859-3.568 2.957-5.312 3.297-1.725.36-3.09.13-4.096-.69a6.382 6.382 0 0 1-.477-.517 6.079 6.079 0 0 1-.33-.607c-.563-1.119-.667-2.594-.308-4.428.397-1.835 1.559-3.868 3.486-6.098l-.027.03c.038-.04.057-.079.056-.117l.114-.12a.313.313 0 0 0 .056-.117l.086-.09c2.007-2.075 3.883-3.302 5.627-3.681a7.773 7.773 0 0 1 1.826-.19zm-75.962.72c-.472.043-1 .203-1.593.503-1.575 5.12-1.7 4.466-5.164 2.814-.177.145-.68.277-1.174.309-2.45.332-2.649 1.714-2.098 3.234-.181-.29-1.259.126-.24.565.244-.27.292-.441.248-.543.525 1.432 1.706 2.982 2.312 3.896.708 2.774 5.3 7.62 4.166 9.276 1.864 2.59 2.908 6.01 3.895 9.13 1.387 2.52 1.822 7.293 2.826 8.23.424 4.27.618 6.097 1.9 9.452-1.286 3.904-.003 8.684-.593 12.932.348 3.482-1.092 8.641-1.516 10.668-.254.936-.623 1.916-1.015 2.908-.057-.019-.112.149-.098.246-.692 1.73-1.467 3.512-2.004 5.274-.276-.288-2.364 4.924-3.07 7.298-1.077 3.073-1.975 6.072-3.014 8.967-1.408 1.95-1.318 6.517-2.033 7.643-1.025 3.088-1.03 7.264-2.371 10.564.225 4.258-.549 6.733-.942 9.457-.558 4.914.986 8.348 1.051 13.063.157 4.742 2.779 6.714 2.906 10.27-.354-.733 5.269 8.52 2.785 1.986-.549-3.915-.803-5.225-1.755-9.764-.702-4.84-.026-7.264.605-8.998.129-1.952-.013-6.415 1.06-6.672.085-4.848.448-5.16 1.883-9.068.182-2.232 1.018-7.078 2.938-8.955-.216-2.279 1.983-5.664 3.25-9.5 1.413-3.111 3.14-6.234 4.158-9.453 1.835-2.655 2.712-5.943 3.883-9.12 1.634-3.447 1.697-5.543 2.86-8.728.583-2.041-.002-12.122.765-6.264.696-4.738.364-9.822.226-14.738-1.286 3.104.237-3.163-.777-5.443-1.167-3.406-1.599-7.046-3.07-10.172-1.934-5.584 4.798 2.244 6.322 4.238 2.273 2.375 3.713 5.642 5.707 8.383a123.124 123.124 0 0 1 1.742 4.258c-.193.05.131.719.117.296a102.844 102.844 0 0 1 1.932 5.448c.292-.133.22.25.076.228.07.22.148.442.217.662.811 3.898.667 4.942 1.572 9.328-.733 5.562.65 11.542-1.125 16.397-.217 3.024-1.034 5.912-1.812 9.049a.649.649 0 0 0-.12-.207c-.734.471-.197.66.048.502-.147.598-.296 1.187-.434 1.808-1.308 2.84-1.993 5.63-3.016 8.56-.359 2.353-3.056 6.974-3.29 8.321-.966 2.744-2.723 3.78-3.815 8.11-2.009 1.804-2.837 5.183-4.758 6.957-2.123 5.638 3.442-1.27 5.623-2.541 2.736-3.668 4.604-4.752 6.26-7.957 2.48-2.133 4.539-5.133 5.941-8.237 2.402-2.273 3.9-5.034 4.989-8.517 1.543-2.95 2.523-5.663 2.906-5.784.7-4.31 1.728-5.479 2.201-8.503 2.62-1.208-.785-10.842 1.861-9.487.524-6.598-1.292-6.765-.916-12.898-.381-3.332-1.774-6.46-2.812-9.535-.845-4.308-2.69-6.833-4.377-10.366-1.367-2.48-4.64-6.855-7.676-9.318-1.882-2.86-6.258-2.724-8.37-5.68-2.55-2.64-4.299-4.472-6.179-8.068-1.834-2.733-3.01-5.782-4.691-8.992-1.39-2.661-2.003-8.03-5.313-7.723zm27.086 54.118c-.024-.076-.051-.152-.076-.228-.026.012-.046.016-.078.037.051.136.106.184.154.191zm-33.843-50.8c.18-.148.023-.31-.83-.391.314.139.559.261.83.39zm3.664.011l.054.277-.054-.277zm-8.508 1.623c-.07.013-.074.098.152.301.268-.147-.035-.323-.152-.3zm-13.569 4.047c-.508.388-3.411.14-4.058 1.604-3.52 1.131-5.761 4.596-7.693 7.736-2.66 2.148-3.51 6.176-5.8 8.744-.974 3.322-3.142 5.17-3.427 8.666-1.938 2.93-2.382 7.526-3.797 10.508-.511 3.618-1.96 6.646-2.117 10.728-1.491 2.465-.2 6.725-1.863 9.05-.438 4.068.716 6.649-.045 9.995.169 2.472-.895 14.336 1.742 9.035.118-3.57 1.898-6.68 3.144-9.453.806-3.048 2.014-7.078 2.93-8.007 1.062-2.615 2.359-5.895 3.986-9.07.338-2.918 4.087-6.784 3.72-7.884 1.708-3.045 2.717-6.347 4.382-9.123 2.066-3.66 3.095-6.262 4.7-7.957 1.122-3.67 3.925-6.882 5.364-10.338 1.224-1.086 3.436-3.186 3.465-6.613 2.035-1.715-1.285-6.828-4.63-7.62h-.003zm121.874 5.982l-.99.743c.626.836.768 1.483.427 1.945-.325.484-.839.99-1.543 1.518l-13.83 10.367-.396.297a2.99 2.99 0 0 1-.42.263c-.385.22-.808.346-1.264.38-.44.054-.84-.161-1.203-.645l-.026-.032c.006-.038.001-.07-.015-.091l-.074-.1a.463.463 0 0 0-.008-.148l-.96.718 11.596 15.537.768 1.024c.099.132.137.206.115.223.017.022.03.064.041.125-.01.077.036.23.14.46l9.968-3.345-.52-1.106c-1.76.632-3.443.793-5.049.485-1.59-.287-2.987-.82-4.191-1.602a12.277 12.277 0 0 1-1.352-1.049 9.789 9.789 0 0 1-1.015-1.146c-.677-.902-1.048-1.81-1.114-2.723-.049-.89.267-1.592.95-2.103l7.494-5.616c1.435 1.915 2.305 3.375 2.613 4.381.346 1.012-.136 2.388-1.445 4.125l.949.784 6.842-7.036-.983-.76-.1.075-.064.05-.133.098c-.006.039-.03.075-.074.108l-.2.148a.366.366 0 0 1-.105.133c-.66.495-1.356.551-2.087.172-.71-.396-1.477-1.144-2.301-2.244l-.248-.33a2.11 2.11 0 0 0-.215-.356l-.272-.363-.23-.446 2.441-1.83c.638-.478 1.326-.546 2.063-.205.775.347 1.477.938 2.103 1.774.231.308.44.633.627.974.204.363.386.743.545 1.139.473 1.227.667 2.54.584 3.943-.066 1.425-.573 2.697-1.52 3.819l.753.52 5.933-6.665c-.319.033-.595-.034-.826-.205a3.31 3.31 0 0 1-.668-.685l-.223-.297a2.104 2.104 0 0 1-.214-.356l-.272-.363a3.792 3.792 0 0 1-.289-.453L409.51 97.948zm-336.358.592l-7.16 9.01.969.77c.192-.199.388-.288.586-.272a.852.852 0 0 1 .54.113l.065.053.033.025c.086.069.177.175.272.32.09.108.173.226.246.354a.454.454 0 0 1 .135.16.37.37 0 0 0 .103.137l.156.334c.048.073.084.138.11.194l9.408 16.01c.496.745.766 1.467.807 2.167a4.333 4.333 0 0 1-.227 1.875.32.32 0 0 0-.045.123c-.017.022-.043.035-.082.04l.936.744 5.44-6.848-.905-.719c-.36.452-.731.79-1.117 1.01-.39.182-.821.083-1.295-.293a1.919 1.919 0 0 1-.266-.264 3.802 3.802 0 0 1-.277-.379l-.033-.025-.065-.05a.367.367 0 0 0-.103-.136.467.467 0 0 0-.137-.162l-3.102-4.781.034.025a.91.91 0 0 1 .146-.252c.047-.103.106-.197.174-.283a.91.91 0 0 1 .146-.252l.18-.226.154-.194a.921.921 0 0 1 .213-.2 6.053 6.053 0 0 1 1.35-1.036 14.022 14.022 0 0 1 1.523-.791c.28-.13.541-.237.786-.324.261-.108.495-.205.7-.287a6.374 6.374 0 0 1 1.815-.295 7.232 7.232 0 0 1 1.813.174c.283.085.549.192.798.32.267.106.498.237.692.39.366.291.597.684.693 1.182.096.498-.077 1.046-.517 1.645l.937.744 8.315-10.463-.905-.719c-.376.474-.794.756-1.254.848-.463.053-1.091-.041-1.882-.283-.043-.035-.083-.05-.121-.045a.683.683 0 0 0-.188-.096l-18.363-6.53a3.997 3.997 0 0 0-.278-.114.911.911 0 0 0-.252-.147 3.803 3.803 0 0 1-.431-.185 1.786 1.786 0 0 1-.285-.174.672.672 0 0 1-.258-.469c-.027-.232.042-.475.209-.729l-.936-.744zm198.662 7.201c-.108.014-.108.195.254.682.404-.263-.074-.705-.254-.682zm-199.492 2.993l8.354 3.213a21.45 21.45 0 0 0-1.016.351c-.3.113-.59.234-.87.363-.44.247-.867.54-1.279.881-.415.302-.897.71-1.445 1.223l-3.744-6.031zm257.518 9.422l-.332.334.332-.334zm-273.198 7.388a4.3 4.3 0 0 0-1.668.244c-1.16.395-2.2 1.393-3.115 2.993l-9.242 16.712.795.44c.506-.915 1.038-1.311 1.6-1.19.55.085 1.14.3 1.765.647l15.666 8.662c.794.44 1.35.855 1.666 1.25.305.357.192.987-.338 1.889l1.047.578 6.008-10.865-1.01-.559c-.439.794-.932 1.229-1.476 1.305a3.04 3.04 0 0 1-1.575-.305.78.78 0 0 1-.236-.084l-.289-.16-6.643-3.672.11-1.307c.387-.131.896-.26 1.53-.38a18.14 18.14 0 0 1 2.118-.336c.47-.055.945-.09 1.426-.108.494-.04.982-.069 1.463-.086a21.2 21.2 0 0 1 2.69.166c.833.084 1.489.26 1.97.526.313.173.525.416.635.728.11.312.058.66-.154 1.045l-.04.072a.124.124 0 0 0-.076.053l-.06.107a.474.474 0 0 0-.131.069l1.047.58 6.306-11.408-1.01-.559-.04.072c-.014.025-.015.055-.004.092l-.02.037c-.013.024-.015.055-.004.092l-.02.035c-.199.361-.474.602-.824.723-.373.107-.848.144-1.425.107-1.192-.061-2.933-.237-5.223-.529-2.276-.316-5.268-.132-8.977.55.195-1.431.15-2.715-.136-3.847-.272-1.156-.701-2.084-1.287-2.785a3.285 3.285 0 0 0-.582-.652 4.84 4.84 0 0 0-.72-.49 3.58 3.58 0 0 0-1.517-.452zm206.864 1.787l-.223.055.223-.055zm162.402 1.03a8.005 8.005 0 0 0-1.281.087c-.367.074-.729.159-1.082.256a7.237 7.237 0 0 0-1.022.368c-2.075 1.249-3.142 2.857-3.201 4.828-.059 1.97.106 4.007.494 6.111.028.11.045.227.049.35l.125.402c.108.66.208 1.31.303 1.947.132.648.22 1.272.263 1.873.054.503.006.935-.142 1.297-.135.386-.308.699-.522.94a1.108 1.108 0 0 1-.324.27 1.363 1.363 0 0 1-.271.192l-.18.098a.372.372 0 0 1-.166.043c-.437.174-.92.232-1.451.176a4.457 4.457 0 0 1-1.377-.287.632.632 0 0 0-.186-.086.476.476 0 0 1-.133-.069 9.698 9.698 0 0 1-.91-.728 13.153 13.153 0 0 1-.783-.842l-.309-.396-.236-.434a6.375 6.375 0 0 1-.297-.637 52.17 52.17 0 0 0-.261-.656c-.574-1.753-.592-3.666-.057-5.738.548-2.048 1.68-3.71 3.398-4.985l-.859-.894-9.006 6.238c.358.025.662.157.916.395a3.9 3.9 0 0 1 .695.935c.223.411.435.89.637 1.438.203.547.433 1.143.688 1.787.176.499.357 1.01.547 1.533.202.547.435 1.092.699 1.637l.61 1.125c.261.483.555.967.878 1.449.3.495.64.981 1.025 1.461a15.931 15.931 0 0 0 3.66 3.553c1.424 1.011 2.917 1.487 4.477 1.424a13.605 13.605 0 0 0 2.371-.3 7.642 7.642 0 0 0 1.877-.689c2.056-1.113 3.134-2.963 3.235-5.55.1-2.588-.255-5.35-1.065-8.29-.265-.95-.358-1.76-.281-2.427.1-.68.292-1.22.574-1.623.106-.151.217-.291.336-.418.132-.103.26-.187.38-.252.194-.105.387-.18.583-.223.209-.02.412-.02.61-.002.655.114 1.23.366 1.722.756a4.173 4.173 0 0 1 1.547 2.166c.107.255.19.522.248.803.312 1.27.3 2.606-.035 4.007-.323 1.426-.961 2.585-1.916 3.477l.86.895 6.866-5.079-.037.02a2.967 2.967 0 0 1-1.055-.649 3.524 3.524 0 0 1-.75-.953 8.328 8.328 0 0 1-.54-1.255 45.73 45.73 0 0 1-.454-1.444 30.923 30.923 0 0 0-.55-1.625 11.401 11.401 0 0 0-.698-1.547c-1.466-2.708-3.172-4.474-5.119-5.297-1.442-.626-2.813-.947-4.117-.962zm-107.951 1.88c.129.036.092.615-.182.204.077-.167.139-.215.182-.204zm-264.092 3.182c.283 0 .557.042.824.127a.92.92 0 0 1 .274.104c.11.029.2.063.273.103.169.093.334.217.5.371.155.117.302.278.442.48.642.827 1.065 1.941 1.265 3.34.19 1.362.082 2.637-.324 3.827a.365.365 0 0 0-.045.164c-.013.024-.039.042-.076.052l-5.559-3.074c-.601-.332-.871-.812-.808-1.437a4.726 4.726 0 0 1 .597-1.932l.1-.18.1-.181c.25-.396.516-.736.798-1.02.296-.308.557-.494.782-.558.288-.124.574-.185.857-.186zm273.588.568c.091.237.279 2.79-.037.791-.013-.69.007-.87.037-.79zm.209 2.961c.42-.003-.65 1.655-.28.118.13-.083.22-.117.28-.118zm-.008 3.098c.205.108-.5 1.053-.149.014.073-.027.12-.03.149-.014zm-76.192 5.813c-.403.019-.845.1-1.308.216-.027-.085-.08-.036-.137.032a11.65 11.65 0 0 0-2.08.794c-3.4 1.302-6.888 2.256-10.121 3.963-3.66.536-6.2 3.492-9.357 5.002-2.136.339-.979.942-1.596 1.014-3.367 1.395-2.33 2.055-5.871 3.42.265-.964-4.655 3.974-6.537 5.627-3.104 2.633-6.114 5.97-9.135 8.924-1.088 1.096-2.126 2.317-3.15 3.556.01-.256-1.062.042-.272.32.011-.007.011-.013.022-.02-1.487 1.806-2.94 3.646-4.428 5.251-2.394 2.797-4.122 6.89-7.047 9.283-1.911 3.851-4.605 6.522-7.252 9.887-2.864 2.076-4.868 5.226-7.113 8.008-2.856 1.532-4.49 4.803-6.88 6.988-3.54 2.797-6.175 6.58-9.87 9.219-3.151 2.587-6.036 6.459-9.905 8.18-2.32 3.032-6.422 4.38-8.537 7.855-3.506 2.094-5.232 6.39-8.697 8.338-1.378 3.958-5.443 5.966-6.426 10.057-1.081 1.948-4.117 5.21-4.836 8.566 1.098-1.27-2.585 5.184-3.318 8.322-1.117 2.96-2.372 5.857-2.672 9.248-1.731 1.967-1.969 6.603-1.828 8.684-.435 6.21-.264 12.52-.234 18.783.415 3.473.49 7.98 1.8 10.375.34 1.832 2.13 6.374 3.319 9.123.624 3.25 2.036 4.368 3.758 8.238.284-2.147 1.63 6.273 5.082 9.09 1.411 3.511 3.587 6.478 5.994 8.914 2.954 4.777 7.207 8.45 11.183 12.26 1.226 3.038 5.611 4.218 8.053 6.895 3.162 2.212 5.999 4.515 9.852 6.017 3.403 1.746 3.468 2.637 6.728 3.986 3.921 1.088 6.622 3.443 11.065 4.004-.396.69 3.676 1.402 6.617 2.028 1.66 1.128 12.528 3.209 9.676 1.086-3.65-1.86-7.922-2.84-11.567-4.844-3.367-1.64-6.322-2.975-9.398-5.115-4.352-1.375-6.04-4.513-9.891-6.221-2.534-2.386-5.237-3.652-7.164-6.816-3.889-2.096-5.478-6.025-8.842-8.288-2.328-3.492-4.873-6.195-6.637-9.816-.294-.24-3.386-3.78-3.959-6.13-.736-1.323-1.56-2.674-2.255-3.895.17.082.458.136.384-.086-.264-.05-.39-.053-.45-.037-.662-1.17-1.205-2.222-1.419-3.004-2.03-2.838-2.984-7.082-4.36-10.123-1.209-3.17-1.441-5.636-2.599-9.108-2.045-5.405-2.527-11.936-1.644-18.318 1.063 2.693.377-4.091.851-6.672.587-.358 1.258-5.775 2.424-8.287.586-3.36 1.476-7.314 3.276-10.1 1.141-3.789 2.68-6.436 4.19-9.004 2.038-3.418 4.27-6.825 6.858-9.865 2.248-3.137 4.952-6.071 8.127-8.441 2.83-3.37 6.798-6.139 10.346-8.947 2.98-2.467 5.755-5.572 9.041-8.3 2.397-1.194 4.889-5.27 7.766-6.816 2.558-3.774 6.638-6.124 8.945-9.834 2.53-3.145 5.233-5.696 7.14-8.388 1.524-2.997 3.78-5.296 5.149-8.102 1.259-2.733 5.538-6.732 5.088-7.283 2.642-3.014 3.25-3.762 5.455-6.584 2.823-1.041 2.445-3.752 6.455-6.08 2.788-3.594 3.806-3.281 6.967-6.112 2.746-2.748 5.979-4.28 8.976-6.818 3.787-1.376 5.942-3.645 9.563-5.152 1.557-.849 5.005-1.876 7.959-3.838 4.368-.036 1.877-5.934 3.621-8.342 1.323-4.429.05-6.91-2.938-6.767zm3.844.33c-.32-.017.204.479.194.043a.797.797 0 0 0-.194-.043zm.112 1.234c-.168.064-.39.39.082.31.1-.291.018-.348-.082-.31zm61.189.643c-.82.398.303.503 0 0zm127.736 4.867l-9.138 1.45.105 1.237c2.148-.297 3.81-.004 4.988.88 1.188.908 2.146 2.107 2.873 3.597l-17.638 6.535-.27.1a.787.787 0 0 1-.248.048c-.535.14-1.088.11-1.66-.09-.546-.208-1.007-.858-1.383-1.95l-1.12.415 4.83 13.035 1.081-.4c-.525-1.418-.547-2.349-.066-2.79.507-.453 1.135-.818 1.883-1.095l17.29-6.406c.134.361.226.768.276 1.219.085.467.118.952.1 1.457-.043 1.072-.315 2.156-.819 3.252-.503 1.095-1.336 1.976-2.498 2.64l.688 1.022 7.84-4.84c-.46.024-.854-.286-1.18-.928-.326-.641-.667-1.482-1.024-2.523l-4.652-12.441a14.143 14.143 0 0 1-.572-1.9c-.123-.57-.019-1.078.315-1.524zm-214.224 1.14c-.237.048-.585.385.064.368.18-.32.078-.396-.064-.368zm-192.471 1.946c.202.25.294.518.277.804a3.312 3.312 0 0 1-.21.934l-.128.348a2.03 2.03 0 0 1-.18.373l-.155.425c-.057.155-.131.32-.223.49l-6.026 16.464 1.163.425c.359-.981.825-1.454 1.398-1.42.583.008 1.287.163 2.113.465l16.233 5.94.465.17c.155.056.303.126.449.209a2.96 2.96 0 0 1 1.008.851c.286.34.325.793.117 1.362l-.016.037c-.035.016-.057.038-.066.064l-.043.115a.479.479 0 0 0-.12.088l1.124.412 6.7-18.193.44-1.201c.057-.155.098-.226.123-.217a.317.317 0 0 1 .082-.103c.07-.033.174-.156.31-.37l-8.24-6.529-.644 1.04c1.49 1.13 2.543 2.452 3.16 3.966.627 1.488.942 2.951.944 4.387a12.24 12.24 0 0 1-.14 1.705 9.79 9.79 0 0 1-.41 1.476c-.387 1.06-.945 1.865-1.675 2.418-.72.527-1.48.643-2.281.35l-8.793-3.217c.822-2.247 1.57-3.773 2.246-4.58.66-.842 2.075-1.19 4.246-1.039l.14-1.223-9.628-1.896-.102 1.236.117.043.078.028.155.056c.035-.016.079-.015.13.004l.233.086a.364.364 0 0 1 .168.018c.775.283 1.203.834 1.283 1.654.055.81-.154 1.863-.627 3.154l-.14.387c-.073.12-.135.244-.182.373l-.154.426-.248.437-2.868-1.049c-.748-.274-1.18-.813-1.296-1.617-.133-.839-.02-1.749.34-2.73a8.11 8.11 0 0 1 .474-1.057c.193-.368.413-.726.658-1.076.77-1.065 1.766-1.945 2.987-2.64 1.23-.722 2.573-.993 4.029-.811l.027-.912-8.822-1.34zm232.436 2.425c-.8-.07-.079 1.117 1.923 3.891 1.027-.274 2.057 2.123 2.012 3.238 1.818 3.163 4.432 5.662 5.045 9.739 2.027 2.289 2.144 5.99 3.451 8.771.323 1.074.685 2.903 1.035 4.524-.218-.047-.79.052-.14.193.084-.035.123-.062.162-.088.402 1.851.786 3.393 1.07 3.111-.094-1.408 1.503 6.522 1.338 9.678 2.043 6.674.718 14.939 1.047 22.424.002 4.722-.043 11.387.223 14.437.319-2.302 1.008 5.792.814 9.123 1.43 5.107 1.351 7.384 1.908 11.342 1.467 3.89 1.339 5.549 2.774 8.614.726 3.949 2.445 7.292 3.425 9.847.675 1.753 1.773 4.262 3.315 6.623-.055.027-.106.05-.193.112-.128.518.162.281.306.058.404.608.83 1.208 1.295 1.778.76 3.516 1.469 5.398 2.97 7.503.261 4.275 1.794 6.633 1.233 11.174.518 3.013.95 4.65 0 7.004.83 3.74-.351 6.326 0 11.399-.423-.211-1.58 5.64-2.18 9.04-1.631 2.05-1.715 6.665-3.37 9.518-2.032 2.604-2.255 6.809-4.374 9.332-1.315 3.872-3.936 6.916-5.664 10.375-1.587 3.01-3.43 6.278-6.517 8.149-2.39 3.218-4.874 6.03-8.131 8.466-2.203 3.153-5.114 4.323-7.813 6.713-2.654 2.979-6.174 4.027-8.498 6.774-3.303 1.602-5.57 2.93-8.875 4.949-2.786 1.175-5.714 2.427-8.632 4.172-2.378.806-5.449 1.302-7.508 2.59.065.202.056.492-.223.267.002-.06.01-.086.014-.132-.095.064-.201.12-.291.189-1.858.767-9.085 1.18-5.45 1.937 5.017.478 9.33-.568 13.29-1.996 3.91-.748 7.45-1.505 10.937-2.96 4.225-1.239 4.06-1.675 7.69-3.051 3.671-1.094 6.49-3.104 9.732-4.203 3.676-2.547 7.121-4.641 11.055-7.196 4.085-3.043 6.837-5.401 10.484-8.808 3.228-1.661 4.525-5.99 7.81-7.295.806-2.405 4.672-6.043 6.46-8.783-.62.635.693-1.016 2.296-3.307.018.028.02.044.045.08.48.084.269-.144.073-.246.837-1.204 1.716-2.516 2.494-3.881.512-2.264 3.453-4.17 4.107-7.559 2.213-2.829 3.396-6.614 4.95-9.789.59-3.962 3.113-6.674 3.148-11.232-.911 1.392.793-5.552.846-9.178-.2-2.253.045-10.261-.557-8.17-.55-4.304-.636-7.133-1.398-10.775-2.273-3.456-1.94-6.17-3.95-8.965-1.73-3.427-3.22-6.768-5.252-10.355-1.046-1.3-2.354-3.259-3.48-5.348.135.151.357.247.457-.088-.456-.283-.58-.22-.559-.09-.453-.853-.88-1.72-1.234-2.582-1.397-3.777-1.744-5.47-3.936-8.392-.758-3.533-.783-7.332-2.11-10.176-.553-5.081-1.743-10.003-1.122-15.319-1.608-3.062-.884-8.635-.209-10.982.914-6.53-.94-12.404-.783-18.85-1.374-4.052-1.283-7.578-2.965-11.595-.698-3.734-2.617-7.355-4.035-10.508-1.195-3.59-3.313-7.02-5.89-9.93-2.207-3.946-3.536-4.95-5.96-7.685-2.14-2.255-6.08-4.845-7.879-6.774-1.014-.521-1.693-.813-2.056-.846zm-36.758 244.708c.068-.047.138-.09.209-.135v-.002c-.06-.182-.173-.264-.21.137zm-16.568-240.02l.082.24-.082-.24zm44.355 1.963c-.204-.004.448.681.145.049a.38.38 0 0 0-.145-.05zm25.078 8.16l.334.389-.334-.389zm-57.166.088c-.45-.12-.335.947.229.135a.619.619 0 0 0-.229-.135zm118.934 2.945c-.099-.079-.543.176-.065.211.091-.12.098-.184.065-.21zm-67.57 1.94c-.095.016-.072.399.13.142-.055-.113-.1-.148-.13-.142zm26.458.554c.092.038-.345.484-.304.145.185-.122.274-.157.304-.145zm-86.935 1.702l.223.166-.223-.166zm233.324.238l-1.21.262c.22 1.021.08 1.671-.423 1.949-.497.304-1.175.548-2.035.734l-16.894 3.655-.483.105a3.01 3.01 0 0 1-.492.064 2.941 2.941 0 0 1-1.307-.181c-.422-.134-.698-.497-.826-1.088l-.008-.041a.123.123 0 0 0 .022-.09l-.026-.121a.466.466 0 0 0 .055-.137l-1.17.252 4.059 18.96.271 1.247c.035.162.039.246.012.252a.3.3 0 0 1-.014.13c-.042.065-.065.224-.066.478l10.455 1.115-.012-1.22c-1.863-.16-3.46-.717-4.79-1.667-1.326-.923-2.373-1.99-3.142-3.203a12.278 12.278 0 0 1-.792-1.516 9.795 9.795 0 0 1-.444-1.466c-.238-1.102-.196-2.083.125-2.94.327-.83.905-1.335 1.738-1.515l9.153-1.979c.506 2.338.689 4.03.549 5.072-.108 1.065-1.119 2.114-3.034 3.147l.536 1.107 9.152-3.54-.576-1.1-.121.027-.08.016-.163.035c-.02.033-.057.055-.11.066l-.243.053a.37.37 0 0 1-.152.076c-.807.175-1.463-.065-1.97-.715-.479-.656-.865-1.656-1.155-3l-.086-.402a2.084 2.084 0 0 0-.047-.412l-.096-.444-.025-.502 2.984-.644c.78-.169 1.434.056 1.961.674.56.638.949 1.467 1.17 2.488.081.376.136.759.164 1.147.033.414.04.835.02 1.261-.083 1.312-.454 2.588-1.114 3.828-.654 1.267-1.645 2.213-2.972 2.838l.464.787 8.172-3.584a1.147 1.147 0 0 1-.664-.53 3.302 3.302 0 0 1-.32-.901l-.078-.364a2.1 2.1 0 0 1-.047-.412l-.096-.443a3.801 3.801 0 0 1-.074-.533l-3.705-17.135zm-420.725 2.984c-.864.032-1.695.388-2.488 1.067-1.078.872-1.791 2.086-2.14 3.642l-3.922 18.987.888.183c.212-1.023.55-1.57 1.014-1.642.443-.105 1.029-.084 1.756.066l17.533 3.621c.162.034.36.087.598.164.215.045.44.107.678.184.381.19.716.47 1.005.838.295.341.362.833.202 1.474l1.171.242 2.569-12.443-1.131-.232c-.14.673-.393 1.154-.762 1.443-.363.262-.731.41-1.103.445-.26.031-.498.037-.72.02l-.605-.125-7.675-1.586c.05-3.78-.233-6.827-.85-9.145-.611-2.344-1.388-4.093-2.33-5.242-.45-.542-.91-.96-1.383-1.254a3.924 3.924 0 0 0-1.43-.63 3.643 3.643 0 0 0-.875-.077zm251.284 3.467c.192.013.02.638-.106.037.044-.028.078-.039.106-.037zm57.035 2.254c-.046.03-.062.156-.004.443.548.224.142-.535.004-.443zm-29.297.576c-.325.063-.626.445.07.96.604-.766.255-1.023-.07-.96zm-279.475 2.055c.14 0 .264.013.371.035.162.033.33.095.508.188.156.06.308.147.453.261.784.555 1.451 1.467 2.004 2.733.532 1.233.86 2.507.98 3.824l.048.178-.034.162-6.787-1.403c-.323-.066-.528-.36-.617-.884-.11-.557-.096-1.17.043-1.844.034-.162.08-.32.14-.477.034-.161.081-.32.141-.476.121-.312.27-.62.444-.92.174-.301.394-.55.66-.748a2.11 2.11 0 0 1 .584-.385c.216-.096.428-.165.633-.207.146-.026.29-.038.43-.037zm303.62 4.47c-.566-.064.264.631.333.08a1.83 1.83 0 0 0-.333-.08zm-50.125.626c-1.731-.106.763 2.43 0 0zm49.236.066c-.712-.011.482 1.682 0 0zm-48.264 3.059c.78-.04-.058 1.223 0 0zm14.81 1.17c-.057.02-.136.104-.241.275.003 2.544.646-.415.242-.276zm-101.69 1.73c.29-.02.639.213-.194.379-.135-.264.019-.367.193-.38zm86.74 1.24c-.392-.059-.384 2.685.33.582-.13-.406-.24-.568-.33-.582zm177.013 2.559a5.41 5.41 0 0 0-1.07.076 5.172 5.172 0 0 0-1.965.762 5.18 5.18 0 0 0-1.494 1.482 5.477 5.477 0 0 0-.813 1.93 5.076 5.076 0 0 0-.006 2.056 5.86 5.86 0 0 0 .8 2.03 5.459 5.459 0 0 0 1.476 1.537 5.778 5.778 0 0 0 2.01.926c.714.17 1.42.194 2.119.074a5.507 5.507 0 0 0 1.996-.768 5.04 5.04 0 0 0 1.506-1.42 5.38 5.38 0 0 0 .832-1.98 5.33 5.33 0 0 0 .006-2.137 5.671 5.671 0 0 0-.844-2.021 5.63 5.63 0 0 0-1.525-1.543 5.675 5.675 0 0 0-1.967-.871 5.542 5.542 0 0 0-1.06-.133zm.008.703c.31.007.62.043.926.111a4.953 4.953 0 0 1 1.725.754c.536.368.988.83 1.351 1.37a4.8 4.8 0 0 1 .74 1.741h-.002a4.58 4.58 0 0 1-.004 1.838c-.126.624-.37 1.2-.714 1.71-.34.503-.782.922-1.32 1.263a4.671 4.671 0 0 1-3.6.62 5.08 5.08 0 0 1-1.74-.753 4.878 4.878 0 0 1-1.33-1.342 4.77 4.77 0 0 1-.706-1.73 4.717 4.717 0 0 1-.017-1.867c.12-.6.36-1.15.72-1.678a4.539 4.539 0 0 1 1.31-1.309 4.555 4.555 0 0 1 1.724-.658c.313-.054.626-.077.937-.07zm-161.656.38c.482 1.865-.19 1.592 0 0zm164.225 1.003l-.332.056c.045.354.032.612-.05.762-.08.15-.266.251-.532.297l-3.885.668c-.261.045-.448.009-.582-.104-.135-.113-.254-.35-.344-.695l-.33.057.596 2.96.33-.056c-.04-.35-.027-.6.052-.748.08-.147.246-.247.502-.291l1.854-.318.045.228c.084.42.066.76-.057 1.03-.122.269-.346.479-.683.636-.115.051-.36.114-.725.188-.364.073-.63.175-.795.308a.797.797 0 0 0-.268.455c-.044.191-.042.41.008.658.08.395.26.668.528.836.267.169.605.225 1.027.153l.15-.026-.07-.35c-.321.056-.577.058-.761.007-.185-.052-.295-.148-.327-.305-.057-.283.23-.516.846-.68.093-.026.163-.038.207-.05.393-.162.682-.391.875-.686.193-.295.306-.7.35-1.205.291.75.597 1.278.908 1.57.31.292.677.402 1.094.33.436-.075.737-.363.92-.85.182-.486.203-1.085.056-1.814l-.607-3.021zm-143.657.49c-.97.024-2.694.413-.15.498 1.044-.396.733-.512.15-.498zm-.937.846c-.72.09.499 1.277.435.039a1.335 1.335 0 0 0-.435-.04zm144.162.857a.47.47 0 0 1 .432.13c.113.112.198.296.25.554.085.425.045.783-.125 1.074-.17.29-.438.467-.8.53-.41.07-.765-.02-1.05-.274-.285-.255-.475-.657-.582-1.188-.02-.101-.04-.181-.053-.258-.013-.076-.019-.148-.027-.214l1.955-.354zm-159.445.197c.864-.148-.778 2.818 0 0zm-134.45 3.17l-.166.166.166-.166zm129.776.04c-.12.05-.348.754.056.236.01-.197-.016-.254-.056-.237zm5.396.683c-.813.063.7 1.268 0 0zm-3.968 3.52c.244-.01-.135.48-.145.039a.45.45 0 0 1 .145-.04zm-.206 1.533c.028.032-.007.144-.05.006.025-.02.041-.017.05-.006zm-145.529 9.666c.12.02-.363.396-.092.015a.216.216 0 0 1 .092-.015zm16.44 3.404c.19.039-.314.361-.13.004a.414.414 0 0 1 .13-.004zm125.703 2.152c.11-.015.16.122-.057.577-.47-.102-.126-.55.057-.577zm-12.067 5.803l-.056.277.056-.277zm-.056.443l.279.28-.28-.28zm-147.504 1.856c-.083-.095-.226.482.045.369.004-.232-.018-.337-.045-.37zm-1.4 1.148l.331.223-.332-.223zM8.501 245.5c0 126.474 104.094 229 232.5 229 128.354 0 232.426-102.453 232.5-228.875l-48.682-.013A184 184 0 0 1 241.002 426 184 184 0 0 1 57.127 245.514L8.502 245.5zm129.062.264c-.57.066.349.486 0 0zm150.63 3.504l.279.166-.28-.166zm.167.611c-.348-.068.236.358 0 0zm14.123 5.838l.278.389-.278-.389zm5.23 14.117c-.027.033.008.145.052.006-.026-.019-.042-.016-.051-.006zM118.3 274.842c-.253.031-.63.44.064.508.194-.41.087-.527-.064-.508zm-.711 2.973c-.185.01.334.558.127.033a.317.317 0 0 0-.127-.033zm-1.15 3.03c-.057.048-.123.208-.188.554.427.15.357-.702.187-.555zm-1.178 3.16c-.2.033-.382.203.052.405.364-.338.147-.44-.052-.406zm185.234 1.929c-.254.015.183.584.154.031a.39.39 0 0 0-.154-.031zm146.268 5.226l10.386 5.038a3.123 3.123 0 0 0-.765 1.36 30.422 30.422 0 0 0-.305 1.65l-2.73 16.939-1.2-.19c.155-.794.044-1.35-.33-1.664a3.354 3.354 0 0 0-1.326-.718 3.033 3.033 0 0 0-.488-.12l-.496-.08-17.362-2.754-.248-.039-.33-.052a3.23 3.23 0 0 0-1.47.19c-.48.177-.79.707-.93 1.589l-1.24-.197 1.974-12.442 1.198.192c-.113.886.032 1.488.433 1.806a3.23 3.23 0 0 0 1.34.635l.332.053.29.047L449.86 305c.8.127 1.446-.024 1.938-.455.464-.435.758-1.039.88-1.81a6.547 6.547 0 0 0 .02-1.735 9.449 9.449 0 0 0-.447-1.976c-.446-1.286-1.165-2.545-2.156-3.776-.987-1.258-2.259-2.236-3.815-2.935l.48-1.153zm-126.985 1.868c-.822-.088-.008.753 0 0zm-16.232.945c-.06.057.138.357.162.055-.093-.066-.142-.074-.162-.055zM48.18 303.135c1.72-.04 3.495.483 5.324 1.568 1.854 1.076 3.347 3.07 4.478 5.983.213.546.382 1.094.506 1.644.134.577.25 1.145.348 1.705a47 47 0 0 0 .273 1.512c.104.499.232.942.383 1.332.152.39.363.741.635 1.055.282.34.607.602.978.787l.04-.016-7.557 4.24-.752-1.011c1.075-.777 1.865-1.862 2.371-3.256.516-1.368.698-2.71.545-4.027a4.453 4.453 0 0 0-.146-.842 4.235 4.235 0 0 0-1.283-2.375 3.816 3.816 0 0 0-1.637-.98 3.376 3.376 0 0 0-.614-.077c-.202.019-.407.07-.615.15-.13.051-.268.12-.414.206a3.837 3.837 0 0 0-.393.377c-.335.37-.597.89-.785 1.562-.162.662-.17 1.488-.025 2.479.441 3.061.447 5.889.017 8.48-.43 2.592-1.75 4.317-3.96 5.176-.573.222-1.232.372-1.979.453-.72.07-1.528.071-2.424 0-1.579-.135-3.02-.802-4.324-2.002a16.161 16.161 0 0 1-3.232-4.04 13.707 13.707 0 0 1-.848-1.602 18.113 18.113 0 0 1-.7-1.57l-.468-1.21a18.742 18.742 0 0 1-.496-1.738c-.124-.55-.244-1.087-.358-1.611a86.78 86.78 0 0 1-.462-1.887 11.334 11.334 0 0 0-.46-1.527 3.963 3.963 0 0 0-.58-1.032 1.472 1.472 0 0 0-.873-.513l9.858-5.133.752 1.01c-1.892 1.064-3.242 2.592-4.055 4.584-.802 2.018-1.027 3.945-.672 5.783.065.244.125.475.18.693.065.244.138.47.219.678l.181.469.26.437c.22.334.446.65.682.947.271.314.547.597.824.848a.494.494 0 0 0 .123.088.656.656 0 0 1 .178.11c.381.21.83.366 1.347.464a3.055 3.055 0 0 0 1.485.006.368.368 0 0 0 .172-.021l.195-.076c.104-.04.203-.094.297-.16.13-.051.25-.127.36-.23.245-.214.46-.507.646-.878.195-.345.296-.774.306-1.287.032-.611.023-1.251-.027-1.92-.014-.653-.032-1.32-.057-1.998l-.074-.422a1.63 1.63 0 0 0-.004-.357c-.123-2.167-.03-4.24.28-6.215.31-1.976 1.587-3.46 3.835-4.453a7.353 7.353 0 0 1 1.077-.239c.368-.053.74-.093 1.119-.12zm78.5 4.678c-.335-.099-.947.39-.077.928.379-.599.278-.87.077-.928zm-.186 9.213c-.204.017-.544.294-.002.351.197-.279.124-.362.002-.351zm.283.855c-.793 0 .564 1.96 0 0zm295.041 2.819l1.092.53c-.11.289-.124.545-.047.768a.684.684 0 0 0 .36.409c.075.036.18.071.318.107.138.036.294.067.469.09a.932.932 0 0 1 .283.09c.087.011.186.029.299.052l19.623 2.428a.69.69 0 0 1 .207.055c.037-.013.08-.007.13.017.837.066 1.48.022 1.928-.132.435-.192.787-.564 1.055-1.116l1.053.512-5.934 12.193-1.09-.53c.305-.69.354-1.271.149-1.743-.205-.472-.52-.812-.947-1.02a2.766 2.766 0 0 0-.77-.236 4.76 4.76 0 0 0-.861-.139 7.33 7.33 0 0 0-1.832.225 6.485 6.485 0 0 0-1.735.693c-.185.127-.395.271-.63.436a9.18 9.18 0 0 0-.708.496c-.433.317-.876.688-1.334 1.117a6.143 6.143 0 0 0-1.109 1.322.935.935 0 0 0-.166.247l-.11.224-.128.264a.922.922 0 0 0-.09.281 1.39 1.39 0 0 0-.11.32.922.922 0 0 0-.09.282l-.038-.018 4.125 4.055c.075.036.132.08.17.129a.35.35 0 0 1 .13.111l.077.037.037.018c.126.123.246.228.36.314.112.086.22.154.32.203.551.269 1 .27 1.347.004.334-.303.629-.719.885-1.246l1.055.514-3.883 7.976-1.092-.529c.037-.013.062-.033.074-.058 0-.063.005-.106.018-.131.08-.613.017-1.247-.19-1.907-.194-.684-.62-1.341-1.275-1.97l-12.838-13.787a1.596 1.596 0 0 0-.15-.168l-.229-.297a.374.374 0 0 1-.133-.112.466.466 0 0 0-.17-.128 2.369 2.369 0 0 0-.32-.295 1.388 1.388 0 0 0-.34-.26l-.037-.018-.076-.037a.862.862 0 0 0-.56.006c-.2.027-.375.16-.522.399l-1.129-.55 5.11-10.497zm-99.261 3.576v.334-.334zm-304.518 3.498l-1.031.209a.515 5.15 0 0 0 .263 4.502.515 5.15 0 0 0 .522-.106.515 5.15 0 0 0 .246-4.605zm405.201 3.205l5.033 5.148a15.93 15.93 0 0 1 1.164-1.529c.333-.428.69-.811 1.073-1.152.247-.19.506-.374.78-.551.272-.178.582-.369.929-.572l-8.979-1.344zM117.611 334.3c-.225-.035-.648.137-.066.328.265-.212.202-.307.066-.328zm-49.463.484l5.914 10.069-1.044.613c-.18-.25-.385-.405-.614-.465a.685.685 0 0 0-.539.074c-.072.043-.161.11-.267.206a3.874 3.874 0 0 0-.334.341.922.922 0 0 1-.23.186c-.059.066-.13.14-.212.22l-12.886 14.997a.689.689 0 0 1-.159.142c-.01.038-.04.072-.088.1-.518.66-.836 1.22-.955 1.678-.08.468.035.966.346 1.496l-1.012.593-6.867-11.69 1.045-.616c.406.635.863.999 1.37 1.09.506.09.963.015 1.372-.225a2.77 2.77 0 0 0 .621-.512c.213-.19.412-.403.596-.64a7.32 7.32 0 0 0 .826-1.65 6.472 6.472 0 0 0 .383-1.827 72.23 72.23 0 0 0-.016-.767c.007-.264.002-.55-.019-.862a14.266 14.266 0 0 0-.193-1.732 6.131 6.131 0 0 0-.487-1.654.937.937 0 0 0-.113-.276l-.127-.215-.148-.254a.92.92 0 0 0-.184-.23 1.373 1.373 0 0 0-.205-.268.936.936 0 0 0-.186-.232l.037-.02-5.66 1.19a.461.461 0 0 1-.2.068.373.373 0 0 1-.167.05l-.072.042-.037.022a3.843 3.843 0 0 0-.46.125 1.963 1.963 0 0 0-.347.154c-.53.31-.777.683-.748 1.119.068.446.25.923.547 1.428l-1.012.593-4.494-7.65 1.047-.615c-.01.038-.008.07.006.094a.322.322 0 0 1 .1.085c.465.407 1.03.708 1.693.9.677.218 1.459.226 2.346.028l18.59-3.056a1.61 1.61 0 0 0 .222-.036l.375-.025a.365.365 0 0 1 .164-.049.465.465 0 0 0 .203-.068c.149-.023.29-.06.424-.106a1.36 1.36 0 0 0 .402-.138l.038-.022.072-.043a.863.863 0 0 0 .305-.47c.087-.182.074-.398-.043-.653l1.082-.637zm251.534.37c-.353.033-.852.603.127.73.243-.578.084-.75-.127-.73zm-19.266 3.011c-.25.051-.533.494.191.51.097-.43-.04-.54-.191-.51zm-235.7 2.178l-7.075 1.342c.285.706.494 1.31.629 1.814.172.514.295 1.026.367 1.534.02.31.03.63.027.955-.003.325-.016.688-.04 1.09l6.093-6.735zm341.391 6.733l8.678 4.783-.44 1.18c-1.375-.48-2.993-.479-4.855 0-1.845.455-3.36 1.287-4.545 2.495a4.143 4.143 0 0 0-.379.45c-.12.119-.23.247-.328.383-.605.836-.98 1.806-1.123 2.908-.15 1.063.082 2.243.69 3.545.243.52.533 1.024.87 1.51.316.468.647.913.995 1.337.387.418.78.824 1.184 1.22.396.355.798.681 1.205.976 1.582 1.145 3.283 1.91 5.103 2.298 1.798.372 3.392.337 4.78-.105.815-.27 1.535-.576 2.16-.916.618-.379 1.083-.783 1.394-1.213.524-.723.703-1.471.54-2.244-.148-.796-.595-1.464-1.34-2.004l-5.051-3.656c-.588-.426-1.12-.69-1.596-.793-.483-.143-1.099.186-1.85.986l-1.017-.736 7.41-10.238.982.71c-.367.699-.51 1.3-.43 1.807.075.468.24.862.49 1.182.171.192.338.364.503.517l.474.344 5.934 4.295c.52.376 1.046.67 1.58.885.528.175 1.126-.08 1.795-.766l.95.686-9.374 12.95c-2.055 2.888-4.946 4.67-8.674 5.347-3.727.677-7.275-.202-10.642-2.64-2.984-2.158-4.554-4.965-4.707-8.417-.154-3.452.94-6.793 3.279-10.025.442-.61.91-1.185 1.402-1.723.51-.561.995-1.089 1.455-1.582.46-.494.896-.954 1.307-1.38.428-.447.78-.863 1.059-1.247.409-.565.642-1.103.7-1.611.075-.532-.103-1.023-.534-1.473l-.034-.025zm-282.832.552l.332.168-.332-.168zm16.403 3.781c-.166.117.278.923.111 0-.052-.018-.088-.016-.111 0zm-58.772 4.264l11.403 13.65c1.445 1.774 2.168 3.335 2.166 4.682.016 1.368-.384 2.39-1.198 3.07-.107.09-.234.178-.38.264-.108.09-.243.166-.407.23-1.014.484-2.241.583-3.681.296-1.4-.262-2.726-.995-3.985-2.184 1.061 2.441 1.55 4.6 1.461 6.473-.051 1.897-.486 3.442-1.306 4.636a8.664 8.664 0 0 1-.563.633 3.659 3.659 0 0 1-.557.574c-1.456 1.217-3.28 1.687-5.474 1.41-2.173-.293-4.127-1.48-5.862-3.556l-11.37-13.676.931-.78c.658.832 1.224 1.16 1.695.985.51-.172 1.173-.597 1.987-1.277l13.714-11.457c.45-.376.804-.8 1.065-1.272.278-.45.076-1.083-.604-1.896l.965-.805zm3.823 10.305a1.064 1.064 0 0 0-.612.264l-4.465 3.73c1.116.813 2.113 1.398 2.993 1.754.9.338 1.685.536 2.353.596.607.074 1.114.051 1.522-.07.428-.14.772-.317 1.029-.532l.062-.055.098-.08a3.1 3.1 0 0 0 .336-.445c.114-.168.189-.32.22-.455.086-.29.023-.693-.189-1.207a6.684 6.684 0 0 0-.81-1.557l-.27-.322c-.05-.104-.12-.21-.209-.316a4.483 4.483 0 0 0-1.385-1.133c-.236-.13-.46-.188-.673-.172zm305.277 4.652l.853.862c-.555.589-.833 1.12-.836 1.593-.002.474.113.888.348 1.244l.354.477.353.357 10.158 10.26c1.904 1.923 2.535 4.165 1.891 6.727-.644 2.522-1.89 4.755-3.734 6.699l-.237.236-.18.176c-1.923 1.904-4.108 3.206-6.558 3.904s-4.519.194-6.207-1.511l-10.865-10.975c-.51-.515-1.022-.893-1.533-1.133-.512-.24-1.195.064-2.047.908l-.912-.863 9.128-9.039.856.863c-.833.864-1.144 1.562-.93 2.096.234.514.617 1.039 1.147 1.574l9.953 10.053c1.197 1.21 2.457 1.749 3.78 1.617 1.341-.15 2.478-.648 3.41-1.492l.09-.09.089-.088.119-.117.12-.117c.852-.963 1.36-2.114 1.525-3.455.184-1.36-.234-2.557-1.254-3.588l-10.217-10.32c-.51-.516-1.033-.882-1.565-1.102-.511-.24-1.213.081-2.105.965l-.883-.893 5.889-5.828zm-312.697 1.3l-6.135 5.125c-.45.376-.66.843-.631 1.4.047.58.295 1.135.742 1.67.179.214.378.412.6.59.24.2.481.379.724.54a7.09 7.09 0 0 0 2.532.94c.975.167 1.879.029 2.71-.411l.16-.133a.784.784 0 0 0 .22-.13l.064-.054a.374.374 0 0 0 .156-.074l.16-.135c.429-.358.86-.882 1.3-1.576.438-.694.765-1.567.978-2.617.06-.45.093-.933.1-1.447a9.573 9.573 0 0 0-.003-1.633l-3.678-2.055zm110.134 7.56c-1.469.783-3.77.8-5.308 1.948-2.772 2.98 3.495 5.932 5.33 7.687 4.135 2.093 7.94.92 10.959 2.153 3.4.377 5.457 1.187 9.312 2.002 3.747.731 7.983 2.682 11.58 2.43 2.468-2.376-.296-6.34-1.828-8.88-.618-1.292-1.517-2.194-2.549-2.91.076-.184-.05-.16-.136-.09-1.475-.989-3.206-1.617-4.823-2.386-3.979-.447-7.01-1.374-11.585-1.287.852 1.27-7.693-.474-10.952-.666zm-84.685 5.268c3.576.207 6.71 1.377 9.402 3.51l.254.219.285.246.254.219.287.246c2.492 2.365 4.08 5.352 4.766 8.96.686 3.61-.428 7.105-3.34 10.489-2.803 3.257-6.016 4.724-9.64 4.402-3.604-.304-6.759-1.621-9.465-3.951l-.254-.219-.192-.162c-2.573-2.399-4.262-5.398-5.066-8.998-.765-3.603.283-7.065 3.14-10.385l.028-.03c2.784-3.236 5.964-4.753 9.54-4.546zm176.732 2.027c-.124.02-.058.54.188.198-.084-.155-.146-.204-.188-.198zm-172.219 3.29a7.887 7.887 0 0 0-1.837.3c-1.744.487-3.572 1.84-5.483 4.06l-.082.097a.31.31 0 0 1-.05.12l-.108.128c.003.039-.014.08-.05.123l.026-.032c-1.82 2.372-2.877 4.5-3.171 6.381-.255 1.88-.065 3.367.572 4.467.114.21.238.408.37.596.173.185.343.35.513.496 1.066.77 2.461.923 4.187.457 1.747-.447 3.477-1.665 5.188-3.652.09-.106.172-.22.242-.344l.326-.381.055-.064.054-.063c.07-.124.152-.24.243-.346l.246-.285c1.548-2.312 2.42-4.395 2.617-6.25.237-1.857 0-3.293-.71-4.308l-.325-.391a2.336 2.336 0 0 0-.32-.332l-.096-.082-.096-.082c-.614-.436-1.384-.641-2.31-.613zm112.766.605c-.178.03-.351.608.154.209-.035-.168-.095-.22-.154-.209zm-24.994.188c-.273.058-.536.67.238.187-.055-.165-.147-.207-.238-.187zm171.14 1.207l6.92 6.287-.804.955c-.974-.946-2.066-1.51-3.276-1.694-1.209-.183-2.341-.145-3.398.114a6.872 6.872 0 0 0-1.395.506 5.183 5.183 0 0 0-1.109.609l11.096 15.062c.48.652 1.01 1.162 1.594 1.53.566.345 1.467.062 2.703-.848l.693.943-11.353 8.366-.721-.977c.96-.672 1.464-1.305 1.513-1.896.034-.614-.092-1.163-.378-1.645a.789.789 0 0 0-.116-.227l-.173-.236-11.319-15.363c-1.248 1.128-2.15 2.398-2.703 3.81-.53 1.397-.35 3.099.543 5.11l-1.176.451-3.978-8.506c.528.2 1.053.161 1.574-.119.521-.28 1.085-.645 1.691-1.092l10.826-8.025c.916-.64 1.64-1.21 2.174-1.707.535-.498.725-.966.573-1.408zm-104.84 4.609c-.178-.018.069.49.106.043a.255.255 0 0 0-.105-.043zm-62.558.648c-.41.01-.66.56-.664.944-.717 1.838 7.24.8 1.121-.746-.168-.144-.32-.2-.457-.198zm44.326 1.336c-.22-.007-.602.264-.023.403.228-.294.155-.398.023-.403zm-39.945.034c-1.27.026.362.596.732.027a7.955 7.955 0 0 0-.732-.027zm.135.6c-.25-.042-.535 1.41.154.316-.041-.219-.097-.307-.154-.317zm1.728.251c-.179-.002-.242.044-.017.178 2.122.255.554-.173.017-.178zm-78.006 1.75l16.569 10.047c1.584.993 2.553 2.086 2.906 3.28.353 1.192.24 2.266-.338 3.22-.145.239-.32.475-.527.709-.193.21-.42.398-.684.564-.735.566-1.694.963-2.877 1.192-1.159.243-2.46.238-3.904-.018.542 3.788.606 6.828.193 9.123-.388 2.31-.637 4.066-.748 5.272-.06.583-.043 1.068.051 1.45.108.36.341.647.7.864l.034.022c.039-.01.07-.007.094.008l.035.021c.039-.009.07-.007.094.008l.072.045-.609 1.002-11.307-6.857.63-1.04a.486.486 0 0 1 .064.137l.107.067c.024.014.04.04.049.078l.072.045c.382.231.732.296 1.053.197.321-.1.576-.303.764-.613.289-.477.494-1.137.613-1.979.143-.827.234-1.733.277-2.719.002-.488-.008-.983-.03-1.486a18.31 18.31 0 0 0-.048-1.45 18.398 18.398 0 0 0-.256-2.161 12 12 0 0 0-.324-1.567l-1.318-.164-3.994 6.586-.172.285a.791.791 0 0 0-.096.237 3.093 3.093 0 0 0-.373 1.586c.055.555.476 1.071 1.264 1.548l-.608 1.002-10.771-6.53.629-1.04c.892.574 1.525.713 1.9.418.413-.304.857-.85 1.334-1.637l9.418-15.53c.376-.621.619-1.208.727-1.763.146-.564-.235-1.122-1.141-1.672l.476-.787zm121.223.6l.156.232-.156-.232zm-9.367 1.494c.484-.116-.185.707-.283.113.12-.062.214-.097.283-.113zm-104.504 6.353c-.423.062-.772.315-1.043.762l-3.34 5.512c.01.038.025.065.049.08a.366.366 0 0 1 .164.05c1.19.46 2.479.622 3.867.485 1.427-.146 2.572-.528 3.436-1.146.21-.133.38-.278.506-.43a2.59 2.59 0 0 0 .396-.492c.044-.072.081-.162.115-.272a.936.936 0 0 0 .118-.273c.096-.268.15-.545.162-.832a2.208 2.208 0 0 0-.155-.875c-.056-.23-.235-.502-.535-.815a6 6 0 0 0-1-.851l-.18-.11-.177-.107a4.8 4.8 0 0 0-1.936-.684 1.568 1.568 0 0 0-.447-.002zm207.41 1.192c.33.005.646.047.947.125 1.205.31 2.067.958 2.588 1.945.13.247.242.519.336.816.081.273.126.566.133.877.108.922-.045 1.948-.457 3.08-.387 1.12-1.062 2.233-2.023 3.34 3.527 1.483 6.17 2.992 7.925 4.526 1.781 1.52 3.158 2.638 4.135 3.353.47.352.895.585 1.272.701.364.092.73.042 1.1-.154l.036-.02c.012-.037.03-.062.055-.076l.037-.02c.012-.037.03-.062.055-.075l.074-.04.547 1.036-11.695 6.174-.567-1.073a.506.506 0 0 1 .15.014l.112-.059c.025-.013.054-.013.092-.002l.074-.039c.395-.208.633-.474.713-.8a1.34 1.34 0 0 0-.133-.971c-.26-.494-.722-1.009-1.383-1.543a21.581 21.581 0 0 0-2.19-1.637 31.207 31.207 0 0 0-1.288-.738 17.99 17.99 0 0 0-1.27-.703 18.35 18.35 0 0 0-1.984-.89 12.05 12.05 0 0 0-1.51-.53l-.82 1.047 3.595 6.81.157.297c.039.074.09.14.154.201.285.48.673.86 1.166 1.137.504.239 1.164.143 1.978-.287l.547 1.035-11.14 5.88-.567-1.073c.95-.47 1.397-.941 1.336-1.414-.048-.511-.287-1.172-.717-1.987l-8.48-16.064c-.339-.642-.717-1.15-1.137-1.527-.408-.416-1.082-.376-2.02.119l-.429-.815 17.137-9.045c1.25-.636 2.369-.947 3.36-.931zm-5.484 5.625c-.162.007-.35.033-.56.082a6.007 6.007 0 0 0-1.245.422l-.185.097-.186.098a4.79 4.79 0 0 0-1.58 1.307c-.401.495-.439 1.053-.113 1.67l3.007 5.699c.038.011.07.01.094-.002a.367.367 0 0 1 .13-.116c1.005-.783 1.807-1.805 2.403-3.066.608-1.299.87-2.478.784-3.537a2.056 2.056 0 0 0-.11-.652 2.606 2.606 0 0 0-.219-.596 1.23 1.23 0 0 0-.173-.238.932.932 0 0 0-.174-.24 2.726 2.726 0 0 0-.63-.567 2.213 2.213 0 0 0-.831-.318 1.233 1.233 0 0 0-.412-.043zm-28.717 9.361c2.101-.061 4.229.306 6.383 1.1 3.447 1.27 5.871 4.023 7.273 8.261 1.35 4.08.953 7.59-1.19 10.532-2.115 2.933-4.866 4.96-8.257 6.082l-.318.105-.239.078c-3.381.972-6.822.875-10.322-.289-3.482-1.199-5.911-3.876-7.287-8.035l-.014-.041c-1.34-4.053-1-7.56 1.018-10.52s4.635-5.043 7.85-6.253l.316-.106.357-.117.319-.106.357-.119a15.709 15.709 0 0 1 3.754-.572zm-132.272.48l12.723 3.454.281.076c4.49 1.247 7.573 3.473 9.248 6.674 1.71 3.181 2.286 6.33 1.729 9.445l-.164.605a4.127 4.127 0 0 1-.113.577c-.797 2.935-2.485 5.324-5.067 7.168-2.574 1.816-5.814 2.194-9.719 1.134l-15.66-4.293.319-1.171c.585.187 1.064.174 1.441-.041.377-.216.652-.489.828-.817.147-.22.25-.439.309-.654a5.64 5.64 0 0 0 .193-.555l4.758-17.527.076-.283c.03-.108.05-.233.059-.375.068-.358.011-.735-.17-1.131-.182-.396-.649-.753-1.4-1.073l.33-1.212zm129.575 3.731a3.663 3.663 0 0 0-.469.002l-.504.078c-.141.017-.29.053-.45.106l-.118.039-.12.039c-1.103.482-1.906 1.615-2.404 3.396-.48 1.746-.26 4.01.66 6.791l.04.12a.328.328 0 0 1 .08.105l.052.158c.036.018.06.054.078.107l-.013-.04c1.096 2.781 2.376 4.784 3.838 6.005 1.48 1.186 2.854 1.788 4.125 1.809.238.009.471.005.7-.012.248-.052.478-.113.69-.183 1.21-.518 2.06-1.636 2.55-3.356.515-1.728.36-3.838-.464-6.328a2.14 2.14 0 0 0-.17-.383l-.158-.476-.027-.08-.026-.08a2.138 2.138 0 0 1-.172-.385l-.117-.358c-1.185-2.517-2.523-4.337-4.011-5.46-1.287-1.015-2.484-1.553-3.59-1.614zm-119.024 2.29a2.26 2.26 0 0 0-.777.146c-.484.186-.792.52-.924 1.005l-4.176 15.39c-.219.807-.154 1.475.194 2.003.375.535.899.895 1.572 1.078.323.088.671.138 1.043.152.399.022.812-.01 1.24-.095 1.297-.198 2.601-.799 3.914-1.801 1.32-1.03 2.244-2.513 2.77-4.451.818-3.016.986-5.501.504-7.453s-1.197-3.419-2.145-4.399a5.247 5.247 0 0 0-1.18-.926 4.219 4.219 0 0 0-1.156-.53 3.16 3.16 0 0 0-.879-.12zm94.87 1.11c1.129.005 2.148.275 3.06.807 1.239.678 1.957 1.622 2.15 2.834.08.496.05 1.023-.088 1.582-.109.554-.338 1.142-.691 1.764-.752 1.307-2.13 2.671-4.135 4.093-1.977 1.419-4.768 2.783-8.373 4.094l-.008-.04 1.264 7.892.098.62c.062.217.155.442.277.677.167.34.441.636.82.886.407.246.954.314 1.643.204l.185 1.156-12.728 2.035-.192-1.197c.666-.079 1.108-.319 1.327-.721.245-.407.391-.825.435-1.256a6.467 6.467 0 0 0-.072-.71 5.884 5.884 0 0 0-.057-.626l-2.869-17.935c-.119-.744-.307-1.307-.566-1.69-.236-.414-.877-.538-1.924-.37l-.145-.91 19.422-3.105c.4-.057.79-.085 1.166-.084zm-72.62 1.256l17.69 1.848c.191.048.37.082.537.1l.457.046c.136.043.273.072.412.086l.375.04c.36.037.684.028.97-.026.287-.054.528-.21.723-.47l.868 9.01-.905.2c-.182-1.478-.78-2.734-1.795-3.765-.986-1.03-2.099-1.79-3.338-2.284a10.003 10.003 0 0 0-1.222-.38 8.267 8.267 0 0 0-1.156-.206c-1.055-.11-1.98.004-2.772.342-.762.313-1.185.873-1.27 1.678l-.322 3.08.492.135.457.049c.14.014.277.041.413.084l.416.043c1.387.145 2.473.09 3.257-.164.787-.283 1.224-.84 1.31-1.672a.366.366 0 0 0-.022-.172l.025-.248c.006-.056-.004-.1-.03-.131l.018-.166.01-.082.012-.125 1.242-.207.52 9.941-1.239.166c-.39-2.172-1.082-3.48-2.074-3.92-.961-.465-2.648-.824-5.062-1.076l-.987 9.45c-.09.86.213 1.578.91 2.156.725.58 1.656.93 2.793 1.049.5.052 1.02.065 1.555.037a12.46 12.46 0 0 0 1.713-.284c1.412-.357 2.77-1.03 4.08-2.015 1.337-.983 2.378-2.346 3.121-4.092l1.182.377-4.383 9.725c-.244-.082-.392-.154-.441-.215a.319.319 0 0 0-.12-.055c.003-.028-.08-.051-.246-.068l-1.29-.135-19.56-2.084.128-1.207c.052.033.09.065.115.096l.125.013a.12.12 0 0 1 .08.049l.041.006c.61.064 1.046-.088 1.309-.453.29-.363.488-.763.59-1.201.045-.164.076-.328.093-.494l.051-.5 1.822-17.442c.093-.888.072-1.618-.064-2.193-.109-.573-.69-.915-1.744-1.026l.13-1.248zm66.332 2.317a3.06 3.06 0 0 0-.502.037 3.049 3.049 0 0 0-.502.039c-.688.11-1.277.317-1.765.621-.465.272-.672.574-.62.904l1.11 6.944.166-.028.152-.11a12.679 12.679 0 0 0 3.278-2.302c1.002-.98 1.624-1.941 1.869-2.885a1.78 1.78 0 0 0 .086-.523 1.971 1.971 0 0 0-.004-.549 1.925 1.925 0 0 0-.1-.365 2.407 2.407 0 0 0-.191-.395 3.128 3.128 0 0 0-.422-.525 2.148 2.148 0 0 0-.576-.416c-.283-.18-.6-.3-.948-.357a6.608 6.608 0 0 0-1.03-.09z" fill="#e6b044"/></svg>