<svg width="200" height="200" fill="none" xmlns="http://www.w3.org/2000/svg"><path fill="none" d="M0 0h200v200H0z"/><path d="M109.797.003c-.629-.027-1.282.146-1.897.577-1.043.73-2.394 3.322-3.939 7.586-.642 1.772-1.302 3.314-1.494 3.433-.193.118-1.279-.209-2.386-.75-2.102-1.027-3.217-1.223-9.66-1.53l-3.88-.172v1.038c0 .573.32 1.974.718 3.116.61 1.748.667 2.43.345 4.269l-.402 2.163H12V180H188.42V36.752l1.725-1.933c1.99-2.272 4.038-6.027 4.915-9 .778-2.636 1.261-8.74.69-8.74-.222 0-1.991.596-3.909 1.327l-3.479 1.327h-13.08l-.689-1.99a116.964 116.964 0 0 0-1.84-4.789l-1.15-2.769-2.702 2.625a139.136 139.136 0 0 1-5.232 4.789l-2.501 2.134h-23.774c-18.671 0-23.834-.088-23.975-.461-.098-.261-.669-2.9-1.265-5.856-1.068-5.297-1.074-5.406-.431-7.442.359-1.136.661-2.6.661-3.26 0-1.588-1.204-2.652-2.587-2.711zm-3.478 12.72l-.23 1.328c-.139.73-.599 2.22-1.006 3.317-.75 2.015-1.294 2.46-1.697 1.413-.427-1.113.287-3.125 1.61-4.586l1.323-1.471zm3.679.145l1.38 5.51c1.647 6.57 1.926 11.776.69 12.893-.938.848-1.112.813-2.357-.519-1.664-1.779-2.46-4.57-2.444-8.538.015-3.545.658-6.228 2.013-8.279l.718-1.067zM93.67 13.3c.467-.015 1.089-.004 1.897 0 2.9.011 3.455.123 4.399.894l1.092.894-.805 1.471c-1.24 2.348-1.116 2.314-4.37 1.27-3.289-1.057-4.286-1.963-3.88-3.577.175-.698.266-.908 1.667-.952zm76.294 3.346l.863 1.067c1.423 1.775 3.628 6.565 3.794 8.25.13 1.308-.123 2.045-1.408 4.327-.853 1.514-1.685 2.74-1.84 2.74-.748 0-2.121-1.392-2.76-2.798-.884-1.945-.901-3.751-.086-7.125.505-2.09.548-2.718.172-3.086-.372-.366-.66-.253-1.379.577-1.413 1.628-1.844 3.768-1.581 8.163.134 2.245.112 3.894-.087 3.894-.582 0-2.779-3.001-3.306-4.529-.871-2.526-.191-3.898 3.968-7.932l3.65-3.548zm-77.846 1.961c.989 0 5.433 2.172 5.433 2.654 0 .706-1.55 1.466-3.766 1.846-1.345.23-2.624.586-2.817.779-.714.713 1.624 1.66 4.513 1.846 2.79.179 2.846.209 2.846 1.24 0 .959-.157 1.06-1.811 1.299a82.27 82.27 0 0 0-2.587.403c-2.632.508-5.703-3.903-4.743-6.807.643-1.95 1.82-3.26 2.932-3.26zm8.681 2.48l1.581 1.443c2.024 1.83 3.157 3.762 4.629 7.933.644 1.827 1.114 3.346 1.034 3.346-.423 0-4.067-3.178-5.461-4.76-1.876-2.128-2.054-2.683-1.898-5.711l.115-2.25zm-87.275.174h73.189v3.808H18.468V65.02c0 21.983.12 55.759.259 75.028l.258 35.018H183.59l-.258-55.758-.288-55.76 1.035-4.903c1.216-5.792 1.139-9.785-.201-11.596-.639-.862-.776-1.64-.776-4.096v-3.029l1.753-.98c.968-.54 1.819-.981 1.898-.981.078 0 .143 31.627.143 70.268V178.5H13.524V21.262zm100.326 0h46.312l-.604 1.904-.604 1.875-22.106.027c-24.628.005-22.195.273-22.768-2.567l-.23-1.239zm63.675.058c.677-.011 1.606-.003 2.587.027l3.565.115-1.725.606a72.73 72.73 0 0 0-3.105 1.24l-1.437.606-.604-1.154c-.335-.646-.524-1.262-.431-1.356.047-.046.473-.073 1.15-.084zm15.063 1.096c.778 0 .186 2.46-1.351 5.625-2.319 4.774-6.976 8.496-11.872 9.519-2.489.52-2.843.496-5.117-.202-2.014-.618-2.464-1.206-1.811-2.423 1.163-2.172 3.767-2.664 8.94-1.73 1.464.263 2.756.42 2.846.345.089-.074-.241-.681-.719-1.327l-.862-1.153 1.351-1.125c.74-.61 2.166-2.222 3.162-3.577 1.692-2.302 3.98-3.952 5.433-3.952zm-6.22.69c.341.042.528.214.528.521 0 .25-.907 1.31-2.012 2.366s-3.242 2.58-4.743 3.375l-2.731 1.442-.23-1.01c-.321-1.277.532-2.214 4.369-4.73 1.784-1.17 3.448-1.866 4.427-1.962.147-.014.278-.016.392-.002zm-162.84 3.089h2.386l1.983 3.75c2.17 4.091 2.34 5.13 1.236 7.557-.7 1.54-.81 1.615-2.386 1.615-2.635 0-3.228-1.148-1.81-3.547.948-1.607.7-2.424-1.524-4.99-1.462-1.687-2.271-3.127-2.271-4.01 0-.196 1.073-.375 2.386-.375zm12.303 0c1.391 0 2.473.067 2.386.144-.087.077-1.596 1.007-3.334 2.077-3.389 2.085-3.373 2.092-2.099-.952.526-1.257.54-1.27 3.047-1.27zm111.366 0c1.136 0 1.18.678.201 2.596-.935 1.83-3.571 4.783-3.938 4.413-1.254-1.263 1.81-7.01 3.737-7.01zm-94.175.057c.276.001.537.01.718.058.364.095-.025.177-.862.173-.836-.005-1.134-.082-.661-.173.236-.045.53-.06.805-.058zm13.453 1.097l10.493.026h10.521l1.121 1.558c1.562 2.133 4.784 3.821 10.062 5.25 10.027 2.715 12.681 3.947 14.345 6.692.527.87.89 2.057.891 2.943.002 1.266-.267 1.747-1.696 3.115-1.533 1.467-6.559 4.599-6.842 4.27-.065-.077-.852-1.827-1.754-3.895-1.931-4.43-3.462-6.572-5.433-7.615l-1.437-.78-.747.895c-1.148 1.395-.972 3.263.402 4.24 1.928 1.372 1.258 4.212-1.61 6.664-1.73 1.478-5.344 2.953-6.382 2.625-2.633-.835-4.12-4.174-4.427-9.866-.227-4.22-.545-5.134-1.696-5.134-1.004 0-2.305.946-6.985 4.961-2.091 1.794-4.623 3.916-5.635 4.731l-1.84 1.471-3.104-.49c-4.61-.736-10.255-.926-12.218-.433-.936.236-2.893 1.17-4.34 2.106-1.447.935-4.213 2.49-6.152 3.432-1.94.943-3.748 1.702-4.025 1.702-.676 0-.643-2.18.058-3.403.766-1.34.68-3.714-.202-5.654-.413-.91-.747-1.748-.747-1.846 0-.267 2.175.224 4.887 1.096 4.65 1.495 10.047-.054 13.885-3.98 1.082-1.108 3.917-4.849 6.295-8.337l4.312-6.344zm48.755 0H124.947l-2.99 4.442a514.052 514.052 0 0 1-4.542 6.663l-1.524 2.192-.718-.894c-.394-.5-1.04-1.63-1.438-2.51-.628-1.39-.659-1.823-.258-3.201.253-.872.732-2.717 1.092-4.125l.661-2.567zm37.572 0c.587-.016 1.334 0 2.3 0h4.341l1.581 2.74c.879 1.514 1.702 3.206 1.811 3.75.244 1.213-.408 1.758-4.829 4.125-5.782 3.095-9.685 7.689-10.464 12.346-.439 2.62-.552 2.768-3.076 4.153-1.357.745-2.496 1.356-2.559 1.356-.429 0-.632-.766-.632-2.51 0-1.105-.429-3.334-.949-4.96-1.574-4.925-1.646-4.726 4.255-10.818 2.859-2.952 4.236-4.722 5.059-6.461.624-1.317 1.15-2.693 1.15-3.058 0-.446.253-.616 2.012-.663zm-93.973.026c.302-.009.674.004 1.12.03l2.07.115-1.35.865c-.871.558-1.905.836-3.019.837l-1.725.028.978-.98c.633-.633 1.019-.866 1.926-.895zm76.15.435c.602.024 1.046.388 2.07 1.442.855.88 2.079 2.49 2.702 3.577 1.028 1.794 1.087 2.108.719 3.462-.223.82-.84 2.317-1.38 3.317l-.977 1.817-.661-1.673c-.926-2.435-2.987-5.942-3.508-5.942-.825 0-5.394 5.17-7.215 8.192-2.373 3.938-3.429 6.98-3.45 9.865-.02 2.944.926 4.614 4.859 8.568 1.583 1.591 2.874 3.089 2.874 3.346 0 .256-.989 1.503-2.213 2.769l-2.243 2.307-3.363-1.355c-5.865-2.352-8.971-2.81-10.809-1.558-.517.352-1.8 1.374-2.846 2.25-1.631 1.367-2.037 1.545-2.846 1.24-1.503-.566-2.316-1.487-3.478-3.923-1.247-2.614-1.364-3.808-.46-5.134 2.03-2.978 10.069-10.75 19.979-19.298 3.294-2.841 6.008-5.317 6.008-5.48 0-.523-2.664-.297-3.852.317-1.1.568-1.149.551-.776-.145.565-1.055 4.794-4.883 7.043-6.375 1.064-.705 2.475-1.397 3.133-1.528.263-.053.49-.066.69-.058zm-90.006.548c.292-.014.616-.007.948 0 2.614.06 5.388 1.249 7.733 3.317l1.495 1.327h-3.22c-3.415 0-5.142-.57-6.611-2.192l-.719-.779-1.639.952c-2.059 1.205-2.59 1.08-1.84-.462.696-1.428 1.806-2.067 3.853-2.163zm-6.325 1.471c.14.038-.11.462-.747 1.356-1.857 2.606-3.074 3.976-3.076 3.433-.005-1.16 2.067-3.891 3.565-4.702.128-.07.212-.1.258-.087zm-18.283 1.125l.834 1.327c1.555 2.547 1.598 3.185.546 5.48-.53 1.156-1.034 2.106-1.15 2.106-.116 0-.23-2.016-.23-4.47v-4.443zM44.772 34.3c1.275-.01 2.656.263 4.685.78 2.091.53 4.317 1.005 4.945 1.066 1.139.113 1.133.119-1.926 3.231-2.044 2.078-3.738 3.455-5.117 4.096-1.138.53-2.331.931-2.645.923-.684-.017-5.413-1.76-8.48-3.144l-2.214-1.01.633-1.067c.803-1.358 3.633-3.246 6.036-4.038 1.651-.544 2.807-.827 4.083-.837zm121.513 2.537v.002c.711-.048 1.615.246 2.386.894 2.082 1.75 5.114 2.656 8.997 2.683l3.536.027v1.788c.001 1.634-.27 2.178-.833 1.615-.114-.113-2.686-.817-5.692-1.557-6.751-1.663-9.63-2.969-9.63-4.327 0-.7.524-1.077 1.236-1.125zM24.85 40.444l1.351.664c.746.355 1.626 1.154 1.955 1.788.74 1.431.36 2.286-2.444 5.568-1.363 1.596-1.759 2.284-1.408 2.48.774.433 2.052-.047 2.702-1.038.328-.5.788-.923 1.006-.923.219 0-.464 1.238-1.524 2.74-1.06 1.503-1.926 2.947-1.926 3.202 0 .255.442.764.978 1.154.87.634.939.939.834 2.798l-.115 2.077L24.13 58.3c-3.818-4.775-4.513-6.028-4.513-7.99 0-2.017 1.765-5.772 3.938-8.337l1.294-1.529zm134.852.375c1.41-.043 2.797.386 3.679 1.183.585.529.719 1.188.719 3.635 0 2.07-.16 3.026-.489 3.115-.261.07-1.505.341-2.759.577-1.255.236-3.714 1.14-5.491 2.02-1.778.879-3.332 1.636-3.45 1.701-.921.508-.996-2.81-.115-5.394.87-2.551 4.287-6.05 6.497-6.635a6.315 6.315 0 0 1 1.409-.202zm-26.792.808v5.452h-1.064c-.593 0-1.179.116-1.294.23-.195.196.047 1.393.69 3.52.253.834.194.895-.862.663-.779-.17-1.295-.09-1.61.289-.585.704-.102 1.886 2.76 6.836 1.162 2.011 2.068 3.664 2.012 3.664-.057 0-1.675-1.594-3.593-3.548-4.135-4.211-4.913-5.688-4.082-7.673.772-1.846 4.063-6.558 5.691-8.135l1.352-1.298zM32.554 43.675c.558 0 2.267 2.82 2.817 4.644.468 1.552.446 1.912-.517 4.875-.573 1.761-1.778 4.955-2.674 7.096-.895 2.141-1.79 3.894-1.983 3.894-.468 0-1.466-2.412-1.466-3.548 0-.494.58-3.53 1.293-6.75.714-3.22 1.512-6.818 1.754-8.019.242-1.2.585-2.192.776-2.192zm104.208.923c.175-.009.337.465.718 1.587.963 2.828 1.621 7.194 1.323 8.798-.144.77-.609 2.21-1.035 3.202-.426.992-.922 1.817-1.121 1.817-.2 0-.855-.515-1.466-1.125-.995-.994-1.122-1.34-1.122-3.49.001-2.33 1.412-8.586 2.329-10.298.155-.29.268-.485.374-.49zm39.44.202c1.262 0 1.702.245 2.961 1.616.816.887 1.973 2.258 2.559 3.028.699.921 1 1.75.92 2.423l-.115 1.01-1.898-1.5c-1.936-1.532-4.892-4.691-5.548-5.913-.311-.58-.176-.664 1.121-.664zm-9.227.779c.127 0 1.315.505 2.616 1.125 3.421 1.631 4.162 3.892 2.328 7.096-.775 1.354-.83 1.67-.374 2.048.697.578 1.344.046 3.048-2.48l1.293-1.904v1.557c0 .859-.263 2.29-.575 3.173-.423 1.2-.439 1.575-.086 1.442 2.273-.853 2.185-.944 2.185 1.962 0 1.476-.053 2.683-.115 2.683-.062 0-1.95-1.449-4.197-3.231-2.504-1.985-4.543-3.934-5.232-5.02-1.027-1.616-1.121-2.053-1.121-5.105 0-1.839.103-3.346.23-3.346zm-65.939.398c.133.054.22.276.338.583.557 1.44.286 4.94-.517 6.605-.353.731-1.703 2.617-2.99 4.183-1.287 1.566-2.62 3.52-2.99 4.356-.948 2.147-1.255 4.748-.66 5.74.266.446.98 1.623 1.58 2.596.6.974.994 1.86.891 1.962-.338.337-3.495-3.18-4.8-5.337-.715-1.181-1.34-2.822-1.438-3.72-.16-1.469.022-1.91 2.013-4.847 1.203-1.775 3.61-5.348 5.347-7.933 1.97-2.93 2.693-4.034 3.075-4.182a.198.198 0 0 1 .151-.006zm-20.59.41c.734-.086 1.01.772 1.668 2.711 1.152 3.397.53 5.807-2.329 9-.841.94-2.054 2.007-2.673 2.365l-1.121.664.2-1.904c.17-1.75.05-2.007-1.408-3.894-.863-1.117-1.552-2.26-1.552-2.51 0-.97 1.36-2.442 4.283-4.615 1.508-1.12 2.362-1.75 2.932-1.817zm80.837 5.334v.002c.288.008.575.046.862.085 2.009.275 2.902.965 3.507 2.798.432 1.305.391 1.402-.833 2.423-.701.584-2.589 1.76-4.197 2.596-1.609.836-3.14 1.51-3.421 1.5-.282-.01.396-.838 1.523-1.846 1.193-1.068 1.937-2.03 1.783-2.279-.151-.244-1.276-.433-2.616-.433-2.014 0-2.431-.097-2.875-.807-.477-.763-.403-.945.834-2.077 1.417-1.298 3.413-2.014 5.433-1.962zm-102.655.78c2.826.007 5.094.563 7.646 1.818 2.719 1.337 4.405 3.147 5.06 5.48.591 2.112-.092 4.539-2.099 7.559-1.593 2.396-14.569 15.114-16.817 16.47-2.29 1.383-5.65 2.34-10.349 2.971-7.524 1.01-11.597 1.92-14.287 3.202-1.7.81-3.403 2.038-5.002 3.635l-2.415 2.423V82.905c0-14.906-.36-13.309 3.565-15.346 1.224-.635 2.445-1.061 2.73-.951.287.109 1.14 1.052 1.898 2.105s1.615 1.933 1.898 1.933c.901 0 1.667-1.57 2.127-4.413.653-4.043 1.069-4.54 5.318-6.202 2.001-.783 5.147-2.246 7.014-3.26 6.707-3.64 6.872-3.693 10.665-4.096 1.1-.117 2.105-.175 3.047-.173zm27.424 2.136l1.179 1.384c1.33 1.513 1.474 2.489.632 4.5-1.238 2.96-.497 4.595 5.318 11.827 4.965 6.173 4.796 5.746 2.041 6.057-1.262.143-2.483.317-2.73.404-.248.088-1.022-.8-1.725-1.961-1.824-3.011-4.806-6.473-6.181-7.183-1.584-.818-7.248-1.117-11.729-.606-1.975.226-3.653.344-3.737.26-.476-.476 3.698-3.71 7.1-5.51 4.553-2.406 7.26-4.658 8.768-7.297l1.064-1.876zm94.146.115c.238 0 .558.245 1.035.721 1.014 1.013.856 3.224-.431 5.798-.485.97-1.15 2.025-1.495 2.337-.581.524-.605.382-.144-1.818.274-1.306.513-3.425.518-4.73.005-1.593.12-2.309.517-2.308zm-33.059 2.423c1.345-.024 1.523.09 1.409.75-.073.418-.852 1.776-1.754 3.029-.901 1.253-2.407 2.995-3.334 3.894l-1.668 1.644-1.983-1.558c-2.286-1.804-2.253-2.039.546-4.5 2.255-1.982 4.832-3.224 6.784-3.26zm-126.544 1.27c.199-.056.575.632 1.294 1.99l.747 1.384-.92.98c-.505.546-1.006 1.01-1.12 1.01-.115 0-.234-1.323-.23-2.942.002-1.558.03-2.368.23-2.423zm131.345.026c.143-.011.287 0 .46 0 .792 0 1.437.171 1.437.375 0 1.151-2.198 5.883-3.967 8.539-2.732 4.101-3.174 4.467-4.427 3.807-.535-.281-1.155-.92-1.38-1.413-.527-1.156-.081-2.017 3.852-7.27 2.552-3.407 3.022-3.957 4.025-4.038zm14.639 1.114c.331.033.028.488-.984 1.338-.998.839-3.392 1.383-3.392.779 0-.102 1.016-.694 2.271-1.327.93-.47 1.575-.718 1.926-.779a.673.673 0 0 1 .179-.01zm3.673.79c.561 0 3.978 3.352 6.842 6.721 2.577 3.032 2.715 3.15 3.392 2.538.691-.624.718.038.718 26.135 0 14.723.12 38.073.259 51.893l.23 25.125H20.74v-60.259l3.535-3.404c8.29-7.994 17.111-13.98 23.975-16.269 2.113-.704 19.467-4.01 21.071-4.01.059 0 .087-.153.087-.345 0-.192-.886-.623-1.984-.981-1.098-.358-2.114-.719-2.27-.808-.512-.29 2.05-3.1 3.42-3.75 2.088-.99 4.764-.49 6.21 1.154 1.644 1.871 3.948 2.637 7.1 2.365 1.407-.121 3.253-.472 4.11-.779l1.553-.576-.834 3c-.486 1.722-1.755 4.599-3.018 6.807-2.942 5.145-3.489 7.038-2.904 10.212.575 3.115 1.492 4.864 3.421 6.605 1.87 1.687 2.779 1.948 5.836 1.644 1.3-.128 2.55-.213 2.76-.201.209.012 1.65.11 3.22.23 6.28.483 7.034.421 8.623-.836.822-.65 1.953-2.144 2.588-3.404.996-1.978 1.111-2.609 1.092-5.481-.026-3.952-.75-5.86-3.68-9.49-2.391-2.962-4.227-5.682-3.996-5.913.092-.091.864.078 1.725.375 2.122.73 5.924 1.323 8.538 1.327 2.129.002 2.167.034 3.479 1.817 1.648 2.241 5.973 6.388 8.25 7.932 4.563 3.095 10.944 5.326 13.885 4.846 1.256-.204 3.373-1.033 3.938-1.528.075-.066-.504-.746-1.265-1.529-.799-.822-2.657-3.947-4.398-7.385-3.345-6.605-5.32-9.407-7.589-10.701-1.571-.896-2.003-1.818-.863-1.818.359 0 1.351-.248 2.214-.577l1.552-.605 5.347 3.605c6.268 4.237 9.352 5.88 11.7 6.202 1.543.211 1.725.312 1.725 1.24 0 1.69 2.168 5.6 3.909 7.01 2.969 2.404 4.341 2.867 8.395 2.856 4.152-.012 6.8-.731 9.515-2.596 3.759-2.584 5.563-5.856 5.548-10.068-.011-2.917-.688-4.355-4.14-8.942-2.585-3.435-3.852-6.141-3.852-8.22 0-1.858-3.13-4.328-5.49-4.328-.53 0-.978-.135-.978-.317 0-.852 7.346-6.519 8.452-6.519zm-71.034 1.327c.207-.022.247.367.374 1.385.651 5.234.676 6.142.172 6.46-.692.439-.768.422-1.782-.287-.487-.341-1.136-1.213-1.437-1.933-.513-1.226-.496-1.403.373-2.885.511-.87 1.272-1.924 1.697-2.307.285-.259.479-.42.603-.433zm55.223 2.02c.355-.011.925.32 2.185 1.095 1.606.989 2.064 1.44 1.696 1.673-.517.327-1.922.346-3.824.058-1.161-.176-1.435-1.343-.574-2.48.161-.215.304-.34.517-.347zm-19.548 2.451a7.99 7.99 0 0 1 2.156.26c3.134.842 5.975 4.561 7.819 10.182.358 1.092.585 2.352.518 2.827-.106.745-.358.552-1.811-1.413-4.913-6.644-5.899-7.833-7.446-8.856-.927-.614-2.315-1.242-3.076-1.385-1.213-.227-1.321-.32-.833-.807.504-.504 1.519-.789 2.673-.808zm-19.232 2.077c2.941-.198 6.349 1.467 11.154 5.308l3.162 2.538-1.092.865c-.604.489-1.973 1.31-3.018 1.818-2.208 1.072-3.97 1.563-3.968 1.096.001-.18.33-.874.748-1.558 1.509-2.473 1.249-2.644-4.973-3.115-4.941-.375-6.659-.982-7.043-2.51-.364-1.448.388-2.689 2.213-3.634a7.077 7.077 0 0 1 2.817-.808zm42 0l-.949 1.413c-.521.767-1.135 2.343-1.38 3.52-.684 3.29-1.381 4.949-3.105 7.47-.871 1.275-2.02 3.341-2.587 4.587l-1.035 2.25-.862-1.673c-.761-1.49-.829-2.062-.632-4.933.371-5.441 1.742-8.74 4.398-10.528 1.175-.791 2.032-1.11 5.088-1.846l1.064-.26zm-89.03 2.077c.22.033.465.487.777 1.356.28.783.592 1.642.69 1.903.275.739-1.24.558-1.955-.23-.52-.575-.547-.913-.201-1.904.272-.78.47-1.159.69-1.125zm33.519.202l1.524.202c1.095.146 2.353.859 4.456 2.48 3.903 3.011 5.764 3.915 8.768 4.212l2.529.23-1.926 1.99c-1.059 1.097-2.172 1.992-2.472 1.991-1.15-.002-3.387-1.757-8.049-6.346l-4.83-4.76zm27.281.029l2.875.144c2.75.139 2.928.21 4.398 1.644 2.02 1.97 6.467 10.66 6.468 12.634 0 .281-.485.462-1.207.462-.997 0-1.653-.426-3.536-2.365-1.268-1.306-2.914-3.586-3.68-5.048-.766-1.462-2.024-3.25-2.788-3.981-.764-.731-1.641-1.825-1.955-2.423l-.575-1.067zm34.698.346l.977.923c1.357 1.264 2.275 3.21 2.76 5.827.486 2.627 1.019 3.534 3.536 6.028 2.127 2.11 2.587 3.038 2.587 5.337 0 3.147-1.767 6.353-3.967 7.24-1.347.543-3.651 1.01-3.651.75 0-.095.293-.853.632-1.702.34-.848.503-1.66.374-1.788-.128-.129-1.11.313-2.185.98-1.074.668-2.038 1.156-2.127 1.068-.088-.089.388-1.003 1.035-2.02 1.078-1.693 1.093-1.856.431-1.96-.397-.064-1.581.23-2.645.634l-1.926.72 1.696-2.509c.931-1.385 1.508-2.582 1.294-2.654-.214-.07-1.183.16-2.156.49-.973.332-1.83.53-1.897.462-.067-.067.381-.613 1.006-1.211 2.041-1.953 1.241-2.225-2.099-.75-2.226.983-2.26.869-.46-1.443.618-.792 1.045-1.548.92-1.672-.125-.125-1.304.052-2.616.374-1.311.323-2.434.554-2.472.52-.038-.035 1.107-2.376 2.53-5.192 1.422-2.817 2.784-5.791 3.047-6.606l.489-1.471.517 1.182c.403.958.712 1.212 1.61 1.212.886 0 1.311-.294 1.955-1.385l.805-1.384zm-81.527.375l1.409 1.269c1.28 1.122 3.65 4.18 3.65 4.702 0 .477-2.333 1.356-3.593 1.356-1.827 0-3.424-.714-5.835-2.625-1.417-1.124-2.208-1.522-2.731-1.356-.678.215-.717.31-.23 1.24 1.179 2.254 3.83 3.99 8.02 5.221l2.3.664-1.523.692c-1.99.912-4.626.912-6.124 0-.645-.393-1.531-1.454-1.954-2.365-1.112-2.395-2.874-7.935-2.616-8.193.12-.12 2.238-.302 4.714-.403l4.513-.202zm17.105 3.029l2.357.26c3.337.347 4.298.97 6.267 4.124.947 1.518 2.43 3.444 3.277 4.27.847.825 1.524 1.708 1.524 1.96 0 .253-.507.902-1.15 1.443-2.989 2.512-9.288-.313-11.269-5.048-.307-.733-.658-2.622-.776-4.183l-.23-2.826zm-36.192.519l.862 1.038c1.972 2.369 1.66 3.749-1.696 7.183-1.413 1.445-2.09 2.085-1.495 1.413 1.252-1.414 1.218-2.584-.086-2.769-.684-.097-1.512.456-3.392 2.279-1.253 1.214-1.867 1.784-1.984 1.817.035-.111.282-.487.719-1.096.675-.94 2.56-3.557 4.168-5.798l2.904-4.067zm6.755 1.904c.636.015 1.044.387 1.322 1.125.51 1.346.44 1.346-1.782.317-1.498-.694-1.614-.823-.949-1.096.57-.234 1.028-.355 1.409-.346zm25.247 7.261c.856.183 1.929 1.744 2.781 4.334 1.222 3.713 1.736 4.566 4.255 7.414 3.471 3.925 4.368 6.655 3.363 10.269-.469 1.689-2.5 3.554-4.456 4.096-1.788.496-3.535.511-4.283.029-.314-.203-1.035-.372-1.61-.375-1.29-.008-1.314-.292-.086-2.712.537-1.058.89-2.02.776-2.134-.114-.114-.888.226-1.725.779-.836.552-1.607 1.009-1.696 1.009-.089 0 .377-.944 1.007-2.106.63-1.161 1.06-2.166.977-2.25-.084-.083-.917.342-1.84.952-.923.611-1.737 1.055-1.811.981-.074-.074.66-1.39 1.61-2.913.95-1.524 1.638-2.857 1.552-2.942-.085-.086-.879.369-1.782.98a48.761 48.761 0 0 1-2.07 1.327c-.227.131.184-.974.891-2.452.707-1.478 1.185-2.764 1.064-2.884-.121-.121-1.386.347-2.789 1.038l-2.53 1.24 1.783-1.932c2.51-2.68 2.29-3.395-.661-2.164l-1.294.548.518-1.211c.281-.664.676-2.38.89-3.808.535-3.543 2.196-5.271 2.76-2.884.179.753.43.923 1.495.923 1.228 0 1.338-.093 1.639-1.616.182-.92.512-1.415.92-1.528a.73.73 0 0 1 .352-.008zm24.916.411c.19-.016.389-.007.575 0 1.24.05 2.386.612 3.594 1.702 1.856 1.676 2.813 3.483 4.887 9.346.876 2.477 1.67 4.728 1.782 5.02.285.742-.506.652-2.932-.347-4.037-1.66-9.31-5.77-11.355-8.855-2.002-3.018-1.422-5.226 1.667-6.404.639-.244 1.214-.412 1.782-.462zm10.004 6.433c.437.074 2.243 2.432 2.76 3.663.294.7.467 1.689.402 2.193-.106.839-.198.76-1.149-.75-1.054-1.673-2.339-4.808-2.07-5.077.016-.016.028-.034.057-.029zm-93.83 1.471h2.214l-2.271 2.077c-1.238 1.141-5.56 4.277-9.602 6.981l-7.33 4.932v-1.211c-.001-1.029.48-1.696 3.133-4.24 3.493-3.35 8.562-7.258 10.436-8.048.672-.284 2.211-.5 3.42-.49zm-9.227 11.481c.05.001.093.007.115.029.462.462-.918 2.305-2.846 3.807-1.093.852-2.666 1.947-3.508 2.423l-1.523.866v-1.125c0-.84.37-1.438 1.524-2.423 1.651-1.412 5.485-3.592 6.238-3.577zm138.531 1.675c-1.338 0-2.635.349-3.91 1.038a7.349 7.349 0 0 0-2.989 2.942c-.715 1.283-1.093 2.618-1.093 4.01 0 1.378.36 2.709 1.064 3.981a7.496 7.496 0 0 0 2.961 2.971 8.032 8.032 0 0 0 3.967 1.038c1.38 0 2.703-.335 3.967-1.038 1.264-.703 2.231-1.699 2.932-2.971.701-1.272 1.064-2.603 1.064-3.981 0-1.392-.352-2.727-1.064-4.01a7.325 7.325 0 0 0-2.989-2.942c-1.275-.689-2.572-1.038-3.91-1.038zm0 1.327c1.113 0 2.185.289 3.248.865 1.064.576 1.906 1.381 2.501 2.452.596 1.071.892 2.187.892 3.346a6.743 6.743 0 0 1-.863 3.317 6.282 6.282 0 0 1-2.472 2.481 6.665 6.665 0 0 1-3.306.865 6.665 6.665 0 0 1-3.306-.865 6.308 6.308 0 0 1-2.472-2.481c-.588-1.056-.891-2.165-.891-3.317 0-1.159.321-2.275.92-3.346a6.098 6.098 0 0 1 2.472-2.452c1.06-.576 2.157-.865 3.277-.865zm-3.507 2.48v8.596h1.38v-3.634h.833c.486 0 .839.09 1.093.288.366.269.867.923 1.466 1.991l.747 1.355h1.696l-1.035-1.673c-.495-.801-.948-1.362-1.293-1.702a2.304 2.304 0 0 0-.719-.461c.74-.057 1.335-.313 1.782-.779a2.287 2.287 0 0 0 .662-1.644c0-.445-.135-.874-.403-1.269a2.094 2.094 0 0 0-1.063-.837c-.451-.159-1.178-.231-2.185-.231h-2.961zm1.38 1.154h1.581c.676 0 1.13.074 1.38.173.25.099.462.231.603.433.141.201.202.438.202.692 0 .396-.139.712-.432.952-.292.24-1.094.939-1.638.346h-1.696v-2.596zM48.773 116.81l-.011.016a8.544 8.544 0 0 0-3.746.905 9.622 9.622 0 0 0-3.13 2.47c-.889 1.033-1.6 2.264-2.134 3.687l-.002.002v.002c-.514 1.428-.77 2.971-.77 4.626 0 1.375.176 2.67.525 3.887a13.04 13.04 0 0 0 1.468 3.333l.002.002v.002a10.56 10.56 0 0 0 2.388 2.607l.002.002h.002a9.97 9.97 0 0 0 3.198 1.588l.005.002.546.135c.133.038.14.09.119.023l.009.031.018.025a.797.797 0 0 1 .068.249v.004l.137.829c.12.769.41 1.482.864 2.129a6.262 6.262 0 0 0 1.708 1.644 8.596 8.596 0 0 0 2.394 1.095h.002s.001.002.003.002a9.395 9.395 0 0 0 2.846.423c.983 0 1.497-.123 2.099-.225.2-.034.356-.106.562-.029.257.097.414.239.447.339l.004.011.004.011c.063.142.116.482.116.973v15.543c0 .77-.047 1.323-.127 1.626-.064.222-.268.403-.732.53h-.003c-.14.04-.28.059-.419.059-.17 0-.321.011-.456.038-.148.03-.283.094-.4.182l-.015.01-.011.01c-.132.133-.17.316-.17.509a.75.75 0 0 0 .258.593c.173.139.398.189.658.189.273 0 .657-.037 1.166-.106l.003-.002h.004c.507-.089 1.158-.133 1.951-.133.862 0 1.55.045 2.055.133l.006.002h.005c.553.069.944.106 1.197.106.26 0 .487-.051.66-.189l.001-.002.002-.002c.172-.143.29-.34.29-.555 0-.242-.052-.462-.23-.597a1.035 1.035 0 0 0-.479-.182 3.358 3.358 0 0 0-.526-.036 1.881 1.881 0 0 1-.54-.151c-.284-.143-.418-.298-.466-.475-.057-.207-.096-.624-.096-1.213v-6.443c0-.208.016-.343.028-.401.004-.018.014-.018.04-.019l.024.003c.033.01.085.025.146.045l.538.238c.418.186.802.336 1.154.454.364.122.72.186 1.069.186.677 0 1.313-.16 1.895-.476l.002-.002H67a5.567 5.567 0 0 0 1.576-1.329l.002-.003.001-.002a6.7 6.7 0 0 0 1.066-1.998 7.64 7.64 0 0 0 .39-2.488c0-2.138-.507-3.782-1.556-4.889-1.049-1.107-2.618-1.648-4.65-1.648-.746 0-1.408-.045-2-.021a38.6 38.6 0 0 1-1.433.034h-.55c-.377 0-.886-.016-.886-.016h-.004l-.96-.01-.667-.007H57.016a3.925 3.925 0 0 1-1.333-.308l-.004-.002h-.002a6.714 6.714 0 0 1-1.529-.867v-.002a8.157 8.157 0 0 1-1.369-1.273 8.179 8.179 0 0 1-1.069-1.574l-.343-.654-.066-.136c-.005-.009-.004-.013-.006-.019a.463.463 0 0 1 .148-.074l.72-.24a7.68 7.68 0 0 0 2.616-1.491 10.164 10.164 0 0 0 2.075-2.466 12.6 12.6 0 0 0 1.364-3.229c.35-1.217.523-2.501.523-3.853 0-1.656-.266-3.201-.803-4.63-.513-1.423-1.226-2.655-2.139-3.688a9.612 9.612 0 0 0-3.122-2.469l-.005-.001a8.068 8.068 0 0 0-3.779-.92l-.12.001zm-.083 1.357c.826 0 1.589.239 2.31.722l.004.001.004.002c.743.461 1.394 1.144 1.951 2.061.557.916.995 2.043 1.311 3.38v.004c.338 1.333.509 2.852.509 4.559 0 1.593-.16 2.998-.474 4.215v.004c-.293 1.221-.709 2.256-1.242 3.103-.533.824-1.15 1.449-1.849 1.887l-.002.002a4.243 4.243 0 0 1-2.213.621c-.827 0-1.604-.228-2.348-.689-.722-.484-1.361-1.177-1.92-2.095-.556-.916-.996-2.042-1.313-3.379v-.002c-.315-1.357-.474-2.889-.474-4.597 0-1.594.148-3 .44-4.218.316-1.222.731-2.245 1.242-3.069.533-.824 1.15-1.438 1.847-1.853l.002-.002h.002c.7-.439 1.432-.656 2.213-.656v-.001zm63.766 1.856c-.05 0-.072.057-.117.075l-.01-.038-.631.424h.253c-.023.046-.049.079-.072.132l.006-.013c-.05.1-.118.213-.207.337l-.007.009-.006.01a.575.575 0 0 1-.224.227l-.004.002-.005.001c-.063.04-.346.107-.782.107-.257 0-.573-.01-.947-.029a24.446 24.446 0 0 0-1.254-.027h-3.469c-.417 0-.797.008-1.141.027h-.891c-.349 0-.625-.021-.823-.059-.199-.038-.312-.099-.34-.127l-.068-.068h-.081a2.918 2.918 0 0 0-.145-.353l.014.039a1.63 1.63 0 0 0-.156-.371.486.486 0 0 0-.128-.188.4.4 0 0 0-.248-.09c-.148 0-.3.064-.401.173a.841.841 0 0 0-.19.406l-.002.009v.009c-.036.255-.102.601-.196 1.032l-.704 2.882a2.773 2.773 0 0 0-.086.319c-.02.1-.032.13-.032.215 0 .102.005.186.017.263.013.077.019.152.106.24l.017.016.018.013a.586.586 0 0 0 .325.095h.055c.335 0 .607-.245.796-.604l-.003.01c.185-.316.446-.756.778-1.311.342-.433.687-.75 1.031-.957.331-.2.767-.307 1.321-.307h.788c.023 0 .011-.022.045.058l.008.02.012.018a.368.368 0 0 1 .074.211v13.786c0 .594-.048.997-.099 1.138-.04.11-.178.238-.501.34l-.006.002-.007.002c-.126.048-.25.071-.372.071-.161 0-.303.011-.431.032a.849.849 0 0 0-.381.155c-.144.108-.207.29-.207.467 0 .201.082.402.239.523.158.121.357.162.584.162.316 0 .7-.031 1.157-.088h.006l.003-.002c.435-.073.94-.108 1.513-.108.593 0 1.099.035 1.513.108l.006.002h.007a9.65 9.65 0 0 0 1.157.088c.223 0 .414-.033.571-.139a.595.595 0 0 0 .25-.488c0-.184-.052-.368-.199-.485a.691.691 0 0 0-.36-.168 2.704 2.704 0 0 0-.402-.031 2.266 2.266 0 0 1-.435-.101l-.006-.001-.003-.002a1.5 1.5 0 0 1-.381-.163.564.564 0 0 1-.147-.187 2.615 2.615 0 0 1-.071-.415v-14.583c0-.046.016-.096.051-.157.041-.061.051-.065.086-.065h.451c.85 0 1.488.087 1.894.24l.005.002h.006c.375.125.684.44.93 1.002.072.27.135.516.189.732.056.225.101.422.138.59l.004.01.004.011c.059.18.12.326.19.444l.008.012.009.013a.63.63 0 0 0 .49.227.63.63 0 0 0 .286-.059.444.444 0 0 0 .205-.22c.087-.181.115-.402.134-.73v-.002l.169-3.743v-.317a.92.92 0 0 0-.1-.388c-.011-.036-.042-.063-.059-.097l.378-.256-.76-.001zm5.491.706a.58.58 0 0 0-.521.339l-.004.008-.004.01c-.036.11-.092.268-.167.475l-.002.005-4.488 14.614v.002c-.149.506-.289.935-.418 1.287a1.457 1.457 0 0 1-.511.685l-.001.002-.004.002a.722.722 0 0 1-.343.153c-.169.019-.321.037-.455.056a1.16 1.16 0 0 0-.427.137.452.452 0 0 0-.218.2.63.63 0 0 0-.061.289c0 .176.079.359.223.463.144.104.319.135.516.135.22 0 .482-.019.79-.058h.007l.008-.001a6.081 6.081 0 0 1 1.058-.083c.594 0 1.094.03 1.493.084.419.058.734.087.961.087.187 0 .356-.029.494-.128a.553.553 0 0 0 .216-.444.693.693 0 0 0-.426-.638c-.218-.088-.513-.155-.898-.213h-.002c-.241-.034-.392-.098-.449-.146-.026-.021-.086-.136-.086-.389 0-.276.134-1.014.415-2.12v-.002l.677-2.52.002-.002c.007-.031.008-.027.016-.033l.006-.003.005-.006c.053-.04.079-.038.059-.038h3.499c.098 0 .158.017.179.029.022.012.015.005.02.023l.002.006 1.103 3.629c.166.593.243 1.014.243 1.206 0 .22-.048.298-.117.341v.002c-.06.037-.356.106-.811.106-.218 0-.413.042-.565.164a.66.66 0 0 0-.229.519c0 .168.079.345.218.444.139.099.305.128.492.128.204 0 .536-.02 1.008-.058l.004-.002h.003a17.466 17.466 0 0 1 1.89-.082c.557 0 1.017.028 1.377.082h.002c.401.058.729.087.991.087.223 0 .416-.032.573-.137a.599.599 0 0 0 .25-.49.496.496 0 0 0-.167-.375.65.65 0 0 0-.361-.136c-.158-.028-.365-.123-.611-.299l-.005-.004-.004-.001a1.881 1.881 0 0 1-.731-.86 17.014 17.014 0 0 1-.557-1.564l-4.26-13.478a10.785 10.785 0 0 1-.277-.943.755.755 0 0 0-.208-.393c-.049-.045-.121-.041-.182-.066v-.087h-.23zm-57.512.51c-.177 0-.348.044-.474.163a.627.627 0 0 0-.178.465c0 .18.025.344.152.472l.027.027.033.017c.103.051.218.084.347.106l.02.004h.017c.1 0 .223.009.367.027l.014.001h.015c.143 0 .3.025.47.076.266.085.372.188.387.227.028.077.068.39.068.853v9.937c0 .875.039 1.666.115 2.375v.003l.002.004c.098.712.348 1.36.743 1.936a4.406 4.406 0 0 0 2.05 1.643c.846.335 1.88.497 3.103.497 1.116 0 2.083-.182 2.891-.558h.002l.002-.002c.806-.395 1.429-.957 1.847-1.677.394-.671.62-1.406.679-2.194.076-.764.113-1.636.113-2.621v-6.965c0-.696.01-1.287.029-1.774.018-.477.064-.846.131-1.101l.002-.002c.085-.272.191-.446.293-.537.117-.09.293-.148.557-.148.292 0 .509-.016.683-.065l.014-.004.014-.005c.208-.09.336-.322.336-.552a.597.597 0 0 0-.25-.489c-.157-.105-.348-.139-.57-.139-.166 0-.405.02-.72.056a21.12 21.12 0 0 1-1.228.029c-.486 0-.886-.01-1.199-.029a6.15 6.15 0 0 0-.72-.056c-.192 0-.368.039-.505.154a.612.612 0 0 0-.203.474c0 .208.111.425.296.517l.015.008.016.003c.131.044.276.076.438.096h.002l.508.058c.13.014.235.056.331.122.167.144.306.469.342 1.021V123.701c.054.552.082 1.367.082 2.439v6.851c0 .975-.037 1.808-.111 2.495v.008c-.054.664-.24 1.222-.554 1.696-.651.936-1.658 1.403-3.111 1.403-.73 0-1.305-.112-1.733-.318a2.486 2.486 0 0 1-1.033-.907c-.243-.421-.423-.937-.531-1.55v-.002a16.22 16.22 0 0 1-.14-2.259v-9.879c0-.439.04-.731.07-.815.039-.085.15-.187.395-.269.15-.05.284-.072.406-.072h.438l.016-.002c.158-.023.3-.07.417-.159.153-.114.205-.304.205-.494a.629.629 0 0 0-.18-.466c-.126-.119-.297-.161-.474-.161-.19 0-.484.041-.94.117-.428.072-1.05.108-1.852.108s-1.423-.036-1.852-.108c-.3-.05-.442-.059-.618-.077l.016-.04-.34-.001zm15.953 0c-.177 0-.349.044-.475.163a.627.627 0 0 0-.177.465c0 .18.025.344.152.472l.027.027.032.017c.103.051.218.084.347.106h.004l.002.002c.143.02.294.03.454.03.144 0 .302.025.471.076h.002c.237.082.33.177.354.249l.005.014.007.015c.035.069.088.362.088.802v12.966c0 .297-.009.545-.026.743l-.002.011v.01c0 .162-.024.288-.063.383a.446.446 0 0 1-.187.182l-.007.003-.008.006c-.075.05-.222.111-.434.164h-.004l-.003.002a1.22 1.22 0 0 1-.333.049c-.143 0-.278.011-.404.032h-.004l-.005.002a.847.847 0 0 0-.345.153l-.014.009-.011.011c-.118.119-.155.28-.155.447 0 .202.082.402.24.523.157.121.356.162.583.162.195 0 .498-.029.933-.086a14.579 14.579 0 0 1 1.748-.085c.727 0 1.303.03 1.72.085h.003c.455.057.763.086.957.086.224 0 .416-.033.574-.138a.596.596 0 0 0 .25-.489.602.602 0 0 0-.195-.472.635.635 0 0 0-.363-.208h-.003a2.7 2.7 0 0 0-.433-.032c-.122 0-.257-.022-.406-.072l-.004-.002-.003-.002a1.518 1.518 0 0 1-.38-.162.596.596 0 0 1-.149-.188 2.604 2.604 0 0 1-.07-.414V123.677c0-.437.036-.733.072-.849.034-.08.161-.188.482-.256h.002c.154-.034.295-.05.427-.05h.014l.015-.002c.152-.019.286-.038.404-.058h.002c.13-.022.24-.05.343-.119l.02-.013.016-.016c.12-.12.151-.282.151-.447a.631.631 0 0 0-.178-.467c-.126-.118-.3-.16-.476-.16-.19 0-.484.041-.94.117-.429.072-1.05.108-1.852.108s-1.424-.036-1.853-.108a6.915 6.915 0 0 0-.815-.101l-.013-.016-.111-.001zm7.659 0a.636.636 0 0 0-.458.168.64.64 0 0 0-.167.46c0 .171.046.34.167.46.12.12.288.165.458.165h.018c.225-.016.496.017.809.103.223.081.31.17.337.249.038.114.072.409.072.833v11.776c0 .545-.006 1.014-.025 1.405-.018.361-.073.648-.154.861l-.002.006-.002.005a.71.71 0 0 1-.273.383c-.123.066-.302.111-.554.111h-.255c-.21 0-.403.044-.55.168a.667.667 0 0 0-.215.516c0 .203.107.406.278.514.172.107.38.14.63.14.272 0 .554-.019.845-.058.29-.036.61-.054.96-.054.388 0 .735.018 1.044.054.327.039.628.058.902.058.266 0 .485-.033.664-.137a.61.61 0 0 0 .299-.517c0-.185-.039-.36-.155-.492a.62.62 0 0 0-.47-.192c-.108 0-.21.01-.308.035l.054-.008h-.253c-.255 0-.443-.038-.57-.092a.701.701 0 0 1-.285-.331 3.112 3.112 0 0 1-.128-.774 25.776 25.776 0 0 1-.029-1.318v-10.754l9.027 14.753v.002c.102.164.205.294.321.393a.635.635 0 0 0 .408.169c.211 0 .381-.16.478-.346.115-.17.176-.373.176-.593v-14.125c0-1.03.06-1.776.164-2.211.047-.199.125-.323.228-.403.102-.081.242-.128.449-.128h.282c.203 0 .339.011.496-.094l.005-.004.006-.005c.156-.117.203-.308.203-.496a.621.621 0 0 0-.255-.509c-.162-.111-.362-.146-.595-.146-.215 0-.465.019-.747.056a14.9 14.9 0 0 1-1.003.029c-.41 0-.77-.01-1.085-.029a7.148 7.148 0 0 0-.86-.056c-.267 0-.484.034-.663.137-.18.104-.3.31-.3.518 0 .176.087.352.226.463.14.113.32.164.51.164.384 0 .674.031.844.078l.011.002.011.001c.175.03.258.089.318.197l.007.014.01.013c.072.097.135.28.152.555v.015c.036.286.054.684.054 1.188v.519l.002.011c.018.216.027.522.027.914v7.5l-7.307-11.902-.004-.006a.75.75 0 0 0-.295-.269.55.55 0 0 0-.373-.111l-3.612-.001zm64.359 3.478a.516.516 0 0 0-.453.296l-.004.007-.003.011c-.028.084-.073.208-.131.37l-.002.005-3.511 11.437v.002c-.117.395-.228.732-.329 1.006a1.08 1.08 0 0 1-.381.512l-.001.002-.004.002a.512.512 0 0 1-.244.11c-.132.015-.251.028-.358.043a.945.945 0 0 0-.349.114.41.41 0 0 0-.194.178.544.544 0 0 0-.05.247c0 .149.069.313.194.404.125.091.273.116.433.116.175 0 .383-.015.625-.045h.006l.007-.002c.234-.042.506-.063.82-.063.463 0 .851.022 1.16.064a5.8 5.8 0 0 0 .76.067.692.692 0 0 0 .415-.108.487.487 0 0 0 .191-.388.604.604 0 0 0-.365-.546 3.293 3.293 0 0 0-.715-.169h-.002c-.184-.027-.292-.075-.325-.103-.002-.001-.051-.077-.051-.267 0-.202.105-.782.324-1.646v-.002l.53-1.972c0-.003-.003-.001-.007.002l.005-.004.006-.006c.037-.027.049-.019.016-.019h2.738c.068 0 .102.013.111.018l.863 2.832c.129.461.187.791.187.93 0 .163-.031.201-.067.224-.027.017-.257.077-.609.077-.178 0-.342.033-.474.139a.572.572 0 0 0-.196.445c0 .143.069.301.19.388a.68.68 0 0 0 .414.11c.163 0 .424-.015.794-.045l.003-.002h.004a13.31 13.31 0 0 1 1.473-.065c.434 0 .793.023 1.071.065h.002c.315.045.572.069.782.069.18 0 .339-.025.476-.116a.525.525 0 0 0 .217-.425.448.448 0 0 0-.147-.332.55.55 0 0 0-.306-.117c-.111-.02-.269-.092-.458-.227l-.005-.004-.004-.002a1.413 1.413 0 0 1-.555-.649 13.146 13.146 0 0 1-.433-1.219v-.001l-3.335-10.549a8.713 8.713 0 0 1-.216-.732.634.634 0 0 0-.177-.333c-.034-.032-.085-.027-.126-.047v-.087h-.23zm10.133 0c-.627 0-1.2.101-1.716.305a3.588 3.588 0 0 0-1.293.826 3.874 3.874 0 0 0-.845 1.296l-.002.002v.003a4.703 4.703 0 0 0-.282 1.654c0 .669.084 1.233.259 1.698v.004l.002.003c.186.45.427.843.726 1.174l.004.002.001.002c.309.325.664.612 1.062.858l.002.002h.002c.398.237.818.481 1.261.733l.002.002c.82.462 1.418.954 1.804 1.466l.002.004.003.002c.397.494.59 1.04.59 1.671 0 .357-.061.681-.182.977l-.002.004-.001.003c-.109.299-.26.55-.459.763l-.003.004-.002.005a1.925 1.925 0 0 1-.672.494 2 2 0 0 1-.834.18c-.502 0-.973-.18-1.441-.566l-.002-.003c-.445-.38-.775-.917-.986-1.636v-.001a4.814 4.814 0 0 1-.126-.568 7.855 7.855 0 0 0-.086-.476l-.002-.006a.996.996 0 0 0-.115-.411.499.499 0 0 0-.422-.256.532.532 0 0 0-.454.303c-.082.169-.106.367-.106.615v.218l.003.018c.011.065.018.183.018.339 0 .202-.004.419-.02.651-.015.241-.023.489-.023.744 0 .708.367 1.29 1.026 1.644h.002l.002.002c.648.333 1.471.491 2.466.491.647 0 1.248-.127 1.794-.377h.003a4.043 4.043 0 0 0 1.42-.983c.402-.42.713-.919.928-1.491a4.973 4.973 0 0 0 .347-1.876c0-.641-.083-1.215-.255-1.717a3.97 3.97 0 0 0-.771-1.334 5.465 5.465 0 0 0-1.194-1.085c-.465-.316-.994-.63-1.589-.943v-.002c-.692-.362-1.195-.72-1.505-1.058-.282-.323-.426-.737-.426-1.284 0-.669.168-1.155.49-1.503.338-.365.786-.548 1.4-.548.469 0 .788.131 1.02.389.253.28.503.709.732 1.284v.003c.159.377.258.667.296.846l.002.011.004.01a.671.671 0 0 0 .197.323.55.55 0 0 0 .354.126.503.503 0 0 0 .412-.225c.083-.136.104-.292.104-.471 0-.734-.013-1.303-.043-1.716a4.888 4.888 0 0 0-.059-.506c-.025-.133-.037-.225-.123-.334-.182-.235-.49-.353-.988-.519h-.002c-.5-.172-1.071-.256-1.708-.256l-.001-.003zm-22.501.134l.01.025c-1.476.015-2.721.086-3.566.267-.459.09-.812.195-1.071.331-.13.069-.236.145-.32.244a.571.571 0 0 0-.14.36c0 .14.023.272.108.386a.47.47 0 0 0 .366.177c.167 0 .332-.038.491-.108l.011-.004.009-.006a.659.659 0 0 1 .329-.083c.143 0 .153.02.169.051.032.065.064.213.064.429v10.302c0 .23-.007.422-.021.575l-.002.01v.011a.743.743 0 0 1-.045.278.288.288 0 0 1-.124.121l-.007.003-.008.006c-.05.034-.164.082-.327.123h-.003l-.006.001a.857.857 0 0 1-.246.036c-.113 0-.219.008-.323.026h-.008a.73.73 0 0 0-.291.131l-.014.01-.011.01a.525.525 0 0 0-.135.386c0 .169.071.345.207.449.136.104.303.137.487.137.292 0 .597-.023.916-.068l.006-.002h.007c.294-.056.602-.085.927-.085.368 0 .786.034 1.247.106v.002c.499.076 1.041.112 1.624.112 1.126 0 2.126-.166 2.997-.503h.004a6.367 6.367 0 0 0 2.242-1.471c.613-.631 1.072-1.4 1.376-2.299.319-.899.476-1.901.476-3.002 0-1.085-.164-2.086-.497-2.999-.319-.928-.784-1.726-1.396-2.386a6.336 6.336 0 0 0-2.243-1.539h-.001c-.87-.368-1.844-.55-2.915-.55h-.353zm.377 1.148c.64 0 1.215.151 1.739.456h.002l.002.002c.527.292.978.708 1.358 1.258.38.552.68 1.214.895 1.991v.002c.214.759.321 1.593.321 2.506 0 .987-.107 1.869-.321 2.643-.215.775-.522 1.426-.915 1.961v.002a4.094 4.094 0 0 1-1.376 1.215h-.002l-.002.002c-.539.277-1.139.416-1.813.416-.623 0-.96-.148-1.104-.362-.15-.258-.254-.768-.254-1.513v-9.548c0-.206.014-.371.038-.495a.55.55 0 0 1 .171-.283c.076-.067.206-.129.4-.168l.008-.002.007-.002c.189-.05.475-.081.846-.081zm-19.343.431l1.473 4.761c.03.127.042.22.043.2-.006.003-.018.01-.021.01h-2.789v-.024c0-.029.008-.079.024-.142l1.27-4.805zm30.655 2.98l1.101 3.559.022.101h-2.084c.001-.019.001-.037.009-.065v-.002l.952-3.593zm-29.137 1.989l.002.007c0-.025.013-.024-.018.007l.016-.014zm30.306 1.664c-.018.012-.013.007-.003.007h-.004l.007-.007zm-85.444 13.09c.365 0 .705.108 1.038.337l.002.002.004.002c.356.232.663.559.923.993l.004.006.003.005c.279.409.5.925.654 1.547l.002.006.002.004c.176.595.264 1.274.264 2.037 0 1.415-.29 2.512-.85 3.312-.567.786-1.177 1.143-1.874 1.143-.39 0-.755-.102-1.108-.309-.304-.211-.448-.496-.448-.943v-6.685c0-.573.1-.956.232-1.139l.002-.004.004-.003c.107-.162.466-.31 1.146-.31v-.001zm15.796 1.906a7.073 7.073 0 0 0-3.207.761 7.92 7.92 0 0 0-2.582 2.037c-.734.852-1.32 1.868-1.76 3.041l-.002.002v.002c-.424 1.178-.635 2.451-.635 3.815 0 1.363.211 2.635.635 3.813v.002l.001.002c.441 1.172 1.028 2.199 1.761 3.07a8.268 8.268 0 0 0 2.58 2.064h.002l.002.002c.99.487 2.042.732 3.148.732a7.121 7.121 0 0 0 3.178-.732l.002-.002a8.171 8.171 0 0 0 2.609-2.062c.753-.873 1.34-1.901 1.762-3.076.423-1.178.634-2.449.634-3.813 0-1.365-.22-2.64-.663-3.819-.421-1.171-.998-2.189-1.732-3.041l-.001-.002a7.928 7.928 0 0 0-2.58-2.035 6.831 6.831 0 0 0-3.152-.761zm28.235 0c-.795 0-1.52.127-2.171.384a4.535 4.535 0 0 0-1.631 1.042 4.874 4.874 0 0 0-1.065 1.633l-.002.002v.004a5.929 5.929 0 0 0-.354 2.091c0 .849.104 1.564.325 2.147v.004l.002.004a5.11 5.11 0 0 0 .916 1.482l.004.001.002.002c.39.412.837.774 1.342 1.086l.002.001h.002c.509.303 1.046.615 1.611.936l.002.002c1.053.593 1.826 1.227 2.327 1.891l.002.004.003.002c.516.642.766 1.356.766 2.176 0 .464-.079.887-.236 1.273l-.002.003-.001.004a2.866 2.866 0 0 1-.601.997l-.003.004-.002.005c-.241.277-.532.49-.88.647a2.617 2.617 0 0 1-1.091.237c-.657 0-1.277-.239-1.883-.74l-.002-.003c-.58-.495-1.009-1.195-1.281-2.122v-.002a5.922 5.922 0 0 1-.161-.732 10.017 10.017 0 0 0-.112-.613l-.002-.006a1.223 1.223 0 0 0-.138-.501.564.564 0 0 0-.483-.295.607.607 0 0 0-.525.349c-.097.201-.129.448-.129.759v.274l.003.018c.015.091.025.244.025.444 0 .258-.008.537-.027.835-.019.306-.03.624-.03.95 0 .885.453 1.598 1.279 2.042h.002l.002.002c.815.419 1.857.62 3.122.62.818 0 1.577-.158 2.266-.474h.004a5.089 5.089 0 0 0 1.793-1.242c.509-.531.9-1.163 1.173-1.886.293-.726.44-1.52.44-2.376 0-.813-.106-1.536-.323-2.169a5.01 5.01 0 0 0-.972-1.685 6.916 6.916 0 0 0-1.515-1.374 21.101 21.101 0 0 0-2.025-1.203v-.002c-.888-.464-1.534-.925-1.938-1.366-.372-.426-.563-.971-.563-1.682 0-.866.221-1.508.645-1.967.444-.48 1.036-.719 1.835-.719.612 0 1.04.174 1.351.519.33.366.652.92.947 1.658v.002l.002.002c.204.484.33.855.381 1.091l.001.011.004.01a.809.809 0 0 0 .23.383.628.628 0 0 0 .411.147c.185 0 .374-.1.471-.257.097-.158.126-.346.126-.568 0-.937-.018-1.665-.056-2.189a6.27 6.27 0 0 0-.073-.64c-.031-.165-.05-.279-.144-.398-.211-.273-.602-.43-1.234-.642h-.002c-.631-.217-1.352-.325-2.162-.325v-.002zm19.449 0a.58.58 0 0 0-.521.339l-.004.007-.003.011c-.037.11-.093.268-.168.474l-.001.006-4.487 14.614v.001c-.149.506-.291.935-.42 1.288a1.454 1.454 0 0 1-.509.685l-.001.002-.002.001a.73.73 0 0 1-.345.154c-.169.019-.32.036-.455.056-.033.004-.024.008-.043.014-.085-.062-.165-.136-.268-.153a2.544 2.544 0 0 0-.431-.033 1.28 1.28 0 0 1-.406-.072l-.005-.002-.004-.002a1.468 1.468 0 0 1-.381-.162.588.588 0 0 1-.147-.187 2.517 2.517 0 0 1-.07-.415V151.007c0-.438.037-.735.073-.849.035-.082.159-.189.478-.256h.002c.155-.035.297-.051.429-.051h.015l.014-.002c.152-.019.287-.038.404-.057a.853.853 0 0 0 .344-.119l.019-.013.017-.016c.119-.121.15-.282.15-.447a.63.63 0 0 0-.177-.466.68.68 0 0 0-.475-.162c-.189 0-.486.041-.941.117-.429.072-1.051.109-1.853.109-.801 0-1.423-.037-1.852-.109-.455-.076-.75-.117-.94-.117-.177 0-.347.042-.474.161a.628.628 0 0 0-.18.467c0 .179.026.346.153.474l.027.025.032.018c.103.052.218.083.347.105l.006.001h.002c.143.021.295.031.456.031.143 0 .3.025.469.076h.002c.237.081.332.178.355.249l.006.014.007.014c.035.069.088.363.088.803v12.966c0 .297-.009.545-.027.743l-.001.01v.011c0 .162-.024.288-.063.382a.437.437 0 0 1-.187.182l-.008.004-.009.006a1.55 1.55 0 0 1-.436.164h-.004l-.004.002a1.217 1.217 0 0 1-.332.048c-.143 0-.278.012-.404.033h-.004l-.004.002a.843.843 0 0 0-.345.153l-.014.009-.011.011c-.12.12-.153.282-.153.447 0 .201.082.402.239.523.158.121.356.162.583.162.195 0 .498-.032.932-.088a14.637 14.637 0 0 1 1.748-.083c.728 0 1.305.028 1.721.083h.002c.455.057.762.088.958.088.099 0 .185-.012.266-.027.105.04.207.083.339.083.221 0 .483-.019.791-.058h.005l.01-.002a6.073 6.073 0 0 1 1.058-.083c.594 0 1.093.03 1.493.085.419.057.734.087.961.087.187 0 .355-.03.494-.128a.553.553 0 0 0 .216-.444.692.692 0 0 0-.426-.638c-.219-.088-.513-.155-.898-.213-.242-.034-.394-.098-.451-.146-.026-.021-.086-.137-.086-.389 0-.275.136-1.014.416-2.12v-.002l.676-2.521.002-.002c.007-.031.008-.026.016-.032l.005-.004.006-.005c.053-.04.079-.038.059-.038h3.498c.099 0 .16.019.182.031.022.011.015.003.02.021l.001.006 1.102 3.629c.166.593.242 1.014.242 1.206 0 .221-.046.299-.115.343-.059.037-.357.106-.812.106-.218 0-.413.042-.566.164a.661.661 0 0 0-.228.519c0 .168.079.345.218.444.138.098.305.128.492.128.204 0 .536-.02 1.008-.058l.003-.002h.004a17.212 17.212 0 0 1 1.892-.083c.557 0 1.017.029 1.376.083h.002c.402.058.73.087.992.087.223 0 .416-.033.573-.139a.596.596 0 0 0 .248-.489.5.5 0 0 0-.165-.375.664.664 0 0 0-.383-.137l.022.002c-.159-.029-.368-.123-.613-.299l-.004-.004-.005-.002a1.884 1.884 0 0 1-.732-.86 17.688 17.688 0 0 1-.555-1.563h-.002l-4.26-13.478c-.13-.392-.222-.709-.276-.943a.75.75 0 0 0-.209-.393c-.065-.061-.16-.067-.246-.092l-.041-.061h-.124zm12.949 0c-.795 0-1.52.127-2.171.384a4.526 4.526 0 0 0-1.631 1.042 4.876 4.876 0 0 0-1.066 1.633l-.001.002v.004a5.929 5.929 0 0 0-.354 2.091c0 .849.104 1.564.325 2.147v.004l.002.004a5.09 5.09 0 0 0 .916 1.482l.004.001.002.002c.39.412.837.774 1.342 1.086l.001.001h.002c.51.303 1.047.615 1.612.936l.002.002c1.053.593 1.826 1.227 2.326 1.891l.002.004.004.002c.515.642.765 1.356.765 2.176 0 .464-.078.887-.235 1.273l-.002.003-.002.004c-.14.389-.34.719-.6.997l-.003.004-.002.005c-.242.277-.532.49-.881.647a2.609 2.609 0 0 1-1.09.237c-.657 0-1.277-.239-1.883-.74l-.002-.003c-.58-.495-1.009-1.195-1.281-2.122v-.002a5.932 5.932 0 0 1-.162-.732 10.092 10.092 0 0 0-.111-.613l-.002-.006a1.239 1.239 0 0 0-.138-.501.565.565 0 0 0-.484-.295.607.607 0 0 0-.524.349c-.097.201-.13.448-.13.759v.274l.004.018c.015.091.025.244.025.444 0 .258-.008.537-.027.835-.019.306-.03.624-.03.95 0 .885.453 1.598 1.279 2.042h.002l.002.002c.815.419 1.857.62 3.122.62.818 0 1.577-.158 2.266-.474h.004a5.098 5.098 0 0 0 1.793-1.242c.509-.531.9-1.163 1.173-1.886.293-.726.44-1.52.44-2.376 0-.813-.106-1.536-.323-2.169a5.01 5.01 0 0 0-.972-1.685 6.939 6.939 0 0 0-1.515-1.374 21.101 21.101 0 0 0-2.025-1.203v-.002c-.888-.464-1.534-.925-1.938-1.366-.373-.426-.563-.971-.563-1.682 0-.866.221-1.508.645-1.967.444-.48 1.036-.719 1.835-.719.612 0 1.04.174 1.351.519.33.366.652.92.947 1.658v.002l.001.002c.205.484.331.855.381 1.091l.002.011.004.01a.8.8 0 0 0 .23.383.628.628 0 0 0 .411.147c.185 0 .374-.1.471-.257.097-.158.126-.346.126-.568 0-.937-.018-1.665-.056-2.189a5.962 5.962 0 0 0-.074-.64c-.03-.165-.049-.279-.143-.398-.211-.273-.602-.43-1.235-.642h-.001c-.631-.217-1.352-.325-2.162-.325v-.002zm-50.617.51c-.017 0-.029.014-.046.014-.171.007-.333.034-.458.137a.619.619 0 0 0-.205.476c0 .18.025.345.153.473l.026.027.033.016c.103.052.218.085.347.106.128.022.272.033.433.033.121 0 .243.022.37.07h.002l.001.002c.226.081.29.161.304.229l.004.011.003.011c.038.115.074.409.074.833v12.966c0 .536-.039.936-.104 1.184a.338.338 0 0 1-.15.209.914.914 0 0 1-.393.132h-.002l-.003.002c-.35.055-.633.081-.84.081a.566.566 0 0 0-.422.166.62.62 0 0 0-.147.432c0 .205.09.408.252.527.162.119.365.159.6.159.14 0 .403-.02.837-.058l.005-.002h.004c.434-.054 1.078-.083 1.919-.083 1.82 0 3.321.039 4.499.114 1.206.075 2.1.113 2.693.113.211 0 .366-.008.49-.032a.626.626 0 0 0 .401-.231.867.867 0 0 0 .156-.384v-.005a9.94 9.94 0 0 0 .058-.55l-.002.005.311-2.742v-.004c.017-.137.025-.248.027-.349v-.002l.03-.163v-.021a.317.317 0 0 0-.079-.209.686.686 0 0 0-.125-.116c-.076-.085-.173-.16-.308-.16-.18 0-.35.086-.48.216s-.23.304-.323.519c-.162.362-.409.806-.742 1.326a5.338 5.338 0 0 1-.645.807l-.002.002c-.203.186-.43.327-.684.429-.26.104-.559.177-.898.213h-.002a10.49 10.49 0 0 1-1.132.054c-.404 0-.728-.019-.974-.054a1.378 1.378 0 0 1-.514-.206.781.781 0 0 1-.234-.411 4.23 4.23 0 0 1-.079-.908v-5.833c0-.186.062-.276.018-.232 0 0 .08-.045.26-.045h1.24c.59 0 1.065.046 1.413.133.306.077.55.283.755.676v.002c.144.273.251.524.321.752v.002l.002.002c.073.219.128.42.163.596l.002.015.006.012c.058.178.118.328.181.455l.011.021.014.02c.11.138.284.229.462.229.17 0 .35-.086.446-.231.095-.144.122-.314.122-.51 0-.151-.019-.414-.056-.804v-.011a36.422 36.422 0 0 1-.028-1.59c0-.561.02-1.075.057-1.539l-.002.009c.057-.479.086-.902.086-1.273 0-.165-.034-.323-.14-.447a.563.563 0 0 0-.43-.18.578.578 0 0 0-.513.297l-.007.014-.006.017a4.533 4.533 0 0 0-.12.447 4.312 4.312 0 0 1-.158.533l-.002.004c-.061.15-.173.312-.342.482-.065.065-.325.197-.738.306l-.004.002c-.41.089-.899.135-1.466.135h-1.27a1.56 1.56 0 0 1-.25-.016c-.004-.032-.027-.122-.027-.319v-4.671c0-.331.01-.592.027-.787.033-.194.088-.335.151-.427a.69.69 0 0 1 .358-.205c.172-.047.449-.078.814-.078 1.487 0 2.57.35 3.286 1.015.227.21.398.432.515.669l.002.004.002.003c.127.237.224.454.295.649.076.211.144.382.203.52l.005.012.006.013a.608.608 0 0 0 .51.314c.19 0 .369-.144.444-.314.075-.17.097-.371.097-.624v-2.547c0-.322-.032-.567-.144-.765v-.002c-.079-.138-.215-.211-.361-.254a1.868 1.868 0 0 0-.516-.059c-.203 0-.75.018-1.672.056-.916.037-2.205.056-3.858.056-1.295 0-2.289-.019-2.977-.056a35.636 35.636 0 0 0-1.225-.056v-.001zm-10.187.745c.67 0 1.29.191 1.876.584l.004.002.003.001c.604.375 1.135.932 1.59 1.681.455.748.814 1.668 1.073 2.763v.004c.276 1.091.415 2.336.415 3.736 0 1.305-.13 2.457-.386 3.452v.004c-.24.999-.58 1.843-1.015 2.535-.436.672-.938 1.181-1.506 1.537l-.002.002a3.445 3.445 0 0 1-1.797.505 3.545 3.545 0 0 1-1.91-.561c-.585-.393-1.106-.959-1.56-1.707-.455-.747-.814-1.669-1.073-2.764v-.002c-.259-1.111-.39-2.365-.39-3.766 0-1.306.122-2.459.36-3.456.26-1 .6-1.835 1.016-2.508.435-.672.937-1.171 1.504-1.509l.002-.001h.001a3.304 3.304 0 0 1 1.795-.532zm46.982 4.442l1.473 4.765c.03.126.04.219.041.202-.005.002-.016.007-.019.007h-2.789v-.023c0-.034.007-.082.022-.143l1.272-4.808zm1.516 4.974l.002.005c0-.02.013-.022-.016.008l.014-.013zm-7.514 7.011l.047.045c-.004-.005-.013-.005-.018-.011-.011-.013-.007-.018-.028-.034h-.001zm.049.06l.007.002c.03.032.028.044.022.032-.002-.005-.023-.024-.029-.034z" fill="#000"/></svg>